<svg width="270" height="30" viewBox="0 0 270 30" fill="none" xmlns="http://www.w3.org/2000/svg">
<path d="M18.7793 20.3047C17.9883 21.252 16.8701 21.9893 15.4248 22.5166C13.9795 23.0342 12.3779 23.293 10.6201 23.293C8.77441 23.293 7.15332 22.8926 5.75684 22.0918C4.37012 21.2812 3.2959 20.1094 2.53418 18.5762C1.78223 17.043 1.39648 15.2412 1.37695 13.1709V11.7207C1.37695 9.5918 1.7334 7.75098 2.44629 6.19824C3.16895 4.63574 4.2041 3.44434 5.55176 2.62402C6.90918 1.79395 8.49609 1.37891 10.3125 1.37891C12.8418 1.37891 14.8193 1.98437 16.2451 3.19531C17.6709 4.39648 18.5156 6.14941 18.7793 8.4541H14.502C14.3066 7.2334 13.8721 6.33984 13.1982 5.77344C12.5342 5.20703 11.6162 4.92383 10.4443 4.92383C8.9502 4.92383 7.8125 5.48535 7.03125 6.6084C6.25 7.73145 5.85449 9.40137 5.84473 11.6182V12.9805C5.84473 15.2168 6.26953 16.9062 7.11914 18.0488C7.96875 19.1914 9.21387 19.7627 10.8545 19.7627C12.5049 19.7627 13.6816 19.4111 14.3848 18.708V15.0312H10.3857V11.7939H18.7793V20.3047ZM39.873 12.8193C39.873 14.9189 39.502 16.7598 38.7598 18.3418C38.0176 19.9238 36.9531 21.1445 35.5664 22.0039C34.1895 22.8633 32.6074 23.293 30.8203 23.293C29.0527 23.293 27.4756 22.8682 26.0889 22.0186C24.7021 21.1689 23.6279 19.958 22.8662 18.3857C22.1045 16.8037 21.7188 14.9873 21.709 12.9365V11.8818C21.709 9.78223 22.085 7.93652 22.8369 6.34473C23.5986 4.74316 24.668 3.51758 26.0449 2.66797C27.4316 1.80859 29.0137 1.37891 30.791 1.37891C32.5684 1.37891 34.1455 1.80859 35.5225 2.66797C36.9092 3.51758 37.9785 4.74316 38.7305 6.34473C39.4922 7.93652 39.873 9.77734 39.873 11.8672V12.8193ZM35.4199 11.8525C35.4199 9.61621 35.0195 7.91699 34.2188 6.75488C33.418 5.59277 32.2754 5.01172 30.791 5.01172C29.3164 5.01172 28.1787 5.58789 27.3779 6.74023C26.5771 7.88281 26.1719 9.5625 26.1621 11.7793V12.8193C26.1621 14.9971 26.5625 16.6865 27.3633 17.8877C28.1641 19.0889 29.3164 19.6895 30.8203 19.6895C32.2949 19.6895 33.4277 19.1133 34.2188 17.9609C35.0098 16.7988 35.4102 15.1094 35.4199 12.8926V11.8525ZM55.3271 3.25391V7.15039H58.0371V10.2559H55.3271V18.166C55.3271 18.752 55.4395 19.1719 55.6641 19.4258C55.8887 19.6797 56.3184 19.8066 56.9531 19.8066C57.4219 19.8066 57.8369 19.7725 58.1982 19.7041V22.9121C57.3682 23.166 56.5137 23.293 55.6348 23.293C52.666 23.293 51.1523 21.7939 51.0938 18.7959V10.2559H48.7793V7.15039H51.0938V3.25391H55.3271ZM59.2969 14.9287C59.2969 13.3564 59.5996 11.9551 60.2051 10.7246C60.8105 9.49414 61.6797 8.54199 62.8125 7.86816C63.9551 7.19434 65.2783 6.85742 66.7822 6.85742C68.9209 6.85742 70.6641 7.51172 72.0117 8.82031C73.3691 10.1289 74.126 11.9062 74.2822 14.1523L74.3115 15.2363C74.3115 17.668 73.6328 19.6211 72.2754 21.0957C70.918 22.5605 69.0967 23.293 66.8115 23.293C64.5264 23.293 62.7002 22.5605 61.333 21.0957C59.9756 19.6309 59.2969 17.6387 59.2969 15.1191V14.9287ZM63.5303 15.2363C63.5303 16.7402 63.8135 17.8926 64.3799 18.6934C64.9463 19.4844 65.7568 19.8799 66.8115 19.8799C67.8369 19.8799 68.6377 19.4893 69.2139 18.708C69.79 17.917 70.0781 16.6572 70.0781 14.9287C70.0781 13.4541 69.79 12.3115 69.2139 11.501C68.6377 10.6904 67.8271 10.2852 66.7822 10.2852C65.7471 10.2852 64.9463 10.6904 64.3799 11.501C63.8135 12.3018 63.5303 13.5469 63.5303 15.2363ZM102.188 12.8193C102.188 14.9189 101.816 16.7598 101.074 18.3418C100.332 19.9238 99.2676 21.1445 97.8809 22.0039C96.5039 22.8633 94.9219 23.293 93.1348 23.293C91.3672 23.293 89.79 22.8682 88.4033 22.0186C87.0166 21.1689 85.9424 19.958 85.1807 18.3857C84.4189 16.8037 84.0332 14.9873 84.0234 12.9365V11.8818C84.0234 9.78223 84.3994 7.93652 85.1514 6.34473C85.9131 4.74316 86.9824 3.51758 88.3594 2.66797C89.7461 1.80859 91.3281 1.37891 93.1055 1.37891C94.8828 1.37891 96.46 1.80859 97.8369 2.66797C99.2236 3.51758 100.293 4.74316 101.045 6.34473C101.807 7.93652 102.188 9.77734 102.188 11.8672V12.8193ZM97.7344 11.8525C97.7344 9.61621 97.334 7.91699 96.5332 6.75488C95.7324 5.59277 94.5898 5.01172 93.1055 5.01172C91.6309 5.01172 90.4932 5.58789 89.6924 6.74023C88.8916 7.88281 88.4863 9.5625 88.4766 11.7793V12.8193C88.4766 14.9971 88.877 16.6865 89.6777 17.8877C90.4785 19.0889 91.6309 19.6895 93.1348 19.6895C94.6094 19.6895 95.7422 19.1133 96.5332 17.9609C97.3242 16.7988 97.7246 15.1094 97.7344 12.8926V11.8525ZM114.595 21.3887C113.55 22.6582 112.104 23.293 110.259 23.293C108.56 23.293 107.261 22.8047 106.362 21.8281C105.474 20.8516 105.02 19.4209 105 17.5361V7.15039H109.233V17.3896C109.233 19.04 109.985 19.8652 111.489 19.8652C112.925 19.8652 113.911 19.3672 114.448 18.3711V7.15039H118.696V23H114.712L114.595 21.3887ZM130.796 11.1201C130.22 11.042 129.712 11.0029 129.272 11.0029C127.671 11.0029 126.621 11.5449 126.123 12.6289V23H121.89V7.15039H125.889L126.006 9.04004C126.855 7.58496 128.032 6.85742 129.536 6.85742C130.005 6.85742 130.444 6.9209 130.854 7.04785L130.796 11.1201ZM144.99 15.4854V23H140.596V1.67188H148.916C150.518 1.67188 151.924 1.96484 153.135 2.55078C154.355 3.13672 155.293 3.97168 155.947 5.05566C156.602 6.12988 156.929 7.35547 156.929 8.73242C156.929 10.8223 156.211 12.4727 154.775 13.6836C153.35 14.8848 151.372 15.4854 148.843 15.4854H144.99ZM144.99 11.9258H148.916C150.078 11.9258 150.962 11.6523 151.567 11.1055C152.183 10.5586 152.49 9.77734 152.49 8.76172C152.49 7.7168 152.183 6.87207 151.567 6.22754C150.952 5.58301 150.103 5.25098 149.019 5.23145H144.99V11.9258ZM168.589 11.1201C168.013 11.042 167.505 11.0029 167.065 11.0029C165.464 11.0029 164.414 11.5449 163.916 12.6289V23H159.683V7.15039H163.682L163.799 9.04004C164.648 7.58496 165.825 6.85742 167.329 6.85742C167.798 6.85742 168.237 6.9209 168.647 7.04785L168.589 11.1201ZM169.453 14.9287C169.453 13.3564 169.756 11.9551 170.361 10.7246C170.967 9.49414 171.836 8.54199 172.969 7.86816C174.111 7.19434 175.435 6.85742 176.938 6.85742C179.077 6.85742 180.82 7.51172 182.168 8.82031C183.525 10.1289 184.282 11.9062 184.438 14.1523L184.468 15.2363C184.468 17.668 183.789 19.6211 182.432 21.0957C181.074 22.5605 179.253 23.293 176.968 23.293C174.683 23.293 172.856 22.5605 171.489 21.0957C170.132 19.6309 169.453 17.6387 169.453 15.1191V14.9287ZM173.687 15.2363C173.687 16.7402 173.97 17.8926 174.536 18.6934C175.103 19.4844 175.913 19.8799 176.968 19.8799C177.993 19.8799 178.794 19.4893 179.37 18.708C179.946 17.917 180.234 16.6572 180.234 14.9287C180.234 13.4541 179.946 12.3115 179.37 11.501C178.794 10.6904 177.983 10.2852 176.938 10.2852C175.903 10.2852 175.103 10.6904 174.536 11.501C173.97 12.3018 173.687 13.5469 173.687 15.2363ZM191.558 7.15039V23.8643C191.558 25.6123 191.094 26.9697 190.166 27.9365C189.238 28.9131 187.9 29.4014 186.152 29.4014C185.42 29.4014 184.722 29.3184 184.058 29.1523V25.7979C184.565 25.8857 185.01 25.9297 185.391 25.9297C186.67 25.9297 187.31 25.251 187.31 23.8936V7.15039H191.558ZM186.973 3.04883C186.973 2.41406 187.183 1.8916 187.603 1.48145C188.032 1.07129 188.613 0.866211 189.346 0.866211C190.078 0.866211 190.654 1.07129 191.074 1.48145C191.504 1.8916 191.719 2.41406 191.719 3.04883C191.719 3.69336 191.499 4.2207 191.06 4.63086C190.63 5.04102 190.059 5.24609 189.346 5.24609C188.633 5.24609 188.057 5.04102 187.617 4.63086C187.188 4.2207 186.973 3.69336 186.973 3.04883ZM202.163 23.293C199.839 23.293 197.944 22.5801 196.479 21.1543C195.024 19.7285 194.297 17.8291 194.297 15.4561V15.0459C194.297 13.4541 194.604 12.0332 195.22 10.7832C195.835 9.52344 196.704 8.55664 197.827 7.88281C198.96 7.19922 200.249 6.85742 201.694 6.85742C203.862 6.85742 205.566 7.54102 206.807 8.9082C208.057 10.2754 208.682 12.2139 208.682 14.7236V16.4521H198.589C198.726 17.4873 199.136 18.3174 199.819 18.9424C200.513 19.5674 201.387 19.8799 202.441 19.8799C204.072 19.8799 205.347 19.2891 206.265 18.1074L208.345 20.4365C207.71 21.335 206.851 22.0381 205.767 22.5459C204.683 23.0439 203.481 23.293 202.163 23.293ZM201.68 10.2852C200.84 10.2852 200.156 10.5684 199.629 11.1348C199.111 11.7012 198.779 12.5117 198.633 13.5664H204.521V13.2295C204.502 12.292 204.248 11.5693 203.76 11.0615C203.271 10.5439 202.578 10.2852 201.68 10.2852ZM217.69 19.8799C218.472 19.8799 219.106 19.665 219.595 19.2354C220.083 18.8057 220.337 18.2344 220.356 17.5215H224.326C224.316 18.5957 224.023 19.582 223.447 20.4805C222.871 21.3691 222.08 22.0625 221.074 22.5605C220.078 23.0488 218.975 23.293 217.764 23.293C215.498 23.293 213.711 22.5752 212.402 21.1396C211.094 19.6943 210.439 17.7021 210.439 15.1631V14.8848C210.439 12.4434 211.089 10.4951 212.388 9.04004C213.687 7.58496 215.469 6.85742 217.734 6.85742C219.717 6.85742 221.304 7.42383 222.495 8.55664C223.696 9.67969 224.307 11.1787 224.326 13.0537H220.356C220.337 12.2334 220.083 11.5693 219.595 11.0615C219.106 10.5439 218.462 10.2852 217.661 10.2852C216.675 10.2852 215.928 10.6465 215.42 11.3691C214.922 12.082 214.673 13.2441 214.673 14.8555V15.2949C214.673 16.9258 214.922 18.0977 215.42 18.8105C215.918 19.5234 216.675 19.8799 217.69 19.8799ZM231.812 3.25391V7.15039H234.521V10.2559H231.812V18.166C231.812 18.752 231.924 19.1719 232.148 19.4258C232.373 19.6797 232.803 19.8066 233.438 19.8066C233.906 19.8066 234.321 19.7725 234.683 19.7041V22.9121C233.853 23.166 232.998 23.293 232.119 23.293C229.15 23.293 227.637 21.7939 227.578 18.7959V10.2559H225.264V7.15039H227.578V3.25391H231.812ZM252.583 15.5732H244.336V12.1602H252.583V15.5732ZM264.624 13.9033L256.113 10.9297V6.85742L268.872 12.2041V15.6465L256.113 21.0078V16.9209L264.624 13.9033Z" fill="black"/>
<path d="M0 25.9297H269.854V27.3945H0V25.9297Z" fill="black"/>
</svg>
