<svg width="1440" height="562" viewBox="0 0 1440 562" fill="none" xmlns="http://www.w3.org/2000/svg">
<path d="M0 0H1440V455.123C1260.53 482.18 1221.93 386.438 997.373 416.965C901.411 430.009 624.564 464.836 488.599 378.113C352.633 291.389 164.913 454.429 0 437.778V0Z" fill="url(#paint0_linear)"/>
<path d="M381 321.655L387.827 318.827L390.655 312L392.947 318.827L400.31 321.655L392.947 323.947L390.655 331.31L387.827 323.947L381 321.655Z" fill="white"/>
<circle cx="391.24" cy="320.534" r="1.70678" fill="#100BFF"/>
<path d="M667 324.655L673.827 321.827L676.655 315L678.947 321.827L686.31 324.655L678.947 326.947L676.655 334.31L673.827 326.947L667 324.655Z" fill="white"/>
<circle cx="677.24" cy="323.534" r="1.70678" fill="#100BFF"/>
<path d="M981 381.655L987.827 378.827L990.655 372L992.947 378.827L1000.31 381.655L992.947 383.947L990.655 391.31L987.827 383.947L981 381.655Z" fill="white"/>
<circle cx="991.24" cy="380.534" r="1.70678" fill="#100BFF"/>
<path d="M1290 356.655L1296.83 353.827L1299.66 347L1301.95 353.827L1309.31 356.655L1301.95 358.947L1299.66 366.31L1296.83 358.947L1290 356.655Z" fill="white"/>
<circle cx="1300.24" cy="355.534" r="1.70678" fill="#100BFF"/>
<path d="M26 380.655L32.8271 377.827L35.655 371L37.9475 377.827L45.31 380.655L37.9475 382.947L35.655 390.31L32.8271 382.947L26 380.655Z" fill="white"/>
<circle cx="36.2403" cy="379.534" r="1.70678" fill="#100BFF"/>
<path d="M26 299.155L38.1304 294.13L43.155 282L47.2282 294.13L60.31 299.155L47.2282 303.228L43.155 316.31L38.1304 303.228L26 299.155Z" fill="white"/>
<circle cx="44.1946" cy="297.163" r="3.03261" fill="#100BFF"/>
<path d="M171 348.155L183.13 343.13L188.155 331L192.228 343.13L205.31 348.155L192.228 352.228L188.155 365.31L183.13 352.228L171 348.155Z" fill="white"/>
<circle cx="189.195" cy="346.163" r="3.03261" fill="#100BFF"/>
<path d="M745 407.155L757.13 402.13L762.155 390L766.228 402.13L779.31 407.155L766.228 411.228L762.155 424.31L757.13 411.228L745 407.155Z" fill="white"/>
<circle cx="763.195" cy="405.163" r="3.03261" fill="#100BFF"/>
<path d="M1105 327.155L1117.13 322.13L1122.16 310L1126.23 322.13L1139.31 327.155L1126.23 331.228L1122.16 344.31L1117.13 331.228L1105 327.155Z" fill="white"/>
<circle cx="1123.19" cy="325.163" r="3.03261" fill="#100BFF"/>
<path d="M470.072 83.632H447.672L443.256 94H434.68L454.84 49.2H463.032L483.256 94H474.552L470.072 83.632ZM467.32 77.104L458.872 57.52L450.488 77.104H467.32ZM507.13 59.44C510.458 59.44 513.423 60.1653 516.026 61.616C518.671 63.0667 520.74 65.1147 522.234 67.76C523.727 70.4053 524.474 73.456 524.474 76.912C524.474 80.368 523.727 83.44 522.234 86.128C520.74 88.7733 518.671 90.8213 516.026 92.272C513.423 93.7227 510.458 94.448 507.13 94.448C504.783 94.448 502.628 94.0427 500.666 93.232C498.746 92.4213 497.124 91.2053 495.802 89.584V94H488.186V46.512H496.186V63.984C497.551 62.4907 499.151 61.36 500.986 60.592C502.863 59.824 504.911 59.44 507.13 59.44ZM506.234 87.6C509.178 87.6 511.588 86.6187 513.466 84.656C515.386 82.6933 516.346 80.112 516.346 76.912C516.346 73.712 515.386 71.1307 513.466 69.168C511.588 67.2053 509.178 66.224 506.234 66.224C504.314 66.224 502.586 66.672 501.05 67.568C499.514 68.4213 498.298 69.6587 497.402 71.28C496.506 72.9013 496.058 74.7787 496.058 76.912C496.058 79.0453 496.506 80.9227 497.402 82.544C498.298 84.1653 499.514 85.424 501.05 86.32C502.586 87.1733 504.314 87.6 506.234 87.6ZM547.421 94.448C543.965 94.448 540.85 93.7013 538.077 92.208C535.303 90.7147 533.127 88.6453 531.549 86C530.013 83.312 529.245 80.2827 529.245 76.912C529.245 73.5413 530.013 70.5333 531.549 67.888C533.127 65.2427 535.303 63.1733 538.077 61.68C540.85 60.1867 543.965 59.44 547.421 59.44C550.919 59.44 554.055 60.1867 556.829 61.68C559.602 63.1733 561.757 65.2427 563.293 67.888C564.871 70.5333 565.661 73.5413 565.661 76.912C565.661 80.2827 564.871 83.312 563.293 86C561.757 88.6453 559.602 90.7147 556.829 92.208C554.055 93.7013 550.919 94.448 547.421 94.448ZM547.421 87.6C550.365 87.6 552.797 86.6187 554.717 84.656C556.637 82.6933 557.597 80.112 557.597 76.912C557.597 73.712 556.637 71.1307 554.717 69.168C552.797 67.2053 550.365 66.224 547.421 66.224C544.477 66.224 542.045 67.2053 540.125 69.168C538.247 71.1307 537.309 73.712 537.309 76.912C537.309 80.112 538.247 82.6933 540.125 84.656C542.045 86.6187 544.477 87.6 547.421 87.6ZM606.399 59.824V94H598.783V89.648C597.503 91.184 595.903 92.3787 593.983 93.232C592.063 94.0427 589.993 94.448 587.775 94.448C583.209 94.448 579.604 93.1893 576.959 90.672C574.356 88.112 573.055 84.336 573.055 79.344V59.824H581.055V78.256C581.055 81.328 581.737 83.632 583.103 85.168C584.511 86.6613 586.495 87.408 589.055 87.408C591.913 87.408 594.175 86.5333 595.839 84.784C597.545 82.992 598.399 80.432 598.399 77.104V59.824H606.399ZM637.417 92.144C636.478 92.912 635.326 93.488 633.961 93.872C632.638 94.256 631.23 94.448 629.737 94.448C625.982 94.448 623.081 93.4667 621.033 91.504C618.985 89.5413 617.961 86.6827 617.961 82.928V66.48H612.329V60.08H617.961V52.272H625.961V60.08H635.113V66.48H625.961V82.736C625.961 84.4 626.366 85.68 627.177 86.576C627.988 87.4293 629.161 87.856 630.697 87.856C632.489 87.856 633.982 87.3867 635.177 86.448L637.417 92.144ZM702.262 49.2V94H695.414L670.71 63.664V94H662.454V49.2H669.302L694.006 79.536V49.2H702.262ZM728.858 94.448C725.402 94.448 722.287 93.7013 719.514 92.208C716.741 90.7147 714.565 88.6453 712.986 86C711.45 83.312 710.682 80.2827 710.682 76.912C710.682 73.5413 711.45 70.5333 712.986 67.888C714.565 65.2427 716.741 63.1733 719.514 61.68C722.287 60.1867 725.402 59.44 728.858 59.44C732.357 59.44 735.493 60.1867 738.266 61.68C741.039 63.1733 743.194 65.2427 744.73 67.888C746.309 70.5333 747.098 73.5413 747.098 76.912C747.098 80.2827 746.309 83.312 744.73 86C743.194 88.6453 741.039 90.7147 738.266 92.208C735.493 93.7013 732.357 94.448 728.858 94.448ZM728.858 87.6C731.802 87.6 734.234 86.6187 736.154 84.656C738.074 82.6933 739.034 80.112 739.034 76.912C739.034 73.712 738.074 71.1307 736.154 69.168C734.234 67.2053 731.802 66.224 728.858 66.224C725.914 66.224 723.482 67.2053 721.562 69.168C719.685 71.1307 718.746 73.712 718.746 76.912C718.746 80.112 719.685 82.6933 721.562 84.656C723.482 86.6187 725.914 87.6 728.858 87.6ZM775.292 92.144C774.353 92.912 773.201 93.488 771.836 93.872C770.513 94.256 769.105 94.448 767.612 94.448C763.857 94.448 760.956 93.4667 758.908 91.504C756.86 89.5413 755.836 86.6827 755.836 82.928V66.48H750.204V60.08H755.836V52.272H763.836V60.08H772.988V66.48H763.836V82.736C763.836 84.4 764.241 85.68 765.052 86.576C765.863 87.4293 767.036 87.856 768.572 87.856C770.364 87.856 771.857 87.3867 773.052 86.448L775.292 92.144ZM812.876 77.104C812.876 77.6587 812.833 78.448 812.748 79.472H785.932C786.401 81.9893 787.617 83.9947 789.58 85.488C791.585 86.9387 794.06 87.664 797.004 87.664C800.759 87.664 803.852 86.4267 806.284 83.952L810.572 88.88C809.036 90.7147 807.095 92.1013 804.748 93.04C802.401 93.9787 799.756 94.448 796.812 94.448C793.057 94.448 789.751 93.7013 786.892 92.208C784.033 90.7147 781.815 88.6453 780.236 86C778.7 83.312 777.932 80.2827 777.932 76.912C777.932 73.584 778.679 70.5973 780.172 67.952C781.708 65.264 783.82 63.1733 786.508 61.68C789.196 60.1867 792.225 59.44 795.596 59.44C798.924 59.44 801.889 60.1867 804.492 61.68C807.137 63.1307 809.185 65.2 810.636 67.888C812.129 70.5333 812.876 73.6053 812.876 77.104ZM795.596 65.84C793.036 65.84 790.86 66.608 789.068 68.144C787.319 69.6373 786.252 71.6427 785.868 74.16H805.26C804.919 71.6853 803.873 69.68 802.124 68.144C800.375 66.608 798.199 65.84 795.596 65.84ZM835.217 94.64C831.761 94.64 828.411 94.1493 825.169 93.168C821.969 92.1867 819.43 90.8853 817.553 89.264L820.433 82.8C822.267 84.2507 824.507 85.4453 827.153 86.384C829.841 87.28 832.529 87.728 835.217 87.728C838.545 87.728 841.019 87.1947 842.641 86.128C844.305 85.0613 845.137 83.6533 845.137 81.904C845.137 80.624 844.667 79.5787 843.729 78.768C842.833 77.9147 841.681 77.2533 840.273 76.784C838.865 76.3147 836.945 75.7813 834.513 75.184C831.099 74.3733 828.326 73.5627 826.193 72.752C824.102 71.9413 822.289 70.6827 820.753 68.976C819.259 67.2267 818.513 64.88 818.513 61.936C818.513 59.4613 819.174 57.2213 820.497 55.216C821.862 53.168 823.889 51.5467 826.577 50.352C829.307 49.1573 832.635 48.56 836.561 48.56C839.291 48.56 841.979 48.9013 844.625 49.584C847.27 50.2667 849.553 51.248 851.472 52.528L848.849 58.992C846.886 57.84 844.838 56.9653 842.705 56.368C840.571 55.7707 838.502 55.472 836.497 55.472C833.211 55.472 830.758 56.0267 829.137 57.136C827.558 58.2453 826.769 59.7173 826.769 61.552C826.769 62.832 827.217 63.8773 828.113 64.688C829.051 65.4987 830.225 66.1387 831.633 66.608C833.041 67.0773 834.961 67.6107 837.393 68.208C840.721 68.976 843.451 69.7867 845.585 70.64C847.718 71.4507 849.531 72.7093 851.025 74.416C852.561 76.1227 853.329 78.4267 853.329 81.328C853.329 83.8027 852.646 86.0427 851.281 88.048C849.958 90.0533 847.931 91.6533 845.201 92.848C842.47 94.0427 839.142 94.64 835.217 94.64ZM876.491 94.448C872.949 94.448 869.771 93.7013 866.955 92.208C864.139 90.7147 861.941 88.6453 860.363 86C858.784 83.312 857.995 80.2827 857.995 76.912C857.995 73.5413 858.784 70.5333 860.363 67.888C861.941 65.2427 864.117 63.1733 866.891 61.68C869.707 60.1867 872.907 59.44 876.491 59.44C879.861 59.44 882.805 60.1227 885.323 61.488C887.883 62.8533 889.803 64.816 891.083 67.376L884.939 70.96C883.957 69.3813 882.72 68.208 881.227 67.44C879.776 66.6293 878.176 66.224 876.427 66.224C873.44 66.224 870.965 67.2053 869.003 69.168C867.04 71.088 866.059 73.6693 866.059 76.912C866.059 80.1547 867.019 82.7573 868.939 84.72C870.901 86.64 873.397 87.6 876.427 87.6C878.176 87.6 879.776 87.216 881.227 86.448C882.72 85.6373 883.957 84.4427 884.939 82.864L891.083 86.448C889.76 89.008 887.819 90.992 885.259 92.4C882.741 93.7653 879.819 94.448 876.491 94.448ZM912.858 94.448C909.402 94.448 906.287 93.7013 903.514 92.208C900.741 90.7147 898.565 88.6453 896.986 86C895.45 83.312 894.682 80.2827 894.682 76.912C894.682 73.5413 895.45 70.5333 896.986 67.888C898.565 65.2427 900.741 63.1733 903.514 61.68C906.287 60.1867 909.402 59.44 912.858 59.44C916.357 59.44 919.493 60.1867 922.266 61.68C925.039 63.1733 927.194 65.2427 928.73 67.888C930.309 70.5333 931.098 73.5413 931.098 76.912C931.098 80.2827 930.309 83.312 928.73 86C927.194 88.6453 925.039 90.7147 922.266 92.208C919.493 93.7013 916.357 94.448 912.858 94.448ZM912.858 87.6C915.802 87.6 918.234 86.6187 920.154 84.656C922.074 82.6933 923.034 80.112 923.034 76.912C923.034 73.712 922.074 71.1307 920.154 69.168C918.234 67.2053 915.802 66.224 912.858 66.224C909.914 66.224 907.482 67.2053 905.562 69.168C903.685 71.1307 902.746 73.712 902.746 76.912C902.746 80.112 903.685 82.6933 905.562 84.656C907.482 86.6187 909.914 87.6 912.858 87.6ZM971.836 59.824V94H964.22V89.648C962.94 91.184 961.34 92.3787 959.42 93.232C957.5 94.0427 955.431 94.448 953.212 94.448C948.647 94.448 945.041 93.1893 942.396 90.672C939.793 88.112 938.492 84.336 938.492 79.344V59.824H946.492V78.256C946.492 81.328 947.175 83.632 948.54 85.168C949.948 86.6613 951.932 87.408 954.492 87.408C957.351 87.408 959.612 86.5333 961.276 84.784C962.983 82.992 963.836 80.432 963.836 77.104V59.824H971.836ZM1002.85 92.144C1001.92 92.912 1000.76 93.488 999.399 93.872C998.076 94.256 996.668 94.448 995.175 94.448C991.42 94.448 988.519 93.4667 986.47 91.504C984.423 89.5413 983.399 86.6827 983.399 82.928V66.48H977.767V60.08H983.399V52.272H991.399V60.08H1000.55V66.48H991.399V82.736C991.399 84.4 991.804 85.68 992.615 86.576C993.425 87.4293 994.599 87.856 996.135 87.856C997.927 87.856 999.42 87.3867 1000.61 86.448L1002.85 92.144Z" fill="white"/>
<g filter="url(#filter0_d)">
<path d="M357.361 186L355.297 180.696H348.505L346.465 186H344.281L350.977 168.792H352.921L359.593 186H357.361ZM352.729 173.592C352.681 173.464 352.601 173.232 352.489 172.896C352.377 172.56 352.265 172.216 352.153 171.864C352.057 171.496 351.977 171.216 351.913 171.024C351.801 171.52 351.673 172.008 351.529 172.488C351.385 172.952 351.265 173.32 351.169 173.592L349.225 178.776H354.649L352.729 173.592ZM388.297 168.864L383.737 186H381.553L378.217 174.768C378.089 174.304 377.961 173.84 377.833 173.376C377.705 172.912 377.601 172.504 377.521 172.152C377.441 171.784 377.385 171.528 377.353 171.384C377.337 171.592 377.249 172.04 377.089 172.728C376.945 173.4 376.761 174.104 376.537 174.84L373.297 186H371.113L366.577 168.864H368.833L371.497 179.328C371.689 180.064 371.849 180.776 371.977 181.464C372.121 182.152 372.233 182.8 372.313 183.408C372.393 182.784 372.513 182.104 372.673 181.368C372.833 180.632 373.017 179.912 373.225 179.208L376.249 168.864H378.481L381.625 179.28C381.849 180.016 382.041 180.752 382.201 181.488C382.361 182.208 382.481 182.848 382.561 183.408C382.641 182.816 382.753 182.176 382.897 181.488C383.041 180.784 383.209 180.056 383.401 179.304L386.041 168.864H388.297ZM395.141 172.896C396.245 172.896 397.189 173.136 397.973 173.616C398.773 174.096 399.381 174.776 399.797 175.656C400.229 176.52 400.445 177.536 400.445 178.704V179.976H391.637C391.669 181.432 392.037 182.544 392.741 183.312C393.461 184.064 394.461 184.44 395.741 184.44C396.557 184.44 397.277 184.368 397.901 184.224C398.541 184.064 399.197 183.84 399.869 183.552V185.4C399.213 185.688 398.565 185.896 397.925 186.024C397.285 186.168 396.525 186.24 395.645 186.24C394.429 186.24 393.349 185.992 392.405 185.496C391.477 185 390.749 184.264 390.221 183.288C389.709 182.296 389.453 181.088 389.453 179.664C389.453 178.256 389.685 177.048 390.149 176.04C390.629 175.032 391.293 174.256 392.141 173.712C393.005 173.168 394.005 172.896 395.141 172.896ZM395.117 174.624C394.109 174.624 393.309 174.952 392.717 175.608C392.141 176.248 391.797 177.144 391.685 178.296H398.237C398.221 177.208 397.965 176.328 397.469 175.656C396.973 174.968 396.189 174.624 395.117 174.624ZM405.832 172.2C405.832 172.744 405.816 173.256 405.784 173.736C405.768 174.2 405.744 174.568 405.712 174.84H405.832C406.2 174.296 406.704 173.84 407.344 173.472C407.984 173.104 408.808 172.92 409.816 172.92C411.416 172.92 412.696 173.48 413.656 174.6C414.632 175.704 415.12 177.36 415.12 179.568C415.12 181.776 414.632 183.44 413.656 184.56C412.68 185.68 411.4 186.24 409.816 186.24C408.808 186.24 407.984 186.056 407.344 185.688C406.704 185.32 406.2 184.88 405.832 184.368H405.664L405.232 186H403.72V167.76H405.832V172.2ZM409.456 174.672C408.096 174.672 407.152 175.064 406.624 175.848C406.096 176.632 405.832 177.848 405.832 179.496V179.592C405.832 181.176 406.088 182.392 406.6 183.24C407.128 184.072 408.096 184.488 409.504 184.488C410.656 184.488 411.512 184.064 412.072 183.216C412.648 182.368 412.936 181.144 412.936 179.544C412.936 176.296 411.776 174.672 409.456 174.672ZM423.254 178.512V180.234H417.547V178.512H423.254ZM431.038 186.24C429.438 186.24 428.158 185.688 427.198 184.584C426.238 183.464 425.758 181.8 425.758 179.592C425.758 177.384 426.238 175.72 427.198 174.6C428.174 173.464 429.462 172.896 431.062 172.896C432.054 172.896 432.862 173.08 433.486 173.448C434.126 173.816 434.646 174.264 435.046 174.792H435.19C435.174 174.584 435.142 174.28 435.094 173.88C435.062 173.464 435.046 173.136 435.046 172.896V167.76H437.158V186H435.454L435.142 184.272H435.046C434.662 184.816 434.15 185.28 433.51 185.664C432.87 186.048 432.046 186.24 431.038 186.24ZM431.374 184.488C432.734 184.488 433.686 184.12 434.23 183.384C434.79 182.632 435.07 181.504 435.07 180V179.616C435.07 178.016 434.806 176.792 434.278 175.944C433.75 175.08 432.774 174.648 431.35 174.648C430.214 174.648 429.358 175.104 428.782 176.016C428.222 176.912 427.942 178.12 427.942 179.64C427.942 181.176 428.222 182.368 428.782 183.216C429.358 184.064 430.222 184.488 431.374 184.488ZM446.211 172.896C447.315 172.896 448.259 173.136 449.043 173.616C449.843 174.096 450.451 174.776 450.867 175.656C451.299 176.52 451.515 177.536 451.515 178.704V179.976H442.707C442.739 181.432 443.107 182.544 443.811 183.312C444.531 184.064 445.531 184.44 446.811 184.44C447.627 184.44 448.347 184.368 448.971 184.224C449.611 184.064 450.267 183.84 450.939 183.552V185.4C450.283 185.688 449.635 185.896 448.995 186.024C448.355 186.168 447.595 186.24 446.715 186.24C445.499 186.24 444.419 185.992 443.475 185.496C442.547 185 441.819 184.264 441.291 183.288C440.779 182.296 440.523 181.088 440.523 179.664C440.523 178.256 440.755 177.048 441.219 176.04C441.699 175.032 442.363 174.256 443.211 173.712C444.075 173.168 445.075 172.896 446.211 172.896ZM446.187 174.624C445.179 174.624 444.379 174.952 443.787 175.608C443.211 176.248 442.867 177.144 442.755 178.296H449.307C449.291 177.208 449.035 176.328 448.539 175.656C448.043 174.968 447.259 174.624 446.187 174.624ZM457.153 186L452.281 173.136H454.537L457.273 180.72C457.401 181.072 457.537 181.464 457.681 181.896C457.825 182.328 457.953 182.744 458.065 183.144C458.177 183.528 458.257 183.856 458.305 184.128H458.401C458.465 183.856 458.553 183.52 458.665 183.12C458.793 182.72 458.929 182.304 459.073 181.872C459.233 181.44 459.369 181.056 459.481 180.72L462.217 173.136H464.473L459.577 186H457.153ZM471.477 172.896C472.581 172.896 473.525 173.136 474.309 173.616C475.109 174.096 475.717 174.776 476.133 175.656C476.565 176.52 476.781 177.536 476.781 178.704V179.976H467.973C468.005 181.432 468.373 182.544 469.077 183.312C469.797 184.064 470.797 184.44 472.077 184.44C472.893 184.44 473.613 184.368 474.237 184.224C474.877 184.064 475.533 183.84 476.205 183.552V185.4C475.549 185.688 474.901 185.896 474.261 186.024C473.621 186.168 472.861 186.24 471.981 186.24C470.765 186.24 469.685 185.992 468.741 185.496C467.813 185 467.085 184.264 466.557 183.288C466.045 182.296 465.789 181.088 465.789 179.664C465.789 178.256 466.021 177.048 466.485 176.04C466.965 175.032 467.629 174.256 468.477 173.712C469.341 173.168 470.341 172.896 471.477 172.896ZM471.453 174.624C470.445 174.624 469.645 174.952 469.053 175.608C468.477 176.248 468.133 177.144 468.021 178.296H474.573C474.557 177.208 474.301 176.328 473.805 175.656C473.309 174.968 472.525 174.624 471.453 174.624ZM482.168 186H480.056V167.76H482.168V186ZM492.363 172.896C493.947 172.896 495.219 173.448 496.179 174.552C497.155 175.656 497.643 177.32 497.643 179.544C497.643 181.736 497.155 183.4 496.179 184.536C495.219 185.672 493.939 186.24 492.339 186.24C491.347 186.24 490.523 186.056 489.867 185.688C489.227 185.304 488.723 184.864 488.355 184.368H488.211C488.243 184.64 488.275 184.984 488.307 185.4C488.339 185.816 488.355 186.176 488.355 186.48V191.76H486.243V173.136H487.971L488.259 174.888H488.355C488.739 174.328 489.243 173.856 489.867 173.472C490.491 173.088 491.323 172.896 492.363 172.896ZM491.979 174.672C490.667 174.672 489.739 175.04 489.195 175.776C488.667 176.512 488.387 177.632 488.355 179.136V179.544C488.355 181.128 488.611 182.352 489.123 183.216C489.651 184.064 490.619 184.488 492.027 184.488C492.811 184.488 493.451 184.272 493.947 183.84C494.459 183.408 494.835 182.824 495.075 182.088C495.331 181.336 495.459 180.48 495.459 179.52C495.459 178.048 495.171 176.872 494.595 175.992C494.035 175.112 493.163 174.672 491.979 174.672ZM505.977 172.896C507.081 172.896 508.025 173.136 508.809 173.616C509.609 174.096 510.217 174.776 510.633 175.656C511.065 176.52 511.281 177.536 511.281 178.704V179.976H502.473C502.505 181.432 502.873 182.544 503.577 183.312C504.297 184.064 505.297 184.44 506.577 184.44C507.393 184.44 508.113 184.368 508.737 184.224C509.377 184.064 510.033 183.84 510.705 183.552V185.4C510.049 185.688 509.401 185.896 508.761 186.024C508.121 186.168 507.361 186.24 506.481 186.24C505.265 186.24 504.185 185.992 503.241 185.496C502.313 185 501.585 184.264 501.057 183.288C500.545 182.296 500.289 181.088 500.289 179.664C500.289 178.256 500.521 177.048 500.985 176.04C501.465 175.032 502.129 174.256 502.977 173.712C503.841 173.168 504.841 172.896 505.977 172.896ZM505.953 174.624C504.945 174.624 504.145 174.952 503.553 175.608C502.977 176.248 502.633 177.144 502.521 178.296H509.073C509.057 177.208 508.801 176.328 508.305 175.656C507.809 174.968 507.025 174.624 505.953 174.624ZM528.668 172.896C530.124 172.896 531.212 173.272 531.932 174.024C532.652 174.76 533.012 175.96 533.012 177.624V186H530.924V177.72C530.924 175.688 530.052 174.672 528.308 174.672C527.06 174.672 526.164 175.032 525.62 175.752C525.092 176.472 524.828 177.52 524.828 178.896V186H522.74V177.72C522.74 175.688 521.86 174.672 520.1 174.672C518.804 174.672 517.908 175.072 517.412 175.872C516.916 176.672 516.668 177.824 516.668 179.328V186H514.556V173.136H516.26L516.572 174.888H516.692C517.092 174.216 517.628 173.72 518.3 173.4C518.988 173.064 519.716 172.896 520.484 172.896C522.5 172.896 523.812 173.616 524.42 175.056H524.54C524.972 174.32 525.556 173.776 526.292 173.424C527.044 173.072 527.836 172.896 528.668 172.896ZM541.953 172.896C543.057 172.896 544.001 173.136 544.785 173.616C545.585 174.096 546.193 174.776 546.609 175.656C547.041 176.52 547.257 177.536 547.257 178.704V179.976H538.449C538.481 181.432 538.849 182.544 539.553 183.312C540.273 184.064 541.273 184.44 542.553 184.44C543.369 184.44 544.089 184.368 544.713 184.224C545.353 184.064 546.009 183.84 546.681 183.552V185.4C546.025 185.688 545.377 185.896 544.737 186.024C544.097 186.168 543.337 186.24 542.457 186.24C541.241 186.24 540.161 185.992 539.217 185.496C538.289 185 537.561 184.264 537.033 183.288C536.521 182.296 536.265 181.088 536.265 179.664C536.265 178.256 536.497 177.048 536.961 176.04C537.441 175.032 538.105 174.256 538.953 173.712C539.817 173.168 540.817 172.896 541.953 172.896ZM541.929 174.624C540.921 174.624 540.121 174.952 539.529 175.608C538.953 176.248 538.609 177.144 538.497 178.296H545.049C545.033 177.208 544.777 176.328 544.281 175.656C543.785 174.968 543.001 174.624 541.929 174.624ZM556.724 172.896C558.26 172.896 559.42 173.272 560.204 174.024C560.988 174.76 561.38 175.96 561.38 177.624V186H559.292V177.768C559.292 175.704 558.332 174.672 556.412 174.672C554.988 174.672 554.004 175.072 553.46 175.872C552.916 176.672 552.644 177.824 552.644 179.328V186H550.532V173.136H552.236L552.548 174.888H552.668C553.084 174.216 553.66 173.72 554.396 173.4C555.132 173.064 555.908 172.896 556.724 172.896ZM569.664 184.512C569.984 184.512 570.312 184.488 570.648 184.44C570.984 184.376 571.256 184.312 571.464 184.248V185.856C571.24 185.968 570.92 186.056 570.504 186.12C570.088 186.2 569.688 186.24 569.304 186.24C568.632 186.24 568.008 186.128 567.432 185.904C566.872 185.664 566.416 185.256 566.064 184.68C565.712 184.104 565.536 183.296 565.536 182.256V174.768H563.712V173.76L565.56 172.92L566.4 170.184H567.648V173.136H571.368V174.768H567.648V182.208C567.648 182.992 567.832 183.576 568.2 183.96C568.584 184.328 569.072 184.512 569.664 184.512ZM582.832 186H580.72V167.76H582.832V186ZM591.875 172.896C592.979 172.896 593.923 173.136 594.707 173.616C595.507 174.096 596.115 174.776 596.531 175.656C596.963 176.52 597.179 177.536 597.179 178.704V179.976H588.371C588.403 181.432 588.771 182.544 589.475 183.312C590.195 184.064 591.195 184.44 592.475 184.44C593.291 184.44 594.011 184.368 594.635 184.224C595.275 184.064 595.931 183.84 596.603 183.552V185.4C595.947 185.688 595.299 185.896 594.659 186.024C594.019 186.168 593.259 186.24 592.379 186.24C591.163 186.24 590.083 185.992 589.139 185.496C588.211 185 587.483 184.264 586.955 183.288C586.443 182.296 586.187 181.088 586.187 179.664C586.187 178.256 586.419 177.048 586.883 176.04C587.363 175.032 588.027 174.256 588.875 173.712C589.739 173.168 590.739 172.896 591.875 172.896ZM591.851 174.624C590.843 174.624 590.043 174.952 589.451 175.608C588.875 176.248 588.531 177.144 588.419 178.296H594.971C594.955 177.208 594.699 176.328 594.203 175.656C593.707 174.968 592.923 174.624 591.851 174.624ZM605.326 172.92C606.894 172.92 608.054 173.264 608.806 173.952C609.558 174.64 609.934 175.736 609.934 177.24V186H608.398L607.99 184.176H607.894C607.334 184.88 606.742 185.4 606.118 185.736C605.51 186.072 604.662 186.24 603.574 186.24C602.406 186.24 601.438 185.936 600.67 185.328C599.902 184.704 599.518 183.736 599.518 182.424C599.518 181.144 600.022 180.16 601.03 179.472C602.038 178.768 603.59 178.384 605.686 178.32L607.87 178.248V177.48C607.87 176.408 607.638 175.664 607.174 175.248C606.71 174.832 606.054 174.624 605.206 174.624C604.534 174.624 603.894 174.728 603.286 174.936C602.678 175.128 602.11 175.352 601.582 175.608L600.934 174.024C601.494 173.72 602.158 173.464 602.926 173.256C603.694 173.032 604.494 172.92 605.326 172.92ZM605.95 179.784C604.35 179.848 603.238 180.104 602.614 180.552C602.006 181 601.702 181.632 601.702 182.448C601.702 183.168 601.918 183.696 602.35 184.032C602.798 184.368 603.366 184.536 604.054 184.536C605.142 184.536 606.046 184.24 606.766 183.648C607.486 183.04 607.846 182.112 607.846 180.864V179.712L605.95 179.784ZM619.907 172.896C620.147 172.896 620.403 172.912 620.675 172.944C620.963 172.96 621.211 172.992 621.419 173.04L621.155 174.984C620.947 174.936 620.715 174.896 620.459 174.864C620.219 174.832 619.987 174.816 619.763 174.816C619.107 174.816 618.491 175 617.915 175.368C617.339 175.72 616.875 176.224 616.523 176.88C616.187 177.52 616.019 178.272 616.019 179.136V186H613.907V173.136H615.635L615.875 175.488H615.971C616.387 174.784 616.923 174.176 617.579 173.664C618.235 173.152 619.011 172.896 619.907 172.896ZM630.013 172.896C631.549 172.896 632.709 173.272 633.493 174.024C634.277 174.76 634.669 175.96 634.669 177.624V186H632.581V177.768C632.581 175.704 631.621 174.672 629.701 174.672C628.277 174.672 627.293 175.072 626.749 175.872C626.205 176.672 625.933 177.824 625.933 179.328V186H623.821V173.136H625.525L625.837 174.888H625.957C626.373 174.216 626.949 173.72 627.685 173.4C628.421 173.064 629.197 172.896 630.013 172.896ZM639.737 168.312C640.057 168.312 640.337 168.424 640.577 168.648C640.833 168.856 640.961 169.192 640.961 169.656C640.961 170.104 640.833 170.44 640.577 170.664C640.337 170.888 640.057 171 639.737 171C639.385 171 639.089 170.888 638.849 170.664C638.609 170.44 638.489 170.104 638.489 169.656C638.489 169.192 638.609 168.856 638.849 168.648C639.089 168.424 639.385 168.312 639.737 168.312ZM640.769 173.136V186H638.657V173.136H640.769ZM651.037 172.896C652.573 172.896 653.733 173.272 654.517 174.024C655.301 174.76 655.693 175.96 655.693 177.624V186H653.605V177.768C653.605 175.704 652.645 174.672 650.725 174.672C649.301 174.672 648.317 175.072 647.773 175.872C647.229 176.672 646.957 177.824 646.957 179.328V186H644.845V173.136H646.549L646.861 174.888H646.981C647.397 174.216 647.973 173.72 648.709 173.4C649.445 173.064 650.221 172.896 651.037 172.896ZM664.241 172.896C665.089 172.896 665.849 173.056 666.521 173.376C667.209 173.696 667.793 174.184 668.273 174.84H668.393L668.681 173.136H670.361V186.216C670.361 188.056 669.889 189.44 668.945 190.368C668.017 191.296 666.569 191.76 664.601 191.76C662.713 191.76 661.169 191.488 659.969 190.944V189C661.233 189.672 662.817 190.008 664.721 190.008C665.825 190.008 666.689 189.68 667.313 189.024C667.953 188.384 668.273 187.504 668.273 186.384V185.88C668.273 185.688 668.281 185.416 668.297 185.064C668.313 184.696 668.329 184.44 668.345 184.296H668.249C667.385 185.592 666.057 186.24 664.265 186.24C662.601 186.24 661.297 185.656 660.353 184.488C659.425 183.32 658.961 181.688 658.961 179.592C658.961 177.544 659.425 175.92 660.353 174.72C661.297 173.504 662.593 172.896 664.241 172.896ZM664.529 174.672C663.457 174.672 662.625 175.104 662.033 175.968C661.441 176.816 661.145 178.032 661.145 179.616C661.145 181.2 661.433 182.416 662.009 183.264C662.601 184.096 663.457 184.512 664.577 184.512C665.873 184.512 666.817 184.168 667.409 183.48C668.001 182.776 668.297 181.648 668.297 180.096V179.592C668.297 177.832 667.993 176.576 667.385 175.824C666.777 175.056 665.825 174.672 664.529 174.672ZM687.246 172.896C688.83 172.896 690.102 173.448 691.062 174.552C692.038 175.656 692.526 177.32 692.526 179.544C692.526 181.736 692.038 183.4 691.062 184.536C690.102 185.672 688.822 186.24 687.222 186.24C686.23 186.24 685.406 186.056 684.75 185.688C684.11 185.304 683.606 184.864 683.238 184.368H683.094C683.126 184.64 683.158 184.984 683.19 185.4C683.222 185.816 683.238 186.176 683.238 186.48V191.76H681.126V173.136H682.854L683.142 174.888H683.238C683.622 174.328 684.126 173.856 684.75 173.472C685.374 173.088 686.206 172.896 687.246 172.896ZM686.862 174.672C685.55 174.672 684.622 175.04 684.078 175.776C683.55 176.512 683.27 177.632 683.238 179.136V179.544C683.238 181.128 683.494 182.352 684.006 183.216C684.534 184.064 685.502 184.488 686.91 184.488C687.694 184.488 688.334 184.272 688.83 183.84C689.342 183.408 689.718 182.824 689.958 182.088C690.214 181.336 690.342 180.48 690.342 179.52C690.342 178.048 690.054 176.872 689.478 175.992C688.918 175.112 688.046 174.672 686.862 174.672ZM701.892 172.896C702.132 172.896 702.388 172.912 702.66 172.944C702.948 172.96 703.196 172.992 703.404 173.04L703.14 174.984C702.932 174.936 702.7 174.896 702.444 174.864C702.204 174.832 701.972 174.816 701.748 174.816C701.092 174.816 700.476 175 699.9 175.368C699.324 175.72 698.86 176.224 698.508 176.88C698.172 177.52 698.004 178.272 698.004 179.136V186H695.892V173.136H697.62L697.86 175.488H697.956C698.372 174.784 698.908 174.176 699.564 173.664C700.22 173.152 700.996 172.896 701.892 172.896ZM716.521 179.544C716.521 181.672 715.977 183.32 714.889 184.488C713.817 185.656 712.361 186.24 710.521 186.24C709.385 186.24 708.369 185.984 707.473 185.472C706.593 184.944 705.897 184.184 705.385 183.192C704.873 182.184 704.617 180.968 704.617 179.544C704.617 177.416 705.153 175.776 706.225 174.624C707.297 173.472 708.753 172.896 710.593 172.896C711.761 172.896 712.785 173.16 713.665 173.688C714.561 174.2 715.257 174.952 715.753 175.944C716.265 176.92 716.521 178.12 716.521 179.544ZM706.801 179.544C706.801 181.064 707.097 182.272 707.689 183.168C708.297 184.048 709.257 184.488 710.569 184.488C711.865 184.488 712.817 184.048 713.425 183.168C714.033 182.272 714.337 181.064 714.337 179.544C714.337 178.024 714.033 176.832 713.425 175.968C712.817 175.104 711.857 174.672 710.545 174.672C709.233 174.672 708.281 175.104 707.689 175.968C707.097 176.832 706.801 178.024 706.801 179.544ZM719.7 169.656C719.7 169.192 719.82 168.856 720.06 168.648C720.3 168.424 720.596 168.312 720.948 168.312C721.268 168.312 721.548 168.424 721.788 168.648C722.044 168.856 722.172 169.192 722.172 169.656C722.172 170.104 722.044 170.44 721.788 170.664C721.548 170.888 721.268 171 720.948 171C720.596 171 720.3 170.888 720.06 170.664C719.82 170.44 719.7 170.104 719.7 169.656ZM718.356 191.76C717.956 191.76 717.604 191.728 717.3 191.664C716.996 191.616 716.732 191.552 716.508 191.472V189.768C716.748 189.832 716.996 189.888 717.252 189.936C717.508 189.984 717.788 190.008 718.092 190.008C718.604 190.008 719.028 189.864 719.364 189.576C719.7 189.304 719.868 188.776 719.868 187.992V173.136H721.98V187.92C721.98 189.12 721.692 190.056 721.116 190.728C720.54 191.416 719.62 191.76 718.356 191.76ZM731.024 172.896C732.128 172.896 733.072 173.136 733.856 173.616C734.656 174.096 735.264 174.776 735.68 175.656C736.112 176.52 736.328 177.536 736.328 178.704V179.976H727.52C727.552 181.432 727.92 182.544 728.624 183.312C729.344 184.064 730.344 184.44 731.624 184.44C732.44 184.44 733.16 184.368 733.784 184.224C734.424 184.064 735.08 183.84 735.752 183.552V185.4C735.096 185.688 734.448 185.896 733.808 186.024C733.168 186.168 732.408 186.24 731.528 186.24C730.312 186.24 729.232 185.992 728.288 185.496C727.36 185 726.632 184.264 726.104 183.288C725.592 182.296 725.336 181.088 725.336 179.664C725.336 178.256 725.568 177.048 726.032 176.04C726.512 175.032 727.176 174.256 728.024 173.712C728.888 173.168 729.888 172.896 731.024 172.896ZM731 174.624C729.992 174.624 729.192 174.952 728.6 175.608C728.024 176.248 727.68 177.144 727.568 178.296H734.12C734.104 177.208 733.848 176.328 733.352 175.656C732.856 174.968 732.072 174.624 731 174.624ZM744.763 186.24C743.627 186.24 742.611 186.008 741.715 185.544C740.835 185.08 740.139 184.36 739.627 183.384C739.131 182.408 738.883 181.16 738.883 179.64C738.883 178.056 739.147 176.768 739.675 175.776C740.203 174.784 740.915 174.056 741.811 173.592C742.723 173.128 743.755 172.896 744.907 172.896C745.563 172.896 746.195 172.968 746.803 173.112C747.411 173.24 747.907 173.4 748.291 173.592L747.643 175.344C747.259 175.2 746.811 175.064 746.299 174.936C745.787 174.808 745.307 174.744 744.859 174.744C742.331 174.744 741.067 176.368 741.067 179.616C741.067 181.168 741.371 182.36 741.979 183.192C742.603 184.008 743.523 184.416 744.739 184.416C745.443 184.416 746.059 184.344 746.587 184.2C747.131 184.056 747.627 183.88 748.075 183.672V185.544C747.643 185.768 747.163 185.936 746.635 186.048C746.123 186.176 745.499 186.24 744.763 186.24ZM755.43 184.512C755.75 184.512 756.078 184.488 756.414 184.44C756.75 184.376 757.022 184.312 757.23 184.248V185.856C757.006 185.968 756.686 186.056 756.27 186.12C755.854 186.2 755.454 186.24 755.07 186.24C754.398 186.24 753.774 186.128 753.198 185.904C752.638 185.664 752.182 185.256 751.83 184.68C751.478 184.104 751.302 183.296 751.302 182.256V174.768H749.478V173.76L751.326 172.92L752.166 170.184H753.414V173.136H757.134V174.768H753.414V182.208C753.414 182.992 753.598 183.576 753.966 183.96C754.35 184.328 754.838 184.512 755.43 184.512ZM774.789 178.728C774.581 178.072 774.397 177.432 774.237 176.808C774.093 176.168 773.981 175.672 773.901 175.32H773.805C773.741 175.672 773.637 176.168 773.493 176.808C773.349 177.432 773.165 178.08 772.941 178.752L770.637 185.976H768.237L764.709 173.112H766.893L768.669 179.976C768.845 180.664 769.013 181.36 769.173 182.064C769.333 182.768 769.445 183.352 769.509 183.816H769.605C769.669 183.544 769.741 183.208 769.821 182.808C769.917 182.408 770.021 181.992 770.133 181.56C770.245 181.112 770.357 180.712 770.469 180.36L772.749 173.112H775.053L777.261 180.36C777.437 180.904 777.605 181.496 777.765 182.136C777.941 182.776 778.061 183.328 778.125 183.792H778.221C778.269 183.392 778.373 182.84 778.533 182.136C778.709 181.432 778.893 180.712 779.085 179.976L780.885 173.112H783.045L779.469 185.976H776.997L774.789 178.728ZM790.321 172.896C791.425 172.896 792.369 173.136 793.153 173.616C793.953 174.096 794.561 174.776 794.977 175.656C795.409 176.52 795.625 177.536 795.625 178.704V179.976H786.817C786.849 181.432 787.217 182.544 787.921 183.312C788.641 184.064 789.641 184.44 790.921 184.44C791.737 184.44 792.457 184.368 793.081 184.224C793.721 184.064 794.377 183.84 795.049 183.552V185.4C794.393 185.688 793.745 185.896 793.105 186.024C792.465 186.168 791.705 186.24 790.825 186.24C789.609 186.24 788.529 185.992 787.585 185.496C786.657 185 785.929 184.264 785.401 183.288C784.889 182.296 784.633 181.088 784.633 179.664C784.633 178.256 784.865 177.048 785.329 176.04C785.809 175.032 786.473 174.256 787.321 173.712C788.185 173.168 789.185 172.896 790.321 172.896ZM790.297 174.624C789.289 174.624 788.489 174.952 787.897 175.608C787.321 176.248 786.977 177.144 786.865 178.296H793.417C793.401 177.208 793.145 176.328 792.649 175.656C792.153 174.968 791.369 174.624 790.297 174.624ZM801.011 172.2C801.011 172.744 800.995 173.256 800.963 173.736C800.947 174.2 800.923 174.568 800.891 174.84H801.011C801.379 174.296 801.883 173.84 802.523 173.472C803.163 173.104 803.987 172.92 804.995 172.92C806.595 172.92 807.875 173.48 808.835 174.6C809.811 175.704 810.299 177.36 810.299 179.568C810.299 181.776 809.811 183.44 808.835 184.56C807.859 185.68 806.579 186.24 804.995 186.24C803.987 186.24 803.163 186.056 802.523 185.688C801.883 185.32 801.379 184.88 801.011 184.368H800.843L800.411 186H798.899V167.76H801.011V172.2ZM804.635 174.672C803.275 174.672 802.331 175.064 801.803 175.848C801.275 176.632 801.011 177.848 801.011 179.496V179.592C801.011 181.176 801.267 182.392 801.779 183.24C802.307 184.072 803.275 184.488 804.683 184.488C805.835 184.488 806.691 184.064 807.251 183.216C807.827 182.368 808.115 181.144 808.115 179.544C808.115 176.296 806.955 174.672 804.635 174.672ZM822.041 182.448C822.041 183.696 821.577 184.64 820.649 185.28C819.721 185.92 818.473 186.24 816.905 186.24C816.009 186.24 815.233 186.168 814.577 186.024C813.937 185.88 813.369 185.68 812.873 185.424V183.504C813.385 183.76 814.001 184 814.721 184.224C815.457 184.432 816.201 184.536 816.953 184.536C818.025 184.536 818.801 184.368 819.281 184.032C819.761 183.68 820.001 183.216 820.001 182.64C820.001 182.32 819.913 182.032 819.737 181.776C819.561 181.52 819.241 181.264 818.777 181.008C818.329 180.752 817.681 180.464 816.833 180.144C816.001 179.824 815.289 179.504 814.697 179.184C814.105 178.864 813.649 178.48 813.329 178.032C813.009 177.584 812.849 177.008 812.849 176.304C812.849 175.216 813.289 174.376 814.169 173.784C815.065 173.192 816.233 172.896 817.673 172.896C818.457 172.896 819.185 172.976 819.857 173.136C820.545 173.28 821.185 173.488 821.777 173.76L821.057 175.44C820.513 175.216 819.945 175.024 819.353 174.864C818.761 174.704 818.153 174.624 817.529 174.624C816.665 174.624 816.001 174.768 815.537 175.056C815.089 175.328 814.865 175.704 814.865 176.184C814.865 176.536 814.969 176.84 815.177 177.096C815.385 177.336 815.729 177.576 816.209 177.816C816.705 178.04 817.361 178.312 818.177 178.632C818.993 178.936 819.689 179.248 820.265 179.568C820.841 179.888 821.281 180.28 821.585 180.744C821.889 181.192 822.041 181.76 822.041 182.448ZM826.229 168.312C826.549 168.312 826.829 168.424 827.069 168.648C827.325 168.856 827.453 169.192 827.453 169.656C827.453 170.104 827.325 170.44 827.069 170.664C826.829 170.888 826.549 171 826.229 171C825.877 171 825.581 170.888 825.341 170.664C825.101 170.44 824.981 170.104 824.981 169.656C824.981 169.192 825.101 168.856 825.341 168.648C825.581 168.424 825.877 168.312 826.229 168.312ZM827.261 173.136V186H825.149V173.136H827.261ZM835.633 184.512C835.953 184.512 836.281 184.488 836.617 184.44C836.953 184.376 837.225 184.312 837.433 184.248V185.856C837.209 185.968 836.889 186.056 836.473 186.12C836.057 186.2 835.657 186.24 835.273 186.24C834.601 186.24 833.977 186.128 833.401 185.904C832.841 185.664 832.385 185.256 832.033 184.68C831.681 184.104 831.505 183.296 831.505 182.256V174.768H829.681V173.76L831.529 172.92L832.369 170.184H833.617V173.136H837.337V174.768H833.617V182.208C833.617 182.992 833.801 183.576 834.169 183.96C834.553 184.328 835.041 184.512 835.633 184.512ZM844.977 172.896C846.081 172.896 847.025 173.136 847.809 173.616C848.609 174.096 849.217 174.776 849.633 175.656C850.065 176.52 850.281 177.536 850.281 178.704V179.976H841.473C841.505 181.432 841.873 182.544 842.577 183.312C843.297 184.064 844.297 184.44 845.577 184.44C846.393 184.44 847.113 184.368 847.737 184.224C848.377 184.064 849.033 183.84 849.705 183.552V185.4C849.049 185.688 848.401 185.896 847.761 186.024C847.121 186.168 846.361 186.24 845.481 186.24C844.265 186.24 843.185 185.992 842.241 185.496C841.313 185 840.585 184.264 840.057 183.288C839.545 182.296 839.289 181.088 839.289 179.664C839.289 178.256 839.521 177.048 839.985 176.04C840.465 175.032 841.129 174.256 841.977 173.712C842.841 173.168 843.841 172.896 844.977 172.896ZM844.953 174.624C843.945 174.624 843.145 174.952 842.553 175.608C841.977 176.248 841.633 177.144 841.521 178.296H848.073C848.057 177.208 847.801 176.328 847.305 175.656C846.809 174.968 846.025 174.624 844.953 174.624ZM874.347 172.896C875.803 172.896 876.891 173.272 877.611 174.024C878.331 174.76 878.691 175.96 878.691 177.624V186H876.603V177.72C876.603 175.688 875.731 174.672 873.987 174.672C872.739 174.672 871.843 175.032 871.299 175.752C870.771 176.472 870.507 177.52 870.507 178.896V186H868.419V177.72C868.419 175.688 867.539 174.672 865.779 174.672C864.483 174.672 863.587 175.072 863.091 175.872C862.595 176.672 862.347 177.824 862.347 179.328V186H860.235V173.136H861.939L862.251 174.888H862.371C862.771 174.216 863.307 173.72 863.979 173.4C864.667 173.064 865.395 172.896 866.163 172.896C868.179 172.896 869.491 173.616 870.099 175.056H870.219C870.651 174.32 871.235 173.776 871.971 173.424C872.723 173.072 873.515 172.896 874.347 172.896ZM887.537 172.92C889.105 172.92 890.265 173.264 891.017 173.952C891.769 174.64 892.145 175.736 892.145 177.24V186H890.609L890.201 184.176H890.105C889.545 184.88 888.953 185.4 888.329 185.736C887.721 186.072 886.873 186.24 885.785 186.24C884.617 186.24 883.649 185.936 882.881 185.328C882.113 184.704 881.729 183.736 881.729 182.424C881.729 181.144 882.233 180.16 883.241 179.472C884.249 178.768 885.801 178.384 887.897 178.32L890.081 178.248V177.48C890.081 176.408 889.849 175.664 889.385 175.248C888.921 174.832 888.265 174.624 887.417 174.624C886.745 174.624 886.105 174.728 885.497 174.936C884.889 175.128 884.321 175.352 883.793 175.608L883.145 174.024C883.705 173.72 884.369 173.464 885.137 173.256C885.905 173.032 886.705 172.92 887.537 172.92ZM888.161 179.784C886.561 179.848 885.449 180.104 884.825 180.552C884.217 181 883.913 181.632 883.913 182.448C883.913 183.168 884.129 183.696 884.561 184.032C885.009 184.368 885.577 184.536 886.265 184.536C887.353 184.536 888.257 184.24 888.977 183.648C889.697 183.04 890.057 182.112 890.057 180.864V179.712L888.161 179.784ZM900.678 186.24C899.078 186.24 897.798 185.688 896.838 184.584C895.878 183.464 895.398 181.8 895.398 179.592C895.398 177.384 895.878 175.72 896.838 174.6C897.814 173.464 899.102 172.896 900.702 172.896C901.694 172.896 902.502 173.08 903.126 173.448C903.766 173.816 904.286 174.264 904.686 174.792H904.83C904.814 174.584 904.782 174.28 904.734 173.88C904.702 173.464 904.686 173.136 904.686 172.896V167.76H906.798V186H905.094L904.782 184.272H904.686C904.302 184.816 903.79 185.28 903.15 185.664C902.51 186.048 901.686 186.24 900.678 186.24ZM901.014 184.488C902.374 184.488 903.326 184.12 903.87 183.384C904.43 182.632 904.71 181.504 904.71 180V179.616C904.71 178.016 904.446 176.792 903.918 175.944C903.39 175.08 902.414 174.648 900.99 174.648C899.854 174.648 898.998 175.104 898.422 176.016C897.862 176.912 897.582 178.12 897.582 179.64C897.582 181.176 897.862 182.368 898.422 183.216C898.998 184.064 899.862 184.488 901.014 184.488ZM915.852 172.896C916.956 172.896 917.9 173.136 918.684 173.616C919.484 174.096 920.092 174.776 920.508 175.656C920.94 176.52 921.156 177.536 921.156 178.704V179.976H912.348C912.38 181.432 912.748 182.544 913.452 183.312C914.172 184.064 915.172 184.44 916.452 184.44C917.268 184.44 917.988 184.368 918.612 184.224C919.252 184.064 919.908 183.84 920.58 183.552V185.4C919.924 185.688 919.276 185.896 918.636 186.024C917.996 186.168 917.236 186.24 916.356 186.24C915.14 186.24 914.06 185.992 913.116 185.496C912.188 185 911.46 184.264 910.932 183.288C910.42 182.296 910.164 181.088 910.164 179.664C910.164 178.256 910.396 177.048 910.86 176.04C911.34 175.032 912.004 174.256 912.852 173.712C913.716 173.168 914.716 172.896 915.852 172.896ZM915.828 174.624C914.82 174.624 914.02 174.952 913.428 175.608C912.852 176.248 912.508 177.144 912.396 178.296H918.948C918.932 177.208 918.676 176.328 918.18 175.656C917.684 174.968 916.9 174.624 915.828 174.624ZM933.222 172.2C933.222 172.744 933.206 173.256 933.174 173.736C933.158 174.2 933.134 174.568 933.102 174.84H933.222C933.59 174.296 934.094 173.84 934.734 173.472C935.374 173.104 936.198 172.92 937.206 172.92C938.806 172.92 940.086 173.48 941.046 174.6C942.022 175.704 942.51 177.36 942.51 179.568C942.51 181.776 942.022 183.44 941.046 184.56C940.07 185.68 938.79 186.24 937.206 186.24C936.198 186.24 935.374 186.056 934.734 185.688C934.094 185.32 933.59 184.88 933.222 184.368H933.054L932.622 186H931.11V167.76H933.222V172.2ZM936.846 174.672C935.486 174.672 934.542 175.064 934.014 175.848C933.486 176.632 933.222 177.848 933.222 179.496V179.592C933.222 181.176 933.478 182.392 933.99 183.24C934.518 184.072 935.486 184.488 936.894 184.488C938.046 184.488 938.902 184.064 939.462 183.216C940.038 182.368 940.326 181.144 940.326 179.544C940.326 176.296 939.166 174.672 936.846 174.672ZM943.391 173.136H945.647L948.431 180.456C948.671 181.096 948.887 181.712 949.079 182.304C949.271 182.88 949.415 183.432 949.511 183.96H949.607C949.703 183.56 949.855 183.04 950.063 182.4C950.271 181.744 950.487 181.088 950.711 180.432L953.327 173.136H955.607L950.063 187.776C949.615 188.992 949.031 189.96 948.311 190.68C947.607 191.4 946.631 191.76 945.383 191.76C944.999 191.76 944.663 191.736 944.375 191.688C944.087 191.656 943.839 191.616 943.631 191.568V189.888C943.807 189.92 944.015 189.952 944.255 189.984C944.511 190.016 944.775 190.032 945.047 190.032C945.783 190.032 946.375 189.824 946.823 189.408C947.287 188.992 947.647 188.44 947.903 187.752L948.575 186.048L943.391 173.136ZM972.697 182.448C972.697 183.696 972.233 184.64 971.305 185.28C970.377 185.92 969.129 186.24 967.561 186.24C966.665 186.24 965.889 186.168 965.233 186.024C964.593 185.88 964.025 185.68 963.529 185.424V183.504C964.041 183.76 964.657 184 965.377 184.224C966.113 184.432 966.857 184.536 967.609 184.536C968.681 184.536 969.457 184.368 969.937 184.032C970.417 183.68 970.657 183.216 970.657 182.64C970.657 182.32 970.569 182.032 970.393 181.776C970.217 181.52 969.897 181.264 969.433 181.008C968.985 180.752 968.337 180.464 967.489 180.144C966.657 179.824 965.945 179.504 965.353 179.184C964.761 178.864 964.305 178.48 963.985 178.032C963.665 177.584 963.505 177.008 963.505 176.304C963.505 175.216 963.945 174.376 964.825 173.784C965.721 173.192 966.889 172.896 968.329 172.896C969.113 172.896 969.841 172.976 970.513 173.136C971.201 173.28 971.841 173.488 972.433 173.76L971.713 175.44C971.169 175.216 970.601 175.024 970.009 174.864C969.417 174.704 968.809 174.624 968.185 174.624C967.321 174.624 966.657 174.768 966.193 175.056C965.745 175.328 965.521 175.704 965.521 176.184C965.521 176.536 965.625 176.84 965.833 177.096C966.041 177.336 966.385 177.576 966.865 177.816C967.361 178.04 968.017 178.312 968.833 178.632C969.649 178.936 970.345 179.248 970.921 179.568C971.497 179.888 971.937 180.28 972.241 180.744C972.545 181.192 972.697 181.76 972.697 182.448ZM980.102 184.512C980.422 184.512 980.75 184.488 981.086 184.44C981.422 184.376 981.694 184.312 981.902 184.248V185.856C981.678 185.968 981.358 186.056 980.942 186.12C980.526 186.2 980.126 186.24 979.742 186.24C979.07 186.24 978.446 186.128 977.87 185.904C977.31 185.664 976.854 185.256 976.502 184.68C976.15 184.104 975.974 183.296 975.974 182.256V174.768H974.15V173.76L975.998 172.92L976.838 170.184H978.086V173.136H981.806V174.768H978.086V182.208C978.086 182.992 978.27 183.576 978.638 183.96C979.022 184.328 979.51 184.512 980.102 184.512ZM995.23 173.136V186H993.502L993.19 184.296H993.094C992.678 184.968 992.102 185.464 991.366 185.784C990.63 186.088 989.846 186.24 989.014 186.24C987.462 186.24 986.294 185.872 985.51 185.136C984.726 184.384 984.334 183.192 984.334 181.56V173.136H986.47V181.416C986.47 183.464 987.422 184.488 989.326 184.488C990.75 184.488 991.734 184.088 992.278 183.288C992.838 182.488 993.118 181.336 993.118 179.832V173.136H995.23ZM1003.87 186.24C1002.27 186.24 1000.99 185.688 1000.03 184.584C999.073 183.464 998.593 181.8 998.593 179.592C998.593 177.384 999.073 175.72 1000.03 174.6C1001.01 173.464 1002.3 172.896 1003.9 172.896C1004.89 172.896 1005.7 173.08 1006.32 173.448C1006.96 173.816 1007.48 174.264 1007.88 174.792H1008.03C1008.01 174.584 1007.98 174.28 1007.93 173.88C1007.9 173.464 1007.88 173.136 1007.88 172.896V167.76H1009.99V186H1008.29L1007.98 184.272H1007.88C1007.5 184.816 1006.99 185.28 1006.35 185.664C1005.71 186.048 1004.88 186.24 1003.87 186.24ZM1004.21 184.488C1005.57 184.488 1006.52 184.12 1007.07 183.384C1007.63 182.632 1007.91 181.504 1007.91 180V179.616C1007.91 178.016 1007.64 176.792 1007.11 175.944C1006.59 175.08 1005.61 174.648 1004.19 174.648C1003.05 174.648 1002.19 175.104 1001.62 176.016C1001.06 176.912 1000.78 178.12 1000.78 179.64C1000.78 181.176 1001.06 182.368 1001.62 183.216C1002.19 184.064 1003.06 184.488 1004.21 184.488ZM1019.05 172.896C1020.15 172.896 1021.1 173.136 1021.88 173.616C1022.68 174.096 1023.29 174.776 1023.7 175.656C1024.14 176.52 1024.35 177.536 1024.35 178.704V179.976H1015.54C1015.58 181.432 1015.94 182.544 1016.65 183.312C1017.37 184.064 1018.37 184.44 1019.65 184.44C1020.46 184.44 1021.18 184.368 1021.81 184.224C1022.45 184.064 1023.1 183.84 1023.78 183.552V185.4C1023.12 185.688 1022.47 185.896 1021.83 186.024C1021.19 186.168 1020.43 186.24 1019.55 186.24C1018.34 186.24 1017.26 185.992 1016.31 185.496C1015.38 185 1014.66 184.264 1014.13 183.288C1013.62 182.296 1013.36 181.088 1013.36 179.664C1013.36 178.256 1013.59 177.048 1014.06 176.04C1014.54 175.032 1015.2 174.256 1016.05 173.712C1016.91 173.168 1017.91 172.896 1019.05 172.896ZM1019.02 174.624C1018.02 174.624 1017.22 174.952 1016.62 175.608C1016.05 176.248 1015.7 177.144 1015.59 178.296H1022.14C1022.13 177.208 1021.87 176.328 1021.38 175.656C1020.88 174.968 1020.1 174.624 1019.02 174.624ZM1033.82 172.896C1035.35 172.896 1036.51 173.272 1037.3 174.024C1038.08 174.76 1038.47 175.96 1038.47 177.624V186H1036.39V177.768C1036.39 175.704 1035.43 174.672 1033.51 174.672C1032.08 174.672 1031.1 175.072 1030.55 175.872C1030.01 176.672 1029.74 177.824 1029.74 179.328V186H1027.63V173.136H1029.33L1029.64 174.888H1029.76C1030.18 174.216 1030.75 173.72 1031.49 173.4C1032.23 173.064 1033 172.896 1033.82 172.896ZM1046.76 184.512C1047.08 184.512 1047.41 184.488 1047.74 184.44C1048.08 184.376 1048.35 184.312 1048.56 184.248V185.856C1048.33 185.968 1048.01 186.056 1047.6 186.12C1047.18 186.2 1046.78 186.24 1046.4 186.24C1045.73 186.24 1045.1 186.128 1044.53 185.904C1043.97 185.664 1043.51 185.256 1043.16 184.68C1042.81 184.104 1042.63 183.296 1042.63 182.256V174.768H1040.81V173.76L1042.65 172.92L1043.49 170.184H1044.74V173.136H1048.46V174.768H1044.74V182.208C1044.74 182.992 1044.93 183.576 1045.29 183.96C1045.68 184.328 1046.17 184.512 1046.76 184.512ZM1059.51 182.448C1059.51 183.696 1059.05 184.64 1058.12 185.28C1057.19 185.92 1055.94 186.24 1054.37 186.24C1053.48 186.24 1052.7 186.168 1052.05 186.024C1051.41 185.88 1050.84 185.68 1050.34 185.424V183.504C1050.85 183.76 1051.47 184 1052.19 184.224C1052.93 184.432 1053.67 184.536 1054.42 184.536C1055.49 184.536 1056.27 184.368 1056.75 184.032C1057.23 183.68 1057.47 183.216 1057.47 182.64C1057.47 182.32 1057.38 182.032 1057.21 181.776C1057.03 181.52 1056.71 181.264 1056.25 181.008C1055.8 180.752 1055.15 180.464 1054.3 180.144C1053.47 179.824 1052.76 179.504 1052.17 179.184C1051.57 178.864 1051.12 178.48 1050.8 178.032C1050.48 177.584 1050.32 177.008 1050.32 176.304C1050.32 175.216 1050.76 174.376 1051.64 173.784C1052.53 173.192 1053.7 172.896 1055.14 172.896C1055.93 172.896 1056.65 172.976 1057.33 173.136C1058.01 173.28 1058.65 173.488 1059.25 173.76L1058.53 175.44C1057.98 175.216 1057.41 175.024 1056.82 174.864C1056.23 174.704 1055.62 174.624 1055 174.624C1054.13 174.624 1053.47 174.768 1053.01 175.056C1052.56 175.328 1052.33 175.704 1052.33 176.184C1052.33 176.536 1052.44 176.84 1052.65 177.096C1052.85 177.336 1053.2 177.576 1053.68 177.816C1054.17 178.04 1054.83 178.312 1055.65 178.632C1056.46 178.936 1057.16 179.248 1057.73 179.568C1058.31 179.888 1058.75 180.28 1059.05 180.744C1059.36 181.192 1059.51 181.76 1059.51 182.448ZM1080.48 179.544C1080.48 181.672 1079.94 183.32 1078.85 184.488C1077.78 185.656 1076.32 186.24 1074.48 186.24C1073.35 186.24 1072.33 185.984 1071.43 185.472C1070.55 184.944 1069.86 184.184 1069.35 183.192C1068.83 182.184 1068.58 180.968 1068.58 179.544C1068.58 177.416 1069.11 175.776 1070.19 174.624C1071.26 173.472 1072.71 172.896 1074.55 172.896C1075.72 172.896 1076.75 173.16 1077.63 173.688C1078.52 174.2 1079.22 174.952 1079.71 175.944C1080.23 176.92 1080.48 178.12 1080.48 179.544ZM1070.76 179.544C1070.76 181.064 1071.06 182.272 1071.65 183.168C1072.26 184.048 1073.22 184.488 1074.53 184.488C1075.83 184.488 1076.78 184.048 1077.39 183.168C1077.99 182.272 1078.3 181.064 1078.3 179.544C1078.3 178.024 1077.99 176.832 1077.39 175.968C1076.78 175.104 1075.82 174.672 1074.51 174.672C1073.19 174.672 1072.24 175.104 1071.65 175.968C1071.06 176.832 1070.76 178.024 1070.76 179.544ZM1089.76 174.768H1086.52V186H1084.41V174.768H1082.15V173.784L1084.41 173.064V172.32C1084.41 170.656 1084.77 169.464 1085.51 168.744C1086.25 168.008 1087.27 167.64 1088.58 167.64C1089.09 167.64 1089.56 167.688 1089.97 167.784C1090.41 167.864 1090.77 167.96 1091.08 168.072L1090.53 169.728C1090.27 169.648 1089.97 169.568 1089.64 169.488C1089.3 169.408 1088.96 169.368 1088.61 169.368C1087.9 169.368 1087.37 169.608 1087.02 170.088C1086.69 170.552 1086.52 171.288 1086.52 172.296V173.136H1089.76V174.768ZM584.599 225.416C584.599 226.936 584.047 228.12 582.943 228.968C581.839 229.816 580.351 230.24 578.479 230.24C577.519 230.24 576.631 230.168 575.815 230.024C574.999 229.88 574.319 229.68 573.775 229.424V227.36C574.351 227.616 575.063 227.848 575.911 228.056C576.775 228.264 577.663 228.368 578.575 228.368C579.855 228.368 580.815 228.12 581.455 227.624C582.111 227.128 582.439 226.456 582.439 225.608C582.439 225.048 582.319 224.576 582.079 224.192C581.839 223.808 581.423 223.456 580.831 223.136C580.255 222.8 579.447 222.448 578.407 222.08C576.951 221.552 575.847 220.904 575.095 220.136C574.359 219.368 573.991 218.32 573.991 216.992C573.991 216.08 574.223 215.304 574.687 214.664C575.151 214.008 575.791 213.504 576.607 213.152C577.439 212.8 578.391 212.624 579.463 212.624C580.407 212.624 581.271 212.712 582.055 212.888C582.839 213.064 583.551 213.296 584.191 213.584L583.519 215.432C582.927 215.176 582.279 214.96 581.575 214.784C580.887 214.608 580.167 214.52 579.415 214.52C578.343 214.52 577.535 214.752 576.991 215.216C576.447 215.664 576.175 216.264 576.175 217.016C576.175 217.592 576.295 218.072 576.535 218.456C576.775 218.84 577.167 219.184 577.711 219.488C578.255 219.792 578.991 220.12 579.919 220.472C580.927 220.84 581.775 221.24 582.463 221.672C583.167 222.088 583.695 222.592 584.047 223.184C584.415 223.776 584.599 224.52 584.599 225.416ZM592.635 216.92C594.203 216.92 595.363 217.264 596.115 217.952C596.867 218.64 597.243 219.736 597.243 221.24V230H595.707L595.299 228.176H595.203C594.643 228.88 594.051 229.4 593.427 229.736C592.819 230.072 591.971 230.24 590.883 230.24C589.715 230.24 588.747 229.936 587.979 229.328C587.211 228.704 586.827 227.736 586.827 226.424C586.827 225.144 587.331 224.16 588.339 223.472C589.347 222.768 590.899 222.384 592.995 222.32L595.179 222.248V221.48C595.179 220.408 594.947 219.664 594.483 219.248C594.019 218.832 593.363 218.624 592.515 218.624C591.843 218.624 591.203 218.728 590.595 218.936C589.987 219.128 589.419 219.352 588.891 219.608L588.243 218.024C588.803 217.72 589.467 217.464 590.235 217.256C591.003 217.032 591.803 216.92 592.635 216.92ZM593.259 223.784C591.659 223.848 590.547 224.104 589.923 224.552C589.315 225 589.011 225.632 589.011 226.448C589.011 227.168 589.227 227.696 589.659 228.032C590.107 228.368 590.675 228.536 591.363 228.536C592.451 228.536 593.355 228.24 594.075 227.648C594.795 227.04 595.155 226.112 595.155 224.864V223.712L593.259 223.784ZM607.216 216.896C607.456 216.896 607.712 216.912 607.984 216.944C608.272 216.96 608.52 216.992 608.728 217.04L608.464 218.984C608.256 218.936 608.024 218.896 607.768 218.864C607.528 218.832 607.296 218.816 607.072 218.816C606.416 218.816 605.8 219 605.224 219.368C604.648 219.72 604.184 220.224 603.832 220.88C603.496 221.52 603.328 222.272 603.328 223.136V230H601.216V217.136H602.944L603.184 219.488H603.28C603.696 218.784 604.232 218.176 604.888 217.664C605.544 217.152 606.32 216.896 607.216 216.896ZM615.533 216.92C617.101 216.92 618.261 217.264 619.013 217.952C619.765 218.64 620.141 219.736 620.141 221.24V230H618.605L618.197 228.176H618.101C617.541 228.88 616.949 229.4 616.325 229.736C615.717 230.072 614.869 230.24 613.781 230.24C612.613 230.24 611.645 229.936 610.877 229.328C610.109 228.704 609.725 227.736 609.725 226.424C609.725 225.144 610.229 224.16 611.237 223.472C612.245 222.768 613.797 222.384 615.893 222.32L618.077 222.248V221.48C618.077 220.408 617.845 219.664 617.381 219.248C616.917 218.832 616.261 218.624 615.413 218.624C614.741 218.624 614.101 218.728 613.493 218.936C612.885 219.128 612.317 219.352 611.789 219.608L611.141 218.024C611.701 217.72 612.365 217.464 613.133 217.256C613.901 217.032 614.701 216.92 615.533 216.92ZM616.157 223.784C614.557 223.848 613.445 224.104 612.821 224.552C612.213 225 611.909 225.632 611.909 226.448C611.909 227.168 612.125 227.696 612.557 228.032C613.005 228.368 613.573 228.536 614.261 228.536C615.349 228.536 616.253 228.24 616.973 227.648C617.693 227.04 618.053 226.112 618.053 224.864V223.712L616.157 223.784ZM632.49 226.448C632.49 227.696 632.026 228.64 631.098 229.28C630.17 229.92 628.922 230.24 627.354 230.24C626.458 230.24 625.682 230.168 625.026 230.024C624.386 229.88 623.818 229.68 623.322 229.424V227.504C623.834 227.76 624.45 228 625.17 228.224C625.906 228.432 626.65 228.536 627.402 228.536C628.474 228.536 629.25 228.368 629.73 228.032C630.21 227.68 630.45 227.216 630.45 226.64C630.45 226.32 630.362 226.032 630.186 225.776C630.01 225.52 629.69 225.264 629.226 225.008C628.778 224.752 628.13 224.464 627.282 224.144C626.45 223.824 625.738 223.504 625.146 223.184C624.554 222.864 624.098 222.48 623.778 222.032C623.458 221.584 623.298 221.008 623.298 220.304C623.298 219.216 623.738 218.376 624.618 217.784C625.514 217.192 626.682 216.896 628.122 216.896C628.906 216.896 629.634 216.976 630.306 217.136C630.994 217.28 631.634 217.488 632.226 217.76L631.506 219.44C630.962 219.216 630.394 219.024 629.802 218.864C629.21 218.704 628.602 218.624 627.978 218.624C627.114 218.624 626.45 218.768 625.986 219.056C625.538 219.328 625.314 219.704 625.314 220.184C625.314 220.536 625.418 220.84 625.626 221.096C625.834 221.336 626.178 221.576 626.658 221.816C627.154 222.04 627.81 222.312 628.626 222.632C629.442 222.936 630.138 223.248 630.714 223.568C631.29 223.888 631.73 224.28 632.034 224.744C632.338 225.192 632.49 225.76 632.49 226.448ZM643.903 222.728C643.695 222.072 643.511 221.432 643.351 220.808C643.207 220.168 643.095 219.672 643.015 219.32H642.919C642.855 219.672 642.751 220.168 642.607 220.808C642.463 221.432 642.279 222.08 642.055 222.752L639.751 229.976H637.351L633.823 217.112H636.007L637.783 223.976C637.959 224.664 638.127 225.36 638.287 226.064C638.447 226.768 638.559 227.352 638.623 227.816H638.719C638.783 227.544 638.855 227.208 638.935 226.808C639.031 226.408 639.135 225.992 639.247 225.56C639.359 225.112 639.471 224.712 639.583 224.36L641.863 217.112H644.167L646.375 224.36C646.551 224.904 646.719 225.496 646.879 226.136C647.055 226.776 647.175 227.328 647.239 227.792H647.335C647.383 227.392 647.487 226.84 647.647 226.136C647.823 225.432 648.007 224.712 648.199 223.976L649.999 217.112H652.159L648.583 229.976H646.111L643.903 222.728ZM659.338 216.92C660.906 216.92 662.066 217.264 662.818 217.952C663.57 218.64 663.946 219.736 663.946 221.24V230H662.41L662.002 228.176H661.906C661.346 228.88 660.754 229.4 660.13 229.736C659.522 230.072 658.674 230.24 657.586 230.24C656.418 230.24 655.45 229.936 654.682 229.328C653.914 228.704 653.53 227.736 653.53 226.424C653.53 225.144 654.034 224.16 655.042 223.472C656.05 222.768 657.602 222.384 659.698 222.32L661.882 222.248V221.48C661.882 220.408 661.65 219.664 661.186 219.248C660.722 218.832 660.066 218.624 659.218 218.624C658.546 218.624 657.906 218.728 657.298 218.936C656.69 219.128 656.122 219.352 655.594 219.608L654.946 218.024C655.506 217.72 656.17 217.464 656.938 217.256C657.706 217.032 658.506 216.92 659.338 216.92ZM659.962 223.784C658.362 223.848 657.25 224.104 656.626 224.552C656.018 225 655.714 225.632 655.714 226.448C655.714 227.168 655.93 227.696 656.362 228.032C656.81 228.368 657.378 228.536 658.066 228.536C659.154 228.536 660.058 228.24 660.778 227.648C661.498 227.04 661.858 226.112 661.858 224.864V223.712L659.962 223.784ZM672.215 228.512C672.535 228.512 672.863 228.488 673.199 228.44C673.535 228.376 673.807 228.312 674.015 228.248V229.856C673.791 229.968 673.471 230.056 673.055 230.12C672.639 230.2 672.239 230.24 671.855 230.24C671.183 230.24 670.559 230.128 669.983 229.904C669.423 229.664 668.967 229.256 668.615 228.68C668.263 228.104 668.087 227.296 668.087 226.256V218.768H666.263V217.76L668.111 216.92L668.951 214.184H670.199V217.136H673.919V218.768H670.199V226.208C670.199 226.992 670.383 227.576 670.751 227.96C671.135 228.328 671.623 228.512 672.215 228.512ZM677.671 212.312C677.991 212.312 678.271 212.424 678.511 212.648C678.767 212.856 678.895 213.192 678.895 213.656C678.895 214.104 678.767 214.44 678.511 214.664C678.271 214.888 677.991 215 677.671 215C677.319 215 677.023 214.888 676.783 214.664C676.543 214.44 676.423 214.104 676.423 213.656C676.423 213.192 676.543 212.856 676.783 212.648C677.023 212.424 677.319 212.312 677.671 212.312ZM678.703 217.136V230H676.591V217.136H678.703ZM694.618 230.24C693.482 230.24 692.466 230.008 691.57 229.544C690.69 229.08 689.994 228.36 689.482 227.384C688.986 226.408 688.738 225.16 688.738 223.64C688.738 222.056 689.002 220.768 689.53 219.776C690.058 218.784 690.77 218.056 691.666 217.592C692.578 217.128 693.61 216.896 694.762 216.896C695.418 216.896 696.05 216.968 696.658 217.112C697.266 217.24 697.762 217.4 698.146 217.592L697.498 219.344C697.114 219.2 696.666 219.064 696.154 218.936C695.642 218.808 695.162 218.744 694.714 218.744C692.186 218.744 690.922 220.368 690.922 223.616C690.922 225.168 691.226 226.36 691.834 227.192C692.458 228.008 693.378 228.416 694.594 228.416C695.298 228.416 695.914 228.344 696.442 228.2C696.986 228.056 697.482 227.88 697.93 227.672V229.544C697.498 229.768 697.018 229.936 696.49 230.048C695.978 230.176 695.354 230.24 694.618 230.24ZM712.173 223.544C712.173 225.672 711.629 227.32 710.541 228.488C709.469 229.656 708.013 230.24 706.173 230.24C705.037 230.24 704.021 229.984 703.125 229.472C702.245 228.944 701.549 228.184 701.037 227.192C700.525 226.184 700.269 224.968 700.269 223.544C700.269 221.416 700.805 219.776 701.877 218.624C702.949 217.472 704.405 216.896 706.245 216.896C707.413 216.896 708.437 217.16 709.317 217.688C710.213 218.2 710.909 218.952 711.405 219.944C711.917 220.92 712.173 222.12 712.173 223.544ZM702.453 223.544C702.453 225.064 702.749 226.272 703.341 227.168C703.949 228.048 704.909 228.488 706.221 228.488C707.517 228.488 708.469 228.048 709.077 227.168C709.685 226.272 709.989 225.064 709.989 223.544C709.989 222.024 709.685 220.832 709.077 219.968C708.469 219.104 707.509 218.672 706.197 218.672C704.885 218.672 703.933 219.104 703.341 219.968C702.749 220.832 702.453 222.024 702.453 223.544ZM717.632 230H715.52V211.76H717.632V230ZM723.82 230H721.708V211.76H723.82V230ZM732.863 216.896C733.967 216.896 734.911 217.136 735.695 217.616C736.495 218.096 737.103 218.776 737.519 219.656C737.951 220.52 738.167 221.536 738.167 222.704V223.976H729.359C729.391 225.432 729.759 226.544 730.463 227.312C731.183 228.064 732.183 228.44 733.463 228.44C734.279 228.44 734.999 228.368 735.623 228.224C736.263 228.064 736.919 227.84 737.591 227.552V229.4C736.935 229.688 736.287 229.896 735.647 230.024C735.007 230.168 734.247 230.24 733.367 230.24C732.151 230.24 731.071 229.992 730.127 229.496C729.199 229 728.471 228.264 727.943 227.288C727.431 226.296 727.175 225.088 727.175 223.664C727.175 222.256 727.407 221.048 727.871 220.04C728.351 219.032 729.015 218.256 729.863 217.712C730.727 217.168 731.727 216.896 732.863 216.896ZM732.839 218.624C731.831 218.624 731.031 218.952 730.439 219.608C729.863 220.248 729.519 221.144 729.407 222.296H735.959C735.943 221.208 735.687 220.328 735.191 219.656C734.695 218.968 733.911 218.624 732.839 218.624ZM746.002 216.896C746.85 216.896 747.61 217.056 748.282 217.376C748.97 217.696 749.554 218.184 750.034 218.84H750.154L750.442 217.136H752.122V230.216C752.122 232.056 751.65 233.44 750.706 234.368C749.778 235.296 748.33 235.76 746.362 235.76C744.474 235.76 742.93 235.488 741.73 234.944V233C742.994 233.672 744.578 234.008 746.482 234.008C747.586 234.008 748.45 233.68 749.074 233.024C749.714 232.384 750.034 231.504 750.034 230.384V229.88C750.034 229.688 750.042 229.416 750.058 229.064C750.074 228.696 750.09 228.44 750.106 228.296H750.01C749.146 229.592 747.818 230.24 746.026 230.24C744.362 230.24 743.058 229.656 742.114 228.488C741.186 227.32 740.722 225.688 740.722 223.592C740.722 221.544 741.186 219.92 742.114 218.72C743.058 217.504 744.354 216.896 746.002 216.896ZM746.29 218.672C745.218 218.672 744.386 219.104 743.794 219.968C743.202 220.816 742.906 222.032 742.906 223.616C742.906 225.2 743.194 226.416 743.77 227.264C744.362 228.096 745.218 228.512 746.338 228.512C747.634 228.512 748.578 228.168 749.17 227.48C749.762 226.776 750.058 225.648 750.058 224.096V223.592C750.058 221.832 749.754 220.576 749.146 219.824C748.538 219.056 747.586 218.672 746.29 218.672ZM761.176 216.896C762.28 216.896 763.224 217.136 764.008 217.616C764.808 218.096 765.416 218.776 765.832 219.656C766.264 220.52 766.48 221.536 766.48 222.704V223.976H757.672C757.704 225.432 758.072 226.544 758.776 227.312C759.496 228.064 760.496 228.44 761.776 228.44C762.592 228.44 763.312 228.368 763.936 228.224C764.576 228.064 765.232 227.84 765.904 227.552V229.4C765.248 229.688 764.6 229.896 763.96 230.024C763.32 230.168 762.56 230.24 761.68 230.24C760.464 230.24 759.384 229.992 758.44 229.496C757.512 229 756.784 228.264 756.256 227.288C755.744 226.296 755.488 225.088 755.488 223.664C755.488 222.256 755.72 221.048 756.184 220.04C756.664 219.032 757.328 218.256 758.176 217.712C759.04 217.168 760.04 216.896 761.176 216.896ZM761.152 218.624C760.144 218.624 759.344 218.952 758.752 219.608C758.176 220.248 757.832 221.144 757.72 222.296H764.272C764.256 221.208 764 220.328 763.504 219.656C763.008 218.968 762.224 218.624 761.152 218.624ZM787.619 223.544C787.619 225.672 787.075 227.32 785.987 228.488C784.915 229.656 783.459 230.24 781.619 230.24C780.483 230.24 779.467 229.984 778.571 229.472C777.691 228.944 776.995 228.184 776.483 227.192C775.971 226.184 775.715 224.968 775.715 223.544C775.715 221.416 776.251 219.776 777.323 218.624C778.395 217.472 779.851 216.896 781.691 216.896C782.859 216.896 783.883 217.16 784.763 217.688C785.659 218.2 786.355 218.952 786.851 219.944C787.363 220.92 787.619 222.12 787.619 223.544ZM777.899 223.544C777.899 225.064 778.195 226.272 778.787 227.168C779.395 228.048 780.355 228.488 781.667 228.488C782.963 228.488 783.915 228.048 784.523 227.168C785.131 226.272 785.435 225.064 785.435 223.544C785.435 222.024 785.131 220.832 784.523 219.968C783.915 219.104 782.955 218.672 781.643 218.672C780.331 218.672 779.379 219.104 778.787 219.968C778.195 220.832 777.899 222.024 777.899 223.544ZM796.894 218.768H793.654V230H791.542V218.768H789.286V217.784L791.542 217.064V216.32C791.542 214.656 791.91 213.464 792.646 212.744C793.382 212.008 794.406 211.64 795.718 211.64C796.23 211.64 796.694 211.688 797.11 211.784C797.542 211.864 797.91 211.96 798.214 212.072L797.662 213.728C797.406 213.648 797.11 213.568 796.774 213.488C796.438 213.408 796.094 213.368 795.742 213.368C795.038 213.368 794.51 213.608 794.158 214.088C793.822 214.552 793.654 215.288 793.654 216.296V217.136H796.894V218.768ZM810.863 216.896C811.967 216.896 812.911 217.136 813.695 217.616C814.495 218.096 815.103 218.776 815.519 219.656C815.951 220.52 816.167 221.536 816.167 222.704V223.976H807.359C807.391 225.432 807.759 226.544 808.463 227.312C809.183 228.064 810.183 228.44 811.463 228.44C812.279 228.44 812.999 228.368 813.623 228.224C814.263 228.064 814.919 227.84 815.591 227.552V229.4C814.935 229.688 814.287 229.896 813.647 230.024C813.007 230.168 812.247 230.24 811.367 230.24C810.151 230.24 809.071 229.992 808.127 229.496C807.199 229 806.471 228.264 805.943 227.288C805.431 226.296 805.175 225.088 805.175 223.664C805.175 222.256 805.407 221.048 805.871 220.04C806.351 219.032 807.015 218.256 807.863 217.712C808.727 217.168 809.727 216.896 810.863 216.896ZM810.839 218.624C809.831 218.624 809.031 218.952 808.439 219.608C807.863 220.248 807.519 221.144 807.407 222.296H813.959C813.943 221.208 813.687 220.328 813.191 219.656C812.695 218.968 811.911 218.624 810.839 218.624ZM825.634 216.896C827.17 216.896 828.33 217.272 829.114 218.024C829.898 218.76 830.29 219.96 830.29 221.624V230H828.202V221.768C828.202 219.704 827.242 218.672 825.322 218.672C823.898 218.672 822.914 219.072 822.37 219.872C821.826 220.672 821.554 221.824 821.554 223.328V230H819.442V217.136H821.146L821.458 218.888H821.578C821.994 218.216 822.57 217.72 823.306 217.4C824.042 217.064 824.818 216.896 825.634 216.896ZM838.838 216.896C839.686 216.896 840.446 217.056 841.118 217.376C841.806 217.696 842.39 218.184 842.87 218.84H842.99L843.278 217.136H844.958V230.216C844.958 232.056 844.486 233.44 843.542 234.368C842.614 235.296 841.166 235.76 839.198 235.76C837.31 235.76 835.766 235.488 834.566 234.944V233C835.83 233.672 837.414 234.008 839.318 234.008C840.422 234.008 841.286 233.68 841.91 233.024C842.55 232.384 842.87 231.504 842.87 230.384V229.88C842.87 229.688 842.878 229.416 842.894 229.064C842.91 228.696 842.926 228.44 842.942 228.296H842.846C841.982 229.592 840.654 230.24 838.862 230.24C837.198 230.24 835.894 229.656 834.95 228.488C834.022 227.32 833.558 225.688 833.558 223.592C833.558 221.544 834.022 219.92 834.95 218.72C835.894 217.504 837.19 216.896 838.838 216.896ZM839.126 218.672C838.054 218.672 837.222 219.104 836.63 219.968C836.038 220.816 835.742 222.032 835.742 223.616C835.742 225.2 836.03 226.416 836.606 227.264C837.198 228.096 838.054 228.512 839.174 228.512C840.47 228.512 841.414 228.168 842.006 227.48C842.598 226.776 842.894 225.648 842.894 224.096V223.592C842.894 221.832 842.59 220.576 841.982 219.824C841.374 219.056 840.422 218.672 839.126 218.672ZM853.604 216.896C854.452 216.896 855.212 217.056 855.884 217.376C856.572 217.696 857.156 218.184 857.636 218.84H857.756L858.044 217.136H859.724V230.216C859.724 232.056 859.252 233.44 858.308 234.368C857.38 235.296 855.932 235.76 853.964 235.76C852.076 235.76 850.532 235.488 849.332 234.944V233C850.596 233.672 852.18 234.008 854.084 234.008C855.188 234.008 856.052 233.68 856.676 233.024C857.316 232.384 857.636 231.504 857.636 230.384V229.88C857.636 229.688 857.644 229.416 857.66 229.064C857.676 228.696 857.692 228.44 857.708 228.296H857.612C856.748 229.592 855.42 230.24 853.628 230.24C851.964 230.24 850.66 229.656 849.716 228.488C848.788 227.32 848.324 225.688 848.324 223.592C848.324 221.544 848.788 219.92 849.716 218.72C850.66 217.504 851.956 216.896 853.604 216.896ZM853.892 218.672C852.82 218.672 851.988 219.104 851.396 219.968C850.804 220.816 850.508 222.032 850.508 223.616C850.508 225.2 850.796 226.416 851.372 227.264C851.964 228.096 852.82 228.512 853.94 228.512C855.236 228.512 856.18 228.168 856.772 227.48C857.364 226.776 857.66 225.648 857.66 224.096V223.592C857.66 221.832 857.356 220.576 856.748 219.824C856.14 219.056 855.188 218.672 853.892 218.672ZM866.352 227.504V230H863.855V227.504H866.352Z" fill="white" fill-opacity="0.86"/>
<path d="M572.551 233H680.743V234.2H572.551V233ZM680.738 233.422H687.406V235.18H680.738V233.422ZM687.418 233H767.704V234.2H687.418V233ZM767.715 233.422H774.383V235.18H767.715V233.422ZM774.395 233H797.182V234.2H774.395V233ZM797.176 233.422H803.844V235.18H797.176V233.422ZM803.855 233H861.764V234.2H803.855V233Z" fill="white" fill-opacity="0.86"/>
</g>
<path d="M91 326L95.9497 323.95L98 319L99.6621 323.95L105 326L99.6621 327.662L98 333L95.9497 327.662L91 326Z" fill="white"/>
<circle cx="98.424" cy="325.187" r="1.23744" fill="#100BFF"/>
<path d="M1363 417L1367.95 414.95L1370 410L1371.66 414.95L1377 417L1371.66 418.662L1370 424L1367.95 418.662L1363 417Z" fill="white"/>
<circle cx="1370.42" cy="416.187" r="1.23744" fill="#100BFF"/>
<path d="M878 367L882.95 364.95L885 360L886.662 364.95L892 367L886.662 368.662L885 374L882.95 368.662L878 367Z" fill="white"/>
<circle cx="885.424" cy="366.187" r="1.23744" fill="#100BFF"/>
<path d="M581 388L585.95 385.95L588 381L589.662 385.95L595 388L589.662 389.662L588 395L585.95 389.662L581 388Z" fill="white"/>
<circle cx="588.424" cy="387.187" r="1.23744" fill="#100BFF"/>
<path d="M281 353L285.95 350.95L288 346L289.662 350.95L295 353L289.662 354.662L288 360L285.95 354.662L281 353Z" fill="white"/>
<circle cx="288.424" cy="352.187" r="1.23744" fill="#100BFF"/>
<path d="M1176 397L1180.95 394.95L1183 390L1184.66 394.95L1190 397L1184.66 398.662L1183 404L1180.95 398.662L1176 397Z" fill="white"/>
<circle cx="1183.42" cy="396.187" r="1.23744" fill="#100BFF"/>
<path d="M197 440.655L203.827 443.483L206.655 450.31L208.947 443.483L216.31 440.655L208.947 438.363L206.655 431L203.827 438.363L197 440.655Z" fill="black"/>
<circle r="1.70678" transform="matrix(1 0 0 -1 207.24 441.776)" fill="white"/>
<path d="M553 428.655L559.827 431.483L562.655 438.31L564.947 431.483L572.31 428.655L564.947 426.363L562.655 419L559.827 426.363L553 428.655Z" fill="black"/>
<circle r="1.70678" transform="matrix(1 0 0 -1 563.24 429.776)" fill="white"/>
<path d="M1021 462.655L1027.83 465.483L1030.66 472.31L1032.95 465.483L1040.31 462.655L1032.95 460.363L1030.66 453L1027.83 460.363L1021 462.655Z" fill="black"/>
<circle r="1.70678" transform="matrix(1 0 0 -1 1031.24 463.776)" fill="white"/>
<path d="M1290 485.655L1296.83 488.483L1299.66 495.31L1301.95 488.483L1309.31 485.655L1301.95 483.363L1299.66 476L1296.83 483.363L1290 485.655Z" fill="black"/>
<circle r="1.70678" transform="matrix(1 0 0 -1 1300.24 486.776)" fill="white"/>
<path d="M26 461.655L32.8271 464.483L35.655 471.31L37.9475 464.483L45.31 461.655L37.9475 459.363L35.655 452L32.8271 459.363L26 461.655Z" fill="black"/>
<circle r="1.70678" transform="matrix(1 0 0 -1 36.2403 462.776)" fill="white"/>
<path d="M90 464L94.9497 466.05L97 471L98.6621 466.05L104 464L98.6621 462.338L97 457L94.9497 462.338L90 464Z" fill="black"/>
<circle r="1.23744" transform="matrix(1 0 0 -1 97.424 464.813)" fill="white"/>
<path d="M1363 489.31L1367.95 491.36L1370 496.31L1371.66 491.36L1377 489.31L1371.66 487.648L1370 482.31L1367.95 487.648L1363 489.31Z" fill="black"/>
<circle r="1.23744" transform="matrix(1 0 0 -1 1370.42 490.123)" fill="white"/>
<path d="M690 463L694.95 465.05L697 470L698.662 465.05L704 463L698.662 461.338L697 456L694.95 461.338L690 463Z" fill="black"/>
<circle r="1.23744" transform="matrix(1 0 0 -1 697.424 463.813)" fill="white"/>
<path d="M860 467L864.95 469.05L867 474L868.662 469.05L874 467L868.662 465.338L867 460L864.95 465.338L860 467Z" fill="black"/>
<circle r="1.23744" transform="matrix(1 0 0 -1 867.424 467.813)" fill="white"/>
<path d="M421 391L425.95 393.05L428 398L429.662 393.05L435 391L429.662 389.338L428 384L425.95 389.338L421 391Z" fill="black"/>
<circle r="1.23744" transform="matrix(1 0 0 -1 428.424 391.813)" fill="white"/>
<path d="M295 405L299.95 407.05L302 412L303.662 407.05L309 405L303.662 403.338L302 398L299.95 403.338L295 405Z" fill="black"/>
<circle r="1.23744" transform="matrix(1 0 0 -1 302.424 405.813)" fill="white"/>
<path d="M1176 445.31L1180.95 447.36L1183 452.31L1184.66 447.36L1190 445.31L1184.66 443.648L1183 438.31L1180.95 443.648L1176 445.31Z" fill="black"/>
<circle r="1.23744" transform="matrix(1 0 0 -1 1183.42 446.123)" fill="white"/>
<path d="M629.675 539.408C629.675 541.184 629.371 542.736 628.763 544.064C628.171 545.376 627.291 546.4 626.123 547.136C624.955 547.872 623.507 548.24 621.779 548.24C620.003 548.24 618.523 547.872 617.339 547.136C616.171 546.4 615.299 545.368 614.723 544.04C614.147 542.712 613.859 541.16 613.859 539.384C613.859 537.624 614.147 536.088 614.723 534.776C615.299 533.464 616.171 532.44 617.339 531.704C618.523 530.968 620.011 530.6 621.803 530.6C623.515 530.6 624.955 530.968 626.123 531.704C627.291 532.424 628.171 533.448 628.763 534.776C629.371 536.088 629.675 537.632 629.675 539.408ZM616.139 539.408C616.139 541.568 616.595 543.272 617.507 544.52C618.419 545.752 619.843 546.368 621.779 546.368C623.731 546.368 625.155 545.752 626.051 544.52C626.947 543.272 627.395 541.568 627.395 539.408C627.395 537.248 626.947 535.56 626.051 534.344C625.155 533.112 623.739 532.496 621.803 532.496C619.867 532.496 618.435 533.112 617.507 534.344C616.595 535.56 616.139 537.248 616.139 539.408ZM643.937 535.136V548H642.209L641.897 546.296H641.801C641.385 546.968 640.809 547.464 640.073 547.784C639.337 548.088 638.553 548.24 637.721 548.24C636.169 548.24 635.001 547.872 634.217 547.136C633.433 546.384 633.041 545.192 633.041 543.56V535.136H635.177V543.416C635.177 545.464 636.129 546.488 638.033 546.488C639.457 546.488 640.441 546.088 640.985 545.288C641.545 544.488 641.825 543.336 641.825 541.832V535.136H643.937ZM654.02 534.896C654.26 534.896 654.516 534.912 654.788 534.944C655.076 534.96 655.324 534.992 655.532 535.04L655.268 536.984C655.06 536.936 654.828 536.896 654.572 536.864C654.332 536.832 654.1 536.816 653.876 536.816C653.22 536.816 652.604 537 652.028 537.368C651.452 537.72 650.988 538.224 650.636 538.88C650.3 539.52 650.132 540.272 650.132 541.136V548H648.02V535.136H649.748L649.988 537.488H650.084C650.5 536.784 651.036 536.176 651.692 535.664C652.348 535.152 653.124 534.896 654.02 534.896ZM675.654 548L673.59 542.696H666.798L664.758 548H662.574L669.27 530.792H671.214L677.886 548H675.654ZM671.022 535.592C670.974 535.464 670.894 535.232 670.782 534.896C670.67 534.56 670.558 534.216 670.446 533.864C670.35 533.496 670.27 533.216 670.206 533.024C670.094 533.52 669.966 534.008 669.822 534.488C669.678 534.952 669.558 535.32 669.462 535.592L667.518 540.776H672.942L671.022 535.592ZM694.054 534.896C695.51 534.896 696.598 535.272 697.318 536.024C698.038 536.76 698.398 537.96 698.398 539.624V548H696.31V539.72C696.31 537.688 695.438 536.672 693.694 536.672C692.446 536.672 691.55 537.032 691.006 537.752C690.478 538.472 690.214 539.52 690.214 540.896V548H688.126V539.72C688.126 537.688 687.246 536.672 685.486 536.672C684.19 536.672 683.294 537.072 682.798 537.872C682.302 538.672 682.054 539.824 682.054 541.328V548H679.942V535.136H681.646L681.958 536.888H682.078C682.478 536.216 683.014 535.72 683.686 535.4C684.374 535.064 685.102 534.896 685.87 534.896C687.886 534.896 689.198 535.616 689.806 537.056H689.926C690.358 536.32 690.942 535.776 691.678 535.424C692.43 535.072 693.222 534.896 694.054 534.896ZM707.244 534.92C708.812 534.92 709.972 535.264 710.724 535.952C711.476 536.64 711.852 537.736 711.852 539.24V548H710.316L709.908 546.176H709.812C709.252 546.88 708.66 547.4 708.036 547.736C707.428 548.072 706.58 548.24 705.492 548.24C704.324 548.24 703.356 547.936 702.588 547.328C701.82 546.704 701.436 545.736 701.436 544.424C701.436 543.144 701.94 542.16 702.948 541.472C703.956 540.768 705.508 540.384 707.604 540.32L709.788 540.248V539.48C709.788 538.408 709.556 537.664 709.092 537.248C708.628 536.832 707.972 536.624 707.124 536.624C706.452 536.624 705.812 536.728 705.204 536.936C704.596 537.128 704.028 537.352 703.5 537.608L702.852 536.024C703.412 535.72 704.076 535.464 704.844 535.256C705.612 535.032 706.412 534.92 707.244 534.92ZM707.868 541.784C706.268 541.848 705.156 542.104 704.532 542.552C703.924 543 703.62 543.632 703.62 544.448C703.62 545.168 703.836 545.696 704.268 546.032C704.716 546.368 705.284 546.536 705.972 546.536C707.06 546.536 707.964 546.24 708.684 545.648C709.404 545.04 709.764 544.112 709.764 542.864V541.712L707.868 541.784ZM724.129 548H714.721V546.608L721.633 536.768H715.129V535.136H723.961V536.72L717.145 546.368H724.129V548ZM728.179 530.312C728.499 530.312 728.779 530.424 729.019 530.648C729.275 530.856 729.403 531.192 729.403 531.656C729.403 532.104 729.275 532.44 729.019 532.664C728.779 532.888 728.499 533 728.179 533C727.827 533 727.531 532.888 727.291 532.664C727.051 532.44 726.931 532.104 726.931 531.656C726.931 531.192 727.051 530.856 727.291 530.648C727.531 530.424 727.827 530.312 728.179 530.312ZM729.211 535.136V548H727.099V535.136H729.211ZM739.478 534.896C741.014 534.896 742.174 535.272 742.958 536.024C743.742 536.76 744.134 537.96 744.134 539.624V548H742.046V539.768C742.046 537.704 741.086 536.672 739.166 536.672C737.742 536.672 736.758 537.072 736.214 537.872C735.67 538.672 735.398 539.824 735.398 541.328V548H733.286V535.136H734.99L735.302 536.888H735.422C735.838 536.216 736.414 535.72 737.15 535.4C737.886 535.064 738.662 534.896 739.478 534.896ZM752.682 534.896C753.53 534.896 754.29 535.056 754.962 535.376C755.65 535.696 756.234 536.184 756.714 536.84H756.834L757.122 535.136H758.802V548.216C758.802 550.056 758.33 551.44 757.386 552.368C756.458 553.296 755.01 553.76 753.042 553.76C751.154 553.76 749.61 553.488 748.41 552.944V551C749.674 551.672 751.258 552.008 753.162 552.008C754.266 552.008 755.13 551.68 755.754 551.024C756.394 550.384 756.714 549.504 756.714 548.384V547.88C756.714 547.688 756.722 547.416 756.738 547.064C756.754 546.696 756.77 546.44 756.786 546.296H756.69C755.826 547.592 754.498 548.24 752.706 548.24C751.042 548.24 749.738 547.656 748.794 546.488C747.866 545.32 747.402 543.688 747.402 541.592C747.402 539.544 747.866 537.92 748.794 536.72C749.738 535.504 751.034 534.896 752.682 534.896ZM752.97 536.672C751.898 536.672 751.066 537.104 750.474 537.968C749.882 538.816 749.586 540.032 749.586 541.616C749.586 543.2 749.874 544.416 750.45 545.264C751.042 546.096 751.898 546.512 753.018 546.512C754.314 546.512 755.258 546.168 755.85 545.48C756.442 544.776 756.738 543.648 756.738 542.096V541.592C756.738 539.832 756.434 538.576 755.826 537.824C755.218 537.056 754.266 536.672 752.97 536.672ZM775.279 548H773.119V532.76H767.767V530.864H780.607V532.76H775.279V548ZM786.184 534.896C787.288 534.896 788.232 535.136 789.016 535.616C789.816 536.096 790.424 536.776 790.84 537.656C791.272 538.52 791.488 539.536 791.488 540.704V541.976H782.68C782.712 543.432 783.08 544.544 783.784 545.312C784.504 546.064 785.504 546.44 786.784 546.44C787.6 546.44 788.32 546.368 788.944 546.224C789.584 546.064 790.24 545.84 790.912 545.552V547.4C790.256 547.688 789.608 547.896 788.968 548.024C788.328 548.168 787.568 548.24 786.688 548.24C785.472 548.24 784.392 547.992 783.448 547.496C782.52 547 781.792 546.264 781.264 545.288C780.752 544.296 780.496 543.088 780.496 541.664C780.496 540.256 780.728 539.048 781.192 538.04C781.672 537.032 782.336 536.256 783.184 535.712C784.048 535.168 785.048 534.896 786.184 534.896ZM786.16 536.624C785.152 536.624 784.352 536.952 783.76 537.608C783.184 538.248 782.84 539.144 782.728 540.296H789.28C789.264 539.208 789.008 538.328 788.512 537.656C788.016 536.968 787.232 536.624 786.16 536.624ZM799.635 534.92C801.203 534.92 802.363 535.264 803.115 535.952C803.867 536.64 804.243 537.736 804.243 539.24V548H802.707L802.299 546.176H802.203C801.643 546.88 801.051 547.4 800.427 547.736C799.819 548.072 798.971 548.24 797.883 548.24C796.715 548.24 795.747 547.936 794.979 547.328C794.211 546.704 793.827 545.736 793.827 544.424C793.827 543.144 794.331 542.16 795.339 541.472C796.347 540.768 797.899 540.384 799.995 540.32L802.179 540.248V539.48C802.179 538.408 801.947 537.664 801.483 537.248C801.019 536.832 800.363 536.624 799.515 536.624C798.843 536.624 798.203 536.728 797.595 536.936C796.987 537.128 796.419 537.352 795.891 537.608L795.243 536.024C795.803 535.72 796.467 535.464 797.235 535.256C798.003 535.032 798.803 534.92 799.635 534.92ZM800.259 541.784C798.659 541.848 797.547 542.104 796.923 542.552C796.315 543 796.011 543.632 796.011 544.448C796.011 545.168 796.227 545.696 796.659 546.032C797.107 546.368 797.675 546.536 798.363 546.536C799.451 546.536 800.355 546.24 801.075 545.648C801.795 545.04 802.155 544.112 802.155 542.864V541.712L800.259 541.784ZM822.328 534.896C823.784 534.896 824.872 535.272 825.592 536.024C826.312 536.76 826.672 537.96 826.672 539.624V548H824.584V539.72C824.584 537.688 823.712 536.672 821.968 536.672C820.72 536.672 819.824 537.032 819.28 537.752C818.752 538.472 818.488 539.52 818.488 540.896V548H816.4V539.72C816.4 537.688 815.52 536.672 813.76 536.672C812.464 536.672 811.568 537.072 811.072 537.872C810.576 538.672 810.328 539.824 810.328 541.328V548H808.216V535.136H809.92L810.232 536.888H810.352C810.752 536.216 811.288 535.72 811.96 535.4C812.648 535.064 813.376 534.896 814.144 534.896C816.16 534.896 817.472 535.616 818.08 537.056H818.2C818.632 536.32 819.216 535.776 819.952 535.424C820.704 535.072 821.496 534.896 822.328 534.896Z" fill="black"/>
<defs>
<filter id="filter0_d" x="326.281" y="149.64" width="782.796" height="104.12" filterUnits="userSpaceOnUse" color-interpolation-filters="sRGB">
<feFlood flood-opacity="0" result="BackgroundImageFix"/>
<feColorMatrix in="SourceAlpha" type="matrix" values="0 0 0 0 0 0 0 0 0 0 0 0 0 0 0 0 0 0 127 0"/>
<feOffset/>
<feGaussianBlur stdDeviation="9"/>
<feColorMatrix type="matrix" values="0 0 0 0 1 0 0 0 0 1 0 0 0 0 1 0 0 0 1 0"/>
<feBlend mode="normal" in2="BackgroundImageFix" result="effect1_dropShadow"/>
<feBlend mode="normal" in="SourceGraphic" in2="effect1_dropShadow" result="shape"/>
</filter>
<linearGradient id="paint0_linear" x1="720" y1="0" x2="720" y2="457.905" gradientUnits="userSpaceOnUse">
<stop offset="0.651042" stop-color="#0382F3"/>
<stop offset="1" stop-color="#DF25B6"/>
</linearGradient>
</defs>
</svg>
