<svg width="349" height="473" viewBox="0 0 349 473" fill="none" xmlns="http://www.w3.org/2000/svg">
<path d="M75.6745 450.408C75.6745 452.184 75.3705 453.736 74.7625 455.064C74.1705 456.376 73.2905 457.4 72.1225 458.136C70.9545 458.872 69.5065 459.24 67.7785 459.24C66.0025 459.24 64.5225 458.872 63.3385 458.136C62.1705 457.4 61.2985 456.368 60.7225 455.04C60.1465 453.712 59.8585 452.16 59.8585 450.384C59.8585 448.624 60.1465 447.088 60.7225 445.776C61.2985 444.464 62.1705 443.44 63.3385 442.704C64.5225 441.968 66.0105 441.6 67.8025 441.6C69.5145 441.6 70.9545 441.968 72.1225 442.704C73.2905 443.424 74.1705 444.448 74.7625 445.776C75.3705 447.088 75.6745 448.632 75.6745 450.408ZM62.1385 450.408C62.1385 452.568 62.5945 454.272 63.5065 455.52C64.4185 456.752 65.8425 457.368 67.7785 457.368C69.7305 457.368 71.1545 456.752 72.0505 455.52C72.9465 454.272 73.3945 452.568 73.3945 450.408C73.3945 448.248 72.9465 446.56 72.0505 445.344C71.1545 444.112 69.7385 443.496 67.8025 443.496C65.8665 443.496 64.4345 444.112 63.5065 445.344C62.5945 446.56 62.1385 448.248 62.1385 450.408ZM89.9365 446.136V459H88.2085L87.8965 457.296H87.8005C87.3845 457.968 86.8085 458.464 86.0725 458.784C85.3365 459.088 84.5525 459.24 83.7205 459.24C82.1685 459.24 81.0005 458.872 80.2165 458.136C79.4325 457.384 79.0405 456.192 79.0405 454.56V446.136H81.1765V454.416C81.1765 456.464 82.1285 457.488 84.0325 457.488C85.4565 457.488 86.4405 457.088 86.9845 456.288C87.5445 455.488 87.8245 454.336 87.8245 452.832V446.136H89.9365ZM100.02 445.896C100.26 445.896 100.516 445.912 100.788 445.944C101.076 445.96 101.324 445.992 101.532 446.04L101.268 447.984C101.06 447.936 100.828 447.896 100.572 447.864C100.332 447.832 100.1 447.816 99.8765 447.816C99.2205 447.816 98.6045 448 98.0285 448.368C97.4525 448.72 96.9885 449.224 96.6365 449.88C96.3005 450.52 96.1325 451.272 96.1325 452.136V459H94.0205V446.136H95.7485L95.9885 448.488H96.0845C96.5005 447.784 97.0365 447.176 97.6925 446.664C98.3485 446.152 99.1245 445.896 100.02 445.896ZM121.654 459L119.59 453.696H112.798L110.758 459H108.574L115.27 441.792H117.214L123.886 459H121.654ZM117.022 446.592C116.974 446.464 116.894 446.232 116.782 445.896C116.67 445.56 116.558 445.216 116.446 444.864C116.35 444.496 116.27 444.216 116.206 444.024C116.094 444.52 115.966 445.008 115.822 445.488C115.678 445.952 115.558 446.32 115.462 446.592L113.518 451.776H118.942L117.022 446.592ZM140.054 445.896C141.51 445.896 142.598 446.272 143.318 447.024C144.038 447.76 144.398 448.96 144.398 450.624V459H142.31V450.72C142.31 448.688 141.438 447.672 139.694 447.672C138.446 447.672 137.55 448.032 137.006 448.752C136.478 449.472 136.214 450.52 136.214 451.896V459H134.126V450.72C134.126 448.688 133.246 447.672 131.486 447.672C130.19 447.672 129.294 448.072 128.798 448.872C128.302 449.672 128.054 450.824 128.054 452.328V459H125.942V446.136H127.646L127.958 447.888H128.078C128.478 447.216 129.014 446.72 129.686 446.4C130.374 446.064 131.102 445.896 131.87 445.896C133.886 445.896 135.198 446.616 135.806 448.056H135.926C136.358 447.32 136.942 446.776 137.678 446.424C138.43 446.072 139.222 445.896 140.054 445.896ZM153.244 445.92C154.812 445.92 155.972 446.264 156.724 446.952C157.476 447.64 157.852 448.736 157.852 450.24V459H156.316L155.908 457.176H155.812C155.252 457.88 154.66 458.4 154.036 458.736C153.428 459.072 152.58 459.24 151.492 459.24C150.324 459.24 149.356 458.936 148.588 458.328C147.82 457.704 147.436 456.736 147.436 455.424C147.436 454.144 147.94 453.16 148.948 452.472C149.956 451.768 151.508 451.384 153.604 451.32L155.788 451.248V450.48C155.788 449.408 155.556 448.664 155.092 448.248C154.628 447.832 153.972 447.624 153.124 447.624C152.452 447.624 151.812 447.728 151.204 447.936C150.596 448.128 150.028 448.352 149.5 448.608L148.852 447.024C149.412 446.72 150.076 446.464 150.844 446.256C151.612 446.032 152.412 445.92 153.244 445.92ZM153.868 452.784C152.268 452.848 151.156 453.104 150.532 453.552C149.924 454 149.62 454.632 149.62 455.448C149.62 456.168 149.836 456.696 150.268 457.032C150.716 457.368 151.284 457.536 151.972 457.536C153.06 457.536 153.964 457.24 154.684 456.648C155.404 456.04 155.764 455.112 155.764 453.864V452.712L153.868 452.784ZM170.129 459H160.721V457.608L167.633 447.768H161.129V446.136H169.961V447.72L163.145 457.368H170.129V459ZM174.179 441.312C174.499 441.312 174.779 441.424 175.019 441.648C175.275 441.856 175.403 442.192 175.403 442.656C175.403 443.104 175.275 443.44 175.019 443.664C174.779 443.888 174.499 444 174.179 444C173.827 444 173.531 443.888 173.291 443.664C173.051 443.44 172.931 443.104 172.931 442.656C172.931 442.192 173.051 441.856 173.291 441.648C173.531 441.424 173.827 441.312 174.179 441.312ZM175.211 446.136V459H173.099V446.136H175.211ZM185.478 445.896C187.014 445.896 188.174 446.272 188.958 447.024C189.742 447.76 190.134 448.96 190.134 450.624V459H188.046V450.768C188.046 448.704 187.086 447.672 185.166 447.672C183.742 447.672 182.758 448.072 182.214 448.872C181.67 449.672 181.398 450.824 181.398 452.328V459H179.286V446.136H180.99L181.302 447.888H181.422C181.838 447.216 182.414 446.72 183.15 446.4C183.886 446.064 184.662 445.896 185.478 445.896ZM198.682 445.896C199.53 445.896 200.29 446.056 200.962 446.376C201.65 446.696 202.234 447.184 202.714 447.84H202.834L203.122 446.136H204.802V459.216C204.802 461.056 204.33 462.44 203.386 463.368C202.458 464.296 201.01 464.76 199.042 464.76C197.154 464.76 195.61 464.488 194.41 463.944V462C195.674 462.672 197.258 463.008 199.162 463.008C200.266 463.008 201.13 462.68 201.754 462.024C202.394 461.384 202.714 460.504 202.714 459.384V458.88C202.714 458.688 202.722 458.416 202.738 458.064C202.754 457.696 202.77 457.44 202.786 457.296H202.69C201.826 458.592 200.498 459.24 198.706 459.24C197.042 459.24 195.738 458.656 194.794 457.488C193.866 456.32 193.402 454.688 193.402 452.592C193.402 450.544 193.866 448.92 194.794 447.72C195.738 446.504 197.034 445.896 198.682 445.896ZM198.97 447.672C197.898 447.672 197.066 448.104 196.474 448.968C195.882 449.816 195.586 451.032 195.586 452.616C195.586 454.2 195.874 455.416 196.45 456.264C197.042 457.096 197.898 457.512 199.018 457.512C200.314 457.512 201.258 457.168 201.85 456.48C202.442 455.776 202.738 454.648 202.738 453.096V452.592C202.738 450.832 202.434 449.576 201.826 448.824C201.218 448.056 200.266 447.672 198.97 447.672ZM221.279 459H219.119V443.76H213.767V441.864H226.607V443.76H221.279V459ZM232.184 445.896C233.288 445.896 234.232 446.136 235.016 446.616C235.816 447.096 236.424 447.776 236.84 448.656C237.272 449.52 237.488 450.536 237.488 451.704V452.976H228.68C228.712 454.432 229.08 455.544 229.784 456.312C230.504 457.064 231.504 457.44 232.784 457.44C233.6 457.44 234.32 457.368 234.944 457.224C235.584 457.064 236.24 456.84 236.912 456.552V458.4C236.256 458.688 235.608 458.896 234.968 459.024C234.328 459.168 233.568 459.24 232.688 459.24C231.472 459.24 230.392 458.992 229.448 458.496C228.52 458 227.792 457.264 227.264 456.288C226.752 455.296 226.496 454.088 226.496 452.664C226.496 451.256 226.728 450.048 227.192 449.04C227.672 448.032 228.336 447.256 229.184 446.712C230.048 446.168 231.048 445.896 232.184 445.896ZM232.16 447.624C231.152 447.624 230.352 447.952 229.76 448.608C229.184 449.248 228.84 450.144 228.728 451.296H235.28C235.264 450.208 235.008 449.328 234.512 448.656C234.016 447.968 233.232 447.624 232.16 447.624ZM245.635 445.92C247.203 445.92 248.363 446.264 249.115 446.952C249.867 447.64 250.243 448.736 250.243 450.24V459H248.707L248.299 457.176H248.203C247.643 457.88 247.051 458.4 246.427 458.736C245.819 459.072 244.971 459.24 243.883 459.24C242.715 459.24 241.747 458.936 240.979 458.328C240.211 457.704 239.827 456.736 239.827 455.424C239.827 454.144 240.331 453.16 241.339 452.472C242.347 451.768 243.899 451.384 245.995 451.32L248.179 451.248V450.48C248.179 449.408 247.947 448.664 247.483 448.248C247.019 447.832 246.363 447.624 245.515 447.624C244.843 447.624 244.203 447.728 243.595 447.936C242.987 448.128 242.419 448.352 241.891 448.608L241.243 447.024C241.803 446.72 242.467 446.464 243.235 446.256C244.003 446.032 244.803 445.92 245.635 445.92ZM246.259 452.784C244.659 452.848 243.547 453.104 242.923 453.552C242.315 454 242.011 454.632 242.011 455.448C242.011 456.168 242.227 456.696 242.659 457.032C243.107 457.368 243.675 457.536 244.363 457.536C245.451 457.536 246.355 457.24 247.075 456.648C247.795 456.04 248.155 455.112 248.155 453.864V452.712L246.259 452.784ZM268.328 445.896C269.784 445.896 270.872 446.272 271.592 447.024C272.312 447.76 272.672 448.96 272.672 450.624V459H270.584V450.72C270.584 448.688 269.712 447.672 267.968 447.672C266.72 447.672 265.824 448.032 265.28 448.752C264.752 449.472 264.488 450.52 264.488 451.896V459H262.4V450.72C262.4 448.688 261.52 447.672 259.76 447.672C258.464 447.672 257.568 448.072 257.072 448.872C256.576 449.672 256.328 450.824 256.328 452.328V459H254.216V446.136H255.92L256.232 447.888H256.352C256.752 447.216 257.288 446.72 257.96 446.4C258.648 446.064 259.376 445.896 260.144 445.896C262.16 445.896 263.472 446.616 264.08 448.056H264.2C264.632 447.32 265.216 446.776 265.952 446.424C266.704 446.072 267.496 445.896 268.328 445.896Z" fill="white"/>
<g filter="url(#filter0_d)">
<path d="M65.7206 241L63.6566 235.696H56.8646L54.8246 241H52.6406L59.3366 223.792H61.2806L67.9526 241H65.7206ZM61.0886 228.592C61.0406 228.464 60.9606 228.232 60.8486 227.896C60.7366 227.56 60.6246 227.216 60.5126 226.864C60.4166 226.496 60.3366 226.216 60.2726 226.024C60.1606 226.52 60.0326 227.008 59.8886 227.488C59.7446 227.952 59.6246 228.32 59.5286 228.592L57.5846 233.776H63.0086L61.0886 228.592ZM96.6564 223.864L92.0964 241H89.9124L86.5764 229.768C86.4484 229.304 86.3204 228.84 86.1924 228.376C86.0644 227.912 85.9604 227.504 85.8804 227.152C85.8004 226.784 85.7444 226.528 85.7124 226.384C85.6964 226.592 85.6084 227.04 85.4484 227.728C85.3044 228.4 85.1204 229.104 84.8964 229.84L81.6564 241H79.4724L74.9364 223.864H77.1924L79.8564 234.328C80.0484 235.064 80.2084 235.776 80.3364 236.464C80.4804 237.152 80.5924 237.8 80.6724 238.408C80.7524 237.784 80.8724 237.104 81.0324 236.368C81.1924 235.632 81.3764 234.912 81.5844 234.208L84.6084 223.864H86.8404L89.9844 234.28C90.2084 235.016 90.4004 235.752 90.5604 236.488C90.7204 237.208 90.8404 237.848 90.9204 238.408C91.0004 237.816 91.1124 237.176 91.2564 236.488C91.4004 235.784 91.5684 235.056 91.7604 234.304L94.4004 223.864H96.6564ZM103.5 227.896C104.604 227.896 105.548 228.136 106.332 228.616C107.132 229.096 107.74 229.776 108.156 230.656C108.588 231.52 108.804 232.536 108.804 233.704V234.976H99.9962C100.028 236.432 100.396 237.544 101.1 238.312C101.82 239.064 102.82 239.44 104.1 239.44C104.916 239.44 105.636 239.368 106.26 239.224C106.9 239.064 107.556 238.84 108.228 238.552V240.4C107.572 240.688 106.924 240.896 106.284 241.024C105.644 241.168 104.884 241.24 104.004 241.24C102.788 241.24 101.708 240.992 100.764 240.496C99.8362 240 99.1082 239.264 98.5802 238.288C98.0682 237.296 97.8122 236.088 97.8122 234.664C97.8122 233.256 98.0442 232.048 98.5082 231.04C98.9882 230.032 99.6522 229.256 100.5 228.712C101.364 228.168 102.364 227.896 103.5 227.896ZM103.476 229.624C102.468 229.624 101.668 229.952 101.076 230.608C100.5 231.248 100.156 232.144 100.044 233.296H106.596C106.58 232.208 106.324 231.328 105.828 230.656C105.332 229.968 104.548 229.624 103.476 229.624ZM114.191 227.2C114.191 227.744 114.175 228.256 114.143 228.736C114.127 229.2 114.103 229.568 114.071 229.84H114.191C114.559 229.296 115.063 228.84 115.703 228.472C116.343 228.104 117.167 227.92 118.175 227.92C119.775 227.92 121.055 228.48 122.015 229.6C122.991 230.704 123.479 232.36 123.479 234.568C123.479 236.776 122.991 238.44 122.015 239.56C121.039 240.68 119.759 241.24 118.175 241.24C117.167 241.24 116.343 241.056 115.703 240.688C115.063 240.32 114.559 239.88 114.191 239.368H114.023L113.591 241H112.079V222.76H114.191V227.2ZM117.815 229.672C116.455 229.672 115.511 230.064 114.983 230.848C114.455 231.632 114.191 232.848 114.191 234.496V234.592C114.191 236.176 114.447 237.392 114.959 238.24C115.487 239.072 116.455 239.488 117.863 239.488C119.015 239.488 119.871 239.064 120.431 238.216C121.007 237.368 121.295 236.144 121.295 234.544C121.295 231.296 120.135 229.672 117.815 229.672ZM131.613 233.512V235.234H125.906V233.512H131.613ZM139.397 241.24C137.797 241.24 136.517 240.688 135.557 239.584C134.597 238.464 134.117 236.8 134.117 234.592C134.117 232.384 134.597 230.72 135.557 229.6C136.533 228.464 137.821 227.896 139.421 227.896C140.413 227.896 141.221 228.08 141.845 228.448C142.485 228.816 143.005 229.264 143.405 229.792H143.549C143.533 229.584 143.501 229.28 143.453 228.88C143.421 228.464 143.405 228.136 143.405 227.896V222.76H145.517V241H143.813L143.501 239.272H143.405C143.021 239.816 142.509 240.28 141.869 240.664C141.229 241.048 140.405 241.24 139.397 241.24ZM139.733 239.488C141.093 239.488 142.045 239.12 142.589 238.384C143.149 237.632 143.429 236.504 143.429 235V234.616C143.429 233.016 143.165 231.792 142.637 230.944C142.109 230.08 141.133 229.648 139.709 229.648C138.573 229.648 137.717 230.104 137.141 231.016C136.581 231.912 136.301 233.12 136.301 234.64C136.301 236.176 136.581 237.368 137.141 238.216C137.717 239.064 138.581 239.488 139.733 239.488ZM154.571 227.896C155.675 227.896 156.619 228.136 157.403 228.616C158.203 229.096 158.811 229.776 159.227 230.656C159.659 231.52 159.875 232.536 159.875 233.704V234.976H151.067C151.099 236.432 151.467 237.544 152.171 238.312C152.891 239.064 153.891 239.44 155.171 239.44C155.987 239.44 156.707 239.368 157.331 239.224C157.971 239.064 158.627 238.84 159.299 238.552V240.4C158.643 240.688 157.995 240.896 157.355 241.024C156.715 241.168 155.955 241.24 155.075 241.24C153.859 241.24 152.779 240.992 151.835 240.496C150.907 240 150.179 239.264 149.651 238.288C149.139 237.296 148.883 236.088 148.883 234.664C148.883 233.256 149.115 232.048 149.579 231.04C150.059 230.032 150.723 229.256 151.571 228.712C152.435 228.168 153.435 227.896 154.571 227.896ZM154.547 229.624C153.539 229.624 152.739 229.952 152.147 230.608C151.571 231.248 151.227 232.144 151.115 233.296H157.667C157.651 232.208 157.395 231.328 156.899 230.656C156.403 229.968 155.619 229.624 154.547 229.624ZM165.513 241L160.641 228.136H162.897L165.633 235.72C165.761 236.072 165.897 236.464 166.041 236.896C166.185 237.328 166.313 237.744 166.425 238.144C166.537 238.528 166.617 238.856 166.665 239.128H166.761C166.825 238.856 166.913 238.52 167.025 238.12C167.153 237.72 167.289 237.304 167.433 236.872C167.593 236.44 167.729 236.056 167.841 235.72L170.577 228.136H172.833L167.937 241H165.513ZM179.836 227.896C180.94 227.896 181.884 228.136 182.668 228.616C183.468 229.096 184.076 229.776 184.492 230.656C184.924 231.52 185.14 232.536 185.14 233.704V234.976H176.332C176.364 236.432 176.732 237.544 177.436 238.312C178.156 239.064 179.156 239.44 180.436 239.44C181.252 239.44 181.972 239.368 182.596 239.224C183.236 239.064 183.892 238.84 184.564 238.552V240.4C183.908 240.688 183.26 240.896 182.62 241.024C181.98 241.168 181.22 241.24 180.34 241.24C179.124 241.24 178.044 240.992 177.1 240.496C176.172 240 175.444 239.264 174.916 238.288C174.404 237.296 174.148 236.088 174.148 234.664C174.148 233.256 174.38 232.048 174.844 231.04C175.324 230.032 175.988 229.256 176.836 228.712C177.7 228.168 178.7 227.896 179.836 227.896ZM179.812 229.624C178.804 229.624 178.004 229.952 177.412 230.608C176.836 231.248 176.492 232.144 176.38 233.296H182.932C182.916 232.208 182.66 231.328 182.164 230.656C181.668 229.968 180.884 229.624 179.812 229.624ZM190.527 241H188.415V222.76H190.527V241ZM200.723 227.896C202.307 227.896 203.579 228.448 204.539 229.552C205.515 230.656 206.003 232.32 206.003 234.544C206.003 236.736 205.515 238.4 204.539 239.536C203.579 240.672 202.299 241.24 200.699 241.24C199.707 241.24 198.883 241.056 198.227 240.688C197.587 240.304 197.083 239.864 196.715 239.368H196.571C196.603 239.64 196.635 239.984 196.667 240.4C196.699 240.816 196.715 241.176 196.715 241.48V246.76H194.603V228.136H196.331L196.619 229.888H196.715C197.099 229.328 197.603 228.856 198.227 228.472C198.851 228.088 199.683 227.896 200.723 227.896ZM200.339 229.672C199.027 229.672 198.099 230.04 197.555 230.776C197.027 231.512 196.747 232.632 196.715 234.136V234.544C196.715 236.128 196.971 237.352 197.483 238.216C198.011 239.064 198.979 239.488 200.387 239.488C201.171 239.488 201.811 239.272 202.307 238.84C202.819 238.408 203.195 237.824 203.435 237.088C203.691 236.336 203.819 235.48 203.819 234.52C203.819 233.048 203.531 231.872 202.955 230.992C202.395 230.112 201.523 229.672 200.339 229.672ZM214.336 227.896C215.44 227.896 216.384 228.136 217.168 228.616C217.968 229.096 218.576 229.776 218.992 230.656C219.424 231.52 219.64 232.536 219.64 233.704V234.976H210.832C210.864 236.432 211.232 237.544 211.936 238.312C212.656 239.064 213.656 239.44 214.936 239.44C215.752 239.44 216.472 239.368 217.096 239.224C217.736 239.064 218.392 238.84 219.064 238.552V240.4C218.408 240.688 217.76 240.896 217.12 241.024C216.48 241.168 215.72 241.24 214.84 241.24C213.624 241.24 212.544 240.992 211.6 240.496C210.672 240 209.944 239.264 209.416 238.288C208.904 237.296 208.648 236.088 208.648 234.664C208.648 233.256 208.88 232.048 209.344 231.04C209.824 230.032 210.488 229.256 211.336 228.712C212.2 228.168 213.2 227.896 214.336 227.896ZM214.312 229.624C213.304 229.624 212.504 229.952 211.912 230.608C211.336 231.248 210.992 232.144 210.88 233.296H217.432C217.416 232.208 217.16 231.328 216.664 230.656C216.168 229.968 215.384 229.624 214.312 229.624ZM237.027 227.896C238.483 227.896 239.571 228.272 240.291 229.024C241.011 229.76 241.371 230.96 241.371 232.624V241H239.283V232.72C239.283 230.688 238.411 229.672 236.667 229.672C235.419 229.672 234.523 230.032 233.979 230.752C233.451 231.472 233.187 232.52 233.187 233.896V241H231.099V232.72C231.099 230.688 230.219 229.672 228.459 229.672C227.163 229.672 226.267 230.072 225.771 230.872C225.275 231.672 225.027 232.824 225.027 234.328V241H222.915V228.136H224.619L224.931 229.888H225.051C225.451 229.216 225.987 228.72 226.659 228.4C227.347 228.064 228.075 227.896 228.843 227.896C230.859 227.896 232.171 228.616 232.779 230.056H232.899C233.331 229.32 233.915 228.776 234.651 228.424C235.403 228.072 236.195 227.896 237.027 227.896ZM250.313 227.896C251.417 227.896 252.361 228.136 253.145 228.616C253.945 229.096 254.553 229.776 254.969 230.656C255.401 231.52 255.617 232.536 255.617 233.704V234.976H246.809C246.841 236.432 247.209 237.544 247.913 238.312C248.633 239.064 249.633 239.44 250.913 239.44C251.729 239.44 252.449 239.368 253.073 239.224C253.713 239.064 254.369 238.84 255.041 238.552V240.4C254.385 240.688 253.737 240.896 253.097 241.024C252.457 241.168 251.697 241.24 250.817 241.24C249.601 241.24 248.521 240.992 247.577 240.496C246.649 240 245.921 239.264 245.393 238.288C244.881 237.296 244.625 236.088 244.625 234.664C244.625 233.256 244.857 232.048 245.321 231.04C245.801 230.032 246.465 229.256 247.313 228.712C248.177 228.168 249.177 227.896 250.313 227.896ZM250.289 229.624C249.281 229.624 248.481 229.952 247.889 230.608C247.313 231.248 246.969 232.144 246.857 233.296H253.409C253.393 232.208 253.137 231.328 252.641 230.656C252.145 229.968 251.361 229.624 250.289 229.624ZM265.084 227.896C266.62 227.896 267.78 228.272 268.564 229.024C269.348 229.76 269.74 230.96 269.74 232.624V241H267.652V232.768C267.652 230.704 266.692 229.672 264.772 229.672C263.348 229.672 262.364 230.072 261.82 230.872C261.276 231.672 261.004 232.824 261.004 234.328V241H258.892V228.136H260.596L260.908 229.888H261.028C261.444 229.216 262.02 228.72 262.756 228.4C263.492 228.064 264.268 227.896 265.084 227.896ZM278.023 239.512C278.344 239.512 278.672 239.488 279.008 239.44C279.344 239.376 279.616 239.312 279.824 239.248V240.856C279.6 240.968 279.28 241.056 278.864 241.12C278.448 241.2 278.048 241.24 277.664 241.24C276.992 241.24 276.368 241.128 275.792 240.904C275.232 240.664 274.776 240.256 274.424 239.68C274.072 239.104 273.896 238.296 273.896 237.256V229.768H272.072V228.76L273.92 227.92L274.76 225.184H276.008V228.136H279.728V229.768H276.008V237.208C276.008 237.992 276.192 238.576 276.56 238.96C276.944 239.328 277.432 239.512 278.023 239.512ZM34.234 285H32.122V266.76H34.234V285ZM43.2775 271.896C44.3815 271.896 45.3255 272.136 46.1095 272.616C46.9095 273.096 47.5175 273.776 47.9335 274.656C48.3655 275.52 48.5815 276.536 48.5815 277.704V278.976H39.7735C39.8055 280.432 40.1735 281.544 40.8775 282.312C41.5975 283.064 42.5975 283.44 43.8775 283.44C44.6935 283.44 45.4135 283.368 46.0375 283.224C46.6775 283.064 47.3335 282.84 48.0055 282.552V284.4C47.3495 284.688 46.7015 284.896 46.0615 285.024C45.4215 285.168 44.6615 285.24 43.7815 285.24C42.5655 285.24 41.4855 284.992 40.5415 284.496C39.6135 284 38.8855 283.264 38.3575 282.288C37.8455 281.296 37.5895 280.088 37.5895 278.664C37.5895 277.256 37.8215 276.048 38.2855 275.04C38.7655 274.032 39.4295 273.256 40.2775 272.712C41.1415 272.168 42.1415 271.896 43.2775 271.896ZM43.2535 273.624C42.2455 273.624 41.4455 273.952 40.8535 274.608C40.2775 275.248 39.9335 276.144 39.8215 277.296H46.3735C46.3575 276.208 46.1015 275.328 45.6055 274.656C45.1095 273.968 44.3255 273.624 43.2535 273.624ZM56.7284 271.92C58.2964 271.92 59.4564 272.264 60.2084 272.952C60.9604 273.64 61.3364 274.736 61.3364 276.24V285H59.8004L59.3924 283.176H59.2964C58.7364 283.88 58.1444 284.4 57.5204 284.736C56.9124 285.072 56.0644 285.24 54.9764 285.24C53.8084 285.24 52.8404 284.936 52.0724 284.328C51.3044 283.704 50.9204 282.736 50.9204 281.424C50.9204 280.144 51.4244 279.16 52.4324 278.472C53.4404 277.768 54.9924 277.384 57.0884 277.32L59.2724 277.248V276.48C59.2724 275.408 59.0404 274.664 58.5764 274.248C58.1124 273.832 57.4564 273.624 56.6084 273.624C55.9364 273.624 55.2964 273.728 54.6884 273.936C54.0804 274.128 53.5124 274.352 52.9844 274.608L52.3364 273.024C52.8964 272.72 53.5604 272.464 54.3284 272.256C55.0964 272.032 55.8964 271.92 56.7284 271.92ZM57.3524 278.784C55.7524 278.848 54.6404 279.104 54.0164 279.552C53.4084 280 53.1044 280.632 53.1044 281.448C53.1044 282.168 53.3204 282.696 53.7524 283.032C54.2004 283.368 54.7684 283.536 55.4564 283.536C56.5444 283.536 57.4484 283.24 58.1684 282.648C58.8884 282.04 59.2484 281.112 59.2484 279.864V278.712L57.3524 278.784ZM71.3095 271.896C71.5495 271.896 71.8055 271.912 72.0775 271.944C72.3655 271.96 72.6135 271.992 72.8215 272.04L72.5575 273.984C72.3495 273.936 72.1175 273.896 71.8615 273.864C71.6215 273.832 71.3895 273.816 71.1655 273.816C70.5095 273.816 69.8935 274 69.3175 274.368C68.7415 274.72 68.2775 275.224 67.9255 275.88C67.5895 276.52 67.4215 277.272 67.4215 278.136V285H65.3095V272.136H67.0375L67.2775 274.488H67.3735C67.7895 273.784 68.3255 273.176 68.9815 272.664C69.6375 272.152 70.4135 271.896 71.3095 271.896ZM81.4156 271.896C82.9516 271.896 84.1116 272.272 84.8956 273.024C85.6796 273.76 86.0716 274.96 86.0716 276.624V285H83.9836V276.768C83.9836 274.704 83.0236 273.672 81.1036 273.672C79.6796 273.672 78.6956 274.072 78.1516 274.872C77.6076 275.672 77.3356 276.824 77.3356 278.328V285H75.2236V272.136H76.9276L77.2396 273.888H77.3596C77.7756 273.216 78.3516 272.72 79.0876 272.4C79.8236 272.064 80.5996 271.896 81.4156 271.896ZM91.1395 267.312C91.4595 267.312 91.7395 267.424 91.9795 267.648C92.2355 267.856 92.3635 268.192 92.3635 268.656C92.3635 269.104 92.2355 269.44 91.9795 269.664C91.7395 269.888 91.4595 270 91.1395 270C90.7875 270 90.4915 269.888 90.2515 269.664C90.0115 269.44 89.8915 269.104 89.8915 268.656C89.8915 268.192 90.0115 267.856 90.2515 267.648C90.4915 267.424 90.7875 267.312 91.1395 267.312ZM92.1715 272.136V285H90.0595V272.136H92.1715ZM102.439 271.896C103.975 271.896 105.135 272.272 105.919 273.024C106.703 273.76 107.095 274.96 107.095 276.624V285H105.007V276.768C105.007 274.704 104.047 273.672 102.127 273.672C100.703 273.672 99.719 274.072 99.175 274.872C98.631 275.672 98.359 276.824 98.359 278.328V285H96.247V272.136H97.951L98.263 273.888H98.383C98.799 273.216 99.375 272.72 100.111 272.4C100.847 272.064 101.623 271.896 102.439 271.896ZM115.643 271.896C116.491 271.896 117.251 272.056 117.923 272.376C118.611 272.696 119.195 273.184 119.675 273.84H119.795L120.083 272.136H121.763V285.216C121.763 287.056 121.291 288.44 120.347 289.368C119.419 290.296 117.971 290.76 116.003 290.76C114.115 290.76 112.571 290.488 111.371 289.944V288C112.635 288.672 114.219 289.008 116.123 289.008C117.227 289.008 118.091 288.68 118.715 288.024C119.355 287.384 119.675 286.504 119.675 285.384V284.88C119.675 284.688 119.683 284.416 119.699 284.064C119.715 283.696 119.731 283.44 119.747 283.296H119.651C118.787 284.592 117.459 285.24 115.667 285.24C114.003 285.24 112.699 284.656 111.755 283.488C110.827 282.32 110.363 280.688 110.363 278.592C110.363 276.544 110.827 274.92 111.755 273.72C112.699 272.504 113.995 271.896 115.643 271.896ZM115.931 273.672C114.859 273.672 114.027 274.104 113.435 274.968C112.843 275.816 112.547 277.032 112.547 278.616C112.547 280.2 112.835 281.416 113.411 282.264C114.003 283.096 114.859 283.512 115.979 283.512C117.275 283.512 118.219 283.168 118.811 282.48C119.403 281.776 119.699 280.648 119.699 279.096V278.592C119.699 276.832 119.395 275.576 118.787 274.824C118.179 274.056 117.227 273.672 115.931 273.672ZM138.648 271.896C140.232 271.896 141.504 272.448 142.464 273.552C143.44 274.656 143.928 276.32 143.928 278.544C143.928 280.736 143.44 282.4 142.464 283.536C141.504 284.672 140.224 285.24 138.624 285.24C137.632 285.24 136.808 285.056 136.152 284.688C135.512 284.304 135.008 283.864 134.64 283.368H134.496C134.528 283.64 134.56 283.984 134.592 284.4C134.624 284.816 134.64 285.176 134.64 285.48V290.76H132.528V272.136H134.256L134.544 273.888H134.64C135.024 273.328 135.528 272.856 136.152 272.472C136.776 272.088 137.608 271.896 138.648 271.896ZM138.264 273.672C136.952 273.672 136.024 274.04 135.48 274.776C134.952 275.512 134.672 276.632 134.64 278.136V278.544C134.64 280.128 134.896 281.352 135.408 282.216C135.936 283.064 136.904 283.488 138.312 283.488C139.096 283.488 139.736 283.272 140.232 282.84C140.744 282.408 141.12 281.824 141.36 281.088C141.616 280.336 141.744 279.48 141.744 278.52C141.744 277.048 141.456 275.872 140.88 274.992C140.32 274.112 139.448 273.672 138.264 273.672ZM153.294 271.896C153.534 271.896 153.79 271.912 154.062 271.944C154.35 271.96 154.598 271.992 154.806 272.04L154.542 273.984C154.334 273.936 154.102 273.896 153.846 273.864C153.606 273.832 153.374 273.816 153.15 273.816C152.494 273.816 151.878 274 151.302 274.368C150.726 274.72 150.262 275.224 149.91 275.88C149.574 276.52 149.406 277.272 149.406 278.136V285H147.294V272.136H149.022L149.262 274.488H149.358C149.774 273.784 150.31 273.176 150.966 272.664C151.622 272.152 152.398 271.896 153.294 271.896ZM167.923 278.544C167.923 280.672 167.379 282.32 166.291 283.488C165.219 284.656 163.763 285.24 161.923 285.24C160.787 285.24 159.771 284.984 158.875 284.472C157.995 283.944 157.299 283.184 156.787 282.192C156.275 281.184 156.019 279.968 156.019 278.544C156.019 276.416 156.555 274.776 157.627 273.624C158.699 272.472 160.155 271.896 161.995 271.896C163.163 271.896 164.187 272.16 165.067 272.688C165.963 273.2 166.659 273.952 167.155 274.944C167.667 275.92 167.923 277.12 167.923 278.544ZM158.203 278.544C158.203 280.064 158.499 281.272 159.091 282.168C159.699 283.048 160.659 283.488 161.971 283.488C163.267 283.488 164.219 283.048 164.827 282.168C165.435 281.272 165.739 280.064 165.739 278.544C165.739 277.024 165.435 275.832 164.827 274.968C164.219 274.104 163.259 273.672 161.947 273.672C160.635 273.672 159.683 274.104 159.091 274.968C158.499 275.832 158.203 277.024 158.203 278.544ZM171.102 268.656C171.102 268.192 171.222 267.856 171.462 267.648C171.702 267.424 171.998 267.312 172.35 267.312C172.67 267.312 172.95 267.424 173.19 267.648C173.446 267.856 173.574 268.192 173.574 268.656C173.574 269.104 173.446 269.44 173.19 269.664C172.95 269.888 172.67 270 172.35 270C171.998 270 171.702 269.888 171.462 269.664C171.222 269.44 171.102 269.104 171.102 268.656ZM169.758 290.76C169.358 290.76 169.006 290.728 168.702 290.664C168.398 290.616 168.134 290.552 167.91 290.472V288.768C168.15 288.832 168.398 288.888 168.654 288.936C168.91 288.984 169.19 289.008 169.494 289.008C170.006 289.008 170.43 288.864 170.766 288.576C171.102 288.304 171.27 287.776 171.27 286.992V272.136H173.382V286.92C173.382 288.12 173.094 289.056 172.518 289.728C171.942 290.416 171.022 290.76 169.758 290.76ZM182.426 271.896C183.53 271.896 184.474 272.136 185.258 272.616C186.058 273.096 186.666 273.776 187.082 274.656C187.514 275.52 187.73 276.536 187.73 277.704V278.976H178.922C178.954 280.432 179.322 281.544 180.026 282.312C180.746 283.064 181.746 283.44 183.026 283.44C183.842 283.44 184.562 283.368 185.186 283.224C185.826 283.064 186.482 282.84 187.154 282.552V284.4C186.498 284.688 185.85 284.896 185.21 285.024C184.57 285.168 183.81 285.24 182.93 285.24C181.714 285.24 180.634 284.992 179.69 284.496C178.762 284 178.034 283.264 177.506 282.288C176.994 281.296 176.738 280.088 176.738 278.664C176.738 277.256 176.97 276.048 177.434 275.04C177.914 274.032 178.578 273.256 179.426 272.712C180.29 272.168 181.29 271.896 182.426 271.896ZM182.402 273.624C181.394 273.624 180.594 273.952 180.002 274.608C179.426 275.248 179.082 276.144 178.97 277.296H185.522C185.506 276.208 185.25 275.328 184.754 274.656C184.258 273.968 183.474 273.624 182.402 273.624ZM196.165 285.24C195.029 285.24 194.013 285.008 193.117 284.544C192.237 284.08 191.541 283.36 191.029 282.384C190.533 281.408 190.285 280.16 190.285 278.64C190.285 277.056 190.549 275.768 191.077 274.776C191.605 273.784 192.317 273.056 193.213 272.592C194.125 272.128 195.157 271.896 196.309 271.896C196.965 271.896 197.597 271.968 198.205 272.112C198.813 272.24 199.309 272.4 199.693 272.592L199.045 274.344C198.661 274.2 198.213 274.064 197.701 273.936C197.189 273.808 196.709 273.744 196.261 273.744C193.733 273.744 192.469 275.368 192.469 278.616C192.469 280.168 192.773 281.36 193.381 282.192C194.005 283.008 194.925 283.416 196.141 283.416C196.845 283.416 197.461 283.344 197.989 283.2C198.533 283.056 199.029 282.88 199.477 282.672V284.544C199.045 284.768 198.565 284.936 198.037 285.048C197.525 285.176 196.901 285.24 196.165 285.24ZM206.832 283.512C207.152 283.512 207.48 283.488 207.816 283.44C208.152 283.376 208.424 283.312 208.632 283.248V284.856C208.408 284.968 208.088 285.056 207.672 285.12C207.256 285.2 206.856 285.24 206.472 285.24C205.8 285.24 205.176 285.128 204.6 284.904C204.04 284.664 203.584 284.256 203.232 283.68C202.88 283.104 202.704 282.296 202.704 281.256V273.768H200.88V272.76L202.728 271.92L203.568 269.184H204.816V272.136H208.536V273.768H204.816V281.208C204.816 281.992 205 282.576 205.368 282.96C205.752 283.328 206.24 283.512 206.832 283.512ZM226.192 277.728C225.984 277.072 225.8 276.432 225.64 275.808C225.496 275.168 225.384 274.672 225.304 274.32H225.208C225.144 274.672 225.04 275.168 224.896 275.808C224.752 276.432 224.568 277.08 224.344 277.752L222.04 284.976H219.64L216.112 272.112H218.296L220.072 278.976C220.248 279.664 220.416 280.36 220.576 281.064C220.736 281.768 220.848 282.352 220.912 282.816H221.008C221.072 282.544 221.144 282.208 221.224 281.808C221.32 281.408 221.424 280.992 221.536 280.56C221.648 280.112 221.76 279.712 221.872 279.36L224.152 272.112H226.456L228.664 279.36C228.84 279.904 229.008 280.496 229.168 281.136C229.344 281.776 229.464 282.328 229.528 282.792H229.624C229.672 282.392 229.776 281.84 229.936 281.136C230.112 280.432 230.296 279.712 230.488 278.976L232.288 272.112H234.448L230.872 284.976H228.4L226.192 277.728ZM241.723 271.896C242.827 271.896 243.771 272.136 244.555 272.616C245.355 273.096 245.963 273.776 246.379 274.656C246.811 275.52 247.027 276.536 247.027 277.704V278.976H238.219C238.251 280.432 238.619 281.544 239.323 282.312C240.043 283.064 241.043 283.44 242.323 283.44C243.139 283.44 243.859 283.368 244.483 283.224C245.123 283.064 245.779 282.84 246.451 282.552V284.4C245.795 284.688 245.147 284.896 244.507 285.024C243.867 285.168 243.107 285.24 242.227 285.24C241.011 285.24 239.931 284.992 238.987 284.496C238.059 284 237.331 283.264 236.803 282.288C236.291 281.296 236.035 280.088 236.035 278.664C236.035 277.256 236.267 276.048 236.731 275.04C237.211 274.032 237.875 273.256 238.723 272.712C239.587 272.168 240.587 271.896 241.723 271.896ZM241.699 273.624C240.691 273.624 239.891 273.952 239.299 274.608C238.723 275.248 238.379 276.144 238.267 277.296H244.819C244.803 276.208 244.547 275.328 244.051 274.656C243.555 273.968 242.771 273.624 241.699 273.624ZM252.414 271.2C252.414 271.744 252.398 272.256 252.366 272.736C252.35 273.2 252.326 273.568 252.294 273.84H252.414C252.782 273.296 253.286 272.84 253.926 272.472C254.566 272.104 255.39 271.92 256.398 271.92C257.998 271.92 259.278 272.48 260.238 273.6C261.214 274.704 261.702 276.36 261.702 278.568C261.702 280.776 261.214 282.44 260.238 283.56C259.262 284.68 257.982 285.24 256.398 285.24C255.39 285.24 254.566 285.056 253.926 284.688C253.286 284.32 252.782 283.88 252.414 283.368H252.246L251.814 285H250.302V266.76H252.414V271.2ZM256.038 273.672C254.678 273.672 253.734 274.064 253.206 274.848C252.678 275.632 252.414 276.848 252.414 278.496V278.592C252.414 280.176 252.67 281.392 253.182 282.24C253.71 283.072 254.678 283.488 256.086 283.488C257.238 283.488 258.094 283.064 258.654 282.216C259.23 281.368 259.518 280.144 259.518 278.544C259.518 275.296 258.358 273.672 256.038 273.672ZM273.443 281.448C273.443 282.696 272.979 283.64 272.051 284.28C271.123 284.92 269.875 285.24 268.307 285.24C267.411 285.24 266.635 285.168 265.979 285.024C265.339 284.88 264.771 284.68 264.275 284.424V282.504C264.787 282.76 265.403 283 266.123 283.224C266.859 283.432 267.603 283.536 268.355 283.536C269.427 283.536 270.203 283.368 270.683 283.032C271.163 282.68 271.403 282.216 271.403 281.64C271.403 281.32 271.315 281.032 271.139 280.776C270.963 280.52 270.643 280.264 270.179 280.008C269.731 279.752 269.083 279.464 268.235 279.144C267.403 278.824 266.691 278.504 266.099 278.184C265.507 277.864 265.051 277.48 264.731 277.032C264.411 276.584 264.251 276.008 264.251 275.304C264.251 274.216 264.691 273.376 265.571 272.784C266.467 272.192 267.635 271.896 269.075 271.896C269.859 271.896 270.587 271.976 271.259 272.136C271.947 272.28 272.587 272.488 273.179 272.76L272.459 274.44C271.915 274.216 271.347 274.024 270.755 273.864C270.163 273.704 269.555 273.624 268.931 273.624C268.067 273.624 267.403 273.768 266.939 274.056C266.491 274.328 266.267 274.704 266.267 275.184C266.267 275.536 266.371 275.84 266.579 276.096C266.787 276.336 267.131 276.576 267.611 276.816C268.107 277.04 268.763 277.312 269.579 277.632C270.395 277.936 271.091 278.248 271.667 278.568C272.243 278.888 272.683 279.28 272.987 279.744C273.291 280.192 273.443 280.76 273.443 281.448ZM277.632 267.312C277.952 267.312 278.232 267.424 278.472 267.648C278.728 267.856 278.856 268.192 278.856 268.656C278.856 269.104 278.728 269.44 278.472 269.664C278.232 269.888 277.952 270 277.632 270C277.28 270 276.984 269.888 276.744 269.664C276.504 269.44 276.384 269.104 276.384 268.656C276.384 268.192 276.504 267.856 276.744 267.648C276.984 267.424 277.28 267.312 277.632 267.312ZM278.664 272.136V285H276.552V272.136H278.664ZM287.035 283.512C287.355 283.512 287.683 283.488 288.019 283.44C288.355 283.376 288.627 283.312 288.835 283.248V284.856C288.611 284.968 288.291 285.056 287.875 285.12C287.459 285.2 287.059 285.24 286.675 285.24C286.003 285.24 285.379 285.128 284.803 284.904C284.243 284.664 283.787 284.256 283.435 283.68C283.083 283.104 282.907 282.296 282.907 281.256V273.768H281.083V272.76L282.931 271.92L283.771 269.184H285.019V272.136H288.739V273.768H285.019V281.208C285.019 281.992 285.203 282.576 285.571 282.96C285.955 283.328 286.443 283.512 287.035 283.512ZM296.379 271.896C297.483 271.896 298.427 272.136 299.211 272.616C300.011 273.096 300.619 273.776 301.035 274.656C301.467 275.52 301.683 276.536 301.683 277.704V278.976H292.875C292.907 280.432 293.275 281.544 293.979 282.312C294.699 283.064 295.699 283.44 296.979 283.44C297.795 283.44 298.515 283.368 299.139 283.224C299.779 283.064 300.435 282.84 301.107 282.552V284.4C300.451 284.688 299.803 284.896 299.163 285.024C298.523 285.168 297.763 285.24 296.883 285.24C295.667 285.24 294.587 284.992 293.643 284.496C292.715 284 291.987 283.264 291.459 282.288C290.947 281.296 290.691 280.088 290.691 278.664C290.691 277.256 290.923 276.048 291.387 275.04C291.867 274.032 292.531 273.256 293.379 272.712C294.243 272.168 295.243 271.896 296.379 271.896ZM296.355 273.624C295.347 273.624 294.547 273.952 293.955 274.608C293.379 275.248 293.035 276.144 292.923 277.296H299.475C299.459 276.208 299.203 275.328 298.707 274.656C298.211 273.968 297.427 273.624 296.355 273.624ZM63.3903 315.896C64.8463 315.896 65.9343 316.272 66.6543 317.024C67.3743 317.76 67.7343 318.96 67.7343 320.624V329H65.6463V320.72C65.6463 318.688 64.7743 317.672 63.0303 317.672C61.7823 317.672 60.8863 318.032 60.3423 318.752C59.8143 319.472 59.5503 320.52 59.5503 321.896V329H57.4623V320.72C57.4623 318.688 56.5823 317.672 54.8223 317.672C53.5263 317.672 52.6303 318.072 52.1343 318.872C51.6383 319.672 51.3903 320.824 51.3903 322.328V329H49.2783V316.136H50.9823L51.2943 317.888H51.4143C51.8143 317.216 52.3503 316.72 53.0223 316.4C53.7103 316.064 54.4383 315.896 55.2063 315.896C57.2223 315.896 58.5343 316.616 59.1423 318.056H59.2623C59.6943 317.32 60.2783 316.776 61.0143 316.424C61.7663 316.072 62.5583 315.896 63.3903 315.896ZM76.58 315.92C78.148 315.92 79.308 316.264 80.06 316.952C80.812 317.64 81.188 318.736 81.188 320.24V329H79.652L79.244 327.176H79.148C78.588 327.88 77.996 328.4 77.372 328.736C76.764 329.072 75.916 329.24 74.828 329.24C73.66 329.24 72.692 328.936 71.924 328.328C71.156 327.704 70.772 326.736 70.772 325.424C70.772 324.144 71.276 323.16 72.284 322.472C73.292 321.768 74.844 321.384 76.94 321.32L79.124 321.248V320.48C79.124 319.408 78.892 318.664 78.428 318.248C77.964 317.832 77.308 317.624 76.46 317.624C75.788 317.624 75.148 317.728 74.54 317.936C73.932 318.128 73.364 318.352 72.836 318.608L72.188 317.024C72.748 316.72 73.412 316.464 74.18 316.256C74.948 316.032 75.748 315.92 76.58 315.92ZM77.204 322.784C75.604 322.848 74.492 323.104 73.868 323.552C73.26 324 72.956 324.632 72.956 325.448C72.956 326.168 73.172 326.696 73.604 327.032C74.052 327.368 74.62 327.536 75.308 327.536C76.396 327.536 77.3 327.24 78.02 326.648C78.74 326.04 79.1 325.112 79.1 323.864V322.712L77.204 322.784ZM89.7211 329.24C88.1211 329.24 86.8411 328.688 85.8811 327.584C84.9211 326.464 84.4411 324.8 84.4411 322.592C84.4411 320.384 84.9211 318.72 85.8811 317.6C86.8571 316.464 88.1451 315.896 89.7451 315.896C90.7371 315.896 91.5451 316.08 92.1691 316.448C92.8091 316.816 93.3291 317.264 93.7291 317.792H93.8731C93.8571 317.584 93.8251 317.28 93.7771 316.88C93.7451 316.464 93.7291 316.136 93.7291 315.896V310.76H95.8411V329H94.1371L93.8251 327.272H93.7291C93.3451 327.816 92.8331 328.28 92.1931 328.664C91.5531 329.048 90.7291 329.24 89.7211 329.24ZM90.0571 327.488C91.4171 327.488 92.3691 327.12 92.9131 326.384C93.4731 325.632 93.7531 324.504 93.7531 323V322.616C93.7531 321.016 93.4891 319.792 92.9611 318.944C92.4331 318.08 91.4571 317.648 90.0331 317.648C88.8971 317.648 88.0411 318.104 87.4651 319.016C86.9051 319.912 86.6251 321.12 86.6251 322.64C86.6251 324.176 86.9051 325.368 87.4651 326.216C88.0411 327.064 88.9051 327.488 90.0571 327.488ZM104.895 315.896C105.999 315.896 106.943 316.136 107.727 316.616C108.527 317.096 109.135 317.776 109.551 318.656C109.983 319.52 110.199 320.536 110.199 321.704V322.976H101.391C101.423 324.432 101.791 325.544 102.495 326.312C103.215 327.064 104.215 327.44 105.495 327.44C106.311 327.44 107.031 327.368 107.655 327.224C108.295 327.064 108.951 326.84 109.623 326.552V328.4C108.967 328.688 108.319 328.896 107.679 329.024C107.039 329.168 106.279 329.24 105.399 329.24C104.183 329.24 103.103 328.992 102.159 328.496C101.231 328 100.503 327.264 99.9747 326.288C99.4627 325.296 99.2067 324.088 99.2067 322.664C99.2067 321.256 99.4387 320.048 99.9027 319.04C100.383 318.032 101.047 317.256 101.895 316.712C102.759 316.168 103.759 315.896 104.895 315.896ZM104.871 317.624C103.863 317.624 103.063 317.952 102.471 318.608C101.895 319.248 101.551 320.144 101.439 321.296H107.991C107.975 320.208 107.719 319.328 107.223 318.656C106.727 317.968 105.943 317.624 104.871 317.624ZM122.265 315.2C122.265 315.744 122.249 316.256 122.217 316.736C122.201 317.2 122.177 317.568 122.145 317.84H122.265C122.633 317.296 123.137 316.84 123.777 316.472C124.417 316.104 125.241 315.92 126.249 315.92C127.849 315.92 129.129 316.48 130.089 317.6C131.065 318.704 131.553 320.36 131.553 322.568C131.553 324.776 131.065 326.44 130.089 327.56C129.113 328.68 127.833 329.24 126.249 329.24C125.241 329.24 124.417 329.056 123.777 328.688C123.137 328.32 122.633 327.88 122.265 327.368H122.097L121.665 329H120.153V310.76H122.265V315.2ZM125.889 317.672C124.529 317.672 123.585 318.064 123.057 318.848C122.529 319.632 122.265 320.848 122.265 322.496V322.592C122.265 324.176 122.521 325.392 123.033 326.24C123.561 327.072 124.529 327.488 125.937 327.488C127.089 327.488 127.945 327.064 128.505 326.216C129.081 325.368 129.369 324.144 129.369 322.544C129.369 319.296 128.209 317.672 125.889 317.672ZM132.434 316.136H134.69L137.474 323.456C137.714 324.096 137.93 324.712 138.122 325.304C138.314 325.88 138.458 326.432 138.554 326.96H138.65C138.746 326.56 138.898 326.04 139.106 325.4C139.314 324.744 139.53 324.088 139.754 323.432L142.37 316.136H144.65L139.106 330.776C138.658 331.992 138.074 332.96 137.354 333.68C136.65 334.4 135.674 334.76 134.426 334.76C134.042 334.76 133.706 334.736 133.418 334.688C133.13 334.656 132.882 334.616 132.674 334.568V332.888C132.85 332.92 133.058 332.952 133.298 332.984C133.554 333.016 133.818 333.032 134.09 333.032C134.826 333.032 135.418 332.824 135.866 332.408C136.33 331.992 136.69 331.44 136.946 330.752L137.618 329.048L132.434 316.136ZM161.74 325.448C161.74 326.696 161.276 327.64 160.348 328.28C159.42 328.92 158.172 329.24 156.604 329.24C155.708 329.24 154.932 329.168 154.276 329.024C153.636 328.88 153.068 328.68 152.572 328.424V326.504C153.084 326.76 153.7 327 154.42 327.224C155.156 327.432 155.9 327.536 156.652 327.536C157.724 327.536 158.5 327.368 158.98 327.032C159.46 326.68 159.7 326.216 159.7 325.64C159.7 325.32 159.612 325.032 159.436 324.776C159.26 324.52 158.94 324.264 158.476 324.008C158.028 323.752 157.38 323.464 156.532 323.144C155.7 322.824 154.988 322.504 154.396 322.184C153.804 321.864 153.348 321.48 153.028 321.032C152.708 320.584 152.548 320.008 152.548 319.304C152.548 318.216 152.988 317.376 153.868 316.784C154.764 316.192 155.932 315.896 157.372 315.896C158.156 315.896 158.884 315.976 159.556 316.136C160.244 316.28 160.884 316.488 161.476 316.76L160.756 318.44C160.212 318.216 159.644 318.024 159.052 317.864C158.46 317.704 157.852 317.624 157.228 317.624C156.364 317.624 155.7 317.768 155.236 318.056C154.788 318.328 154.564 318.704 154.564 319.184C154.564 319.536 154.668 319.84 154.876 320.096C155.084 320.336 155.428 320.576 155.908 320.816C156.404 321.04 157.06 321.312 157.876 321.632C158.692 321.936 159.388 322.248 159.964 322.568C160.54 322.888 160.98 323.28 161.284 323.744C161.588 324.192 161.74 324.76 161.74 325.448ZM169.145 327.512C169.465 327.512 169.793 327.488 170.129 327.44C170.465 327.376 170.737 327.312 170.945 327.248V328.856C170.721 328.968 170.401 329.056 169.985 329.12C169.569 329.2 169.169 329.24 168.785 329.24C168.113 329.24 167.489 329.128 166.913 328.904C166.353 328.664 165.897 328.256 165.545 327.68C165.193 327.104 165.017 326.296 165.017 325.256V317.768H163.193V316.76L165.041 315.92L165.881 313.184H167.129V316.136H170.849V317.768H167.129V325.208C167.129 325.992 167.313 326.576 167.681 326.96C168.065 327.328 168.553 327.512 169.145 327.512ZM184.272 316.136V329H182.544L182.232 327.296H182.136C181.72 327.968 181.144 328.464 180.408 328.784C179.672 329.088 178.888 329.24 178.056 329.24C176.504 329.24 175.336 328.872 174.552 328.136C173.768 327.384 173.376 326.192 173.376 324.56V316.136H175.512V324.416C175.512 326.464 176.464 327.488 178.368 327.488C179.792 327.488 180.776 327.088 181.32 326.288C181.88 325.488 182.16 324.336 182.16 322.832V316.136H184.272ZM192.916 329.24C191.316 329.24 190.036 328.688 189.076 327.584C188.116 326.464 187.636 324.8 187.636 322.592C187.636 320.384 188.116 318.72 189.076 317.6C190.052 316.464 191.34 315.896 192.94 315.896C193.932 315.896 194.74 316.08 195.364 316.448C196.004 316.816 196.524 317.264 196.924 317.792H197.068C197.052 317.584 197.02 317.28 196.972 316.88C196.94 316.464 196.924 316.136 196.924 315.896V310.76H199.036V329H197.332L197.02 327.272H196.924C196.54 327.816 196.028 328.28 195.388 328.664C194.748 329.048 193.924 329.24 192.916 329.24ZM193.252 327.488C194.612 327.488 195.564 327.12 196.108 326.384C196.668 325.632 196.948 324.504 196.948 323V322.616C196.948 321.016 196.684 319.792 196.156 318.944C195.628 318.08 194.652 317.648 193.228 317.648C192.092 317.648 191.236 318.104 190.66 319.016C190.1 319.912 189.82 321.12 189.82 322.64C189.82 324.176 190.1 325.368 190.66 326.216C191.236 327.064 192.1 327.488 193.252 327.488ZM208.09 315.896C209.194 315.896 210.138 316.136 210.922 316.616C211.722 317.096 212.33 317.776 212.746 318.656C213.178 319.52 213.394 320.536 213.394 321.704V322.976H204.586C204.618 324.432 204.986 325.544 205.69 326.312C206.41 327.064 207.41 327.44 208.69 327.44C209.506 327.44 210.226 327.368 210.85 327.224C211.49 327.064 212.146 326.84 212.818 326.552V328.4C212.162 328.688 211.514 328.896 210.874 329.024C210.234 329.168 209.474 329.24 208.594 329.24C207.378 329.24 206.298 328.992 205.354 328.496C204.426 328 203.698 327.264 203.17 326.288C202.658 325.296 202.402 324.088 202.402 322.664C202.402 321.256 202.634 320.048 203.098 319.04C203.578 318.032 204.242 317.256 205.09 316.712C205.954 316.168 206.954 315.896 208.09 315.896ZM208.066 317.624C207.058 317.624 206.258 317.952 205.666 318.608C205.09 319.248 204.746 320.144 204.634 321.296H211.186C211.17 320.208 210.914 319.328 210.418 318.656C209.922 317.968 209.138 317.624 208.066 317.624ZM222.861 315.896C224.397 315.896 225.557 316.272 226.341 317.024C227.125 317.76 227.517 318.96 227.517 320.624V329H225.429V320.768C225.429 318.704 224.469 317.672 222.549 317.672C221.125 317.672 220.141 318.072 219.597 318.872C219.053 319.672 218.781 320.824 218.781 322.328V329H216.669V316.136H218.373L218.685 317.888H218.805C219.221 317.216 219.797 316.72 220.533 316.4C221.269 316.064 222.045 315.896 222.861 315.896ZM235.801 327.512C236.121 327.512 236.449 327.488 236.785 327.44C237.121 327.376 237.393 327.312 237.601 327.248V328.856C237.377 328.968 237.057 329.056 236.641 329.12C236.225 329.2 235.825 329.24 235.441 329.24C234.769 329.24 234.145 329.128 233.569 328.904C233.009 328.664 232.553 328.256 232.201 327.68C231.849 327.104 231.673 326.296 231.673 325.256V317.768H229.849V316.76L231.697 315.92L232.537 313.184H233.785V316.136H237.505V317.768H233.785V325.208C233.785 325.992 233.969 326.576 234.337 326.96C234.721 327.328 235.209 327.512 235.801 327.512ZM248.553 325.448C248.553 326.696 248.089 327.64 247.161 328.28C246.233 328.92 244.985 329.24 243.417 329.24C242.521 329.24 241.745 329.168 241.089 329.024C240.449 328.88 239.881 328.68 239.385 328.424V326.504C239.897 326.76 240.513 327 241.233 327.224C241.969 327.432 242.713 327.536 243.465 327.536C244.537 327.536 245.313 327.368 245.793 327.032C246.273 326.68 246.513 326.216 246.513 325.64C246.513 325.32 246.425 325.032 246.249 324.776C246.073 324.52 245.753 324.264 245.289 324.008C244.841 323.752 244.193 323.464 243.345 323.144C242.513 322.824 241.801 322.504 241.209 322.184C240.617 321.864 240.161 321.48 239.841 321.032C239.521 320.584 239.361 320.008 239.361 319.304C239.361 318.216 239.801 317.376 240.681 316.784C241.577 316.192 242.745 315.896 244.185 315.896C244.969 315.896 245.697 315.976 246.369 316.136C247.057 316.28 247.697 316.488 248.289 316.76L247.569 318.44C247.025 318.216 246.457 318.024 245.865 317.864C245.273 317.704 244.665 317.624 244.041 317.624C243.177 317.624 242.513 317.768 242.049 318.056C241.601 318.328 241.377 318.704 241.377 319.184C241.377 319.536 241.481 319.84 241.689 320.096C241.897 320.336 242.241 320.576 242.721 320.816C243.217 321.04 243.873 321.312 244.689 321.632C245.505 321.936 246.201 322.248 246.777 322.568C247.353 322.888 247.793 323.28 248.097 323.744C248.401 324.192 248.553 324.76 248.553 325.448ZM269.525 322.544C269.525 324.672 268.981 326.32 267.893 327.488C266.821 328.656 265.365 329.24 263.525 329.24C262.389 329.24 261.373 328.984 260.477 328.472C259.597 327.944 258.901 327.184 258.389 326.192C257.877 325.184 257.621 323.968 257.621 322.544C257.621 320.416 258.157 318.776 259.229 317.624C260.301 316.472 261.757 315.896 263.597 315.896C264.765 315.896 265.789 316.16 266.669 316.688C267.565 317.2 268.261 317.952 268.757 318.944C269.269 319.92 269.525 321.12 269.525 322.544ZM259.805 322.544C259.805 324.064 260.101 325.272 260.693 326.168C261.301 327.048 262.261 327.488 263.573 327.488C264.869 327.488 265.821 327.048 266.429 326.168C267.037 325.272 267.341 324.064 267.341 322.544C267.341 321.024 267.037 319.832 266.429 318.968C265.821 318.104 264.861 317.672 263.549 317.672C262.237 317.672 261.285 318.104 260.693 318.968C260.101 319.832 259.805 321.024 259.805 322.544ZM278.8 317.768H275.56V329H273.448V317.768H271.192V316.784L273.448 316.064V315.32C273.448 313.656 273.816 312.464 274.552 311.744C275.288 311.008 276.312 310.64 277.624 310.64C278.136 310.64 278.6 310.688 279.016 310.784C279.448 310.864 279.816 310.96 280.12 311.072L279.568 312.728C279.312 312.648 279.016 312.568 278.68 312.488C278.344 312.408 278 312.368 277.648 312.368C276.944 312.368 276.416 312.608 276.064 313.088C275.728 313.552 275.56 314.288 275.56 315.296V316.136H278.8V317.768ZM30.5988 368.416C30.5988 369.936 30.0468 371.12 28.9428 371.968C27.8388 372.816 26.3508 373.24 24.4788 373.24C23.5188 373.24 22.6308 373.168 21.8148 373.024C20.9988 372.88 20.3188 372.68 19.7748 372.424V370.36C20.3508 370.616 21.0628 370.848 21.9108 371.056C22.7748 371.264 23.6628 371.368 24.5748 371.368C25.8548 371.368 26.8148 371.12 27.4548 370.624C28.1108 370.128 28.4388 369.456 28.4388 368.608C28.4388 368.048 28.3188 367.576 28.0788 367.192C27.8388 366.808 27.4228 366.456 26.8308 366.136C26.2548 365.8 25.4468 365.448 24.4068 365.08C22.9508 364.552 21.8468 363.904 21.0948 363.136C20.3588 362.368 19.9908 361.32 19.9908 359.992C19.9908 359.08 20.2228 358.304 20.6868 357.664C21.1508 357.008 21.7908 356.504 22.6068 356.152C23.4388 355.8 24.3908 355.624 25.4628 355.624C26.4068 355.624 27.2708 355.712 28.0548 355.888C28.8388 356.064 29.5508 356.296 30.1908 356.584L29.5188 358.432C28.9268 358.176 28.2788 357.96 27.5748 357.784C26.8868 357.608 26.1668 357.52 25.4148 357.52C24.3428 357.52 23.5348 357.752 22.9908 358.216C22.4468 358.664 22.1748 359.264 22.1748 360.016C22.1748 360.592 22.2948 361.072 22.5348 361.456C22.7748 361.84 23.1668 362.184 23.7108 362.488C24.2548 362.792 24.9908 363.12 25.9188 363.472C26.9268 363.84 27.7748 364.24 28.4628 364.672C29.1668 365.088 29.6948 365.592 30.0468 366.184C30.4148 366.776 30.5988 367.52 30.5988 368.416ZM38.6347 359.92C40.2027 359.92 41.3627 360.264 42.1147 360.952C42.8667 361.64 43.2427 362.736 43.2427 364.24V373H41.7067L41.2987 371.176H41.2027C40.6427 371.88 40.0507 372.4 39.4267 372.736C38.8187 373.072 37.9707 373.24 36.8827 373.24C35.7147 373.24 34.7467 372.936 33.9787 372.328C33.2107 371.704 32.8267 370.736 32.8267 369.424C32.8267 368.144 33.3307 367.16 34.3387 366.472C35.3467 365.768 36.8987 365.384 38.9947 365.32L41.1787 365.248V364.48C41.1787 363.408 40.9467 362.664 40.4827 362.248C40.0187 361.832 39.3627 361.624 38.5147 361.624C37.8427 361.624 37.2027 361.728 36.5947 361.936C35.9867 362.128 35.4187 362.352 34.8907 362.608L34.2427 361.024C34.8027 360.72 35.4667 360.464 36.2347 360.256C37.0027 360.032 37.8027 359.92 38.6347 359.92ZM39.2587 366.784C37.6587 366.848 36.5467 367.104 35.9227 367.552C35.3147 368 35.0107 368.632 35.0107 369.448C35.0107 370.168 35.2267 370.696 35.6587 371.032C36.1067 371.368 36.6747 371.536 37.3627 371.536C38.4507 371.536 39.3547 371.24 40.0747 370.648C40.7947 370.04 41.1547 369.112 41.1547 367.864V366.712L39.2587 366.784ZM53.2158 359.896C53.4558 359.896 53.7118 359.912 53.9838 359.944C54.2718 359.96 54.5198 359.992 54.7278 360.04L54.4638 361.984C54.2558 361.936 54.0238 361.896 53.7678 361.864C53.5278 361.832 53.2958 361.816 53.0718 361.816C52.4158 361.816 51.7998 362 51.2238 362.368C50.6478 362.72 50.1838 363.224 49.8318 363.88C49.4958 364.52 49.3278 365.272 49.3278 366.136V373H47.2158V360.136H48.9438L49.1838 362.488H49.2798C49.6958 361.784 50.2318 361.176 50.8878 360.664C51.5438 360.152 52.3198 359.896 53.2158 359.896ZM61.5331 359.92C63.1011 359.92 64.2611 360.264 65.0131 360.952C65.7651 361.64 66.1411 362.736 66.1411 364.24V373H64.6051L64.1971 371.176H64.1011C63.5411 371.88 62.9491 372.4 62.3251 372.736C61.7171 373.072 60.8691 373.24 59.7811 373.24C58.6131 373.24 57.6451 372.936 56.8771 372.328C56.1091 371.704 55.7251 370.736 55.7251 369.424C55.7251 368.144 56.2291 367.16 57.2371 366.472C58.2451 365.768 59.7971 365.384 61.8931 365.32L64.0771 365.248V364.48C64.0771 363.408 63.8451 362.664 63.3811 362.248C62.9171 361.832 62.2611 361.624 61.4131 361.624C60.7411 361.624 60.1011 361.728 59.4931 361.936C58.8851 362.128 58.3171 362.352 57.7891 362.608L57.1411 361.024C57.7011 360.72 58.3651 360.464 59.1331 360.256C59.9011 360.032 60.7011 359.92 61.5331 359.92ZM62.1571 366.784C60.5571 366.848 59.4451 367.104 58.8211 367.552C58.2131 368 57.9091 368.632 57.9091 369.448C57.9091 370.168 58.1251 370.696 58.5571 371.032C59.0051 371.368 59.5731 371.536 60.2611 371.536C61.3491 371.536 62.2531 371.24 62.9731 370.648C63.6931 370.04 64.0531 369.112 64.0531 367.864V366.712L62.1571 366.784ZM78.4902 369.448C78.4902 370.696 78.0262 371.64 77.0982 372.28C76.1702 372.92 74.9222 373.24 73.3542 373.24C72.4582 373.24 71.6822 373.168 71.0262 373.024C70.3862 372.88 69.8182 372.68 69.3222 372.424V370.504C69.8342 370.76 70.4502 371 71.1702 371.224C71.9062 371.432 72.6502 371.536 73.4022 371.536C74.4742 371.536 75.2502 371.368 75.7302 371.032C76.2102 370.68 76.4502 370.216 76.4502 369.64C76.4502 369.32 76.3622 369.032 76.1862 368.776C76.0102 368.52 75.6902 368.264 75.2262 368.008C74.7782 367.752 74.1302 367.464 73.2822 367.144C72.4502 366.824 71.7382 366.504 71.1462 366.184C70.5542 365.864 70.0982 365.48 69.7782 365.032C69.4582 364.584 69.2982 364.008 69.2982 363.304C69.2982 362.216 69.7382 361.376 70.6182 360.784C71.5142 360.192 72.6822 359.896 74.1222 359.896C74.9062 359.896 75.6342 359.976 76.3062 360.136C76.9942 360.28 77.6342 360.488 78.2262 360.76L77.5062 362.44C76.9622 362.216 76.3942 362.024 75.8022 361.864C75.2102 361.704 74.6022 361.624 73.9782 361.624C73.1142 361.624 72.4502 361.768 71.9862 362.056C71.5382 362.328 71.3142 362.704 71.3142 363.184C71.3142 363.536 71.4182 363.84 71.6262 364.096C71.8342 364.336 72.1782 364.576 72.6582 364.816C73.1542 365.04 73.8102 365.312 74.6262 365.632C75.4422 365.936 76.1382 366.248 76.7142 366.568C77.2902 366.888 77.7302 367.28 78.0342 367.744C78.3382 368.192 78.4902 368.76 78.4902 369.448ZM89.9026 365.728C89.6946 365.072 89.5106 364.432 89.3506 363.808C89.2066 363.168 89.0946 362.672 89.0146 362.32H88.9186C88.8546 362.672 88.7506 363.168 88.6066 363.808C88.4626 364.432 88.2786 365.08 88.0546 365.752L85.7506 372.976H83.3506L79.8226 360.112H82.0066L83.7826 366.976C83.9586 367.664 84.1266 368.36 84.2866 369.064C84.4466 369.768 84.5586 370.352 84.6226 370.816H84.7186C84.7826 370.544 84.8546 370.208 84.9346 369.808C85.0306 369.408 85.1346 368.992 85.2466 368.56C85.3586 368.112 85.4706 367.712 85.5826 367.36L87.8626 360.112H90.1666L92.3746 367.36C92.5506 367.904 92.7186 368.496 92.8786 369.136C93.0546 369.776 93.1746 370.328 93.2386 370.792H93.3346C93.3826 370.392 93.4866 369.84 93.6466 369.136C93.8226 368.432 94.0066 367.712 94.1986 366.976L95.9986 360.112H98.1586L94.5826 372.976H92.1106L89.9026 365.728ZM105.338 359.92C106.906 359.92 108.066 360.264 108.818 360.952C109.57 361.64 109.946 362.736 109.946 364.24V373H108.41L108.002 371.176H107.906C107.346 371.88 106.754 372.4 106.13 372.736C105.522 373.072 104.674 373.24 103.586 373.24C102.418 373.24 101.45 372.936 100.682 372.328C99.9138 371.704 99.5298 370.736 99.5298 369.424C99.5298 368.144 100.034 367.16 101.042 366.472C102.05 365.768 103.602 365.384 105.698 365.32L107.882 365.248V364.48C107.882 363.408 107.65 362.664 107.186 362.248C106.722 361.832 106.066 361.624 105.218 361.624C104.546 361.624 103.906 361.728 103.298 361.936C102.69 362.128 102.122 362.352 101.594 362.608L100.946 361.024C101.506 360.72 102.17 360.464 102.938 360.256C103.706 360.032 104.506 359.92 105.338 359.92ZM105.962 366.784C104.362 366.848 103.25 367.104 102.626 367.552C102.018 368 101.714 368.632 101.714 369.448C101.714 370.168 101.93 370.696 102.362 371.032C102.81 371.368 103.378 371.536 104.066 371.536C105.154 371.536 106.058 371.24 106.778 370.648C107.498 370.04 107.858 369.112 107.858 367.864V366.712L105.962 366.784ZM118.215 371.512C118.535 371.512 118.863 371.488 119.199 371.44C119.535 371.376 119.807 371.312 120.015 371.248V372.856C119.791 372.968 119.471 373.056 119.055 373.12C118.639 373.2 118.239 373.24 117.855 373.24C117.183 373.24 116.559 373.128 115.983 372.904C115.423 372.664 114.967 372.256 114.615 371.68C114.263 371.104 114.087 370.296 114.087 369.256V361.768H112.263V360.76L114.111 359.92L114.951 357.184H116.199V360.136H119.919V361.768H116.199V369.208C116.199 369.992 116.383 370.576 116.751 370.96C117.135 371.328 117.623 371.512 118.215 371.512ZM123.671 355.312C123.991 355.312 124.271 355.424 124.511 355.648C124.767 355.856 124.895 356.192 124.895 356.656C124.895 357.104 124.767 357.44 124.511 357.664C124.271 357.888 123.991 358 123.671 358C123.319 358 123.023 357.888 122.783 357.664C122.543 357.44 122.423 357.104 122.423 356.656C122.423 356.192 122.543 355.856 122.783 355.648C123.023 355.424 123.319 355.312 123.671 355.312ZM124.703 360.136V373H122.591V360.136H124.703ZM140.618 373.24C139.482 373.24 138.466 373.008 137.57 372.544C136.69 372.08 135.994 371.36 135.482 370.384C134.986 369.408 134.738 368.16 134.738 366.64C134.738 365.056 135.002 363.768 135.53 362.776C136.058 361.784 136.77 361.056 137.666 360.592C138.578 360.128 139.61 359.896 140.762 359.896C141.418 359.896 142.05 359.968 142.658 360.112C143.266 360.24 143.762 360.4 144.146 360.592L143.498 362.344C143.114 362.2 142.666 362.064 142.154 361.936C141.642 361.808 141.162 361.744 140.714 361.744C138.186 361.744 136.922 363.368 136.922 366.616C136.922 368.168 137.226 369.36 137.834 370.192C138.458 371.008 139.378 371.416 140.594 371.416C141.298 371.416 141.914 371.344 142.442 371.2C142.986 371.056 143.482 370.88 143.93 370.672V372.544C143.498 372.768 143.018 372.936 142.49 373.048C141.978 373.176 141.354 373.24 140.618 373.24ZM158.173 366.544C158.173 368.672 157.629 370.32 156.541 371.488C155.469 372.656 154.013 373.24 152.173 373.24C151.037 373.24 150.021 372.984 149.125 372.472C148.245 371.944 147.549 371.184 147.037 370.192C146.525 369.184 146.269 367.968 146.269 366.544C146.269 364.416 146.805 362.776 147.877 361.624C148.949 360.472 150.405 359.896 152.245 359.896C153.413 359.896 154.437 360.16 155.317 360.688C156.213 361.2 156.909 361.952 157.405 362.944C157.917 363.92 158.173 365.12 158.173 366.544ZM148.453 366.544C148.453 368.064 148.749 369.272 149.341 370.168C149.949 371.048 150.909 371.488 152.221 371.488C153.517 371.488 154.469 371.048 155.077 370.168C155.685 369.272 155.989 368.064 155.989 366.544C155.989 365.024 155.685 363.832 155.077 362.968C154.469 362.104 153.509 361.672 152.197 361.672C150.885 361.672 149.933 362.104 149.341 362.968C148.749 363.832 148.453 365.024 148.453 366.544ZM163.632 373H161.52V354.76H163.632V373ZM169.82 373H167.708V354.76H169.82V373ZM178.863 359.896C179.967 359.896 180.911 360.136 181.695 360.616C182.495 361.096 183.103 361.776 183.519 362.656C183.951 363.52 184.167 364.536 184.167 365.704V366.976H175.359C175.391 368.432 175.759 369.544 176.463 370.312C177.183 371.064 178.183 371.44 179.463 371.44C180.279 371.44 180.999 371.368 181.623 371.224C182.263 371.064 182.919 370.84 183.591 370.552V372.4C182.935 372.688 182.287 372.896 181.647 373.024C181.007 373.168 180.247 373.24 179.367 373.24C178.151 373.24 177.071 372.992 176.127 372.496C175.199 372 174.471 371.264 173.943 370.288C173.431 369.296 173.175 368.088 173.175 366.664C173.175 365.256 173.407 364.048 173.871 363.04C174.351 362.032 175.015 361.256 175.863 360.712C176.727 360.168 177.727 359.896 178.863 359.896ZM178.839 361.624C177.831 361.624 177.031 361.952 176.439 362.608C175.863 363.248 175.519 364.144 175.407 365.296H181.959C181.943 364.208 181.687 363.328 181.191 362.656C180.695 361.968 179.911 361.624 178.839 361.624ZM192.002 359.896C192.85 359.896 193.61 360.056 194.282 360.376C194.97 360.696 195.554 361.184 196.034 361.84H196.154L196.442 360.136H198.122V373.216C198.122 375.056 197.65 376.44 196.706 377.368C195.778 378.296 194.33 378.76 192.362 378.76C190.474 378.76 188.93 378.488 187.73 377.944V376C188.994 376.672 190.578 377.008 192.482 377.008C193.586 377.008 194.45 376.68 195.074 376.024C195.714 375.384 196.034 374.504 196.034 373.384V372.88C196.034 372.688 196.042 372.416 196.058 372.064C196.074 371.696 196.09 371.44 196.106 371.296H196.01C195.146 372.592 193.818 373.24 192.026 373.24C190.362 373.24 189.058 372.656 188.114 371.488C187.186 370.32 186.722 368.688 186.722 366.592C186.722 364.544 187.186 362.92 188.114 361.72C189.058 360.504 190.354 359.896 192.002 359.896ZM192.29 361.672C191.218 361.672 190.386 362.104 189.794 362.968C189.202 363.816 188.906 365.032 188.906 366.616C188.906 368.2 189.194 369.416 189.77 370.264C190.362 371.096 191.218 371.512 192.338 371.512C193.634 371.512 194.578 371.168 195.17 370.48C195.762 369.776 196.058 368.648 196.058 367.096V366.592C196.058 364.832 195.754 363.576 195.146 362.824C194.538 362.056 193.586 361.672 192.29 361.672ZM207.176 359.896C208.28 359.896 209.224 360.136 210.008 360.616C210.808 361.096 211.416 361.776 211.832 362.656C212.264 363.52 212.48 364.536 212.48 365.704V366.976H203.672C203.704 368.432 204.072 369.544 204.776 370.312C205.496 371.064 206.496 371.44 207.776 371.44C208.592 371.44 209.312 371.368 209.936 371.224C210.576 371.064 211.232 370.84 211.904 370.552V372.4C211.248 372.688 210.6 372.896 209.96 373.024C209.32 373.168 208.56 373.24 207.68 373.24C206.464 373.24 205.384 372.992 204.44 372.496C203.512 372 202.784 371.264 202.256 370.288C201.744 369.296 201.488 368.088 201.488 366.664C201.488 365.256 201.72 364.048 202.184 363.04C202.664 362.032 203.328 361.256 204.176 360.712C205.04 360.168 206.04 359.896 207.176 359.896ZM207.152 361.624C206.144 361.624 205.344 361.952 204.752 362.608C204.176 363.248 203.832 364.144 203.72 365.296H210.272C210.256 364.208 210 363.328 209.504 362.656C209.008 361.968 208.224 361.624 207.152 361.624ZM233.619 366.544C233.619 368.672 233.075 370.32 231.987 371.488C230.915 372.656 229.459 373.24 227.619 373.24C226.483 373.24 225.467 372.984 224.571 372.472C223.691 371.944 222.995 371.184 222.483 370.192C221.971 369.184 221.715 367.968 221.715 366.544C221.715 364.416 222.251 362.776 223.323 361.624C224.395 360.472 225.851 359.896 227.691 359.896C228.859 359.896 229.883 360.16 230.763 360.688C231.659 361.2 232.355 361.952 232.851 362.944C233.363 363.92 233.619 365.12 233.619 366.544ZM223.899 366.544C223.899 368.064 224.195 369.272 224.787 370.168C225.395 371.048 226.355 371.488 227.667 371.488C228.963 371.488 229.915 371.048 230.523 370.168C231.131 369.272 231.435 368.064 231.435 366.544C231.435 365.024 231.131 363.832 230.523 362.968C229.915 362.104 228.955 361.672 227.643 361.672C226.331 361.672 225.379 362.104 224.787 362.968C224.195 363.832 223.899 365.024 223.899 366.544ZM242.894 361.768H239.654V373H237.542V361.768H235.286V360.784L237.542 360.064V359.32C237.542 357.656 237.91 356.464 238.646 355.744C239.382 355.008 240.406 354.64 241.718 354.64C242.23 354.64 242.694 354.688 243.11 354.784C243.542 354.864 243.91 354.96 244.214 355.072L243.662 356.728C243.406 356.648 243.11 356.568 242.774 356.488C242.438 356.408 242.094 356.368 241.742 356.368C241.038 356.368 240.51 356.608 240.158 357.088C239.822 357.552 239.654 358.288 239.654 359.296V360.136H242.894V361.768ZM256.863 359.896C257.967 359.896 258.911 360.136 259.695 360.616C260.495 361.096 261.103 361.776 261.519 362.656C261.951 363.52 262.167 364.536 262.167 365.704V366.976H253.359C253.391 368.432 253.759 369.544 254.463 370.312C255.183 371.064 256.183 371.44 257.463 371.44C258.279 371.44 258.999 371.368 259.623 371.224C260.263 371.064 260.919 370.84 261.591 370.552V372.4C260.935 372.688 260.287 372.896 259.647 373.024C259.007 373.168 258.247 373.24 257.367 373.24C256.151 373.24 255.071 372.992 254.127 372.496C253.199 372 252.471 371.264 251.943 370.288C251.431 369.296 251.175 368.088 251.175 366.664C251.175 365.256 251.407 364.048 251.871 363.04C252.351 362.032 253.015 361.256 253.863 360.712C254.727 360.168 255.727 359.896 256.863 359.896ZM256.839 361.624C255.831 361.624 255.031 361.952 254.439 362.608C253.863 363.248 253.519 364.144 253.407 365.296H259.959C259.943 364.208 259.687 363.328 259.191 362.656C258.695 361.968 257.911 361.624 256.839 361.624ZM271.634 359.896C273.17 359.896 274.33 360.272 275.114 361.024C275.898 361.76 276.29 362.96 276.29 364.624V373H274.202V364.768C274.202 362.704 273.242 361.672 271.322 361.672C269.898 361.672 268.914 362.072 268.37 362.872C267.826 363.672 267.554 364.824 267.554 366.328V373H265.442V360.136H267.146L267.458 361.888H267.578C267.994 361.216 268.57 360.72 269.306 360.4C270.042 360.064 270.818 359.896 271.634 359.896ZM284.838 359.896C285.686 359.896 286.446 360.056 287.118 360.376C287.806 360.696 288.39 361.184 288.87 361.84H288.99L289.278 360.136H290.958V373.216C290.958 375.056 290.486 376.44 289.542 377.368C288.614 378.296 287.166 378.76 285.198 378.76C283.31 378.76 281.766 378.488 280.566 377.944V376C281.83 376.672 283.414 377.008 285.318 377.008C286.422 377.008 287.286 376.68 287.91 376.024C288.55 375.384 288.87 374.504 288.87 373.384V372.88C288.87 372.688 288.878 372.416 288.894 372.064C288.91 371.696 288.926 371.44 288.942 371.296H288.846C287.982 372.592 286.654 373.24 284.862 373.24C283.198 373.24 281.894 372.656 280.95 371.488C280.022 370.32 279.558 368.688 279.558 366.592C279.558 364.544 280.022 362.92 280.95 361.72C281.894 360.504 283.19 359.896 284.838 359.896ZM285.126 361.672C284.054 361.672 283.222 362.104 282.63 362.968C282.038 363.816 281.742 365.032 281.742 366.616C281.742 368.2 282.03 369.416 282.606 370.264C283.198 371.096 284.054 371.512 285.174 371.512C286.47 371.512 287.414 371.168 288.006 370.48C288.598 369.776 288.894 368.648 288.894 367.096V366.592C288.894 364.832 288.59 363.576 287.982 362.824C287.374 362.056 286.422 361.672 285.126 361.672ZM299.604 359.896C300.452 359.896 301.212 360.056 301.884 360.376C302.572 360.696 303.156 361.184 303.636 361.84H303.756L304.044 360.136H305.724V373.216C305.724 375.056 305.252 376.44 304.308 377.368C303.38 378.296 301.932 378.76 299.964 378.76C298.076 378.76 296.532 378.488 295.332 377.944V376C296.596 376.672 298.18 377.008 300.084 377.008C301.188 377.008 302.052 376.68 302.676 376.024C303.316 375.384 303.636 374.504 303.636 373.384V372.88C303.636 372.688 303.644 372.416 303.66 372.064C303.676 371.696 303.692 371.44 303.708 371.296H303.612C302.748 372.592 301.42 373.24 299.628 373.24C297.964 373.24 296.66 372.656 295.716 371.488C294.788 370.32 294.324 368.688 294.324 366.592C294.324 364.544 294.788 362.92 295.716 361.72C296.66 360.504 297.956 359.896 299.604 359.896ZM299.892 361.672C298.82 361.672 297.988 362.104 297.396 362.968C296.804 363.816 296.508 365.032 296.508 366.616C296.508 368.2 296.796 369.416 297.372 370.264C297.964 371.096 298.82 371.512 299.94 371.512C301.236 371.512 302.18 371.168 302.772 370.48C303.364 369.776 303.66 368.648 303.66 367.096V366.592C303.66 364.832 303.356 363.576 302.748 362.824C302.14 362.056 301.188 361.672 299.892 361.672ZM312.352 370.504V373H309.855V370.504H312.352Z" fill="white" fill-opacity="0.86"/>
<path d="M18.5508 376H126.743V377.2H18.5508V376ZM126.738 376.422H133.406V378.18H126.738V376.422ZM133.418 376H213.704V377.2H133.418V376ZM213.715 376.422H220.383V378.18H213.715V376.422ZM220.395 376H243.182V377.2H220.395V376ZM243.176 376.422H249.844V378.18H243.176V376.422ZM249.855 376H307.764V377.2H249.855V376Z" fill="white" fill-opacity="0.86"/>
</g>
<path d="M99.3533 51.632H76.9533L72.5373 62H63.9612L84.1213 17.2H92.3133L112.537 62H103.833L99.3533 51.632ZM96.6012 45.104L88.1533 25.52L79.7693 45.104H96.6012ZM136.411 27.44C139.739 27.44 142.704 28.1653 145.307 29.616C147.952 31.0667 150.021 33.1147 151.515 35.76C153.008 38.4053 153.755 41.456 153.755 44.912C153.755 48.368 153.008 51.44 151.515 54.128C150.021 56.7733 147.952 58.8213 145.307 60.272C142.704 61.7227 139.739 62.448 136.411 62.448C134.064 62.448 131.909 62.0427 129.947 61.232C128.027 60.4213 126.405 59.2053 125.083 57.584V62H117.467V14.512H125.467V31.984C126.832 30.4907 128.432 29.36 130.267 28.592C132.144 27.824 134.192 27.44 136.411 27.44ZM135.515 55.6C138.459 55.6 140.869 54.6187 142.747 52.656C144.667 50.6933 145.627 48.112 145.627 44.912C145.627 41.712 144.667 39.1307 142.747 37.168C140.869 35.2053 138.459 34.224 135.515 34.224C133.595 34.224 131.867 34.672 130.331 35.568C128.795 36.4213 127.579 37.6587 126.683 39.28C125.787 40.9013 125.339 42.7787 125.339 44.912C125.339 47.0453 125.787 48.9227 126.683 50.544C127.579 52.1653 128.795 53.424 130.331 54.32C131.867 55.1733 133.595 55.6 135.515 55.6ZM176.702 62.448C173.246 62.448 170.131 61.7013 167.358 60.208C164.584 58.7147 162.408 56.6453 160.83 54C159.294 51.312 158.526 48.2827 158.526 44.912C158.526 41.5413 159.294 38.5333 160.83 35.888C162.408 33.2427 164.584 31.1733 167.358 29.68C170.131 28.1867 173.246 27.44 176.702 27.44C180.2 27.44 183.336 28.1867 186.11 29.68C188.883 31.1733 191.038 33.2427 192.574 35.888C194.152 38.5333 194.942 41.5413 194.942 44.912C194.942 48.2827 194.152 51.312 192.574 54C191.038 56.6453 188.883 58.7147 186.11 60.208C183.336 61.7013 180.2 62.448 176.702 62.448ZM176.702 55.6C179.646 55.6 182.078 54.6187 183.998 52.656C185.918 50.6933 186.878 48.112 186.878 44.912C186.878 41.712 185.918 39.1307 183.998 37.168C182.078 35.2053 179.646 34.224 176.702 34.224C173.758 34.224 171.326 35.2053 169.406 37.168C167.528 39.1307 166.59 41.712 166.59 44.912C166.59 48.112 167.528 50.6933 169.406 52.656C171.326 54.6187 173.758 55.6 176.702 55.6ZM235.68 27.824V62H228.064V57.648C226.784 59.184 225.184 60.3787 223.264 61.232C221.344 62.0427 219.274 62.448 217.056 62.448C212.49 62.448 208.885 61.1893 206.24 58.672C203.637 56.112 202.336 52.336 202.336 47.344V27.824H210.336V46.256C210.336 49.328 211.018 51.632 212.384 53.168C213.792 54.6613 215.776 55.408 218.336 55.408C221.194 55.408 223.456 54.5333 225.12 52.784C226.826 50.992 227.68 48.432 227.68 45.104V27.824H235.68ZM266.698 60.144C265.76 60.912 264.608 61.488 263.242 61.872C261.92 62.256 260.512 62.448 259.018 62.448C255.264 62.448 252.362 61.4667 250.314 59.504C248.266 57.5413 247.242 54.6827 247.242 50.928V34.48H241.61V28.08H247.242V20.272H255.242V28.08H264.394V34.48H255.242V50.736C255.242 52.4 255.648 53.68 256.458 54.576C257.269 55.4293 258.442 55.856 259.978 55.856C261.77 55.856 263.264 55.3867 264.458 54.448L266.698 60.144ZM46.949 95.2V140H40.101L15.397 109.664V140H7.141V95.2H13.989L38.693 125.536V95.2H46.949ZM73.5455 140.448C70.0895 140.448 66.9748 139.701 64.2015 138.208C61.4282 136.715 59.2522 134.645 57.6735 132C56.1375 129.312 55.3695 126.283 55.3695 122.912C55.3695 119.541 56.1375 116.533 57.6735 113.888C59.2522 111.243 61.4282 109.173 64.2015 107.68C66.9748 106.187 70.0895 105.44 73.5455 105.44C77.0442 105.44 80.1802 106.187 82.9535 107.68C85.7268 109.173 87.8815 111.243 89.4175 113.888C90.9962 116.533 91.7855 119.541 91.7855 122.912C91.7855 126.283 90.9962 129.312 89.4175 132C87.8815 134.645 85.7268 136.715 82.9535 138.208C80.1802 139.701 77.0442 140.448 73.5455 140.448ZM73.5455 133.6C76.4895 133.6 78.9215 132.619 80.8415 130.656C82.7615 128.693 83.7215 126.112 83.7215 122.912C83.7215 119.712 82.7615 117.131 80.8415 115.168C78.9215 113.205 76.4895 112.224 73.5455 112.224C70.6015 112.224 68.1695 113.205 66.2495 115.168C64.3722 117.131 63.4335 119.712 63.4335 122.912C63.4335 126.112 64.3722 128.693 66.2495 130.656C68.1695 132.619 70.6015 133.6 73.5455 133.6ZM119.98 138.144C119.041 138.912 117.889 139.488 116.524 139.872C115.201 140.256 113.793 140.448 112.3 140.448C108.545 140.448 105.644 139.467 103.595 137.504C101.548 135.541 100.524 132.683 100.524 128.928V112.48H94.8915V106.08H100.524V98.272H108.524V106.08H117.676V112.48H108.524V128.736C108.524 130.4 108.929 131.68 109.74 132.576C110.55 133.429 111.724 133.856 113.26 133.856C115.052 133.856 116.545 133.387 117.74 132.448L119.98 138.144ZM157.564 123.104C157.564 123.659 157.521 124.448 157.436 125.472H130.62C131.089 127.989 132.305 129.995 134.268 131.488C136.273 132.939 138.748 133.664 141.692 133.664C145.446 133.664 148.54 132.427 150.972 129.952L155.26 134.88C153.724 136.715 151.782 138.101 149.436 139.04C147.089 139.979 144.444 140.448 141.5 140.448C137.745 140.448 134.438 139.701 131.58 138.208C128.721 136.715 126.502 134.645 124.924 132C123.388 129.312 122.62 126.283 122.62 122.912C122.62 119.584 123.366 116.597 124.86 113.952C126.396 111.264 128.508 109.173 131.196 107.68C133.884 106.187 136.913 105.44 140.284 105.44C143.612 105.44 146.577 106.187 149.18 107.68C151.825 109.131 153.873 111.2 155.324 113.888C156.817 116.533 157.564 119.605 157.564 123.104ZM140.284 111.84C137.724 111.84 135.548 112.608 133.756 114.144C132.006 115.637 130.94 117.643 130.556 120.16H149.948C149.606 117.685 148.561 115.68 146.812 114.144C145.062 112.608 142.886 111.84 140.284 111.84ZM179.904 140.64C176.448 140.64 173.099 140.149 169.856 139.168C166.656 138.187 164.117 136.885 162.24 135.264L165.12 128.8C166.955 130.251 169.195 131.445 171.84 132.384C174.528 133.28 177.216 133.728 179.904 133.728C183.232 133.728 185.707 133.195 187.328 132.128C188.992 131.061 189.824 129.653 189.824 127.904C189.824 126.624 189.355 125.579 188.416 124.768C187.52 123.915 186.368 123.253 184.96 122.784C183.552 122.315 181.632 121.781 179.2 121.184C175.787 120.373 173.013 119.563 170.88 118.752C168.789 117.941 166.976 116.683 165.44 114.976C163.947 113.227 163.2 110.88 163.2 107.936C163.2 105.461 163.861 103.221 165.184 101.216C166.549 99.168 168.576 97.5467 171.264 96.352C173.995 95.1573 177.323 94.56 181.248 94.56C183.979 94.56 186.667 94.9013 189.312 95.584C191.957 96.2667 194.24 97.248 196.16 98.528L193.536 104.992C191.573 103.84 189.525 102.965 187.392 102.368C185.259 101.771 183.189 101.472 181.184 101.472C177.899 101.472 175.445 102.027 173.824 103.136C172.245 104.245 171.456 105.717 171.456 107.552C171.456 108.832 171.904 109.877 172.8 110.688C173.739 111.499 174.912 112.139 176.32 112.608C177.728 113.077 179.648 113.611 182.08 114.208C185.408 114.976 188.139 115.787 190.272 116.64C192.405 117.451 194.219 118.709 195.712 120.416C197.248 122.123 198.016 124.427 198.016 127.328C198.016 129.803 197.333 132.043 195.968 134.048C194.645 136.053 192.619 137.653 189.888 138.848C187.157 140.043 183.829 140.64 179.904 140.64ZM221.178 140.448C217.637 140.448 214.458 139.701 211.642 138.208C208.826 136.715 206.629 134.645 205.05 132C203.471 129.312 202.682 126.283 202.682 122.912C202.682 119.541 203.471 116.533 205.05 113.888C206.629 111.243 208.805 109.173 211.578 107.68C214.394 106.187 217.594 105.44 221.178 105.44C224.549 105.44 227.493 106.123 230.01 107.488C232.57 108.853 234.49 110.816 235.77 113.376L229.626 116.96C228.645 115.381 227.407 114.208 225.914 113.44C224.463 112.629 222.863 112.224 221.114 112.224C218.127 112.224 215.653 113.205 213.69 115.168C211.727 117.088 210.746 119.669 210.746 122.912C210.746 126.155 211.706 128.757 213.626 130.72C215.589 132.64 218.085 133.6 221.114 133.6C222.863 133.6 224.463 133.216 225.914 132.448C227.407 131.637 228.645 130.443 229.626 128.864L235.77 132.448C234.447 135.008 232.506 136.992 229.946 138.4C227.429 139.765 224.506 140.448 221.178 140.448ZM257.546 140.448C254.09 140.448 250.975 139.701 248.202 138.208C245.428 136.715 243.252 134.645 241.674 132C240.138 129.312 239.37 126.283 239.37 122.912C239.37 119.541 240.138 116.533 241.674 113.888C243.252 111.243 245.428 109.173 248.202 107.68C250.975 106.187 254.09 105.44 257.546 105.44C261.044 105.44 264.18 106.187 266.954 107.68C269.727 109.173 271.882 111.243 273.418 113.888C274.996 116.533 275.786 119.541 275.786 122.912C275.786 126.283 274.996 129.312 273.418 132C271.882 134.645 269.727 136.715 266.954 138.208C264.18 139.701 261.044 140.448 257.546 140.448ZM257.546 133.6C260.49 133.6 262.922 132.619 264.842 130.656C266.762 128.693 267.722 126.112 267.722 122.912C267.722 119.712 266.762 117.131 264.842 115.168C262.922 113.205 260.49 112.224 257.546 112.224C254.602 112.224 252.17 113.205 250.25 115.168C248.372 117.131 247.434 119.712 247.434 122.912C247.434 126.112 248.372 128.693 250.25 130.656C252.17 132.619 254.602 133.6 257.546 133.6ZM316.524 105.824V140H308.908V135.648C307.628 137.184 306.028 138.379 304.108 139.232C302.188 140.043 300.118 140.448 297.9 140.448C293.334 140.448 289.729 139.189 287.084 136.672C284.481 134.112 283.18 130.336 283.18 125.344V105.824H291.18V124.256C291.18 127.328 291.862 129.632 293.228 131.168C294.636 132.661 296.62 133.408 299.18 133.408C302.038 133.408 304.3 132.533 305.964 130.784C307.67 128.992 308.524 126.432 308.524 123.104V105.824H316.524ZM347.542 138.144C346.603 138.912 345.451 139.488 344.086 139.872C342.763 140.256 341.355 140.448 339.862 140.448C336.107 140.448 333.206 139.467 331.158 137.504C329.11 135.541 328.086 132.683 328.086 128.928V112.48H322.454V106.08H328.086V98.272H336.086V106.08H345.238V112.48H336.086V128.736C336.086 130.4 336.491 131.68 337.302 132.576C338.113 133.429 339.286 133.856 340.822 133.856C342.614 133.856 344.107 133.387 345.302 132.448L347.542 138.144Z" fill="white"/>
<defs>
<filter id="filter0_d" x="0.550781" y="204.76" width="329.801" height="192" filterUnits="userSpaceOnUse" color-interpolation-filters="sRGB">
<feFlood flood-opacity="0" result="BackgroundImageFix"/>
<feColorMatrix in="SourceAlpha" type="matrix" values="0 0 0 0 0 0 0 0 0 0 0 0 0 0 0 0 0 0 127 0"/>
<feOffset/>
<feGaussianBlur stdDeviation="9"/>
<feColorMatrix type="matrix" values="0 0 0 0 1 0 0 0 0 1 0 0 0 0 1 0 0 0 1 0"/>
<feBlend mode="normal" in2="BackgroundImageFix" result="effect1_dropShadow"/>
<feBlend mode="normal" in="SourceGraphic" in2="effect1_dropShadow" result="shape"/>
</filter>
</defs>
</svg>
