<svg width="348" height="473" viewBox="0 0 348 473" fill="none" xmlns="http://www.w3.org/2000/svg">
<path d="M74.6745 450.408C74.6745 452.184 74.3705 453.736 73.7625 455.064C73.1705 456.376 72.2905 457.4 71.1225 458.136C69.9545 458.872 68.5065 459.24 66.7785 459.24C65.0025 459.24 63.5225 458.872 62.3385 458.136C61.1705 457.4 60.2985 456.368 59.7225 455.04C59.1465 453.712 58.8585 452.16 58.8585 450.384C58.8585 448.624 59.1465 447.088 59.7225 445.776C60.2985 444.464 61.1705 443.44 62.3385 442.704C63.5225 441.968 65.0105 441.6 66.8025 441.6C68.5145 441.6 69.9545 441.968 71.1225 442.704C72.2905 443.424 73.1705 444.448 73.7625 445.776C74.3705 447.088 74.6745 448.632 74.6745 450.408ZM61.1385 450.408C61.1385 452.568 61.5945 454.272 62.5065 455.52C63.4185 456.752 64.8425 457.368 66.7785 457.368C68.7305 457.368 70.1545 456.752 71.0505 455.52C71.9465 454.272 72.3945 452.568 72.3945 450.408C72.3945 448.248 71.9465 446.56 71.0505 445.344C70.1545 444.112 68.7385 443.496 66.8025 443.496C64.8665 443.496 63.4345 444.112 62.5065 445.344C61.5945 446.56 61.1385 448.248 61.1385 450.408ZM88.9365 446.136V459H87.2085L86.8965 457.296H86.8005C86.3845 457.968 85.8085 458.464 85.0725 458.784C84.3365 459.088 83.5525 459.24 82.7205 459.24C81.1685 459.24 80.0005 458.872 79.2165 458.136C78.4325 457.384 78.0405 456.192 78.0405 454.56V446.136H80.1765V454.416C80.1765 456.464 81.1285 457.488 83.0325 457.488C84.4565 457.488 85.4405 457.088 85.9845 456.288C86.5445 455.488 86.8245 454.336 86.8245 452.832V446.136H88.9365ZM99.0205 445.896C99.2605 445.896 99.5165 445.912 99.7885 445.944C100.076 445.96 100.324 445.992 100.532 446.04L100.268 447.984C100.06 447.936 99.8285 447.896 99.5725 447.864C99.3325 447.832 99.1005 447.816 98.8765 447.816C98.2205 447.816 97.6045 448 97.0285 448.368C96.4525 448.72 95.9885 449.224 95.6365 449.88C95.3005 450.52 95.1325 451.272 95.1325 452.136V459H93.0205V446.136H94.7485L94.9885 448.488H95.0845C95.5005 447.784 96.0365 447.176 96.6925 446.664C97.3485 446.152 98.1245 445.896 99.0205 445.896ZM120.654 459L118.59 453.696H111.798L109.758 459H107.574L114.27 441.792H116.214L122.886 459H120.654ZM116.022 446.592C115.974 446.464 115.894 446.232 115.782 445.896C115.67 445.56 115.558 445.216 115.446 444.864C115.35 444.496 115.27 444.216 115.206 444.024C115.094 444.52 114.966 445.008 114.822 445.488C114.678 445.952 114.558 446.32 114.462 446.592L112.518 451.776H117.942L116.022 446.592ZM139.054 445.896C140.51 445.896 141.598 446.272 142.318 447.024C143.038 447.76 143.398 448.96 143.398 450.624V459H141.31V450.72C141.31 448.688 140.438 447.672 138.694 447.672C137.446 447.672 136.55 448.032 136.006 448.752C135.478 449.472 135.214 450.52 135.214 451.896V459H133.126V450.72C133.126 448.688 132.246 447.672 130.486 447.672C129.19 447.672 128.294 448.072 127.798 448.872C127.302 449.672 127.054 450.824 127.054 452.328V459H124.942V446.136H126.646L126.958 447.888H127.078C127.478 447.216 128.014 446.72 128.686 446.4C129.374 446.064 130.102 445.896 130.87 445.896C132.886 445.896 134.198 446.616 134.806 448.056H134.926C135.358 447.32 135.942 446.776 136.678 446.424C137.43 446.072 138.222 445.896 139.054 445.896ZM152.244 445.92C153.812 445.92 154.972 446.264 155.724 446.952C156.476 447.64 156.852 448.736 156.852 450.24V459H155.316L154.908 457.176H154.812C154.252 457.88 153.66 458.4 153.036 458.736C152.428 459.072 151.58 459.24 150.492 459.24C149.324 459.24 148.356 458.936 147.588 458.328C146.82 457.704 146.436 456.736 146.436 455.424C146.436 454.144 146.94 453.16 147.948 452.472C148.956 451.768 150.508 451.384 152.604 451.32L154.788 451.248V450.48C154.788 449.408 154.556 448.664 154.092 448.248C153.628 447.832 152.972 447.624 152.124 447.624C151.452 447.624 150.812 447.728 150.204 447.936C149.596 448.128 149.028 448.352 148.5 448.608L147.852 447.024C148.412 446.72 149.076 446.464 149.844 446.256C150.612 446.032 151.412 445.92 152.244 445.92ZM152.868 452.784C151.268 452.848 150.156 453.104 149.532 453.552C148.924 454 148.62 454.632 148.62 455.448C148.62 456.168 148.836 456.696 149.268 457.032C149.716 457.368 150.284 457.536 150.972 457.536C152.06 457.536 152.964 457.24 153.684 456.648C154.404 456.04 154.764 455.112 154.764 453.864V452.712L152.868 452.784ZM169.129 459H159.721V457.608L166.633 447.768H160.129V446.136H168.961V447.72L162.145 457.368H169.129V459ZM173.179 441.312C173.499 441.312 173.779 441.424 174.019 441.648C174.275 441.856 174.403 442.192 174.403 442.656C174.403 443.104 174.275 443.44 174.019 443.664C173.779 443.888 173.499 444 173.179 444C172.827 444 172.531 443.888 172.291 443.664C172.051 443.44 171.931 443.104 171.931 442.656C171.931 442.192 172.051 441.856 172.291 441.648C172.531 441.424 172.827 441.312 173.179 441.312ZM174.211 446.136V459H172.099V446.136H174.211ZM184.478 445.896C186.014 445.896 187.174 446.272 187.958 447.024C188.742 447.76 189.134 448.96 189.134 450.624V459H187.046V450.768C187.046 448.704 186.086 447.672 184.166 447.672C182.742 447.672 181.758 448.072 181.214 448.872C180.67 449.672 180.398 450.824 180.398 452.328V459H178.286V446.136H179.99L180.302 447.888H180.422C180.838 447.216 181.414 446.72 182.15 446.4C182.886 446.064 183.662 445.896 184.478 445.896ZM197.682 445.896C198.53 445.896 199.29 446.056 199.962 446.376C200.65 446.696 201.234 447.184 201.714 447.84H201.834L202.122 446.136H203.802V459.216C203.802 461.056 203.33 462.44 202.386 463.368C201.458 464.296 200.01 464.76 198.042 464.76C196.154 464.76 194.61 464.488 193.41 463.944V462C194.674 462.672 196.258 463.008 198.162 463.008C199.266 463.008 200.13 462.68 200.754 462.024C201.394 461.384 201.714 460.504 201.714 459.384V458.88C201.714 458.688 201.722 458.416 201.738 458.064C201.754 457.696 201.77 457.44 201.786 457.296H201.69C200.826 458.592 199.498 459.24 197.706 459.24C196.042 459.24 194.738 458.656 193.794 457.488C192.866 456.32 192.402 454.688 192.402 452.592C192.402 450.544 192.866 448.92 193.794 447.72C194.738 446.504 196.034 445.896 197.682 445.896ZM197.97 447.672C196.898 447.672 196.066 448.104 195.474 448.968C194.882 449.816 194.586 451.032 194.586 452.616C194.586 454.2 194.874 455.416 195.45 456.264C196.042 457.096 196.898 457.512 198.018 457.512C199.314 457.512 200.258 457.168 200.85 456.48C201.442 455.776 201.738 454.648 201.738 453.096V452.592C201.738 450.832 201.434 449.576 200.826 448.824C200.218 448.056 199.266 447.672 197.97 447.672ZM220.279 459H218.119V443.76H212.767V441.864H225.607V443.76H220.279V459ZM231.184 445.896C232.288 445.896 233.232 446.136 234.016 446.616C234.816 447.096 235.424 447.776 235.84 448.656C236.272 449.52 236.488 450.536 236.488 451.704V452.976H227.68C227.712 454.432 228.08 455.544 228.784 456.312C229.504 457.064 230.504 457.44 231.784 457.44C232.6 457.44 233.32 457.368 233.944 457.224C234.584 457.064 235.24 456.84 235.912 456.552V458.4C235.256 458.688 234.608 458.896 233.968 459.024C233.328 459.168 232.568 459.24 231.688 459.24C230.472 459.24 229.392 458.992 228.448 458.496C227.52 458 226.792 457.264 226.264 456.288C225.752 455.296 225.496 454.088 225.496 452.664C225.496 451.256 225.728 450.048 226.192 449.04C226.672 448.032 227.336 447.256 228.184 446.712C229.048 446.168 230.048 445.896 231.184 445.896ZM231.16 447.624C230.152 447.624 229.352 447.952 228.76 448.608C228.184 449.248 227.84 450.144 227.728 451.296H234.28C234.264 450.208 234.008 449.328 233.512 448.656C233.016 447.968 232.232 447.624 231.16 447.624ZM244.635 445.92C246.203 445.92 247.363 446.264 248.115 446.952C248.867 447.64 249.243 448.736 249.243 450.24V459H247.707L247.299 457.176H247.203C246.643 457.88 246.051 458.4 245.427 458.736C244.819 459.072 243.971 459.24 242.883 459.24C241.715 459.24 240.747 458.936 239.979 458.328C239.211 457.704 238.827 456.736 238.827 455.424C238.827 454.144 239.331 453.16 240.339 452.472C241.347 451.768 242.899 451.384 244.995 451.32L247.179 451.248V450.48C247.179 449.408 246.947 448.664 246.483 448.248C246.019 447.832 245.363 447.624 244.515 447.624C243.843 447.624 243.203 447.728 242.595 447.936C241.987 448.128 241.419 448.352 240.891 448.608L240.243 447.024C240.803 446.72 241.467 446.464 242.235 446.256C243.003 446.032 243.803 445.92 244.635 445.92ZM245.259 452.784C243.659 452.848 242.547 453.104 241.923 453.552C241.315 454 241.011 454.632 241.011 455.448C241.011 456.168 241.227 456.696 241.659 457.032C242.107 457.368 242.675 457.536 243.363 457.536C244.451 457.536 245.355 457.24 246.075 456.648C246.795 456.04 247.155 455.112 247.155 453.864V452.712L245.259 452.784ZM267.328 445.896C268.784 445.896 269.872 446.272 270.592 447.024C271.312 447.76 271.672 448.96 271.672 450.624V459H269.584V450.72C269.584 448.688 268.712 447.672 266.968 447.672C265.72 447.672 264.824 448.032 264.28 448.752C263.752 449.472 263.488 450.52 263.488 451.896V459H261.4V450.72C261.4 448.688 260.52 447.672 258.76 447.672C257.464 447.672 256.568 448.072 256.072 448.872C255.576 449.672 255.328 450.824 255.328 452.328V459H253.216V446.136H254.92L255.232 447.888H255.352C255.752 447.216 256.288 446.72 256.96 446.4C257.648 446.064 258.376 445.896 259.144 445.896C261.16 445.896 262.472 446.616 263.08 448.056H263.2C263.632 447.32 264.216 446.776 264.952 446.424C265.704 446.072 266.496 445.896 267.328 445.896Z" fill="white"/>
<path d="M64.7206 241L62.6566 235.696H55.8646L53.8246 241H51.6406L58.3366 223.792H60.2806L66.9526 241H64.7206ZM60.0886 228.592C60.0406 228.464 59.9606 228.232 59.8486 227.896C59.7366 227.56 59.6246 227.216 59.5126 226.864C59.4166 226.496 59.3366 226.216 59.2726 226.024C59.1606 226.52 59.0326 227.008 58.8886 227.488C58.7446 227.952 58.6246 228.32 58.5286 228.592L56.5846 233.776H62.0086L60.0886 228.592ZM95.6564 223.864L91.0964 241H88.9124L85.5764 229.768C85.4484 229.304 85.3204 228.84 85.1924 228.376C85.0644 227.912 84.9604 227.504 84.8804 227.152C84.8004 226.784 84.7444 226.528 84.7124 226.384C84.6964 226.592 84.6084 227.04 84.4484 227.728C84.3044 228.4 84.1204 229.104 83.8964 229.84L80.6564 241H78.4724L73.9364 223.864H76.1924L78.8564 234.328C79.0484 235.064 79.2084 235.776 79.3364 236.464C79.4804 237.152 79.5924 237.8 79.6724 238.408C79.7524 237.784 79.8724 237.104 80.0324 236.368C80.1924 235.632 80.3764 234.912 80.5844 234.208L83.6084 223.864H85.8404L88.9844 234.28C89.2084 235.016 89.4004 235.752 89.5604 236.488C89.7204 237.208 89.8404 237.848 89.9204 238.408C90.0004 237.816 90.1124 237.176 90.2564 236.488C90.4004 235.784 90.5684 235.056 90.7604 234.304L93.4004 223.864H95.6564ZM102.5 227.896C103.604 227.896 104.548 228.136 105.332 228.616C106.132 229.096 106.74 229.776 107.156 230.656C107.588 231.52 107.804 232.536 107.804 233.704V234.976H98.9962C99.0282 236.432 99.3962 237.544 100.1 238.312C100.82 239.064 101.82 239.44 103.1 239.44C103.916 239.44 104.636 239.368 105.26 239.224C105.9 239.064 106.556 238.84 107.228 238.552V240.4C106.572 240.688 105.924 240.896 105.284 241.024C104.644 241.168 103.884 241.24 103.004 241.24C101.788 241.24 100.708 240.992 99.7642 240.496C98.8362 240 98.1082 239.264 97.5802 238.288C97.0682 237.296 96.8122 236.088 96.8122 234.664C96.8122 233.256 97.0442 232.048 97.5082 231.04C97.9882 230.032 98.6522 229.256 99.5002 228.712C100.364 228.168 101.364 227.896 102.5 227.896ZM102.476 229.624C101.468 229.624 100.668 229.952 100.076 230.608C99.5002 231.248 99.1562 232.144 99.0442 233.296H105.596C105.58 232.208 105.324 231.328 104.828 230.656C104.332 229.968 103.548 229.624 102.476 229.624ZM113.191 227.2C113.191 227.744 113.175 228.256 113.143 228.736C113.127 229.2 113.103 229.568 113.071 229.84H113.191C113.559 229.296 114.063 228.84 114.703 228.472C115.343 228.104 116.167 227.92 117.175 227.92C118.775 227.92 120.055 228.48 121.015 229.6C121.991 230.704 122.479 232.36 122.479 234.568C122.479 236.776 121.991 238.44 121.015 239.56C120.039 240.68 118.759 241.24 117.175 241.24C116.167 241.24 115.343 241.056 114.703 240.688C114.063 240.32 113.559 239.88 113.191 239.368H113.023L112.591 241H111.079V222.76H113.191V227.2ZM116.815 229.672C115.455 229.672 114.511 230.064 113.983 230.848C113.455 231.632 113.191 232.848 113.191 234.496V234.592C113.191 236.176 113.447 237.392 113.959 238.24C114.487 239.072 115.455 239.488 116.863 239.488C118.015 239.488 118.871 239.064 119.431 238.216C120.007 237.368 120.295 236.144 120.295 234.544C120.295 231.296 119.135 229.672 116.815 229.672ZM130.613 233.512V235.234H124.906V233.512H130.613ZM138.397 241.24C136.797 241.24 135.517 240.688 134.557 239.584C133.597 238.464 133.117 236.8 133.117 234.592C133.117 232.384 133.597 230.72 134.557 229.6C135.533 228.464 136.821 227.896 138.421 227.896C139.413 227.896 140.221 228.08 140.845 228.448C141.485 228.816 142.005 229.264 142.405 229.792H142.549C142.533 229.584 142.501 229.28 142.453 228.88C142.421 228.464 142.405 228.136 142.405 227.896V222.76H144.517V241H142.813L142.501 239.272H142.405C142.021 239.816 141.509 240.28 140.869 240.664C140.229 241.048 139.405 241.24 138.397 241.24ZM138.733 239.488C140.093 239.488 141.045 239.12 141.589 238.384C142.149 237.632 142.429 236.504 142.429 235V234.616C142.429 233.016 142.165 231.792 141.637 230.944C141.109 230.08 140.133 229.648 138.709 229.648C137.573 229.648 136.717 230.104 136.141 231.016C135.581 231.912 135.301 233.12 135.301 234.64C135.301 236.176 135.581 237.368 136.141 238.216C136.717 239.064 137.581 239.488 138.733 239.488ZM153.571 227.896C154.675 227.896 155.619 228.136 156.403 228.616C157.203 229.096 157.811 229.776 158.227 230.656C158.659 231.52 158.875 232.536 158.875 233.704V234.976H150.067C150.099 236.432 150.467 237.544 151.171 238.312C151.891 239.064 152.891 239.44 154.171 239.44C154.987 239.44 155.707 239.368 156.331 239.224C156.971 239.064 157.627 238.84 158.299 238.552V240.4C157.643 240.688 156.995 240.896 156.355 241.024C155.715 241.168 154.955 241.24 154.075 241.24C152.859 241.24 151.779 240.992 150.835 240.496C149.907 240 149.179 239.264 148.651 238.288C148.139 237.296 147.883 236.088 147.883 234.664C147.883 233.256 148.115 232.048 148.579 231.04C149.059 230.032 149.723 229.256 150.571 228.712C151.435 228.168 152.435 227.896 153.571 227.896ZM153.547 229.624C152.539 229.624 151.739 229.952 151.147 230.608C150.571 231.248 150.227 232.144 150.115 233.296H156.667C156.651 232.208 156.395 231.328 155.899 230.656C155.403 229.968 154.619 229.624 153.547 229.624ZM164.513 241L159.641 228.136H161.897L164.633 235.72C164.761 236.072 164.897 236.464 165.041 236.896C165.185 237.328 165.313 237.744 165.425 238.144C165.537 238.528 165.617 238.856 165.665 239.128H165.761C165.825 238.856 165.913 238.52 166.025 238.12C166.153 237.72 166.289 237.304 166.433 236.872C166.593 236.44 166.729 236.056 166.841 235.72L169.577 228.136H171.833L166.937 241H164.513ZM178.836 227.896C179.94 227.896 180.884 228.136 181.668 228.616C182.468 229.096 183.076 229.776 183.492 230.656C183.924 231.52 184.14 232.536 184.14 233.704V234.976H175.332C175.364 236.432 175.732 237.544 176.436 238.312C177.156 239.064 178.156 239.44 179.436 239.44C180.252 239.44 180.972 239.368 181.596 239.224C182.236 239.064 182.892 238.84 183.564 238.552V240.4C182.908 240.688 182.26 240.896 181.62 241.024C180.98 241.168 180.22 241.24 179.34 241.24C178.124 241.24 177.044 240.992 176.1 240.496C175.172 240 174.444 239.264 173.916 238.288C173.404 237.296 173.148 236.088 173.148 234.664C173.148 233.256 173.38 232.048 173.844 231.04C174.324 230.032 174.988 229.256 175.836 228.712C176.7 228.168 177.7 227.896 178.836 227.896ZM178.812 229.624C177.804 229.624 177.004 229.952 176.412 230.608C175.836 231.248 175.492 232.144 175.38 233.296H181.932C181.916 232.208 181.66 231.328 181.164 230.656C180.668 229.968 179.884 229.624 178.812 229.624ZM189.527 241H187.415V222.76H189.527V241ZM199.723 227.896C201.307 227.896 202.579 228.448 203.539 229.552C204.515 230.656 205.003 232.32 205.003 234.544C205.003 236.736 204.515 238.4 203.539 239.536C202.579 240.672 201.299 241.24 199.699 241.24C198.707 241.24 197.883 241.056 197.227 240.688C196.587 240.304 196.083 239.864 195.715 239.368H195.571C195.603 239.64 195.635 239.984 195.667 240.4C195.699 240.816 195.715 241.176 195.715 241.48V246.76H193.603V228.136H195.331L195.619 229.888H195.715C196.099 229.328 196.603 228.856 197.227 228.472C197.851 228.088 198.683 227.896 199.723 227.896ZM199.339 229.672C198.027 229.672 197.099 230.04 196.555 230.776C196.027 231.512 195.747 232.632 195.715 234.136V234.544C195.715 236.128 195.971 237.352 196.483 238.216C197.011 239.064 197.979 239.488 199.387 239.488C200.171 239.488 200.811 239.272 201.307 238.84C201.819 238.408 202.195 237.824 202.435 237.088C202.691 236.336 202.819 235.48 202.819 234.52C202.819 233.048 202.531 231.872 201.955 230.992C201.395 230.112 200.523 229.672 199.339 229.672ZM213.336 227.896C214.44 227.896 215.384 228.136 216.168 228.616C216.968 229.096 217.576 229.776 217.992 230.656C218.424 231.52 218.64 232.536 218.64 233.704V234.976H209.832C209.864 236.432 210.232 237.544 210.936 238.312C211.656 239.064 212.656 239.44 213.936 239.44C214.752 239.44 215.472 239.368 216.096 239.224C216.736 239.064 217.392 238.84 218.064 238.552V240.4C217.408 240.688 216.76 240.896 216.12 241.024C215.48 241.168 214.72 241.24 213.84 241.24C212.624 241.24 211.544 240.992 210.6 240.496C209.672 240 208.944 239.264 208.416 238.288C207.904 237.296 207.648 236.088 207.648 234.664C207.648 233.256 207.88 232.048 208.344 231.04C208.824 230.032 209.488 229.256 210.336 228.712C211.2 228.168 212.2 227.896 213.336 227.896ZM213.312 229.624C212.304 229.624 211.504 229.952 210.912 230.608C210.336 231.248 209.992 232.144 209.88 233.296H216.432C216.416 232.208 216.16 231.328 215.664 230.656C215.168 229.968 214.384 229.624 213.312 229.624ZM236.027 227.896C237.483 227.896 238.571 228.272 239.291 229.024C240.011 229.76 240.371 230.96 240.371 232.624V241H238.283V232.72C238.283 230.688 237.411 229.672 235.667 229.672C234.419 229.672 233.523 230.032 232.979 230.752C232.451 231.472 232.187 232.52 232.187 233.896V241H230.099V232.72C230.099 230.688 229.219 229.672 227.459 229.672C226.163 229.672 225.267 230.072 224.771 230.872C224.275 231.672 224.027 232.824 224.027 234.328V241H221.915V228.136H223.619L223.931 229.888H224.051C224.451 229.216 224.987 228.72 225.659 228.4C226.347 228.064 227.075 227.896 227.843 227.896C229.859 227.896 231.171 228.616 231.779 230.056H231.899C232.331 229.32 232.915 228.776 233.651 228.424C234.403 228.072 235.195 227.896 236.027 227.896ZM249.313 227.896C250.417 227.896 251.361 228.136 252.145 228.616C252.945 229.096 253.553 229.776 253.969 230.656C254.401 231.52 254.617 232.536 254.617 233.704V234.976H245.809C245.841 236.432 246.209 237.544 246.913 238.312C247.633 239.064 248.633 239.44 249.913 239.44C250.729 239.44 251.449 239.368 252.073 239.224C252.713 239.064 253.369 238.84 254.041 238.552V240.4C253.385 240.688 252.737 240.896 252.097 241.024C251.457 241.168 250.697 241.24 249.817 241.24C248.601 241.24 247.521 240.992 246.577 240.496C245.649 240 244.921 239.264 244.393 238.288C243.881 237.296 243.625 236.088 243.625 234.664C243.625 233.256 243.857 232.048 244.321 231.04C244.801 230.032 245.465 229.256 246.313 228.712C247.177 228.168 248.177 227.896 249.313 227.896ZM249.289 229.624C248.281 229.624 247.481 229.952 246.889 230.608C246.313 231.248 245.969 232.144 245.857 233.296H252.409C252.393 232.208 252.137 231.328 251.641 230.656C251.145 229.968 250.361 229.624 249.289 229.624ZM264.084 227.896C265.62 227.896 266.78 228.272 267.564 229.024C268.348 229.76 268.74 230.96 268.74 232.624V241H266.652V232.768C266.652 230.704 265.692 229.672 263.772 229.672C262.348 229.672 261.364 230.072 260.82 230.872C260.276 231.672 260.004 232.824 260.004 234.328V241H257.892V228.136H259.596L259.908 229.888H260.028C260.444 229.216 261.02 228.72 261.756 228.4C262.492 228.064 263.268 227.896 264.084 227.896ZM277.023 239.512C277.344 239.512 277.672 239.488 278.008 239.44C278.344 239.376 278.616 239.312 278.824 239.248V240.856C278.6 240.968 278.28 241.056 277.864 241.12C277.448 241.2 277.048 241.24 276.664 241.24C275.992 241.24 275.368 241.128 274.792 240.904C274.232 240.664 273.776 240.256 273.424 239.68C273.072 239.104 272.896 238.296 272.896 237.256V229.768H271.072V228.76L272.92 227.92L273.76 225.184H275.008V228.136H278.728V229.768H275.008V237.208C275.008 237.992 275.192 238.576 275.56 238.96C275.944 239.328 276.432 239.512 277.023 239.512ZM33.234 285H31.122V266.76H33.234V285ZM42.2775 271.896C43.3815 271.896 44.3255 272.136 45.1095 272.616C45.9095 273.096 46.5175 273.776 46.9335 274.656C47.3655 275.52 47.5815 276.536 47.5815 277.704V278.976H38.7735C38.8055 280.432 39.1735 281.544 39.8775 282.312C40.5975 283.064 41.5975 283.44 42.8775 283.44C43.6935 283.44 44.4135 283.368 45.0375 283.224C45.6775 283.064 46.3335 282.84 47.0055 282.552V284.4C46.3495 284.688 45.7015 284.896 45.0615 285.024C44.4215 285.168 43.6615 285.24 42.7815 285.24C41.5655 285.24 40.4855 284.992 39.5415 284.496C38.6135 284 37.8855 283.264 37.3575 282.288C36.8455 281.296 36.5895 280.088 36.5895 278.664C36.5895 277.256 36.8215 276.048 37.2855 275.04C37.7655 274.032 38.4295 273.256 39.2775 272.712C40.1415 272.168 41.1415 271.896 42.2775 271.896ZM42.2535 273.624C41.2455 273.624 40.4455 273.952 39.8535 274.608C39.2775 275.248 38.9335 276.144 38.8215 277.296H45.3735C45.3575 276.208 45.1015 275.328 44.6055 274.656C44.1095 273.968 43.3255 273.624 42.2535 273.624ZM55.7284 271.92C57.2964 271.92 58.4564 272.264 59.2084 272.952C59.9604 273.64 60.3364 274.736 60.3364 276.24V285H58.8004L58.3924 283.176H58.2964C57.7364 283.88 57.1444 284.4 56.5204 284.736C55.9124 285.072 55.0644 285.24 53.9764 285.24C52.8084 285.24 51.8404 284.936 51.0724 284.328C50.3044 283.704 49.9204 282.736 49.9204 281.424C49.9204 280.144 50.4244 279.16 51.4324 278.472C52.4404 277.768 53.9924 277.384 56.0884 277.32L58.2724 277.248V276.48C58.2724 275.408 58.0404 274.664 57.5764 274.248C57.1124 273.832 56.4564 273.624 55.6084 273.624C54.9364 273.624 54.2964 273.728 53.6884 273.936C53.0804 274.128 52.5124 274.352 51.9844 274.608L51.3364 273.024C51.8964 272.72 52.5604 272.464 53.3284 272.256C54.0964 272.032 54.8964 271.92 55.7284 271.92ZM56.3524 278.784C54.7524 278.848 53.6404 279.104 53.0164 279.552C52.4084 280 52.1044 280.632 52.1044 281.448C52.1044 282.168 52.3204 282.696 52.7524 283.032C53.2004 283.368 53.7684 283.536 54.4564 283.536C55.5444 283.536 56.4484 283.24 57.1684 282.648C57.8884 282.04 58.2484 281.112 58.2484 279.864V278.712L56.3524 278.784ZM70.3095 271.896C70.5495 271.896 70.8055 271.912 71.0775 271.944C71.3655 271.96 71.6135 271.992 71.8215 272.04L71.5575 273.984C71.3495 273.936 71.1175 273.896 70.8615 273.864C70.6215 273.832 70.3895 273.816 70.1655 273.816C69.5095 273.816 68.8935 274 68.3175 274.368C67.7415 274.72 67.2775 275.224 66.9255 275.88C66.5895 276.52 66.4215 277.272 66.4215 278.136V285H64.3095V272.136H66.0375L66.2775 274.488H66.3735C66.7895 273.784 67.3255 273.176 67.9815 272.664C68.6375 272.152 69.4135 271.896 70.3095 271.896ZM80.4156 271.896C81.9516 271.896 83.1116 272.272 83.8956 273.024C84.6796 273.76 85.0716 274.96 85.0716 276.624V285H82.9836V276.768C82.9836 274.704 82.0236 273.672 80.1036 273.672C78.6796 273.672 77.6956 274.072 77.1516 274.872C76.6076 275.672 76.3356 276.824 76.3356 278.328V285H74.2236V272.136H75.9276L76.2396 273.888H76.3596C76.7756 273.216 77.3516 272.72 78.0876 272.4C78.8236 272.064 79.5996 271.896 80.4156 271.896ZM90.1395 267.312C90.4595 267.312 90.7395 267.424 90.9795 267.648C91.2355 267.856 91.3635 268.192 91.3635 268.656C91.3635 269.104 91.2355 269.44 90.9795 269.664C90.7395 269.888 90.4595 270 90.1395 270C89.7875 270 89.4915 269.888 89.2515 269.664C89.0115 269.44 88.8915 269.104 88.8915 268.656C88.8915 268.192 89.0115 267.856 89.2515 267.648C89.4915 267.424 89.7875 267.312 90.1395 267.312ZM91.1715 272.136V285H89.0595V272.136H91.1715ZM101.439 271.896C102.975 271.896 104.135 272.272 104.919 273.024C105.703 273.76 106.095 274.96 106.095 276.624V285H104.007V276.768C104.007 274.704 103.047 273.672 101.127 273.672C99.703 273.672 98.719 274.072 98.175 274.872C97.631 275.672 97.359 276.824 97.359 278.328V285H95.247V272.136H96.951L97.263 273.888H97.383C97.799 273.216 98.375 272.72 99.111 272.4C99.847 272.064 100.623 271.896 101.439 271.896ZM114.643 271.896C115.491 271.896 116.251 272.056 116.923 272.376C117.611 272.696 118.195 273.184 118.675 273.84H118.795L119.083 272.136H120.763V285.216C120.763 287.056 120.291 288.44 119.347 289.368C118.419 290.296 116.971 290.76 115.003 290.76C113.115 290.76 111.571 290.488 110.371 289.944V288C111.635 288.672 113.219 289.008 115.123 289.008C116.227 289.008 117.091 288.68 117.715 288.024C118.355 287.384 118.675 286.504 118.675 285.384V284.88C118.675 284.688 118.683 284.416 118.699 284.064C118.715 283.696 118.731 283.44 118.747 283.296H118.651C117.787 284.592 116.459 285.24 114.667 285.24C113.003 285.24 111.699 284.656 110.755 283.488C109.827 282.32 109.363 280.688 109.363 278.592C109.363 276.544 109.827 274.92 110.755 273.72C111.699 272.504 112.995 271.896 114.643 271.896ZM114.931 273.672C113.859 273.672 113.027 274.104 112.435 274.968C111.843 275.816 111.547 277.032 111.547 278.616C111.547 280.2 111.835 281.416 112.411 282.264C113.003 283.096 113.859 283.512 114.979 283.512C116.275 283.512 117.219 283.168 117.811 282.48C118.403 281.776 118.699 280.648 118.699 279.096V278.592C118.699 276.832 118.395 275.576 117.787 274.824C117.179 274.056 116.227 273.672 114.931 273.672ZM137.648 271.896C139.232 271.896 140.504 272.448 141.464 273.552C142.44 274.656 142.928 276.32 142.928 278.544C142.928 280.736 142.44 282.4 141.464 283.536C140.504 284.672 139.224 285.24 137.624 285.24C136.632 285.24 135.808 285.056 135.152 284.688C134.512 284.304 134.008 283.864 133.64 283.368H133.496C133.528 283.64 133.56 283.984 133.592 284.4C133.624 284.816 133.64 285.176 133.64 285.48V290.76H131.528V272.136H133.256L133.544 273.888H133.64C134.024 273.328 134.528 272.856 135.152 272.472C135.776 272.088 136.608 271.896 137.648 271.896ZM137.264 273.672C135.952 273.672 135.024 274.04 134.48 274.776C133.952 275.512 133.672 276.632 133.64 278.136V278.544C133.64 280.128 133.896 281.352 134.408 282.216C134.936 283.064 135.904 283.488 137.312 283.488C138.096 283.488 138.736 283.272 139.232 282.84C139.744 282.408 140.12 281.824 140.36 281.088C140.616 280.336 140.744 279.48 140.744 278.52C140.744 277.048 140.456 275.872 139.88 274.992C139.32 274.112 138.448 273.672 137.264 273.672ZM152.294 271.896C152.534 271.896 152.79 271.912 153.062 271.944C153.35 271.96 153.598 271.992 153.806 272.04L153.542 273.984C153.334 273.936 153.102 273.896 152.846 273.864C152.606 273.832 152.374 273.816 152.15 273.816C151.494 273.816 150.878 274 150.302 274.368C149.726 274.72 149.262 275.224 148.91 275.88C148.574 276.52 148.406 277.272 148.406 278.136V285H146.294V272.136H148.022L148.262 274.488H148.358C148.774 273.784 149.31 273.176 149.966 272.664C150.622 272.152 151.398 271.896 152.294 271.896ZM166.923 278.544C166.923 280.672 166.379 282.32 165.291 283.488C164.219 284.656 162.763 285.24 160.923 285.24C159.787 285.24 158.771 284.984 157.875 284.472C156.995 283.944 156.299 283.184 155.787 282.192C155.275 281.184 155.019 279.968 155.019 278.544C155.019 276.416 155.555 274.776 156.627 273.624C157.699 272.472 159.155 271.896 160.995 271.896C162.163 271.896 163.187 272.16 164.067 272.688C164.963 273.2 165.659 273.952 166.155 274.944C166.667 275.92 166.923 277.12 166.923 278.544ZM157.203 278.544C157.203 280.064 157.499 281.272 158.091 282.168C158.699 283.048 159.659 283.488 160.971 283.488C162.267 283.488 163.219 283.048 163.827 282.168C164.435 281.272 164.739 280.064 164.739 278.544C164.739 277.024 164.435 275.832 163.827 274.968C163.219 274.104 162.259 273.672 160.947 273.672C159.635 273.672 158.683 274.104 158.091 274.968C157.499 275.832 157.203 277.024 157.203 278.544ZM170.102 268.656C170.102 268.192 170.222 267.856 170.462 267.648C170.702 267.424 170.998 267.312 171.35 267.312C171.67 267.312 171.95 267.424 172.19 267.648C172.446 267.856 172.574 268.192 172.574 268.656C172.574 269.104 172.446 269.44 172.19 269.664C171.95 269.888 171.67 270 171.35 270C170.998 270 170.702 269.888 170.462 269.664C170.222 269.44 170.102 269.104 170.102 268.656ZM168.758 290.76C168.358 290.76 168.006 290.728 167.702 290.664C167.398 290.616 167.134 290.552 166.91 290.472V288.768C167.15 288.832 167.398 288.888 167.654 288.936C167.91 288.984 168.19 289.008 168.494 289.008C169.006 289.008 169.43 288.864 169.766 288.576C170.102 288.304 170.27 287.776 170.27 286.992V272.136H172.382V286.92C172.382 288.12 172.094 289.056 171.518 289.728C170.942 290.416 170.022 290.76 168.758 290.76ZM181.426 271.896C182.53 271.896 183.474 272.136 184.258 272.616C185.058 273.096 185.666 273.776 186.082 274.656C186.514 275.52 186.73 276.536 186.73 277.704V278.976H177.922C177.954 280.432 178.322 281.544 179.026 282.312C179.746 283.064 180.746 283.44 182.026 283.44C182.842 283.44 183.562 283.368 184.186 283.224C184.826 283.064 185.482 282.84 186.154 282.552V284.4C185.498 284.688 184.85 284.896 184.21 285.024C183.57 285.168 182.81 285.24 181.93 285.24C180.714 285.24 179.634 284.992 178.69 284.496C177.762 284 177.034 283.264 176.506 282.288C175.994 281.296 175.738 280.088 175.738 278.664C175.738 277.256 175.97 276.048 176.434 275.04C176.914 274.032 177.578 273.256 178.426 272.712C179.29 272.168 180.29 271.896 181.426 271.896ZM181.402 273.624C180.394 273.624 179.594 273.952 179.002 274.608C178.426 275.248 178.082 276.144 177.97 277.296H184.522C184.506 276.208 184.25 275.328 183.754 274.656C183.258 273.968 182.474 273.624 181.402 273.624ZM195.165 285.24C194.029 285.24 193.013 285.008 192.117 284.544C191.237 284.08 190.541 283.36 190.029 282.384C189.533 281.408 189.285 280.16 189.285 278.64C189.285 277.056 189.549 275.768 190.077 274.776C190.605 273.784 191.317 273.056 192.213 272.592C193.125 272.128 194.157 271.896 195.309 271.896C195.965 271.896 196.597 271.968 197.205 272.112C197.813 272.24 198.309 272.4 198.693 272.592L198.045 274.344C197.661 274.2 197.213 274.064 196.701 273.936C196.189 273.808 195.709 273.744 195.261 273.744C192.733 273.744 191.469 275.368 191.469 278.616C191.469 280.168 191.773 281.36 192.381 282.192C193.005 283.008 193.925 283.416 195.141 283.416C195.845 283.416 196.461 283.344 196.989 283.2C197.533 283.056 198.029 282.88 198.477 282.672V284.544C198.045 284.768 197.565 284.936 197.037 285.048C196.525 285.176 195.901 285.24 195.165 285.24ZM205.832 283.512C206.152 283.512 206.48 283.488 206.816 283.44C207.152 283.376 207.424 283.312 207.632 283.248V284.856C207.408 284.968 207.088 285.056 206.672 285.12C206.256 285.2 205.856 285.24 205.472 285.24C204.8 285.24 204.176 285.128 203.6 284.904C203.04 284.664 202.584 284.256 202.232 283.68C201.88 283.104 201.704 282.296 201.704 281.256V273.768H199.88V272.76L201.728 271.92L202.568 269.184H203.816V272.136H207.536V273.768H203.816V281.208C203.816 281.992 204 282.576 204.368 282.96C204.752 283.328 205.24 283.512 205.832 283.512ZM225.192 277.728C224.984 277.072 224.8 276.432 224.64 275.808C224.496 275.168 224.384 274.672 224.304 274.32H224.208C224.144 274.672 224.04 275.168 223.896 275.808C223.752 276.432 223.568 277.08 223.344 277.752L221.04 284.976H218.64L215.112 272.112H217.296L219.072 278.976C219.248 279.664 219.416 280.36 219.576 281.064C219.736 281.768 219.848 282.352 219.912 282.816H220.008C220.072 282.544 220.144 282.208 220.224 281.808C220.32 281.408 220.424 280.992 220.536 280.56C220.648 280.112 220.76 279.712 220.872 279.36L223.152 272.112H225.456L227.664 279.36C227.84 279.904 228.008 280.496 228.168 281.136C228.344 281.776 228.464 282.328 228.528 282.792H228.624C228.672 282.392 228.776 281.84 228.936 281.136C229.112 280.432 229.296 279.712 229.488 278.976L231.288 272.112H233.448L229.872 284.976H227.4L225.192 277.728ZM240.723 271.896C241.827 271.896 242.771 272.136 243.555 272.616C244.355 273.096 244.963 273.776 245.379 274.656C245.811 275.52 246.027 276.536 246.027 277.704V278.976H237.219C237.251 280.432 237.619 281.544 238.323 282.312C239.043 283.064 240.043 283.44 241.323 283.44C242.139 283.44 242.859 283.368 243.483 283.224C244.123 283.064 244.779 282.84 245.451 282.552V284.4C244.795 284.688 244.147 284.896 243.507 285.024C242.867 285.168 242.107 285.24 241.227 285.24C240.011 285.24 238.931 284.992 237.987 284.496C237.059 284 236.331 283.264 235.803 282.288C235.291 281.296 235.035 280.088 235.035 278.664C235.035 277.256 235.267 276.048 235.731 275.04C236.211 274.032 236.875 273.256 237.723 272.712C238.587 272.168 239.587 271.896 240.723 271.896ZM240.699 273.624C239.691 273.624 238.891 273.952 238.299 274.608C237.723 275.248 237.379 276.144 237.267 277.296H243.819C243.803 276.208 243.547 275.328 243.051 274.656C242.555 273.968 241.771 273.624 240.699 273.624ZM251.414 271.2C251.414 271.744 251.398 272.256 251.366 272.736C251.35 273.2 251.326 273.568 251.294 273.84H251.414C251.782 273.296 252.286 272.84 252.926 272.472C253.566 272.104 254.39 271.92 255.398 271.92C256.998 271.92 258.278 272.48 259.238 273.6C260.214 274.704 260.702 276.36 260.702 278.568C260.702 280.776 260.214 282.44 259.238 283.56C258.262 284.68 256.982 285.24 255.398 285.24C254.39 285.24 253.566 285.056 252.926 284.688C252.286 284.32 251.782 283.88 251.414 283.368H251.246L250.814 285H249.302V266.76H251.414V271.2ZM255.038 273.672C253.678 273.672 252.734 274.064 252.206 274.848C251.678 275.632 251.414 276.848 251.414 278.496V278.592C251.414 280.176 251.67 281.392 252.182 282.24C252.71 283.072 253.678 283.488 255.086 283.488C256.238 283.488 257.094 283.064 257.654 282.216C258.23 281.368 258.518 280.144 258.518 278.544C258.518 275.296 257.358 273.672 255.038 273.672ZM272.443 281.448C272.443 282.696 271.979 283.64 271.051 284.28C270.123 284.92 268.875 285.24 267.307 285.24C266.411 285.24 265.635 285.168 264.979 285.024C264.339 284.88 263.771 284.68 263.275 284.424V282.504C263.787 282.76 264.403 283 265.123 283.224C265.859 283.432 266.603 283.536 267.355 283.536C268.427 283.536 269.203 283.368 269.683 283.032C270.163 282.68 270.403 282.216 270.403 281.64C270.403 281.32 270.315 281.032 270.139 280.776C269.963 280.52 269.643 280.264 269.179 280.008C268.731 279.752 268.083 279.464 267.235 279.144C266.403 278.824 265.691 278.504 265.099 278.184C264.507 277.864 264.051 277.48 263.731 277.032C263.411 276.584 263.251 276.008 263.251 275.304C263.251 274.216 263.691 273.376 264.571 272.784C265.467 272.192 266.635 271.896 268.075 271.896C268.859 271.896 269.587 271.976 270.259 272.136C270.947 272.28 271.587 272.488 272.179 272.76L271.459 274.44C270.915 274.216 270.347 274.024 269.755 273.864C269.163 273.704 268.555 273.624 267.931 273.624C267.067 273.624 266.403 273.768 265.939 274.056C265.491 274.328 265.267 274.704 265.267 275.184C265.267 275.536 265.371 275.84 265.579 276.096C265.787 276.336 266.131 276.576 266.611 276.816C267.107 277.04 267.763 277.312 268.579 277.632C269.395 277.936 270.091 278.248 270.667 278.568C271.243 278.888 271.683 279.28 271.987 279.744C272.291 280.192 272.443 280.76 272.443 281.448ZM276.632 267.312C276.952 267.312 277.232 267.424 277.472 267.648C277.728 267.856 277.856 268.192 277.856 268.656C277.856 269.104 277.728 269.44 277.472 269.664C277.232 269.888 276.952 270 276.632 270C276.28 270 275.984 269.888 275.744 269.664C275.504 269.44 275.384 269.104 275.384 268.656C275.384 268.192 275.504 267.856 275.744 267.648C275.984 267.424 276.28 267.312 276.632 267.312ZM277.664 272.136V285H275.552V272.136H277.664ZM286.035 283.512C286.355 283.512 286.683 283.488 287.019 283.44C287.355 283.376 287.627 283.312 287.835 283.248V284.856C287.611 284.968 287.291 285.056 286.875 285.12C286.459 285.2 286.059 285.24 285.675 285.24C285.003 285.24 284.379 285.128 283.803 284.904C283.243 284.664 282.787 284.256 282.435 283.68C282.083 283.104 281.907 282.296 281.907 281.256V273.768H280.083V272.76L281.931 271.92L282.771 269.184H284.019V272.136H287.739V273.768H284.019V281.208C284.019 281.992 284.203 282.576 284.571 282.96C284.955 283.328 285.443 283.512 286.035 283.512ZM295.379 271.896C296.483 271.896 297.427 272.136 298.211 272.616C299.011 273.096 299.619 273.776 300.035 274.656C300.467 275.52 300.683 276.536 300.683 277.704V278.976H291.875C291.907 280.432 292.275 281.544 292.979 282.312C293.699 283.064 294.699 283.44 295.979 283.44C296.795 283.44 297.515 283.368 298.139 283.224C298.779 283.064 299.435 282.84 300.107 282.552V284.4C299.451 284.688 298.803 284.896 298.163 285.024C297.523 285.168 296.763 285.24 295.883 285.24C294.667 285.24 293.587 284.992 292.643 284.496C291.715 284 290.987 283.264 290.459 282.288C289.947 281.296 289.691 280.088 289.691 278.664C289.691 277.256 289.923 276.048 290.387 275.04C290.867 274.032 291.531 273.256 292.379 272.712C293.243 272.168 294.243 271.896 295.379 271.896ZM295.355 273.624C294.347 273.624 293.547 273.952 292.955 274.608C292.379 275.248 292.035 276.144 291.923 277.296H298.475C298.459 276.208 298.203 275.328 297.707 274.656C297.211 273.968 296.427 273.624 295.355 273.624ZM62.3903 315.896C63.8463 315.896 64.9343 316.272 65.6543 317.024C66.3743 317.76 66.7343 318.96 66.7343 320.624V329H64.6463V320.72C64.6463 318.688 63.7743 317.672 62.0303 317.672C60.7823 317.672 59.8863 318.032 59.3423 318.752C58.8143 319.472 58.5503 320.52 58.5503 321.896V329H56.4623V320.72C56.4623 318.688 55.5823 317.672 53.8223 317.672C52.5263 317.672 51.6303 318.072 51.1343 318.872C50.6383 319.672 50.3903 320.824 50.3903 322.328V329H48.2783V316.136H49.9823L50.2943 317.888H50.4143C50.8143 317.216 51.3503 316.72 52.0223 316.4C52.7103 316.064 53.4383 315.896 54.2063 315.896C56.2223 315.896 57.5343 316.616 58.1423 318.056H58.2623C58.6943 317.32 59.2783 316.776 60.0143 316.424C60.7663 316.072 61.5583 315.896 62.3903 315.896ZM75.58 315.92C77.148 315.92 78.308 316.264 79.06 316.952C79.812 317.64 80.188 318.736 80.188 320.24V329H78.652L78.244 327.176H78.148C77.588 327.88 76.996 328.4 76.372 328.736C75.764 329.072 74.916 329.24 73.828 329.24C72.66 329.24 71.692 328.936 70.924 328.328C70.156 327.704 69.772 326.736 69.772 325.424C69.772 324.144 70.276 323.16 71.284 322.472C72.292 321.768 73.844 321.384 75.94 321.32L78.124 321.248V320.48C78.124 319.408 77.892 318.664 77.428 318.248C76.964 317.832 76.308 317.624 75.46 317.624C74.788 317.624 74.148 317.728 73.54 317.936C72.932 318.128 72.364 318.352 71.836 318.608L71.188 317.024C71.748 316.72 72.412 316.464 73.18 316.256C73.948 316.032 74.748 315.92 75.58 315.92ZM76.204 322.784C74.604 322.848 73.492 323.104 72.868 323.552C72.26 324 71.956 324.632 71.956 325.448C71.956 326.168 72.172 326.696 72.604 327.032C73.052 327.368 73.62 327.536 74.308 327.536C75.396 327.536 76.3 327.24 77.02 326.648C77.74 326.04 78.1 325.112 78.1 323.864V322.712L76.204 322.784ZM88.7211 329.24C87.1211 329.24 85.8411 328.688 84.8811 327.584C83.9211 326.464 83.4411 324.8 83.4411 322.592C83.4411 320.384 83.9211 318.72 84.8811 317.6C85.8571 316.464 87.1451 315.896 88.7451 315.896C89.7371 315.896 90.5451 316.08 91.1691 316.448C91.8091 316.816 92.3291 317.264 92.7291 317.792H92.8731C92.8571 317.584 92.8251 317.28 92.7771 316.88C92.7451 316.464 92.7291 316.136 92.7291 315.896V310.76H94.8411V329H93.1371L92.8251 327.272H92.7291C92.3451 327.816 91.8331 328.28 91.1931 328.664C90.5531 329.048 89.7291 329.24 88.7211 329.24ZM89.0571 327.488C90.4171 327.488 91.3691 327.12 91.9131 326.384C92.4731 325.632 92.7531 324.504 92.7531 323V322.616C92.7531 321.016 92.4891 319.792 91.9611 318.944C91.4331 318.08 90.4571 317.648 89.0331 317.648C87.8971 317.648 87.0411 318.104 86.4651 319.016C85.9051 319.912 85.6251 321.12 85.6251 322.64C85.6251 324.176 85.9051 325.368 86.4651 326.216C87.0411 327.064 87.9051 327.488 89.0571 327.488ZM103.895 315.896C104.999 315.896 105.943 316.136 106.727 316.616C107.527 317.096 108.135 317.776 108.551 318.656C108.983 319.52 109.199 320.536 109.199 321.704V322.976H100.391C100.423 324.432 100.791 325.544 101.495 326.312C102.215 327.064 103.215 327.44 104.495 327.44C105.311 327.44 106.031 327.368 106.655 327.224C107.295 327.064 107.951 326.84 108.623 326.552V328.4C107.967 328.688 107.319 328.896 106.679 329.024C106.039 329.168 105.279 329.24 104.399 329.24C103.183 329.24 102.103 328.992 101.159 328.496C100.231 328 99.5027 327.264 98.9747 326.288C98.4627 325.296 98.2067 324.088 98.2067 322.664C98.2067 321.256 98.4387 320.048 98.9027 319.04C99.3827 318.032 100.047 317.256 100.895 316.712C101.759 316.168 102.759 315.896 103.895 315.896ZM103.871 317.624C102.863 317.624 102.063 317.952 101.471 318.608C100.895 319.248 100.551 320.144 100.439 321.296H106.991C106.975 320.208 106.719 319.328 106.223 318.656C105.727 317.968 104.943 317.624 103.871 317.624ZM121.265 315.2C121.265 315.744 121.249 316.256 121.217 316.736C121.201 317.2 121.177 317.568 121.145 317.84H121.265C121.633 317.296 122.137 316.84 122.777 316.472C123.417 316.104 124.241 315.92 125.249 315.92C126.849 315.92 128.129 316.48 129.089 317.6C130.065 318.704 130.553 320.36 130.553 322.568C130.553 324.776 130.065 326.44 129.089 327.56C128.113 328.68 126.833 329.24 125.249 329.24C124.241 329.24 123.417 329.056 122.777 328.688C122.137 328.32 121.633 327.88 121.265 327.368H121.097L120.665 329H119.153V310.76H121.265V315.2ZM124.889 317.672C123.529 317.672 122.585 318.064 122.057 318.848C121.529 319.632 121.265 320.848 121.265 322.496V322.592C121.265 324.176 121.521 325.392 122.033 326.24C122.561 327.072 123.529 327.488 124.937 327.488C126.089 327.488 126.945 327.064 127.505 326.216C128.081 325.368 128.369 324.144 128.369 322.544C128.369 319.296 127.209 317.672 124.889 317.672ZM131.434 316.136H133.69L136.474 323.456C136.714 324.096 136.93 324.712 137.122 325.304C137.314 325.88 137.458 326.432 137.554 326.96H137.65C137.746 326.56 137.898 326.04 138.106 325.4C138.314 324.744 138.53 324.088 138.754 323.432L141.37 316.136H143.65L138.106 330.776C137.658 331.992 137.074 332.96 136.354 333.68C135.65 334.4 134.674 334.76 133.426 334.76C133.042 334.76 132.706 334.736 132.418 334.688C132.13 334.656 131.882 334.616 131.674 334.568V332.888C131.85 332.92 132.058 332.952 132.298 332.984C132.554 333.016 132.818 333.032 133.09 333.032C133.826 333.032 134.418 332.824 134.866 332.408C135.33 331.992 135.69 331.44 135.946 330.752L136.618 329.048L131.434 316.136ZM160.74 325.448C160.74 326.696 160.276 327.64 159.348 328.28C158.42 328.92 157.172 329.24 155.604 329.24C154.708 329.24 153.932 329.168 153.276 329.024C152.636 328.88 152.068 328.68 151.572 328.424V326.504C152.084 326.76 152.7 327 153.42 327.224C154.156 327.432 154.9 327.536 155.652 327.536C156.724 327.536 157.5 327.368 157.98 327.032C158.46 326.68 158.7 326.216 158.7 325.64C158.7 325.32 158.612 325.032 158.436 324.776C158.26 324.52 157.94 324.264 157.476 324.008C157.028 323.752 156.38 323.464 155.532 323.144C154.7 322.824 153.988 322.504 153.396 322.184C152.804 321.864 152.348 321.48 152.028 321.032C151.708 320.584 151.548 320.008 151.548 319.304C151.548 318.216 151.988 317.376 152.868 316.784C153.764 316.192 154.932 315.896 156.372 315.896C157.156 315.896 157.884 315.976 158.556 316.136C159.244 316.28 159.884 316.488 160.476 316.76L159.756 318.44C159.212 318.216 158.644 318.024 158.052 317.864C157.46 317.704 156.852 317.624 156.228 317.624C155.364 317.624 154.7 317.768 154.236 318.056C153.788 318.328 153.564 318.704 153.564 319.184C153.564 319.536 153.668 319.84 153.876 320.096C154.084 320.336 154.428 320.576 154.908 320.816C155.404 321.04 156.06 321.312 156.876 321.632C157.692 321.936 158.388 322.248 158.964 322.568C159.54 322.888 159.98 323.28 160.284 323.744C160.588 324.192 160.74 324.76 160.74 325.448ZM168.145 327.512C168.465 327.512 168.793 327.488 169.129 327.44C169.465 327.376 169.737 327.312 169.945 327.248V328.856C169.721 328.968 169.401 329.056 168.985 329.12C168.569 329.2 168.169 329.24 167.785 329.24C167.113 329.24 166.489 329.128 165.913 328.904C165.353 328.664 164.897 328.256 164.545 327.68C164.193 327.104 164.017 326.296 164.017 325.256V317.768H162.193V316.76L164.041 315.92L164.881 313.184H166.129V316.136H169.849V317.768H166.129V325.208C166.129 325.992 166.313 326.576 166.681 326.96C167.065 327.328 167.553 327.512 168.145 327.512ZM183.272 316.136V329H181.544L181.232 327.296H181.136C180.72 327.968 180.144 328.464 179.408 328.784C178.672 329.088 177.888 329.24 177.056 329.24C175.504 329.24 174.336 328.872 173.552 328.136C172.768 327.384 172.376 326.192 172.376 324.56V316.136H174.512V324.416C174.512 326.464 175.464 327.488 177.368 327.488C178.792 327.488 179.776 327.088 180.32 326.288C180.88 325.488 181.16 324.336 181.16 322.832V316.136H183.272ZM191.916 329.24C190.316 329.24 189.036 328.688 188.076 327.584C187.116 326.464 186.636 324.8 186.636 322.592C186.636 320.384 187.116 318.72 188.076 317.6C189.052 316.464 190.34 315.896 191.94 315.896C192.932 315.896 193.74 316.08 194.364 316.448C195.004 316.816 195.524 317.264 195.924 317.792H196.068C196.052 317.584 196.02 317.28 195.972 316.88C195.94 316.464 195.924 316.136 195.924 315.896V310.76H198.036V329H196.332L196.02 327.272H195.924C195.54 327.816 195.028 328.28 194.388 328.664C193.748 329.048 192.924 329.24 191.916 329.24ZM192.252 327.488C193.612 327.488 194.564 327.12 195.108 326.384C195.668 325.632 195.948 324.504 195.948 323V322.616C195.948 321.016 195.684 319.792 195.156 318.944C194.628 318.08 193.652 317.648 192.228 317.648C191.092 317.648 190.236 318.104 189.66 319.016C189.1 319.912 188.82 321.12 188.82 322.64C188.82 324.176 189.1 325.368 189.66 326.216C190.236 327.064 191.1 327.488 192.252 327.488ZM207.09 315.896C208.194 315.896 209.138 316.136 209.922 316.616C210.722 317.096 211.33 317.776 211.746 318.656C212.178 319.52 212.394 320.536 212.394 321.704V322.976H203.586C203.618 324.432 203.986 325.544 204.69 326.312C205.41 327.064 206.41 327.44 207.69 327.44C208.506 327.44 209.226 327.368 209.85 327.224C210.49 327.064 211.146 326.84 211.818 326.552V328.4C211.162 328.688 210.514 328.896 209.874 329.024C209.234 329.168 208.474 329.24 207.594 329.24C206.378 329.24 205.298 328.992 204.354 328.496C203.426 328 202.698 327.264 202.17 326.288C201.658 325.296 201.402 324.088 201.402 322.664C201.402 321.256 201.634 320.048 202.098 319.04C202.578 318.032 203.242 317.256 204.09 316.712C204.954 316.168 205.954 315.896 207.09 315.896ZM207.066 317.624C206.058 317.624 205.258 317.952 204.666 318.608C204.09 319.248 203.746 320.144 203.634 321.296H210.186C210.17 320.208 209.914 319.328 209.418 318.656C208.922 317.968 208.138 317.624 207.066 317.624ZM221.861 315.896C223.397 315.896 224.557 316.272 225.341 317.024C226.125 317.76 226.517 318.96 226.517 320.624V329H224.429V320.768C224.429 318.704 223.469 317.672 221.549 317.672C220.125 317.672 219.141 318.072 218.597 318.872C218.053 319.672 217.781 320.824 217.781 322.328V329H215.669V316.136H217.373L217.685 317.888H217.805C218.221 317.216 218.797 316.72 219.533 316.4C220.269 316.064 221.045 315.896 221.861 315.896ZM234.801 327.512C235.121 327.512 235.449 327.488 235.785 327.44C236.121 327.376 236.393 327.312 236.601 327.248V328.856C236.377 328.968 236.057 329.056 235.641 329.12C235.225 329.2 234.825 329.24 234.441 329.24C233.769 329.24 233.145 329.128 232.569 328.904C232.009 328.664 231.553 328.256 231.201 327.68C230.849 327.104 230.673 326.296 230.673 325.256V317.768H228.849V316.76L230.697 315.92L231.537 313.184H232.785V316.136H236.505V317.768H232.785V325.208C232.785 325.992 232.969 326.576 233.337 326.96C233.721 327.328 234.209 327.512 234.801 327.512ZM247.553 325.448C247.553 326.696 247.089 327.64 246.161 328.28C245.233 328.92 243.985 329.24 242.417 329.24C241.521 329.24 240.745 329.168 240.089 329.024C239.449 328.88 238.881 328.68 238.385 328.424V326.504C238.897 326.76 239.513 327 240.233 327.224C240.969 327.432 241.713 327.536 242.465 327.536C243.537 327.536 244.313 327.368 244.793 327.032C245.273 326.68 245.513 326.216 245.513 325.64C245.513 325.32 245.425 325.032 245.249 324.776C245.073 324.52 244.753 324.264 244.289 324.008C243.841 323.752 243.193 323.464 242.345 323.144C241.513 322.824 240.801 322.504 240.209 322.184C239.617 321.864 239.161 321.48 238.841 321.032C238.521 320.584 238.361 320.008 238.361 319.304C238.361 318.216 238.801 317.376 239.681 316.784C240.577 316.192 241.745 315.896 243.185 315.896C243.969 315.896 244.697 315.976 245.369 316.136C246.057 316.28 246.697 316.488 247.289 316.76L246.569 318.44C246.025 318.216 245.457 318.024 244.865 317.864C244.273 317.704 243.665 317.624 243.041 317.624C242.177 317.624 241.513 317.768 241.049 318.056C240.601 318.328 240.377 318.704 240.377 319.184C240.377 319.536 240.481 319.84 240.689 320.096C240.897 320.336 241.241 320.576 241.721 320.816C242.217 321.04 242.873 321.312 243.689 321.632C244.505 321.936 245.201 322.248 245.777 322.568C246.353 322.888 246.793 323.28 247.097 323.744C247.401 324.192 247.553 324.76 247.553 325.448ZM268.525 322.544C268.525 324.672 267.981 326.32 266.893 327.488C265.821 328.656 264.365 329.24 262.525 329.24C261.389 329.24 260.373 328.984 259.477 328.472C258.597 327.944 257.901 327.184 257.389 326.192C256.877 325.184 256.621 323.968 256.621 322.544C256.621 320.416 257.157 318.776 258.229 317.624C259.301 316.472 260.757 315.896 262.597 315.896C263.765 315.896 264.789 316.16 265.669 316.688C266.565 317.2 267.261 317.952 267.757 318.944C268.269 319.92 268.525 321.12 268.525 322.544ZM258.805 322.544C258.805 324.064 259.101 325.272 259.693 326.168C260.301 327.048 261.261 327.488 262.573 327.488C263.869 327.488 264.821 327.048 265.429 326.168C266.037 325.272 266.341 324.064 266.341 322.544C266.341 321.024 266.037 319.832 265.429 318.968C264.821 318.104 263.861 317.672 262.549 317.672C261.237 317.672 260.285 318.104 259.693 318.968C259.101 319.832 258.805 321.024 258.805 322.544ZM277.8 317.768H274.56V329H272.448V317.768H270.192V316.784L272.448 316.064V315.32C272.448 313.656 272.816 312.464 273.552 311.744C274.288 311.008 275.312 310.64 276.624 310.64C277.136 310.64 277.6 310.688 278.016 310.784C278.448 310.864 278.816 310.96 279.12 311.072L278.568 312.728C278.312 312.648 278.016 312.568 277.68 312.488C277.344 312.408 277 312.368 276.648 312.368C275.944 312.368 275.416 312.608 275.064 313.088C274.728 313.552 274.56 314.288 274.56 315.296V316.136H277.8V317.768ZM29.5988 368.416C29.5988 369.936 29.0468 371.12 27.9428 371.968C26.8388 372.816 25.3508 373.24 23.4788 373.24C22.5188 373.24 21.6308 373.168 20.8148 373.024C19.9988 372.88 19.3188 372.68 18.7748 372.424V370.36C19.3508 370.616 20.0628 370.848 20.9108 371.056C21.7748 371.264 22.6628 371.368 23.5748 371.368C24.8548 371.368 25.8148 371.12 26.4548 370.624C27.1108 370.128 27.4388 369.456 27.4388 368.608C27.4388 368.048 27.3188 367.576 27.0788 367.192C26.8388 366.808 26.4228 366.456 25.8308 366.136C25.2548 365.8 24.4468 365.448 23.4068 365.08C21.9508 364.552 20.8468 363.904 20.0948 363.136C19.3588 362.368 18.9908 361.32 18.9908 359.992C18.9908 359.08 19.2228 358.304 19.6868 357.664C20.1508 357.008 20.7908 356.504 21.6068 356.152C22.4388 355.8 23.3908 355.624 24.4628 355.624C25.4068 355.624 26.2708 355.712 27.0548 355.888C27.8388 356.064 28.5508 356.296 29.1908 356.584L28.5188 358.432C27.9268 358.176 27.2788 357.96 26.5748 357.784C25.8868 357.608 25.1668 357.52 24.4148 357.52C23.3428 357.52 22.5348 357.752 21.9908 358.216C21.4468 358.664 21.1748 359.264 21.1748 360.016C21.1748 360.592 21.2948 361.072 21.5348 361.456C21.7748 361.84 22.1668 362.184 22.7108 362.488C23.2548 362.792 23.9908 363.12 24.9188 363.472C25.9268 363.84 26.7748 364.24 27.4628 364.672C28.1668 365.088 28.6948 365.592 29.0468 366.184C29.4148 366.776 29.5988 367.52 29.5988 368.416ZM37.6347 359.92C39.2027 359.92 40.3627 360.264 41.1147 360.952C41.8667 361.64 42.2427 362.736 42.2427 364.24V373H40.7067L40.2987 371.176H40.2027C39.6427 371.88 39.0507 372.4 38.4267 372.736C37.8187 373.072 36.9707 373.24 35.8827 373.24C34.7147 373.24 33.7467 372.936 32.9787 372.328C32.2107 371.704 31.8267 370.736 31.8267 369.424C31.8267 368.144 32.3307 367.16 33.3387 366.472C34.3467 365.768 35.8987 365.384 37.9947 365.32L40.1787 365.248V364.48C40.1787 363.408 39.9467 362.664 39.4827 362.248C39.0187 361.832 38.3627 361.624 37.5147 361.624C36.8427 361.624 36.2027 361.728 35.5947 361.936C34.9867 362.128 34.4187 362.352 33.8907 362.608L33.2427 361.024C33.8027 360.72 34.4667 360.464 35.2347 360.256C36.0027 360.032 36.8027 359.92 37.6347 359.92ZM38.2587 366.784C36.6587 366.848 35.5467 367.104 34.9227 367.552C34.3147 368 34.0107 368.632 34.0107 369.448C34.0107 370.168 34.2267 370.696 34.6587 371.032C35.1067 371.368 35.6747 371.536 36.3627 371.536C37.4507 371.536 38.3547 371.24 39.0747 370.648C39.7947 370.04 40.1547 369.112 40.1547 367.864V366.712L38.2587 366.784ZM52.2158 359.896C52.4558 359.896 52.7118 359.912 52.9838 359.944C53.2718 359.96 53.5198 359.992 53.7278 360.04L53.4638 361.984C53.2558 361.936 53.0238 361.896 52.7678 361.864C52.5278 361.832 52.2958 361.816 52.0718 361.816C51.4158 361.816 50.7998 362 50.2238 362.368C49.6478 362.72 49.1838 363.224 48.8318 363.88C48.4958 364.52 48.3278 365.272 48.3278 366.136V373H46.2158V360.136H47.9438L48.1838 362.488H48.2798C48.6958 361.784 49.2318 361.176 49.8878 360.664C50.5438 360.152 51.3198 359.896 52.2158 359.896ZM60.5331 359.92C62.1011 359.92 63.2611 360.264 64.0131 360.952C64.7651 361.64 65.1411 362.736 65.1411 364.24V373H63.6051L63.1971 371.176H63.1011C62.5411 371.88 61.9491 372.4 61.3251 372.736C60.7171 373.072 59.8691 373.24 58.7811 373.24C57.6131 373.24 56.6451 372.936 55.8771 372.328C55.1091 371.704 54.7251 370.736 54.7251 369.424C54.7251 368.144 55.2291 367.16 56.2371 366.472C57.2451 365.768 58.7971 365.384 60.8931 365.32L63.0771 365.248V364.48C63.0771 363.408 62.8451 362.664 62.3811 362.248C61.9171 361.832 61.2611 361.624 60.4131 361.624C59.7411 361.624 59.1011 361.728 58.4931 361.936C57.8851 362.128 57.3171 362.352 56.7891 362.608L56.1411 361.024C56.7011 360.72 57.3651 360.464 58.1331 360.256C58.9011 360.032 59.7011 359.92 60.5331 359.92ZM61.1571 366.784C59.5571 366.848 58.4451 367.104 57.8211 367.552C57.2131 368 56.9091 368.632 56.9091 369.448C56.9091 370.168 57.1251 370.696 57.5571 371.032C58.0051 371.368 58.5731 371.536 59.2611 371.536C60.3491 371.536 61.2531 371.24 61.9731 370.648C62.6931 370.04 63.0531 369.112 63.0531 367.864V366.712L61.1571 366.784ZM77.4902 369.448C77.4902 370.696 77.0262 371.64 76.0982 372.28C75.1702 372.92 73.9222 373.24 72.3542 373.24C71.4582 373.24 70.6822 373.168 70.0262 373.024C69.3862 372.88 68.8182 372.68 68.3222 372.424V370.504C68.8342 370.76 69.4502 371 70.1702 371.224C70.9062 371.432 71.6502 371.536 72.4022 371.536C73.4742 371.536 74.2502 371.368 74.7302 371.032C75.2102 370.68 75.4502 370.216 75.4502 369.64C75.4502 369.32 75.3622 369.032 75.1862 368.776C75.0102 368.52 74.6902 368.264 74.2262 368.008C73.7782 367.752 73.1302 367.464 72.2822 367.144C71.4502 366.824 70.7382 366.504 70.1462 366.184C69.5542 365.864 69.0982 365.48 68.7782 365.032C68.4582 364.584 68.2982 364.008 68.2982 363.304C68.2982 362.216 68.7382 361.376 69.6182 360.784C70.5142 360.192 71.6822 359.896 73.1222 359.896C73.9062 359.896 74.6342 359.976 75.3062 360.136C75.9942 360.28 76.6342 360.488 77.2262 360.76L76.5062 362.44C75.9622 362.216 75.3942 362.024 74.8022 361.864C74.2102 361.704 73.6022 361.624 72.9782 361.624C72.1142 361.624 71.4502 361.768 70.9862 362.056C70.5382 362.328 70.3142 362.704 70.3142 363.184C70.3142 363.536 70.4182 363.84 70.6262 364.096C70.8342 364.336 71.1782 364.576 71.6582 364.816C72.1542 365.04 72.8102 365.312 73.6262 365.632C74.4422 365.936 75.1382 366.248 75.7142 366.568C76.2902 366.888 76.7302 367.28 77.0342 367.744C77.3382 368.192 77.4902 368.76 77.4902 369.448ZM88.9026 365.728C88.6946 365.072 88.5106 364.432 88.3506 363.808C88.2066 363.168 88.0946 362.672 88.0146 362.32H87.9186C87.8546 362.672 87.7506 363.168 87.6066 363.808C87.4626 364.432 87.2786 365.08 87.0546 365.752L84.7506 372.976H82.3506L78.8226 360.112H81.0066L82.7826 366.976C82.9586 367.664 83.1266 368.36 83.2866 369.064C83.4466 369.768 83.5586 370.352 83.6226 370.816H83.7186C83.7826 370.544 83.8546 370.208 83.9346 369.808C84.0306 369.408 84.1346 368.992 84.2466 368.56C84.3586 368.112 84.4706 367.712 84.5826 367.36L86.8626 360.112H89.1666L91.3746 367.36C91.5506 367.904 91.7186 368.496 91.8786 369.136C92.0546 369.776 92.1746 370.328 92.2386 370.792H92.3346C92.3826 370.392 92.4866 369.84 92.6466 369.136C92.8226 368.432 93.0066 367.712 93.1986 366.976L94.9986 360.112H97.1586L93.5826 372.976H91.1106L88.9026 365.728ZM104.338 359.92C105.906 359.92 107.066 360.264 107.818 360.952C108.57 361.64 108.946 362.736 108.946 364.24V373H107.41L107.002 371.176H106.906C106.346 371.88 105.754 372.4 105.13 372.736C104.522 373.072 103.674 373.24 102.586 373.24C101.418 373.24 100.45 372.936 99.6818 372.328C98.9138 371.704 98.5298 370.736 98.5298 369.424C98.5298 368.144 99.0338 367.16 100.042 366.472C101.05 365.768 102.602 365.384 104.698 365.32L106.882 365.248V364.48C106.882 363.408 106.65 362.664 106.186 362.248C105.722 361.832 105.066 361.624 104.218 361.624C103.546 361.624 102.906 361.728 102.298 361.936C101.69 362.128 101.122 362.352 100.594 362.608L99.9458 361.024C100.506 360.72 101.17 360.464 101.938 360.256C102.706 360.032 103.506 359.92 104.338 359.92ZM104.962 366.784C103.362 366.848 102.25 367.104 101.626 367.552C101.018 368 100.714 368.632 100.714 369.448C100.714 370.168 100.93 370.696 101.362 371.032C101.81 371.368 102.378 371.536 103.066 371.536C104.154 371.536 105.058 371.24 105.778 370.648C106.498 370.04 106.858 369.112 106.858 367.864V366.712L104.962 366.784ZM117.215 371.512C117.535 371.512 117.863 371.488 118.199 371.44C118.535 371.376 118.807 371.312 119.015 371.248V372.856C118.791 372.968 118.471 373.056 118.055 373.12C117.639 373.2 117.239 373.24 116.855 373.24C116.183 373.24 115.559 373.128 114.983 372.904C114.423 372.664 113.967 372.256 113.615 371.68C113.263 371.104 113.087 370.296 113.087 369.256V361.768H111.263V360.76L113.111 359.92L113.951 357.184H115.199V360.136H118.919V361.768H115.199V369.208C115.199 369.992 115.383 370.576 115.751 370.96C116.135 371.328 116.623 371.512 117.215 371.512ZM122.671 355.312C122.991 355.312 123.271 355.424 123.511 355.648C123.767 355.856 123.895 356.192 123.895 356.656C123.895 357.104 123.767 357.44 123.511 357.664C123.271 357.888 122.991 358 122.671 358C122.319 358 122.023 357.888 121.783 357.664C121.543 357.44 121.423 357.104 121.423 356.656C121.423 356.192 121.543 355.856 121.783 355.648C122.023 355.424 122.319 355.312 122.671 355.312ZM123.703 360.136V373H121.591V360.136H123.703ZM139.618 373.24C138.482 373.24 137.466 373.008 136.57 372.544C135.69 372.08 134.994 371.36 134.482 370.384C133.986 369.408 133.738 368.16 133.738 366.64C133.738 365.056 134.002 363.768 134.53 362.776C135.058 361.784 135.77 361.056 136.666 360.592C137.578 360.128 138.61 359.896 139.762 359.896C140.418 359.896 141.05 359.968 141.658 360.112C142.266 360.24 142.762 360.4 143.146 360.592L142.498 362.344C142.114 362.2 141.666 362.064 141.154 361.936C140.642 361.808 140.162 361.744 139.714 361.744C137.186 361.744 135.922 363.368 135.922 366.616C135.922 368.168 136.226 369.36 136.834 370.192C137.458 371.008 138.378 371.416 139.594 371.416C140.298 371.416 140.914 371.344 141.442 371.2C141.986 371.056 142.482 370.88 142.93 370.672V372.544C142.498 372.768 142.018 372.936 141.49 373.048C140.978 373.176 140.354 373.24 139.618 373.24ZM157.173 366.544C157.173 368.672 156.629 370.32 155.541 371.488C154.469 372.656 153.013 373.24 151.173 373.24C150.037 373.24 149.021 372.984 148.125 372.472C147.245 371.944 146.549 371.184 146.037 370.192C145.525 369.184 145.269 367.968 145.269 366.544C145.269 364.416 145.805 362.776 146.877 361.624C147.949 360.472 149.405 359.896 151.245 359.896C152.413 359.896 153.437 360.16 154.317 360.688C155.213 361.2 155.909 361.952 156.405 362.944C156.917 363.92 157.173 365.12 157.173 366.544ZM147.453 366.544C147.453 368.064 147.749 369.272 148.341 370.168C148.949 371.048 149.909 371.488 151.221 371.488C152.517 371.488 153.469 371.048 154.077 370.168C154.685 369.272 154.989 368.064 154.989 366.544C154.989 365.024 154.685 363.832 154.077 362.968C153.469 362.104 152.509 361.672 151.197 361.672C149.885 361.672 148.933 362.104 148.341 362.968C147.749 363.832 147.453 365.024 147.453 366.544ZM162.632 373H160.52V354.76H162.632V373ZM168.82 373H166.708V354.76H168.82V373ZM177.863 359.896C178.967 359.896 179.911 360.136 180.695 360.616C181.495 361.096 182.103 361.776 182.519 362.656C182.951 363.52 183.167 364.536 183.167 365.704V366.976H174.359C174.391 368.432 174.759 369.544 175.463 370.312C176.183 371.064 177.183 371.44 178.463 371.44C179.279 371.44 179.999 371.368 180.623 371.224C181.263 371.064 181.919 370.84 182.591 370.552V372.4C181.935 372.688 181.287 372.896 180.647 373.024C180.007 373.168 179.247 373.24 178.367 373.24C177.151 373.24 176.071 372.992 175.127 372.496C174.199 372 173.471 371.264 172.943 370.288C172.431 369.296 172.175 368.088 172.175 366.664C172.175 365.256 172.407 364.048 172.871 363.04C173.351 362.032 174.015 361.256 174.863 360.712C175.727 360.168 176.727 359.896 177.863 359.896ZM177.839 361.624C176.831 361.624 176.031 361.952 175.439 362.608C174.863 363.248 174.519 364.144 174.407 365.296H180.959C180.943 364.208 180.687 363.328 180.191 362.656C179.695 361.968 178.911 361.624 177.839 361.624ZM191.002 359.896C191.85 359.896 192.61 360.056 193.282 360.376C193.97 360.696 194.554 361.184 195.034 361.84H195.154L195.442 360.136H197.122V373.216C197.122 375.056 196.65 376.44 195.706 377.368C194.778 378.296 193.33 378.76 191.362 378.76C189.474 378.76 187.93 378.488 186.73 377.944V376C187.994 376.672 189.578 377.008 191.482 377.008C192.586 377.008 193.45 376.68 194.074 376.024C194.714 375.384 195.034 374.504 195.034 373.384V372.88C195.034 372.688 195.042 372.416 195.058 372.064C195.074 371.696 195.09 371.44 195.106 371.296H195.01C194.146 372.592 192.818 373.24 191.026 373.24C189.362 373.24 188.058 372.656 187.114 371.488C186.186 370.32 185.722 368.688 185.722 366.592C185.722 364.544 186.186 362.92 187.114 361.72C188.058 360.504 189.354 359.896 191.002 359.896ZM191.29 361.672C190.218 361.672 189.386 362.104 188.794 362.968C188.202 363.816 187.906 365.032 187.906 366.616C187.906 368.2 188.194 369.416 188.77 370.264C189.362 371.096 190.218 371.512 191.338 371.512C192.634 371.512 193.578 371.168 194.17 370.48C194.762 369.776 195.058 368.648 195.058 367.096V366.592C195.058 364.832 194.754 363.576 194.146 362.824C193.538 362.056 192.586 361.672 191.29 361.672ZM206.176 359.896C207.28 359.896 208.224 360.136 209.008 360.616C209.808 361.096 210.416 361.776 210.832 362.656C211.264 363.52 211.48 364.536 211.48 365.704V366.976H202.672C202.704 368.432 203.072 369.544 203.776 370.312C204.496 371.064 205.496 371.44 206.776 371.44C207.592 371.44 208.312 371.368 208.936 371.224C209.576 371.064 210.232 370.84 210.904 370.552V372.4C210.248 372.688 209.6 372.896 208.96 373.024C208.32 373.168 207.56 373.24 206.68 373.24C205.464 373.24 204.384 372.992 203.44 372.496C202.512 372 201.784 371.264 201.256 370.288C200.744 369.296 200.488 368.088 200.488 366.664C200.488 365.256 200.72 364.048 201.184 363.04C201.664 362.032 202.328 361.256 203.176 360.712C204.04 360.168 205.04 359.896 206.176 359.896ZM206.152 361.624C205.144 361.624 204.344 361.952 203.752 362.608C203.176 363.248 202.832 364.144 202.72 365.296H209.272C209.256 364.208 209 363.328 208.504 362.656C208.008 361.968 207.224 361.624 206.152 361.624ZM232.619 366.544C232.619 368.672 232.075 370.32 230.987 371.488C229.915 372.656 228.459 373.24 226.619 373.24C225.483 373.24 224.467 372.984 223.571 372.472C222.691 371.944 221.995 371.184 221.483 370.192C220.971 369.184 220.715 367.968 220.715 366.544C220.715 364.416 221.251 362.776 222.323 361.624C223.395 360.472 224.851 359.896 226.691 359.896C227.859 359.896 228.883 360.16 229.763 360.688C230.659 361.2 231.355 361.952 231.851 362.944C232.363 363.92 232.619 365.12 232.619 366.544ZM222.899 366.544C222.899 368.064 223.195 369.272 223.787 370.168C224.395 371.048 225.355 371.488 226.667 371.488C227.963 371.488 228.915 371.048 229.523 370.168C230.131 369.272 230.435 368.064 230.435 366.544C230.435 365.024 230.131 363.832 229.523 362.968C228.915 362.104 227.955 361.672 226.643 361.672C225.331 361.672 224.379 362.104 223.787 362.968C223.195 363.832 222.899 365.024 222.899 366.544ZM241.894 361.768H238.654V373H236.542V361.768H234.286V360.784L236.542 360.064V359.32C236.542 357.656 236.91 356.464 237.646 355.744C238.382 355.008 239.406 354.64 240.718 354.64C241.23 354.64 241.694 354.688 242.11 354.784C242.542 354.864 242.91 354.96 243.214 355.072L242.662 356.728C242.406 356.648 242.11 356.568 241.774 356.488C241.438 356.408 241.094 356.368 240.742 356.368C240.038 356.368 239.51 356.608 239.158 357.088C238.822 357.552 238.654 358.288 238.654 359.296V360.136H241.894V361.768ZM255.863 359.896C256.967 359.896 257.911 360.136 258.695 360.616C259.495 361.096 260.103 361.776 260.519 362.656C260.951 363.52 261.167 364.536 261.167 365.704V366.976H252.359C252.391 368.432 252.759 369.544 253.463 370.312C254.183 371.064 255.183 371.44 256.463 371.44C257.279 371.44 257.999 371.368 258.623 371.224C259.263 371.064 259.919 370.84 260.591 370.552V372.4C259.935 372.688 259.287 372.896 258.647 373.024C258.007 373.168 257.247 373.24 256.367 373.24C255.151 373.24 254.071 372.992 253.127 372.496C252.199 372 251.471 371.264 250.943 370.288C250.431 369.296 250.175 368.088 250.175 366.664C250.175 365.256 250.407 364.048 250.871 363.04C251.351 362.032 252.015 361.256 252.863 360.712C253.727 360.168 254.727 359.896 255.863 359.896ZM255.839 361.624C254.831 361.624 254.031 361.952 253.439 362.608C252.863 363.248 252.519 364.144 252.407 365.296H258.959C258.943 364.208 258.687 363.328 258.191 362.656C257.695 361.968 256.911 361.624 255.839 361.624ZM270.634 359.896C272.17 359.896 273.33 360.272 274.114 361.024C274.898 361.76 275.29 362.96 275.29 364.624V373H273.202V364.768C273.202 362.704 272.242 361.672 270.322 361.672C268.898 361.672 267.914 362.072 267.37 362.872C266.826 363.672 266.554 364.824 266.554 366.328V373H264.442V360.136H266.146L266.458 361.888H266.578C266.994 361.216 267.57 360.72 268.306 360.4C269.042 360.064 269.818 359.896 270.634 359.896ZM283.838 359.896C284.686 359.896 285.446 360.056 286.118 360.376C286.806 360.696 287.39 361.184 287.87 361.84H287.99L288.278 360.136H289.958V373.216C289.958 375.056 289.486 376.44 288.542 377.368C287.614 378.296 286.166 378.76 284.198 378.76C282.31 378.76 280.766 378.488 279.566 377.944V376C280.83 376.672 282.414 377.008 284.318 377.008C285.422 377.008 286.286 376.68 286.91 376.024C287.55 375.384 287.87 374.504 287.87 373.384V372.88C287.87 372.688 287.878 372.416 287.894 372.064C287.91 371.696 287.926 371.44 287.942 371.296H287.846C286.982 372.592 285.654 373.24 283.862 373.24C282.198 373.24 280.894 372.656 279.95 371.488C279.022 370.32 278.558 368.688 278.558 366.592C278.558 364.544 279.022 362.92 279.95 361.72C280.894 360.504 282.19 359.896 283.838 359.896ZM284.126 361.672C283.054 361.672 282.222 362.104 281.63 362.968C281.038 363.816 280.742 365.032 280.742 366.616C280.742 368.2 281.03 369.416 281.606 370.264C282.198 371.096 283.054 371.512 284.174 371.512C285.47 371.512 286.414 371.168 287.006 370.48C287.598 369.776 287.894 368.648 287.894 367.096V366.592C287.894 364.832 287.59 363.576 286.982 362.824C286.374 362.056 285.422 361.672 284.126 361.672ZM298.604 359.896C299.452 359.896 300.212 360.056 300.884 360.376C301.572 360.696 302.156 361.184 302.636 361.84H302.756L303.044 360.136H304.724V373.216C304.724 375.056 304.252 376.44 303.308 377.368C302.38 378.296 300.932 378.76 298.964 378.76C297.076 378.76 295.532 378.488 294.332 377.944V376C295.596 376.672 297.18 377.008 299.084 377.008C300.188 377.008 301.052 376.68 301.676 376.024C302.316 375.384 302.636 374.504 302.636 373.384V372.88C302.636 372.688 302.644 372.416 302.66 372.064C302.676 371.696 302.692 371.44 302.708 371.296H302.612C301.748 372.592 300.42 373.24 298.628 373.24C296.964 373.24 295.66 372.656 294.716 371.488C293.788 370.32 293.324 368.688 293.324 366.592C293.324 364.544 293.788 362.92 294.716 361.72C295.66 360.504 296.956 359.896 298.604 359.896ZM298.892 361.672C297.82 361.672 296.988 362.104 296.396 362.968C295.804 363.816 295.508 365.032 295.508 366.616C295.508 368.2 295.796 369.416 296.372 370.264C296.964 371.096 297.82 371.512 298.94 371.512C300.236 371.512 301.18 371.168 301.772 370.48C302.364 369.776 302.66 368.648 302.66 367.096V366.592C302.66 364.832 302.356 363.576 301.748 362.824C301.14 362.056 300.188 361.672 298.892 361.672ZM311.352 370.504V373H308.855V370.504H311.352Z" fill="white" fill-opacity="0.86"/>
<path d="M17.5508 376H125.743V377.2H17.5508V376ZM125.738 376.422H132.406V378.18H125.738V376.422ZM132.418 376H212.704V377.2H132.418V376ZM212.715 376.422H219.383V378.18H212.715V376.422ZM219.395 376H242.182V377.2H219.395V376ZM242.176 376.422H248.844V378.18H242.176V376.422ZM248.855 376H306.764V377.2H248.855V376Z" fill="white" fill-opacity="0.86"/>
<path d="M98.3533 51.632H75.9533L71.5373 62H62.9612L83.1213 17.2H91.3133L111.537 62H102.833L98.3533 51.632ZM95.6012 45.104L87.1533 25.52L78.7693 45.104H95.6012ZM135.411 27.44C138.739 27.44 141.704 28.1653 144.307 29.616C146.952 31.0667 149.021 33.1147 150.515 35.76C152.008 38.4053 152.755 41.456 152.755 44.912C152.755 48.368 152.008 51.44 150.515 54.128C149.021 56.7733 146.952 58.8213 144.307 60.272C141.704 61.7227 138.739 62.448 135.411 62.448C133.064 62.448 130.909 62.0427 128.947 61.232C127.027 60.4213 125.405 59.2053 124.083 57.584V62H116.467V14.512H124.467V31.984C125.832 30.4907 127.432 29.36 129.267 28.592C131.144 27.824 133.192 27.44 135.411 27.44ZM134.515 55.6C137.459 55.6 139.869 54.6187 141.747 52.656C143.667 50.6933 144.627 48.112 144.627 44.912C144.627 41.712 143.667 39.1307 141.747 37.168C139.869 35.2053 137.459 34.224 134.515 34.224C132.595 34.224 130.867 34.672 129.331 35.568C127.795 36.4213 126.579 37.6587 125.683 39.28C124.787 40.9013 124.339 42.7787 124.339 44.912C124.339 47.0453 124.787 48.9227 125.683 50.544C126.579 52.1653 127.795 53.424 129.331 54.32C130.867 55.1733 132.595 55.6 134.515 55.6ZM175.702 62.448C172.246 62.448 169.131 61.7013 166.358 60.208C163.584 58.7147 161.408 56.6453 159.83 54C158.294 51.312 157.526 48.2827 157.526 44.912C157.526 41.5413 158.294 38.5333 159.83 35.888C161.408 33.2427 163.584 31.1733 166.358 29.68C169.131 28.1867 172.246 27.44 175.702 27.44C179.2 27.44 182.336 28.1867 185.11 29.68C187.883 31.1733 190.038 33.2427 191.574 35.888C193.152 38.5333 193.942 41.5413 193.942 44.912C193.942 48.2827 193.152 51.312 191.574 54C190.038 56.6453 187.883 58.7147 185.11 60.208C182.336 61.7013 179.2 62.448 175.702 62.448ZM175.702 55.6C178.646 55.6 181.078 54.6187 182.998 52.656C184.918 50.6933 185.878 48.112 185.878 44.912C185.878 41.712 184.918 39.1307 182.998 37.168C181.078 35.2053 178.646 34.224 175.702 34.224C172.758 34.224 170.326 35.2053 168.406 37.168C166.528 39.1307 165.59 41.712 165.59 44.912C165.59 48.112 166.528 50.6933 168.406 52.656C170.326 54.6187 172.758 55.6 175.702 55.6ZM234.68 27.824V62H227.064V57.648C225.784 59.184 224.184 60.3787 222.264 61.232C220.344 62.0427 218.274 62.448 216.056 62.448C211.49 62.448 207.885 61.1893 205.24 58.672C202.637 56.112 201.336 52.336 201.336 47.344V27.824H209.336V46.256C209.336 49.328 210.018 51.632 211.384 53.168C212.792 54.6613 214.776 55.408 217.336 55.408C220.194 55.408 222.456 54.5333 224.12 52.784C225.826 50.992 226.68 48.432 226.68 45.104V27.824H234.68ZM265.698 60.144C264.76 60.912 263.608 61.488 262.242 61.872C260.92 62.256 259.512 62.448 258.018 62.448C254.264 62.448 251.362 61.4667 249.314 59.504C247.266 57.5413 246.242 54.6827 246.242 50.928V34.48H240.61V28.08H246.242V20.272H254.242V28.08H263.394V34.48H254.242V50.736C254.242 52.4 254.648 53.68 255.458 54.576C256.269 55.4293 257.442 55.856 258.978 55.856C260.77 55.856 262.264 55.3867 263.458 54.448L265.698 60.144ZM45.949 95.2V140H39.101L14.397 109.664V140H6.141V95.2H12.989L37.693 125.536V95.2H45.949ZM72.5455 140.448C69.0895 140.448 65.9748 139.701 63.2015 138.208C60.4282 136.715 58.2522 134.645 56.6735 132C55.1375 129.312 54.3695 126.283 54.3695 122.912C54.3695 119.541 55.1375 116.533 56.6735 113.888C58.2522 111.243 60.4282 109.173 63.2015 107.68C65.9748 106.187 69.0895 105.44 72.5455 105.44C76.0442 105.44 79.1802 106.187 81.9535 107.68C84.7268 109.173 86.8815 111.243 88.4175 113.888C89.9962 116.533 90.7855 119.541 90.7855 122.912C90.7855 126.283 89.9962 129.312 88.4175 132C86.8815 134.645 84.7268 136.715 81.9535 138.208C79.1802 139.701 76.0442 140.448 72.5455 140.448ZM72.5455 133.6C75.4895 133.6 77.9215 132.619 79.8415 130.656C81.7615 128.693 82.7215 126.112 82.7215 122.912C82.7215 119.712 81.7615 117.131 79.8415 115.168C77.9215 113.205 75.4895 112.224 72.5455 112.224C69.6015 112.224 67.1695 113.205 65.2495 115.168C63.3722 117.131 62.4335 119.712 62.4335 122.912C62.4335 126.112 63.3722 128.693 65.2495 130.656C67.1695 132.619 69.6015 133.6 72.5455 133.6ZM118.98 138.144C118.041 138.912 116.889 139.488 115.524 139.872C114.201 140.256 112.793 140.448 111.3 140.448C107.545 140.448 104.644 139.467 102.595 137.504C100.548 135.541 99.5235 132.683 99.5235 128.928V112.48H93.8915V106.08H99.5235V98.272H107.524V106.08H116.676V112.48H107.524V128.736C107.524 130.4 107.929 131.68 108.74 132.576C109.55 133.429 110.724 133.856 112.26 133.856C114.052 133.856 115.545 133.387 116.74 132.448L118.98 138.144ZM156.564 123.104C156.564 123.659 156.521 124.448 156.436 125.472H129.62C130.089 127.989 131.305 129.995 133.268 131.488C135.273 132.939 137.748 133.664 140.692 133.664C144.446 133.664 147.54 132.427 149.972 129.952L154.26 134.88C152.724 136.715 150.782 138.101 148.436 139.04C146.089 139.979 143.444 140.448 140.5 140.448C136.745 140.448 133.438 139.701 130.58 138.208C127.721 136.715 125.502 134.645 123.924 132C122.388 129.312 121.62 126.283 121.62 122.912C121.62 119.584 122.366 116.597 123.86 113.952C125.396 111.264 127.508 109.173 130.196 107.68C132.884 106.187 135.913 105.44 139.284 105.44C142.612 105.44 145.577 106.187 148.18 107.68C150.825 109.131 152.873 111.2 154.324 113.888C155.817 116.533 156.564 119.605 156.564 123.104ZM139.284 111.84C136.724 111.84 134.548 112.608 132.756 114.144C131.006 115.637 129.94 117.643 129.556 120.16H148.948C148.606 117.685 147.561 115.68 145.812 114.144C144.062 112.608 141.886 111.84 139.284 111.84ZM178.904 140.64C175.448 140.64 172.099 140.149 168.856 139.168C165.656 138.187 163.117 136.885 161.24 135.264L164.12 128.8C165.955 130.251 168.195 131.445 170.84 132.384C173.528 133.28 176.216 133.728 178.904 133.728C182.232 133.728 184.707 133.195 186.328 132.128C187.992 131.061 188.824 129.653 188.824 127.904C188.824 126.624 188.355 125.579 187.416 124.768C186.52 123.915 185.368 123.253 183.96 122.784C182.552 122.315 180.632 121.781 178.2 121.184C174.787 120.373 172.013 119.563 169.88 118.752C167.789 117.941 165.976 116.683 164.44 114.976C162.947 113.227 162.2 110.88 162.2 107.936C162.2 105.461 162.861 103.221 164.184 101.216C165.549 99.168 167.576 97.5467 170.264 96.352C172.995 95.1573 176.323 94.56 180.248 94.56C182.979 94.56 185.667 94.9013 188.312 95.584C190.957 96.2667 193.24 97.248 195.16 98.528L192.536 104.992C190.573 103.84 188.525 102.965 186.392 102.368C184.259 101.771 182.189 101.472 180.184 101.472C176.899 101.472 174.445 102.027 172.824 103.136C171.245 104.245 170.456 105.717 170.456 107.552C170.456 108.832 170.904 109.877 171.8 110.688C172.739 111.499 173.912 112.139 175.32 112.608C176.728 113.077 178.648 113.611 181.08 114.208C184.408 114.976 187.139 115.787 189.272 116.64C191.405 117.451 193.219 118.709 194.712 120.416C196.248 122.123 197.016 124.427 197.016 127.328C197.016 129.803 196.333 132.043 194.968 134.048C193.645 136.053 191.619 137.653 188.888 138.848C186.157 140.043 182.829 140.64 178.904 140.64ZM220.178 140.448C216.637 140.448 213.458 139.701 210.642 138.208C207.826 136.715 205.629 134.645 204.05 132C202.471 129.312 201.682 126.283 201.682 122.912C201.682 119.541 202.471 116.533 204.05 113.888C205.629 111.243 207.805 109.173 210.578 107.68C213.394 106.187 216.594 105.44 220.178 105.44C223.549 105.44 226.493 106.123 229.01 107.488C231.57 108.853 233.49 110.816 234.77 113.376L228.626 116.96C227.645 115.381 226.407 114.208 224.914 113.44C223.463 112.629 221.863 112.224 220.114 112.224C217.127 112.224 214.653 113.205 212.69 115.168C210.727 117.088 209.746 119.669 209.746 122.912C209.746 126.155 210.706 128.757 212.626 130.72C214.589 132.64 217.085 133.6 220.114 133.6C221.863 133.6 223.463 133.216 224.914 132.448C226.407 131.637 227.645 130.443 228.626 128.864L234.77 132.448C233.447 135.008 231.506 136.992 228.946 138.4C226.429 139.765 223.506 140.448 220.178 140.448ZM256.546 140.448C253.09 140.448 249.975 139.701 247.202 138.208C244.428 136.715 242.252 134.645 240.674 132C239.138 129.312 238.37 126.283 238.37 122.912C238.37 119.541 239.138 116.533 240.674 113.888C242.252 111.243 244.428 109.173 247.202 107.68C249.975 106.187 253.09 105.44 256.546 105.44C260.044 105.44 263.18 106.187 265.954 107.68C268.727 109.173 270.882 111.243 272.418 113.888C273.996 116.533 274.786 119.541 274.786 122.912C274.786 126.283 273.996 129.312 272.418 132C270.882 134.645 268.727 136.715 265.954 138.208C263.18 139.701 260.044 140.448 256.546 140.448ZM256.546 133.6C259.49 133.6 261.922 132.619 263.842 130.656C265.762 128.693 266.722 126.112 266.722 122.912C266.722 119.712 265.762 117.131 263.842 115.168C261.922 113.205 259.49 112.224 256.546 112.224C253.602 112.224 251.17 113.205 249.25 115.168C247.372 117.131 246.434 119.712 246.434 122.912C246.434 126.112 247.372 128.693 249.25 130.656C251.17 132.619 253.602 133.6 256.546 133.6ZM315.524 105.824V140H307.908V135.648C306.628 137.184 305.028 138.379 303.108 139.232C301.188 140.043 299.118 140.448 296.9 140.448C292.334 140.448 288.729 139.189 286.084 136.672C283.481 134.112 282.18 130.336 282.18 125.344V105.824H290.18V124.256C290.18 127.328 290.862 129.632 292.228 131.168C293.636 132.661 295.62 133.408 298.18 133.408C301.038 133.408 303.3 132.533 304.964 130.784C306.67 128.992 307.524 126.432 307.524 123.104V105.824H315.524ZM346.542 138.144C345.603 138.912 344.451 139.488 343.086 139.872C341.763 140.256 340.355 140.448 338.862 140.448C335.107 140.448 332.206 139.467 330.158 137.504C328.11 135.541 327.086 132.683 327.086 128.928V112.48H321.454V106.08H327.086V98.272H335.086V106.08H344.238V112.48H335.086V128.736C335.086 130.4 335.491 131.68 336.302 132.576C337.113 133.429 338.286 133.856 339.822 133.856C341.614 133.856 343.107 133.387 344.302 132.448L346.542 138.144Z" fill="white"/>
</svg>
