<svg width="1366" height="810" viewBox="0 0 1366 810" fill="none" xmlns="http://www.w3.org/2000/svg">
<rect width="1366" height="810" fill="url(#paint0_linear)"/>
<path d="M466.752 121.64C462.229 121.64 458.133 120.659 454.464 118.696C450.837 116.691 447.979 113.939 445.888 110.44C443.84 106.941 442.816 102.995 442.816 98.6C442.816 94.2053 443.861 90.2587 445.952 86.76C448.043 83.2613 450.901 80.5307 454.528 78.568C458.197 76.5627 462.293 75.56 466.816 75.56C470.485 75.56 473.835 76.2 476.864 77.48C479.893 78.76 482.453 80.616 484.544 83.048L479.168 88.104C475.925 84.6053 471.936 82.856 467.2 82.856C464.128 82.856 461.376 83.5387 458.944 84.904C456.512 86.2267 454.613 88.0827 453.248 90.472C451.883 92.8613 451.2 95.5707 451.2 98.6C451.2 101.629 451.883 104.339 453.248 106.728C454.613 109.117 456.512 110.995 458.944 112.36C461.376 113.683 464.128 114.344 467.2 114.344C471.936 114.344 475.925 112.573 479.168 109.032L484.544 114.152C482.453 116.584 479.872 118.44 476.8 119.72C473.771 121 470.421 121.64 466.752 121.64ZM511.14 86.44C515.449 86.44 518.905 87.6987 521.508 90.216C524.111 92.7333 525.412 96.4667 525.412 101.416V121H517.412V102.44C517.412 99.4533 516.708 97.2133 515.3 95.72C513.892 94.184 511.887 93.416 509.284 93.416C506.34 93.416 504.015 94.312 502.308 96.104C500.601 97.8533 499.748 100.392 499.748 103.72V121H491.748V73.512H499.748V90.792C501.071 89.384 502.692 88.3173 504.612 87.592C506.575 86.824 508.751 86.44 511.14 86.44ZM551.233 121.448C547.777 121.448 544.662 120.701 541.889 119.208C539.116 117.715 536.94 115.645 535.361 113C533.825 110.312 533.057 107.283 533.057 103.912C533.057 100.541 533.825 97.5333 535.361 94.888C536.94 92.2427 539.116 90.1733 541.889 88.68C544.662 87.1867 547.777 86.44 551.233 86.44C554.732 86.44 557.868 87.1867 560.641 88.68C563.414 90.1733 565.569 92.2427 567.105 94.888C568.684 97.5333 569.473 100.541 569.473 103.912C569.473 107.283 568.684 110.312 567.105 113C565.569 115.645 563.414 117.715 560.641 119.208C557.868 120.701 554.732 121.448 551.233 121.448ZM551.233 114.6C554.177 114.6 556.609 113.619 558.529 111.656C560.449 109.693 561.409 107.112 561.409 103.912C561.409 100.712 560.449 98.1307 558.529 96.168C556.609 94.2053 554.177 93.224 551.233 93.224C548.289 93.224 545.857 94.2053 543.937 96.168C542.06 98.1307 541.121 100.712 541.121 103.912C541.121 107.112 542.06 109.693 543.937 111.656C545.857 113.619 548.289 114.6 551.233 114.6ZM592.483 121.448C589.027 121.448 585.912 120.701 583.139 119.208C580.366 117.715 578.19 115.645 576.611 113C575.075 110.312 574.307 107.283 574.307 103.912C574.307 100.541 575.075 97.5333 576.611 94.888C578.19 92.2427 580.366 90.1733 583.139 88.68C585.912 87.1867 589.027 86.44 592.483 86.44C595.982 86.44 599.118 87.1867 601.891 88.68C604.664 90.1733 606.819 92.2427 608.355 94.888C609.934 97.5333 610.723 100.541 610.723 103.912C610.723 107.283 609.934 110.312 608.355 113C606.819 115.645 604.664 117.715 601.891 119.208C599.118 120.701 595.982 121.448 592.483 121.448ZM592.483 114.6C595.427 114.6 597.859 113.619 599.779 111.656C601.699 109.693 602.659 107.112 602.659 103.912C602.659 100.712 601.699 98.1307 599.779 96.168C597.859 94.2053 595.427 93.224 592.483 93.224C589.539 93.224 587.107 94.2053 585.187 96.168C583.31 98.1307 582.371 100.712 582.371 103.912C582.371 107.112 583.31 109.693 585.187 111.656C587.107 113.619 589.539 114.6 592.483 114.6ZM628.933 121.448C626.16 121.448 623.45 121.085 620.805 120.36C618.16 119.635 616.048 118.717 614.469 117.608L617.541 111.528C619.077 112.552 620.912 113.384 623.045 114.024C625.221 114.621 627.354 114.92 629.445 114.92C634.224 114.92 636.613 113.661 636.613 111.144C636.613 109.949 635.994 109.117 634.757 108.648C633.562 108.179 631.621 107.731 628.933 107.304C626.117 106.877 623.813 106.387 622.021 105.832C620.272 105.277 618.736 104.317 617.413 102.952C616.133 101.544 615.493 99.6027 615.493 97.128C615.493 93.8853 616.837 91.304 619.525 89.384C622.256 87.4213 625.925 86.44 630.533 86.44C632.88 86.44 635.226 86.7173 637.573 87.272C639.92 87.784 641.84 88.488 643.333 89.384L640.261 95.464C637.36 93.7573 634.096 92.904 630.469 92.904C628.122 92.904 626.33 93.2667 625.093 93.992C623.898 94.6747 623.301 95.592 623.301 96.744C623.301 98.024 623.941 98.9413 625.221 99.496C626.544 100.008 628.57 100.499 631.301 100.968C634.032 101.395 636.272 101.885 638.021 102.44C639.77 102.995 641.264 103.933 642.501 105.256C643.781 106.579 644.421 108.456 644.421 110.888C644.421 114.088 643.034 116.648 640.261 118.568C637.488 120.488 633.712 121.448 628.933 121.448ZM683.439 104.104C683.439 104.659 683.396 105.448 683.311 106.472H656.495C656.964 108.989 658.18 110.995 660.143 112.488C662.148 113.939 664.623 114.664 667.567 114.664C671.321 114.664 674.415 113.427 676.847 110.952L681.135 115.88C679.599 117.715 677.657 119.101 675.311 120.04C672.964 120.979 670.319 121.448 667.375 121.448C663.62 121.448 660.313 120.701 657.455 119.208C654.596 117.715 652.377 115.645 650.799 113C649.263 110.312 648.495 107.283 648.495 103.912C648.495 100.584 649.241 97.5973 650.735 94.952C652.271 92.264 654.383 90.1733 657.071 88.68C659.759 87.1867 662.788 86.44 666.159 86.44C669.487 86.44 672.452 87.1867 675.055 88.68C677.7 90.1307 679.748 92.2 681.199 94.888C682.692 97.5333 683.439 100.605 683.439 104.104ZM666.159 92.84C663.599 92.84 661.423 93.608 659.631 95.144C657.881 96.6373 656.815 98.6427 656.431 101.16H675.823C675.481 98.6853 674.436 96.68 672.687 95.144C670.937 93.608 668.761 92.84 666.159 92.84ZM721.867 86.44C726.901 86.44 730.741 87.656 733.387 90.088C736.075 92.4773 737.419 96.104 737.419 100.968V121H729.867V116.84C728.885 118.333 727.477 119.485 725.643 120.296C723.851 121.064 721.675 121.448 719.115 121.448C716.555 121.448 714.315 121.021 712.395 120.168C710.475 119.272 708.981 118.056 707.915 116.52C706.891 114.941 706.379 113.171 706.379 111.208C706.379 108.136 707.509 105.683 709.771 103.848C712.075 101.971 715.68 101.032 720.587 101.032H729.419V100.52C729.419 98.1307 728.693 96.296 727.243 95.016C725.835 93.736 723.723 93.096 720.907 93.096C718.987 93.096 717.088 93.3947 715.211 93.992C713.376 94.5893 711.819 95.4213 710.539 96.488L707.403 90.664C709.195 89.2987 711.349 88.2533 713.867 87.528C716.384 86.8027 719.051 86.44 721.867 86.44ZM720.779 115.624C722.784 115.624 724.555 115.176 726.091 114.28C727.669 113.341 728.779 112.019 729.419 110.312V106.344H721.163C716.555 106.344 714.251 107.859 714.251 110.888C714.251 112.339 714.827 113.491 715.979 114.344C717.131 115.197 718.731 115.624 720.779 115.624ZM785.917 119.144C784.978 119.912 783.826 120.488 782.461 120.872C781.138 121.256 779.73 121.448 778.237 121.448C774.482 121.448 771.581 120.467 769.533 118.504C767.485 116.541 766.461 113.683 766.461 109.928V93.48H760.829V87.08H766.461V79.272H774.461V87.08H783.613V93.48H774.461V109.736C774.461 111.4 774.866 112.68 775.677 113.576C776.488 114.429 777.661 114.856 779.197 114.856C780.989 114.856 782.482 114.387 783.677 113.448L785.917 119.144ZM806.733 121.448C803.277 121.448 800.162 120.701 797.389 119.208C794.616 117.715 792.44 115.645 790.861 113C789.325 110.312 788.557 107.283 788.557 103.912C788.557 100.541 789.325 97.5333 790.861 94.888C792.44 92.2427 794.616 90.1733 797.389 88.68C800.162 87.1867 803.277 86.44 806.733 86.44C810.232 86.44 813.368 87.1867 816.141 88.68C818.914 90.1733 821.069 92.2427 822.605 94.888C824.184 97.5333 824.973 100.541 824.973 103.912C824.973 107.283 824.184 110.312 822.605 113C821.069 115.645 818.914 117.715 816.141 119.208C813.368 120.701 810.232 121.448 806.733 121.448ZM806.733 114.6C809.677 114.6 812.109 113.619 814.029 111.656C815.949 109.693 816.909 107.112 816.909 103.912C816.909 100.712 815.949 98.1307 814.029 96.168C812.109 94.2053 809.677 93.224 806.733 93.224C803.789 93.224 801.357 94.2053 799.437 96.168C797.56 98.1307 796.621 100.712 796.621 103.912C796.621 107.112 797.56 109.693 799.437 111.656C801.357 113.619 803.789 114.6 806.733 114.6ZM851.567 86.44C854.895 86.44 857.86 87.1653 860.463 88.616C863.108 90.0667 865.178 92.1147 866.671 94.76C868.164 97.4053 868.911 100.456 868.911 103.912C868.911 107.368 868.164 110.44 866.671 113.128C865.178 115.773 863.108 117.821 860.463 119.272C857.86 120.723 854.895 121.448 851.567 121.448C846.959 121.448 843.311 119.912 840.623 116.84V133.416H832.623V86.824H840.239V91.304C841.562 89.6827 843.183 88.4667 845.103 87.656C847.066 86.8453 849.22 86.44 851.567 86.44ZM850.671 114.6C853.615 114.6 856.026 113.619 857.903 111.656C859.823 109.693 860.783 107.112 860.783 103.912C860.783 100.712 859.823 98.1307 857.903 96.168C856.026 94.2053 853.615 93.224 850.671 93.224C848.751 93.224 847.023 93.672 845.487 94.568C843.951 95.4213 842.735 96.6587 841.839 98.28C840.943 99.9013 840.495 101.779 840.495 103.912C840.495 106.045 840.943 107.923 841.839 109.544C842.735 111.165 843.951 112.424 845.487 113.32C847.023 114.173 848.751 114.6 850.671 114.6ZM876.498 86.824H884.498V121H876.498V86.824ZM880.53 81.192C879.079 81.192 877.863 80.744 876.882 79.848C875.901 78.9093 875.41 77.7573 875.41 76.392C875.41 75.0267 875.901 73.896 876.882 73C877.863 72.0613 879.079 71.592 880.53 71.592C881.981 71.592 883.197 72.04 884.178 72.936C885.159 73.7893 885.65 74.8773 885.65 76.2C885.65 77.608 885.159 78.8027 884.178 79.784C883.239 80.7227 882.023 81.192 880.53 81.192ZM910.678 121.448C907.137 121.448 903.958 120.701 901.142 119.208C898.326 117.715 896.129 115.645 894.55 113C892.971 110.312 892.182 107.283 892.182 103.912C892.182 100.541 892.971 97.5333 894.55 94.888C896.129 92.2427 898.305 90.1733 901.078 88.68C903.894 87.1867 907.094 86.44 910.678 86.44C914.049 86.44 916.993 87.1227 919.51 88.488C922.07 89.8533 923.99 91.816 925.27 94.376L919.126 97.96C918.145 96.3813 916.907 95.208 915.414 94.44C913.963 93.6293 912.363 93.224 910.614 93.224C907.627 93.224 905.153 94.2053 903.19 96.168C901.227 98.088 900.246 100.669 900.246 103.912C900.246 107.155 901.206 109.757 903.126 111.72C905.089 113.64 907.585 114.6 910.614 114.6C912.363 114.6 913.963 114.216 915.414 113.448C916.907 112.637 918.145 111.443 919.126 109.864L925.27 113.448C923.947 116.008 922.006 117.992 919.446 119.4C916.929 120.765 914.006 121.448 910.678 121.448Z" fill="white"/>
<g filter="url(#filter0_di)">
<rect x="170" y="298" width="1026" height="399" rx="40" fill="white"/>
</g>
<path d="M687.33 226.5C685.406 229.833 680.594 229.833 678.67 226.5L661.349 196.5C659.425 193.167 661.83 189 665.679 189H700.321C704.17 189 706.575 193.167 704.651 196.5L687.33 226.5Z" fill="white"/>
<defs>
<filter id="filter0_di" x="148" y="276" width="1086" height="459" filterUnits="userSpaceOnUse" color-interpolation-filters="sRGB">
<feFlood flood-opacity="0" result="BackgroundImageFix"/>
<feColorMatrix in="SourceAlpha" type="matrix" values="0 0 0 0 0 0 0 0 0 0 0 0 0 0 0 0 0 0 127 0"/>
<feOffset dx="8" dy="8"/>
<feGaussianBlur stdDeviation="15"/>
<feColorMatrix type="matrix" values="0 0 0 0 0 0 0 0 0 0 0 0 0 0 0 0 0 0 0.25 0"/>
<feBlend mode="normal" in2="BackgroundImageFix" result="effect1_dropShadow"/>
<feBlend mode="normal" in="SourceGraphic" in2="effect1_dropShadow" result="shape"/>
<feColorMatrix in="SourceAlpha" type="matrix" values="0 0 0 0 0 0 0 0 0 0 0 0 0 0 0 0 0 0 127 0" result="hardAlpha"/>
<feOffset dx="-7" dy="-7"/>
<feGaussianBlur stdDeviation="8.5"/>
<feComposite in2="hardAlpha" operator="arithmetic" k2="-1" k3="1"/>
<feColorMatrix type="matrix" values="0 0 0 0 0 0 0 0 0 0 0 0 0 0 0 0 0 0 0.35 0"/>
<feBlend mode="normal" in2="shape" result="effect2_innerShadow"/>
</filter>
<linearGradient id="paint0_linear" x1="-3.47386e-06" y1="78.5" x2="1366" y2="742" gradientUnits="userSpaceOnUse">
<stop stop-color="#08445C"/>
<stop offset="0.338542" stop-color="#271F3A"/>
<stop offset="1" stop-color="#3F0D40"/>
</linearGradient>
</defs>
</svg>
