<svg width="486" height="486" viewBox="0 0 486 486" fill="none" xmlns="http://www.w3.org/2000/svg">
<g filter="url(#filter0_di)">
<rect x="22" y="22" width="426" height="426" rx="40" fill="white"/>
</g>
<path d="M150.53 114.75H139.37L137.06 120H133.97L143.48 99H146.45L155.99 120H152.84L150.53 114.75ZM149.48 112.35L144.95 102.06L140.42 112.35H149.48ZM158.703 97.74H161.583V120H158.703V97.74ZM167.082 97.74H169.962V120H167.082V97.74ZM205.567 121.92C204.887 122.72 204.097 123.33 203.197 123.75C202.297 124.17 201.327 124.38 200.287 124.38C198.967 124.38 197.727 124.06 196.567 123.42C195.427 122.8 194.117 121.73 192.637 120.21C190.657 120.11 188.867 119.58 187.267 118.62C185.687 117.66 184.447 116.39 183.547 114.81C182.667 113.21 182.227 111.44 182.227 109.5C182.227 107.48 182.707 105.65 183.667 104.01C184.647 102.37 185.987 101.09 187.687 100.17C189.387 99.23 191.297 98.76 193.417 98.76C195.517 98.76 197.417 99.23 199.117 100.17C200.817 101.09 202.147 102.37 203.107 104.01C204.067 105.63 204.547 107.46 204.547 109.5C204.547 111.22 204.197 112.8 203.497 114.24C202.817 115.68 201.847 116.89 200.587 117.87C199.347 118.85 197.917 119.53 196.297 119.91C196.997 120.65 197.667 121.18 198.307 121.5C198.967 121.84 199.637 122.01 200.317 122.01C201.797 122.01 203.077 121.41 204.157 120.21L205.567 121.92ZM185.227 109.5C185.227 111.02 185.577 112.4 186.277 113.64C186.997 114.86 187.977 115.82 189.217 116.52C190.477 117.22 191.877 117.57 193.417 117.57C194.937 117.57 196.317 117.22 197.557 116.52C198.797 115.82 199.767 114.86 200.467 113.64C201.187 112.4 201.547 111.02 201.547 109.5C201.547 107.98 201.187 106.61 200.467 105.39C199.767 104.15 198.797 103.18 197.557 102.48C196.317 101.78 194.937 101.43 193.417 101.43C191.877 101.43 190.477 101.78 189.217 102.48C187.977 103.18 186.997 104.15 186.277 105.39C185.577 106.61 185.227 107.98 185.227 109.5ZM223.532 104.1V120H220.802V117.6C220.222 118.42 219.452 119.06 218.492 119.52C217.552 119.96 216.522 120.18 215.402 120.18C213.282 120.18 211.612 119.6 210.392 118.44C209.172 117.26 208.562 115.53 208.562 113.25V104.1H211.442V112.92C211.442 114.46 211.812 115.63 212.552 116.43C213.292 117.21 214.352 117.6 215.732 117.6C217.252 117.6 218.452 117.14 219.332 116.22C220.212 115.3 220.652 114 220.652 112.32V104.1H223.532ZM243.385 112.14C243.385 112.36 243.365 112.65 243.325 113.01H230.425C230.605 114.41 231.215 115.54 232.255 116.4C233.315 117.24 234.625 117.66 236.185 117.66C238.085 117.66 239.615 117.02 240.775 115.74L242.365 117.6C241.645 118.44 240.745 119.08 239.665 119.52C238.605 119.96 237.415 120.18 236.095 120.18C234.415 120.18 232.925 119.84 231.625 119.16C230.325 118.46 229.315 117.49 228.595 116.25C227.895 115.01 227.545 113.61 227.545 112.05C227.545 110.51 227.885 109.12 228.565 107.88C229.265 106.64 230.215 105.68 231.415 105C232.635 104.3 234.005 103.95 235.525 103.95C237.045 103.95 238.395 104.3 239.575 105C240.775 105.68 241.705 106.64 242.365 107.88C243.045 109.12 243.385 110.54 243.385 112.14ZM235.525 106.38C234.145 106.38 232.985 106.8 232.045 107.64C231.125 108.48 230.585 109.58 230.425 110.94H240.625C240.465 109.6 239.915 108.51 238.975 107.67C238.055 106.81 236.905 106.38 235.525 106.38ZM251.944 120.18C250.644 120.18 249.394 120.01 248.194 119.67C246.994 119.31 246.054 118.86 245.374 118.32L246.574 116.04C247.274 116.54 248.124 116.94 249.124 117.24C250.124 117.54 251.134 117.69 252.154 117.69C254.674 117.69 255.934 116.97 255.934 115.53C255.934 115.05 255.764 114.67 255.424 114.39C255.084 114.11 254.654 113.91 254.134 113.79C253.634 113.65 252.914 113.5 251.974 113.34C250.694 113.14 249.644 112.91 248.824 112.65C248.024 112.39 247.334 111.95 246.754 111.33C246.174 110.71 245.884 109.84 245.884 108.72C245.884 107.28 246.484 106.13 247.684 105.27C248.884 104.39 250.494 103.95 252.514 103.95C253.574 103.95 254.634 104.08 255.694 104.34C256.754 104.6 257.624 104.95 258.304 105.39L257.074 107.67C255.774 106.83 254.244 106.41 252.484 106.41C251.264 106.41 250.334 106.61 249.694 107.01C249.054 107.41 248.734 107.94 248.734 108.6C248.734 109.12 248.914 109.53 249.274 109.83C249.634 110.13 250.074 110.35 250.594 110.49C251.134 110.63 251.884 110.79 252.844 110.97C254.124 111.19 255.154 111.43 255.934 111.69C256.734 111.93 257.414 112.35 257.974 112.95C258.534 113.55 258.814 114.39 258.814 115.47C258.814 116.91 258.194 118.06 256.954 118.92C255.734 119.76 254.064 120.18 251.944 120.18ZM271.354 119.07C270.934 119.43 270.414 119.71 269.794 119.91C269.174 120.09 268.534 120.18 267.874 120.18C266.274 120.18 265.034 119.75 264.154 118.89C263.274 118.03 262.834 116.8 262.834 115.2V106.47H260.134V104.1H262.834V100.62H265.714V104.1H270.274V106.47H265.714V115.08C265.714 115.94 265.924 116.6 266.344 117.06C266.784 117.52 267.404 117.75 268.204 117.75C269.084 117.75 269.834 117.5 270.454 117L271.354 119.07ZM274.835 104.1H277.715V120H274.835V104.1ZM276.275 101.04C275.715 101.04 275.245 100.86 274.865 100.5C274.505 100.14 274.325 99.7 274.325 99.18C274.325 98.66 274.505 98.22 274.865 97.86C275.245 97.48 275.715 97.29 276.275 97.29C276.835 97.29 277.295 97.47 277.655 97.83C278.035 98.17 278.225 98.6 278.225 99.12C278.225 99.66 278.035 100.12 277.655 100.5C277.295 100.86 276.835 101.04 276.275 101.04ZM290.024 120.18C288.444 120.18 287.024 119.83 285.764 119.13C284.504 118.43 283.514 117.47 282.794 116.25C282.094 115.01 281.744 113.61 281.744 112.05C281.744 110.49 282.094 109.1 282.794 107.88C283.514 106.64 284.504 105.68 285.764 105C287.024 104.3 288.444 103.95 290.024 103.95C291.604 103.95 293.014 104.3 294.254 105C295.514 105.68 296.494 106.64 297.194 107.88C297.914 109.1 298.274 110.49 298.274 112.05C298.274 113.61 297.914 115.01 297.194 116.25C296.494 117.47 295.514 118.43 294.254 119.13C293.014 119.83 291.604 120.18 290.024 120.18ZM290.024 117.66C291.044 117.66 291.954 117.43 292.754 116.97C293.574 116.49 294.214 115.83 294.674 114.99C295.134 114.13 295.364 113.15 295.364 112.05C295.364 110.95 295.134 109.98 294.674 109.14C294.214 108.28 293.574 107.62 292.754 107.16C291.954 106.7 291.044 106.47 290.024 106.47C289.004 106.47 288.084 106.7 287.264 107.16C286.464 107.62 285.824 108.28 285.344 109.14C284.884 109.98 284.654 110.95 284.654 112.05C284.654 113.15 284.884 114.13 285.344 114.99C285.824 115.83 286.464 116.49 287.264 116.97C288.084 117.43 289.004 117.66 290.024 117.66ZM310.747 103.95C312.767 103.95 314.367 104.54 315.547 105.72C316.747 106.88 317.347 108.59 317.347 110.85V120H314.467V111.18C314.467 109.64 314.097 108.48 313.357 107.7C312.617 106.92 311.557 106.53 310.177 106.53C308.617 106.53 307.387 106.99 306.487 107.91C305.587 108.81 305.137 110.11 305.137 111.81V120H302.257V104.1H305.017V106.5C305.597 105.68 306.377 105.05 307.357 104.61C308.357 104.17 309.487 103.95 310.747 103.95ZM327.237 120.18C325.937 120.18 324.687 120.01 323.487 119.67C322.287 119.31 321.347 118.86 320.667 118.32L321.867 116.04C322.567 116.54 323.417 116.94 324.417 117.24C325.417 117.54 326.427 117.69 327.447 117.69C329.967 117.69 331.227 116.97 331.227 115.53C331.227 115.05 331.057 114.67 330.717 114.39C330.377 114.11 329.947 113.91 329.427 113.79C328.927 113.65 328.207 113.5 327.267 113.34C325.987 113.14 324.937 112.91 324.117 112.65C323.317 112.39 322.627 111.95 322.047 111.33C321.467 110.71 321.177 109.84 321.177 108.72C321.177 107.28 321.777 106.13 322.977 105.27C324.177 104.39 325.787 103.95 327.807 103.95C328.867 103.95 329.927 104.08 330.987 104.34C332.047 104.6 332.917 104.95 333.597 105.39L332.367 107.67C331.067 106.83 329.537 106.41 327.777 106.41C326.557 106.41 325.627 106.61 324.987 107.01C324.347 107.41 324.027 107.94 324.027 108.6C324.027 109.12 324.207 109.53 324.567 109.83C324.927 110.13 325.367 110.35 325.887 110.49C326.427 110.63 327.177 110.79 328.137 110.97C329.417 111.19 330.447 111.43 331.227 111.69C332.027 111.93 332.707 112.35 333.267 112.95C333.827 113.55 334.107 114.39 334.107 115.47C334.107 116.91 333.487 118.06 332.247 118.92C331.027 119.76 329.357 120.18 327.237 120.18Z" fill="black"/>
<path d="M103.27 209.24C101.69 209.24 100.16 209 98.68 208.52C97.22 208.02 96.07 207.38 95.23 206.6L96.34 204.26C97.14 204.98 98.16 205.57 99.4 206.03C100.66 206.47 101.95 206.69 103.27 206.69C105.01 206.69 106.31 206.4 107.17 205.82C108.03 205.22 108.46 204.43 108.46 203.45C108.46 202.73 108.22 202.15 107.74 201.71C107.28 201.25 106.7 200.9 106 200.66C105.32 200.42 104.35 200.15 103.09 199.85C101.51 199.47 100.23 199.09 99.25 198.71C98.29 198.33 97.46 197.75 96.76 196.97C96.08 196.17 95.74 195.1 95.74 193.76C95.74 192.64 96.03 191.63 96.61 190.73C97.21 189.83 98.11 189.11 99.31 188.57C100.51 188.03 102 187.76 103.78 187.76C105.02 187.76 106.24 187.92 107.44 188.24C108.64 188.56 109.67 189.02 110.53 189.62L109.54 192.02C108.66 191.46 107.72 191.04 106.72 190.76C105.72 190.46 104.74 190.31 103.78 190.31C102.08 190.31 100.8 190.62 99.94 191.24C99.1 191.86 98.68 192.66 98.68 193.64C98.68 194.36 98.92 194.95 99.4 195.41C99.88 195.85 100.47 196.2 101.17 196.46C101.89 196.7 102.86 196.96 104.08 197.24C105.66 197.62 106.93 198 107.89 198.38C108.85 198.76 109.67 199.34 110.35 200.12C111.05 200.9 111.4 201.95 111.4 203.27C111.4 204.37 111.1 205.38 110.5 206.3C109.9 207.2 108.99 207.92 107.77 208.46C106.55 208.98 105.05 209.24 103.27 209.24ZM129.733 201.14C129.733 201.36 129.713 201.65 129.673 202.01H116.773C116.953 203.41 117.563 204.54 118.603 205.4C119.663 206.24 120.973 206.66 122.533 206.66C124.433 206.66 125.963 206.02 127.123 204.74L128.713 206.6C127.993 207.44 127.093 208.08 126.013 208.52C124.953 208.96 123.763 209.18 122.443 209.18C120.763 209.18 119.273 208.84 117.973 208.16C116.673 207.46 115.663 206.49 114.943 205.25C114.243 204.01 113.893 202.61 113.893 201.05C113.893 199.51 114.233 198.12 114.913 196.88C115.613 195.64 116.563 194.68 117.763 194C118.983 193.3 120.353 192.95 121.873 192.95C123.393 192.95 124.743 193.3 125.923 194C127.123 194.68 128.053 195.64 128.713 196.88C129.393 198.12 129.733 199.54 129.733 201.14ZM121.873 195.38C120.493 195.38 119.333 195.8 118.393 196.64C117.473 197.48 116.933 198.58 116.773 199.94H126.973C126.813 198.6 126.263 197.51 125.323 196.67C124.403 195.81 123.253 195.38 121.873 195.38ZM148.102 201.14C148.102 201.36 148.082 201.65 148.042 202.01H135.142C135.322 203.41 135.932 204.54 136.972 205.4C138.032 206.24 139.342 206.66 140.902 206.66C142.802 206.66 144.332 206.02 145.492 204.74L147.082 206.6C146.362 207.44 145.462 208.08 144.382 208.52C143.322 208.96 142.132 209.18 140.812 209.18C139.132 209.18 137.642 208.84 136.342 208.16C135.042 207.46 134.032 206.49 133.312 205.25C132.612 204.01 132.262 202.61 132.262 201.05C132.262 199.51 132.602 198.12 133.282 196.88C133.982 195.64 134.932 194.68 136.132 194C137.352 193.3 138.722 192.95 140.242 192.95C141.762 192.95 143.112 193.3 144.292 194C145.492 194.68 146.422 195.64 147.082 196.88C147.762 198.12 148.102 199.54 148.102 201.14ZM140.242 195.38C138.862 195.38 137.702 195.8 136.762 196.64C135.842 197.48 135.302 198.58 135.142 199.94H145.342C145.182 198.6 144.632 197.51 143.692 196.67C142.772 195.81 141.622 195.38 140.242 195.38ZM165.948 192.95C168.148 192.95 169.828 193.49 170.988 194.57C172.168 195.65 172.758 197.26 172.758 199.4V209H170.028V206.9C169.548 207.64 168.858 208.21 167.958 208.61C167.078 208.99 166.028 209.18 164.808 209.18C163.028 209.18 161.598 208.75 160.518 207.89C159.458 207.03 158.928 205.9 158.928 204.5C158.928 203.1 159.438 201.98 160.458 201.14C161.478 200.28 163.098 199.85 165.318 199.85H169.878V199.28C169.878 198.04 169.518 197.09 168.798 196.43C168.078 195.77 167.018 195.44 165.618 195.44C164.678 195.44 163.758 195.6 162.858 195.92C161.958 196.22 161.198 196.63 160.578 197.15L159.378 194.99C160.198 194.33 161.178 193.83 162.318 193.49C163.458 193.13 164.668 192.95 165.948 192.95ZM165.288 206.96C166.388 206.96 167.338 206.72 168.138 206.24C168.938 205.74 169.518 205.04 169.878 204.14V201.92H165.438C162.998 201.92 161.778 202.74 161.778 204.38C161.778 205.18 162.088 205.81 162.708 206.27C163.328 206.73 164.188 206.96 165.288 206.96ZM178.087 186.74H180.967V209H178.087V186.74ZM186.466 186.74H189.346V209H186.466V186.74ZM211.842 208.07C211.422 208.43 210.902 208.71 210.282 208.91C209.662 209.09 209.022 209.18 208.362 209.18C206.762 209.18 205.522 208.75 204.642 207.89C203.762 207.03 203.322 205.8 203.322 204.2V195.47H200.622V193.1H203.322V189.62H206.202V193.1H210.762V195.47H206.202V204.08C206.202 204.94 206.412 205.6 206.832 206.06C207.272 206.52 207.892 206.75 208.692 206.75C209.572 206.75 210.322 206.5 210.942 206L211.842 208.07ZM223.814 192.95C225.834 192.95 227.434 193.54 228.614 194.72C229.814 195.88 230.414 197.59 230.414 199.85V209H227.534V200.18C227.534 198.64 227.164 197.48 226.424 196.7C225.684 195.92 224.624 195.53 223.244 195.53C221.684 195.53 220.454 195.99 219.554 196.91C218.654 197.81 218.204 199.11 218.204 200.81V209H215.324V186.74H218.204V195.35C218.804 194.59 219.584 194 220.544 193.58C221.524 193.16 222.614 192.95 223.814 192.95ZM250.202 201.14C250.202 201.36 250.182 201.65 250.142 202.01H237.242C237.422 203.41 238.032 204.54 239.072 205.4C240.132 206.24 241.442 206.66 243.002 206.66C244.902 206.66 246.432 206.02 247.592 204.74L249.182 206.6C248.462 207.44 247.562 208.08 246.482 208.52C245.422 208.96 244.232 209.18 242.912 209.18C241.232 209.18 239.742 208.84 238.442 208.16C237.142 207.46 236.132 206.49 235.412 205.25C234.712 204.01 234.362 202.61 234.362 201.05C234.362 199.51 234.702 198.12 235.382 196.88C236.082 195.64 237.032 194.68 238.232 194C239.452 193.3 240.822 192.95 242.342 192.95C243.862 192.95 245.212 193.3 246.392 194C247.592 194.68 248.522 195.64 249.182 196.88C249.862 198.12 250.202 199.54 250.202 201.14ZM242.342 195.38C240.962 195.38 239.802 195.8 238.862 196.64C237.942 197.48 237.402 198.58 237.242 199.94H247.442C247.282 198.6 246.732 197.51 245.792 196.67C244.872 195.81 243.722 195.38 242.342 195.38ZM101.32 227.61H94.12V225H111.49V227.61H104.29V246H101.32V227.61ZM122.827 229.95C124.847 229.95 126.447 230.54 127.627 231.72C128.827 232.88 129.427 234.59 129.427 236.85V246H126.547V237.18C126.547 235.64 126.177 234.48 125.437 233.7C124.697 232.92 123.637 232.53 122.257 232.53C120.697 232.53 119.467 232.99 118.567 233.91C117.667 234.81 117.217 236.11 117.217 237.81V246H114.337V223.74H117.217V232.35C117.817 231.59 118.597 231 119.557 230.58C120.537 230.16 121.627 229.95 122.827 229.95ZM137.517 232.77C138.017 231.85 138.757 231.15 139.737 230.67C140.717 230.19 141.907 229.95 143.307 229.95V232.74C143.147 232.72 142.927 232.71 142.647 232.71C141.087 232.71 139.857 233.18 138.957 234.12C138.077 235.04 137.637 236.36 137.637 238.08V246H134.757V230.1H137.517V232.77ZM161.08 238.14C161.08 238.36 161.06 238.65 161.02 239.01H148.12C148.3 240.41 148.91 241.54 149.95 242.4C151.01 243.24 152.32 243.66 153.88 243.66C155.78 243.66 157.31 243.02 158.47 241.74L160.06 243.6C159.34 244.44 158.44 245.08 157.36 245.52C156.3 245.96 155.11 246.18 153.79 246.18C152.11 246.18 150.62 245.84 149.32 245.16C148.02 244.46 147.01 243.49 146.29 242.25C145.59 241.01 145.24 239.61 145.24 238.05C145.24 236.51 145.58 235.12 146.26 233.88C146.96 232.64 147.91 231.68 149.11 231C150.33 230.3 151.7 229.95 153.22 229.95C154.74 229.95 156.09 230.3 157.27 231C158.47 231.68 159.4 232.64 160.06 233.88C160.74 235.12 161.08 236.54 161.08 238.14ZM153.22 232.38C151.84 232.38 150.68 232.8 149.74 233.64C148.82 234.48 148.28 235.58 148.12 236.94H158.32C158.16 235.6 157.61 234.51 156.67 233.67C155.75 232.81 154.6 232.38 153.22 232.38ZM170.43 229.95C172.63 229.95 174.31 230.49 175.47 231.57C176.65 232.65 177.24 234.26 177.24 236.4V246H174.51V243.9C174.03 244.64 173.34 245.21 172.44 245.61C171.56 245.99 170.51 246.18 169.29 246.18C167.51 246.18 166.08 245.75 165 244.89C163.94 244.03 163.41 242.9 163.41 241.5C163.41 240.1 163.92 238.98 164.94 238.14C165.96 237.28 167.58 236.85 169.8 236.85H174.36V236.28C174.36 235.04 174 234.09 173.28 233.43C172.56 232.77 171.5 232.44 170.1 232.44C169.16 232.44 168.24 232.6 167.34 232.92C166.44 233.22 165.68 233.63 165.06 234.15L163.86 231.99C164.68 231.33 165.66 230.83 166.8 230.49C167.94 230.13 169.15 229.95 170.43 229.95ZM169.77 243.96C170.87 243.96 171.82 243.72 172.62 243.24C173.42 242.74 174 242.04 174.36 241.14V238.92H169.92C167.48 238.92 166.26 239.74 166.26 241.38C166.26 242.18 166.57 242.81 167.19 243.27C167.81 243.73 168.67 243.96 169.77 243.96ZM197.658 223.74V246H194.898V243.48C194.258 244.36 193.448 245.03 192.468 245.49C191.488 245.95 190.408 246.18 189.228 246.18C187.688 246.18 186.308 245.84 185.088 245.16C183.868 244.48 182.908 243.53 182.208 242.31C181.528 241.07 181.188 239.65 181.188 238.05C181.188 236.45 181.528 235.04 182.208 233.82C182.908 232.6 183.868 231.65 185.088 230.97C186.308 230.29 187.688 229.95 189.228 229.95C190.368 229.95 191.418 230.17 192.378 230.61C193.338 231.03 194.138 231.66 194.778 232.5V223.74H197.658ZM189.468 243.66C190.468 243.66 191.378 243.43 192.198 242.97C193.018 242.49 193.658 241.83 194.118 240.99C194.578 240.13 194.808 239.15 194.808 238.05C194.808 236.95 194.578 235.98 194.118 235.14C193.658 234.28 193.018 233.62 192.198 233.16C191.378 232.7 190.468 232.47 189.468 232.47C188.448 232.47 187.528 232.7 186.708 233.16C185.908 233.62 185.268 234.28 184.788 235.14C184.328 235.98 184.098 236.95 184.098 238.05C184.098 239.15 184.328 240.13 184.788 240.99C185.268 241.83 185.908 242.49 186.708 242.97C187.528 243.43 188.448 243.66 189.468 243.66ZM207.667 246.18C206.367 246.18 205.117 246.01 203.917 245.67C202.717 245.31 201.777 244.86 201.097 244.32L202.297 242.04C202.997 242.54 203.847 242.94 204.847 243.24C205.847 243.54 206.857 243.69 207.877 243.69C210.397 243.69 211.657 242.97 211.657 241.53C211.657 241.05 211.487 240.67 211.147 240.39C210.807 240.11 210.377 239.91 209.857 239.79C209.357 239.65 208.637 239.5 207.697 239.34C206.417 239.14 205.367 238.91 204.547 238.65C203.747 238.39 203.057 237.95 202.477 237.33C201.897 236.71 201.607 235.84 201.607 234.72C201.607 233.28 202.207 232.13 203.407 231.27C204.607 230.39 206.217 229.95 208.237 229.95C209.297 229.95 210.357 230.08 211.417 230.34C212.477 230.6 213.347 230.95 214.027 231.39L212.797 233.67C211.497 232.83 209.967 232.41 208.207 232.41C206.987 232.41 206.057 232.61 205.417 233.01C204.777 233.41 204.457 233.94 204.457 234.6C204.457 235.12 204.637 235.53 204.997 235.83C205.357 236.13 205.797 236.35 206.317 236.49C206.857 236.63 207.607 236.79 208.567 236.97C209.847 237.19 210.877 237.43 211.657 237.69C212.457 237.93 213.137 238.35 213.697 238.95C214.257 239.55 214.537 240.39 214.537 241.47C214.537 242.91 213.917 244.06 212.677 244.92C211.457 245.76 209.787 246.18 207.667 246.18ZM231.983 229.95C234.183 229.95 235.863 230.49 237.023 231.57C238.203 232.65 238.793 234.26 238.793 236.4V246H236.063V243.9C235.583 244.64 234.893 245.21 233.993 245.61C233.113 245.99 232.063 246.18 230.843 246.18C229.063 246.18 227.633 245.75 226.553 244.89C225.493 244.03 224.963 242.9 224.963 241.5C224.963 240.1 225.473 238.98 226.493 238.14C227.513 237.28 229.133 236.85 231.353 236.85H235.913V236.28C235.913 235.04 235.553 234.09 234.833 233.43C234.113 232.77 233.053 232.44 231.653 232.44C230.713 232.44 229.793 232.6 228.893 232.92C227.993 233.22 227.233 233.63 226.613 234.15L225.413 231.99C226.233 231.33 227.213 230.83 228.353 230.49C229.493 230.13 230.703 229.95 231.983 229.95ZM231.323 243.96C232.423 243.96 233.373 243.72 234.173 243.24C234.973 242.74 235.553 242.04 235.913 241.14V238.92H231.473C229.033 238.92 227.813 239.74 227.813 241.38C227.813 242.18 228.123 242.81 228.743 243.27C229.363 243.73 230.223 243.96 231.323 243.96ZM252.613 229.95C254.633 229.95 256.233 230.54 257.413 231.72C258.613 232.88 259.213 234.59 259.213 236.85V246H256.333V237.18C256.333 235.64 255.963 234.48 255.223 233.7C254.483 232.92 253.423 232.53 252.043 232.53C250.483 232.53 249.253 232.99 248.353 233.91C247.453 234.81 247.003 236.11 247.003 237.81V246H244.123V230.1H246.883V232.5C247.463 231.68 248.243 231.05 249.223 230.61C250.223 230.17 251.353 229.95 252.613 229.95ZM279.63 223.74V246H276.87V243.48C276.23 244.36 275.42 245.03 274.44 245.49C273.46 245.95 272.38 246.18 271.2 246.18C269.66 246.18 268.28 245.84 267.06 245.16C265.84 244.48 264.88 243.53 264.18 242.31C263.5 241.07 263.16 239.65 263.16 238.05C263.16 236.45 263.5 235.04 264.18 233.82C264.88 232.6 265.84 231.65 267.06 230.97C268.28 230.29 269.66 229.95 271.2 229.95C272.34 229.95 273.39 230.17 274.35 230.61C275.31 231.03 276.11 231.66 276.75 232.5V223.74H279.63ZM271.44 243.66C272.44 243.66 273.35 243.43 274.17 242.97C274.99 242.49 275.63 241.83 276.09 240.99C276.55 240.13 276.78 239.15 276.78 238.05C276.78 236.95 276.55 235.98 276.09 235.14C275.63 234.28 274.99 233.62 274.17 233.16C273.35 232.7 272.44 232.47 271.44 232.47C270.42 232.47 269.5 232.7 268.68 233.16C267.88 233.62 267.24 234.28 266.76 235.14C266.3 235.98 266.07 236.95 266.07 238.05C266.07 239.15 266.3 240.13 266.76 240.99C267.24 241.83 267.88 242.49 268.68 242.97C269.5 243.43 270.42 243.66 271.44 243.66ZM111.73 260.74V283H108.97V280.48C108.33 281.36 107.52 282.03 106.54 282.49C105.56 282.95 104.48 283.18 103.3 283.18C101.76 283.18 100.38 282.84 99.16 282.16C97.94 281.48 96.98 280.53 96.28 279.31C95.6 278.07 95.26 276.65 95.26 275.05C95.26 273.45 95.6 272.04 96.28 270.82C96.98 269.6 97.94 268.65 99.16 267.97C100.38 267.29 101.76 266.95 103.3 266.95C104.44 266.95 105.49 267.17 106.45 267.61C107.41 268.03 108.21 268.66 108.85 269.5V260.74H111.73ZM103.54 280.66C104.54 280.66 105.45 280.43 106.27 279.97C107.09 279.49 107.73 278.83 108.19 277.99C108.65 277.13 108.88 276.15 108.88 275.05C108.88 273.95 108.65 272.98 108.19 272.14C107.73 271.28 107.09 270.62 106.27 270.16C105.45 269.7 104.54 269.47 103.54 269.47C102.52 269.47 101.6 269.7 100.78 270.16C99.98 270.62 99.34 271.28 98.86 272.14C98.4 272.98 98.17 273.95 98.17 275.05C98.17 276.15 98.4 277.13 98.86 277.99C99.34 278.83 99.98 279.49 100.78 279.97C101.6 280.43 102.52 280.66 103.54 280.66ZM117.179 267.1H120.059V283H117.179V267.1ZM118.619 264.04C118.059 264.04 117.589 263.86 117.209 263.5C116.849 263.14 116.669 262.7 116.669 262.18C116.669 261.66 116.849 261.22 117.209 260.86C117.589 260.48 118.059 260.29 118.619 260.29C119.179 260.29 119.639 260.47 119.999 260.83C120.379 261.17 120.569 261.6 120.569 262.12C120.569 262.66 120.379 263.12 119.999 263.5C119.639 263.86 119.179 264.04 118.619 264.04ZM130.118 283.18C128.818 283.18 127.568 283.01 126.368 282.67C125.168 282.31 124.228 281.86 123.548 281.32L124.748 279.04C125.448 279.54 126.298 279.94 127.298 280.24C128.298 280.54 129.308 280.69 130.328 280.69C132.848 280.69 134.108 279.97 134.108 278.53C134.108 278.05 133.938 277.67 133.598 277.39C133.258 277.11 132.828 276.91 132.308 276.79C131.808 276.65 131.088 276.5 130.148 276.34C128.868 276.14 127.818 275.91 126.998 275.65C126.198 275.39 125.508 274.95 124.928 274.33C124.348 273.71 124.058 272.84 124.058 271.72C124.058 270.28 124.658 269.13 125.858 268.27C127.058 267.39 128.668 266.95 130.688 266.95C131.748 266.95 132.808 267.08 133.868 267.34C134.928 267.6 135.798 267.95 136.478 268.39L135.248 270.67C133.948 269.83 132.418 269.41 130.658 269.41C129.438 269.41 128.508 269.61 127.868 270.01C127.228 270.41 126.908 270.94 126.908 271.6C126.908 272.12 127.088 272.53 127.448 272.83C127.808 273.13 128.248 273.35 128.768 273.49C129.308 273.63 130.058 273.79 131.018 273.97C132.298 274.19 133.328 274.43 134.108 274.69C134.908 274.93 135.588 275.35 136.148 275.95C136.708 276.55 136.988 277.39 136.988 278.47C136.988 279.91 136.368 281.06 135.128 281.92C133.908 282.76 132.238 283.18 130.118 283.18ZM147.517 283.18C145.897 283.18 144.447 282.83 143.167 282.13C141.907 281.43 140.917 280.47 140.197 279.25C139.477 278.01 139.117 276.61 139.117 275.05C139.117 273.49 139.477 272.1 140.197 270.88C140.917 269.64 141.907 268.68 143.167 268C144.447 267.3 145.897 266.95 147.517 266.95C148.957 266.95 150.237 267.24 151.357 267.82C152.497 268.4 153.377 269.24 153.997 270.34L151.807 271.75C151.307 270.99 150.687 270.42 149.947 270.04C149.207 269.66 148.387 269.47 147.487 269.47C146.447 269.47 145.507 269.7 144.667 270.16C143.847 270.62 143.197 271.28 142.717 272.14C142.257 272.98 142.027 273.95 142.027 275.05C142.027 276.17 142.257 277.16 142.717 278.02C143.197 278.86 143.847 279.51 144.667 279.97C145.507 280.43 146.447 280.66 147.487 280.66C148.387 280.66 149.207 280.47 149.947 280.09C150.687 279.71 151.307 279.14 151.807 278.38L153.997 279.76C153.377 280.86 152.497 281.71 151.357 282.31C150.237 282.89 148.957 283.18 147.517 283.18ZM172.546 267.1V283H169.816V280.6C169.236 281.42 168.466 282.06 167.506 282.52C166.566 282.96 165.536 283.18 164.416 283.18C162.296 283.18 160.626 282.6 159.406 281.44C158.186 280.26 157.576 278.53 157.576 276.25V267.1H160.456V275.92C160.456 277.46 160.826 278.63 161.566 279.43C162.306 280.21 163.366 280.6 164.746 280.6C166.266 280.6 167.466 280.14 168.346 279.22C169.226 278.3 169.666 277 169.666 275.32V267.1H172.546ZM182.589 283.18C181.289 283.18 180.039 283.01 178.839 282.67C177.639 282.31 176.699 281.86 176.019 281.32L177.219 279.04C177.919 279.54 178.769 279.94 179.769 280.24C180.769 280.54 181.779 280.69 182.799 280.69C185.319 280.69 186.579 279.97 186.579 278.53C186.579 278.05 186.409 277.67 186.069 277.39C185.729 277.11 185.299 276.91 184.779 276.79C184.279 276.65 183.559 276.5 182.619 276.34C181.339 276.14 180.289 275.91 179.469 275.65C178.669 275.39 177.979 274.95 177.399 274.33C176.819 273.71 176.529 272.84 176.529 271.72C176.529 270.28 177.129 269.13 178.329 268.27C179.529 267.39 181.139 266.95 183.159 266.95C184.219 266.95 185.279 267.08 186.339 267.34C187.399 267.6 188.269 267.95 188.949 268.39L187.719 270.67C186.419 269.83 184.889 269.41 183.129 269.41C181.909 269.41 180.979 269.61 180.339 270.01C179.699 270.41 179.379 270.94 179.379 271.6C179.379 272.12 179.559 272.53 179.919 272.83C180.279 273.13 180.719 273.35 181.239 273.49C181.779 273.63 182.529 273.79 183.489 273.97C184.769 274.19 185.799 274.43 186.579 274.69C187.379 274.93 188.059 275.35 188.619 275.95C189.179 276.55 189.459 277.39 189.459 278.47C189.459 279.91 188.839 281.06 187.599 281.92C186.379 282.76 184.709 283.18 182.589 283.18ZM197.618 283.18C196.318 283.18 195.068 283.01 193.868 282.67C192.668 282.31 191.728 281.86 191.048 281.32L192.248 279.04C192.948 279.54 193.798 279.94 194.798 280.24C195.798 280.54 196.808 280.69 197.828 280.69C200.348 280.69 201.608 279.97 201.608 278.53C201.608 278.05 201.438 277.67 201.098 277.39C200.758 277.11 200.328 276.91 199.808 276.79C199.308 276.65 198.588 276.5 197.648 276.34C196.368 276.14 195.318 275.91 194.498 275.65C193.698 275.39 193.008 274.95 192.428 274.33C191.848 273.71 191.558 272.84 191.558 271.72C191.558 270.28 192.158 269.13 193.358 268.27C194.558 267.39 196.168 266.95 198.188 266.95C199.248 266.95 200.308 267.08 201.368 267.34C202.428 267.6 203.298 267.95 203.978 268.39L202.748 270.67C201.448 269.83 199.918 269.41 198.158 269.41C196.938 269.41 196.008 269.61 195.368 270.01C194.728 270.41 194.408 270.94 194.408 271.6C194.408 272.12 194.588 272.53 194.948 272.83C195.308 273.13 195.748 273.35 196.268 273.49C196.808 273.63 197.558 273.79 198.518 273.97C199.798 274.19 200.828 274.43 201.608 274.69C202.408 274.93 203.088 275.35 203.648 275.95C204.208 276.55 204.488 277.39 204.488 278.47C204.488 279.91 203.868 281.06 202.628 281.92C201.408 282.76 199.738 283.18 197.618 283.18ZM208.087 267.1H210.967V283H208.087V267.1ZM209.527 264.04C208.967 264.04 208.497 263.86 208.117 263.5C207.757 263.14 207.577 262.7 207.577 262.18C207.577 261.66 207.757 261.22 208.117 260.86C208.497 260.48 208.967 260.29 209.527 260.29C210.087 260.29 210.547 260.47 210.907 260.83C211.287 261.17 211.477 261.6 211.477 262.12C211.477 262.66 211.287 263.12 210.907 263.5C210.547 263.86 210.087 264.04 209.527 264.04ZM223.276 283.18C221.696 283.18 220.276 282.83 219.016 282.13C217.756 281.43 216.766 280.47 216.046 279.25C215.346 278.01 214.996 276.61 214.996 275.05C214.996 273.49 215.346 272.1 216.046 270.88C216.766 269.64 217.756 268.68 219.016 268C220.276 267.3 221.696 266.95 223.276 266.95C224.856 266.95 226.266 267.3 227.506 268C228.766 268.68 229.746 269.64 230.446 270.88C231.166 272.1 231.526 273.49 231.526 275.05C231.526 276.61 231.166 278.01 230.446 279.25C229.746 280.47 228.766 281.43 227.506 282.13C226.266 282.83 224.856 283.18 223.276 283.18ZM223.276 280.66C224.296 280.66 225.206 280.43 226.006 279.97C226.826 279.49 227.466 278.83 227.926 277.99C228.386 277.13 228.616 276.15 228.616 275.05C228.616 273.95 228.386 272.98 227.926 272.14C227.466 271.28 226.826 270.62 226.006 270.16C225.206 269.7 224.296 269.47 223.276 269.47C222.256 269.47 221.336 269.7 220.516 270.16C219.716 270.62 219.076 271.28 218.596 272.14C218.136 272.98 217.906 273.95 217.906 275.05C217.906 276.15 218.136 277.13 218.596 277.99C219.076 278.83 219.716 279.49 220.516 279.97C221.336 280.43 222.256 280.66 223.276 280.66ZM243.999 266.95C246.019 266.95 247.619 267.54 248.799 268.72C249.999 269.88 250.599 271.59 250.599 273.85V283H247.719V274.18C247.719 272.64 247.349 271.48 246.609 270.7C245.869 269.92 244.809 269.53 243.429 269.53C241.869 269.53 240.639 269.99 239.739 270.91C238.839 271.81 238.389 273.11 238.389 274.81V283H235.509V267.1H238.269V269.5C238.849 268.68 239.629 268.05 240.609 267.61C241.609 267.17 242.739 266.95 243.999 266.95ZM270.796 283.18C269.216 283.18 267.796 282.83 266.536 282.13C265.276 281.43 264.286 280.47 263.566 279.25C262.866 278.01 262.516 276.61 262.516 275.05C262.516 273.49 262.866 272.1 263.566 270.88C264.286 269.64 265.276 268.68 266.536 268C267.796 267.3 269.216 266.95 270.796 266.95C272.376 266.95 273.786 267.3 275.026 268C276.286 268.68 277.266 269.64 277.966 270.88C278.686 272.1 279.046 273.49 279.046 275.05C279.046 276.61 278.686 278.01 277.966 279.25C277.266 280.47 276.286 281.43 275.026 282.13C273.786 282.83 272.376 283.18 270.796 283.18ZM270.796 280.66C271.816 280.66 272.726 280.43 273.526 279.97C274.346 279.49 274.986 278.83 275.446 277.99C275.906 277.13 276.136 276.15 276.136 275.05C276.136 273.95 275.906 272.98 275.446 272.14C274.986 271.28 274.346 270.62 273.526 270.16C272.726 269.7 271.816 269.47 270.796 269.47C269.776 269.47 268.856 269.7 268.036 270.16C267.236 270.62 266.596 271.28 266.116 272.14C265.656 272.98 265.426 273.95 265.426 275.05C265.426 276.15 265.656 277.13 266.116 277.99C266.596 278.83 267.236 279.49 268.036 279.97C268.856 280.43 269.776 280.66 270.796 280.66ZM291.519 266.95C293.539 266.95 295.139 267.54 296.319 268.72C297.519 269.88 298.119 271.59 298.119 273.85V283H295.239V274.18C295.239 272.64 294.869 271.48 294.129 270.7C293.389 269.92 292.329 269.53 290.949 269.53C289.389 269.53 288.159 269.99 287.259 270.91C286.359 271.81 285.909 273.11 285.909 274.81V283H283.029V267.1H285.789V269.5C286.369 268.68 287.149 268.05 288.129 267.61C289.129 267.17 290.259 266.95 291.519 266.95ZM320.445 282.07C320.025 282.43 319.505 282.71 318.885 282.91C318.265 283.09 317.625 283.18 316.965 283.18C315.365 283.18 314.125 282.75 313.245 281.89C312.365 281.03 311.925 279.8 311.925 278.2V269.47H309.225V267.1H311.925V263.62H314.805V267.1H319.365V269.47H314.805V278.08C314.805 278.94 315.015 279.6 315.435 280.06C315.875 280.52 316.495 280.75 317.295 280.75C318.175 280.75 318.925 280.5 319.545 280L320.445 282.07ZM332.417 266.95C334.437 266.95 336.037 267.54 337.217 268.72C338.417 269.88 339.017 271.59 339.017 273.85V283H336.137V274.18C336.137 272.64 335.767 271.48 335.027 270.7C334.287 269.92 333.227 269.53 331.847 269.53C330.287 269.53 329.057 269.99 328.157 270.91C327.257 271.81 326.807 273.11 326.807 274.81V283H323.927V260.74H326.807V269.35C327.407 268.59 328.187 268 329.147 267.58C330.127 267.16 331.217 266.95 332.417 266.95ZM344.347 267.1H347.227V283H344.347V267.1ZM345.787 264.04C345.227 264.04 344.757 263.86 344.377 263.5C344.017 263.14 343.837 262.7 343.837 262.18C343.837 261.66 344.017 261.22 344.377 260.86C344.757 260.48 345.227 260.29 345.787 260.29C346.347 260.29 346.807 260.47 347.167 260.83C347.547 261.17 347.737 261.6 347.737 262.12C347.737 262.66 347.547 263.12 347.167 263.5C346.807 263.86 346.347 264.04 345.787 264.04ZM357.286 283.18C355.986 283.18 354.736 283.01 353.536 282.67C352.336 282.31 351.396 281.86 350.716 281.32L351.916 279.04C352.616 279.54 353.466 279.94 354.466 280.24C355.466 280.54 356.476 280.69 357.496 280.69C360.016 280.69 361.276 279.97 361.276 278.53C361.276 278.05 361.106 277.67 360.766 277.39C360.426 277.11 359.996 276.91 359.476 276.79C358.976 276.65 358.256 276.5 357.316 276.34C356.036 276.14 354.986 275.91 354.166 275.65C353.366 275.39 352.676 274.95 352.096 274.33C351.516 273.71 351.226 272.84 351.226 271.72C351.226 270.28 351.826 269.13 353.026 268.27C354.226 267.39 355.836 266.95 357.856 266.95C358.916 266.95 359.976 267.08 361.036 267.34C362.096 267.6 362.966 267.95 363.646 268.39L362.416 270.67C361.116 269.83 359.586 269.41 357.826 269.41C356.606 269.41 355.676 269.61 355.036 270.01C354.396 270.41 354.076 270.94 354.076 271.6C354.076 272.12 354.256 272.53 354.616 272.83C354.976 273.13 355.416 273.35 355.936 273.49C356.476 273.63 357.226 273.79 358.186 273.97C359.466 274.19 360.496 274.43 361.276 274.69C362.076 274.93 362.756 275.35 363.316 275.95C363.876 276.55 364.156 277.39 364.156 278.47C364.156 279.91 363.536 281.06 362.296 281.92C361.076 282.76 359.406 283.18 357.286 283.18ZM102.55 299.93C100.83 299.93 99.97 300.86 99.97 302.72V304.1H104.59V306.47H100.03V320H97.15V306.47H94.45V304.1H97.15V302.69C97.15 301.11 97.61 299.86 98.53 298.94C99.45 298.02 100.74 297.56 102.4 297.56C103.04 297.56 103.64 297.64 104.2 297.8C104.76 297.96 105.24 298.19 105.64 298.49L104.77 300.68C104.11 300.18 103.37 299.93 102.55 299.93ZM113.882 320.18C112.302 320.18 110.882 319.83 109.622 319.13C108.362 318.43 107.372 317.47 106.652 316.25C105.952 315.01 105.602 313.61 105.602 312.05C105.602 310.49 105.952 309.1 106.652 307.88C107.372 306.64 108.362 305.68 109.622 305C110.882 304.3 112.302 303.95 113.882 303.95C115.462 303.95 116.872 304.3 118.112 305C119.372 305.68 120.352 306.64 121.052 307.88C121.772 309.1 122.132 310.49 122.132 312.05C122.132 313.61 121.772 315.01 121.052 316.25C120.352 317.47 119.372 318.43 118.112 319.13C116.872 319.83 115.462 320.18 113.882 320.18ZM113.882 317.66C114.902 317.66 115.812 317.43 116.612 316.97C117.432 316.49 118.072 315.83 118.532 314.99C118.992 314.13 119.222 313.15 119.222 312.05C119.222 310.95 118.992 309.98 118.532 309.14C118.072 308.28 117.432 307.62 116.612 307.16C115.812 306.7 114.902 306.47 113.882 306.47C112.862 306.47 111.942 306.7 111.122 307.16C110.322 307.62 109.682 308.28 109.202 309.14C108.742 309.98 108.512 310.95 108.512 312.05C108.512 313.15 108.742 314.13 109.202 314.99C109.682 315.83 110.322 316.49 111.122 316.97C111.942 317.43 112.862 317.66 113.882 317.66ZM128.875 306.77C129.375 305.85 130.115 305.15 131.095 304.67C132.075 304.19 133.265 303.95 134.665 303.95V306.74C134.505 306.72 134.285 306.71 134.005 306.71C132.445 306.71 131.215 307.18 130.315 308.12C129.435 309.04 128.995 310.36 128.995 312.08V320H126.115V304.1H128.875V306.77ZM153.239 304.1V320H150.509V317.6C149.929 318.42 149.159 319.06 148.199 319.52C147.259 319.96 146.229 320.18 145.109 320.18C142.989 320.18 141.319 319.6 140.099 318.44C138.879 317.26 138.269 315.53 138.269 313.25V304.1H141.149V312.92C141.149 314.46 141.519 315.63 142.259 316.43C142.999 317.21 144.059 317.6 145.439 317.6C146.959 317.6 148.159 317.14 149.039 316.22C149.919 315.3 150.359 314 150.359 312.32V304.1H153.239ZM178.612 303.95C180.612 303.95 182.192 304.53 183.352 305.69C184.532 306.85 185.122 308.57 185.122 310.85V320H182.242V311.18C182.242 309.64 181.882 308.48 181.162 307.7C180.462 306.92 179.452 306.53 178.132 306.53C176.672 306.53 175.512 306.99 174.652 307.91C173.792 308.81 173.362 310.11 173.362 311.81V320H170.482V311.18C170.482 309.64 170.122 308.48 169.402 307.7C168.702 306.92 167.692 306.53 166.372 306.53C164.912 306.53 163.752 306.99 162.892 307.91C162.032 308.81 161.602 310.11 161.602 311.81V320H158.722V304.1H161.482V306.47C162.062 305.65 162.822 305.03 163.762 304.61C164.702 304.17 165.772 303.95 166.972 303.95C168.212 303.95 169.312 304.2 170.272 304.7C171.232 305.2 171.972 305.93 172.492 306.89C173.092 305.97 173.922 305.25 174.982 304.73C176.062 304.21 177.272 303.95 178.612 303.95Z" fill="#515151"/>
<defs>
<filter id="filter0_di" x="0" y="0" width="486" height="486" filterUnits="userSpaceOnUse" color-interpolation-filters="sRGB">
<feFlood flood-opacity="0" result="BackgroundImageFix"/>
<feColorMatrix in="SourceAlpha" type="matrix" values="0 0 0 0 0 0 0 0 0 0 0 0 0 0 0 0 0 0 127 0"/>
<feOffset dx="8" dy="8"/>
<feGaussianBlur stdDeviation="15"/>
<feColorMatrix type="matrix" values="0 0 0 0 0 0 0 0 0 0 0 0 0 0 0 0 0 0 0.25 0"/>
<feBlend mode="normal" in2="BackgroundImageFix" result="effect1_dropShadow"/>
<feBlend mode="normal" in="SourceGraphic" in2="effect1_dropShadow" result="shape"/>
<feColorMatrix in="SourceAlpha" type="matrix" values="0 0 0 0 0 0 0 0 0 0 0 0 0 0 0 0 0 0 127 0" result="hardAlpha"/>
<feOffset dx="-7" dy="-7"/>
<feGaussianBlur stdDeviation="8.5"/>
<feComposite in2="hardAlpha" operator="arithmetic" k2="-1" k3="1"/>
<feColorMatrix type="matrix" values="0 0 0 0 0 0 0 0 0 0 0 0 0 0 0 0 0 0 0.35 0"/>
<feBlend mode="normal" in2="shape" result="effect2_innerShadow"/>
</filter>
</defs>
</svg>
