<svg width="458" height="179" viewBox="0 0 458 179" fill="none" xmlns="http://www.w3.org/2000/svg">
<rect width="458" height="179" rx="40" fill="white"/>
<path d="M66.27 103.24C64.69 103.24 63.16 103 61.68 102.52C60.22 102.02 59.07 101.38 58.23 100.6L59.34 98.26C60.14 98.98 61.16 99.57 62.4 100.03C63.66 100.47 64.95 100.69 66.27 100.69C68.01 100.69 69.31 100.4 70.17 99.82C71.03 99.22 71.46 98.43 71.46 97.45C71.46 96.73 71.22 96.15 70.74 95.71C70.28 95.25 69.7 94.9 69 94.66C68.32 94.42 67.35 94.15 66.09 93.85C64.51 93.47 63.23 93.09 62.25 92.71C61.29 92.33 60.46 91.75 59.76 90.97C59.08 90.17 58.74 89.1 58.74 87.76C58.74 86.64 59.03 85.63 59.61 84.73C60.21 83.83 61.11 83.11 62.31 82.57C63.51 82.03 65 81.76 66.78 81.76C68.02 81.76 69.24 81.92 70.44 82.24C71.64 82.56 72.67 83.02 73.53 83.62L72.54 86.02C71.66 85.46 70.72 85.04 69.72 84.76C68.72 84.46 67.74 84.31 66.78 84.31C65.08 84.31 63.8 84.62 62.94 85.24C62.1 85.86 61.68 86.66 61.68 87.64C61.68 88.36 61.92 88.95 62.4 89.41C62.88 89.85 63.47 90.2 64.17 90.46C64.89 90.7 65.86 90.96 67.08 91.24C68.66 91.62 69.93 92 70.89 92.38C71.85 92.76 72.67 93.34 73.35 94.12C74.05 94.9 74.4 95.95 74.4 97.27C74.4 98.37 74.1 99.38 73.5 100.3C72.9 101.2 71.99 101.92 70.77 102.46C69.55 102.98 68.05 103.24 66.27 103.24ZM92.7328 95.14C92.7328 95.36 92.7128 95.65 92.6728 96.01H79.7728C79.9528 97.41 80.5628 98.54 81.6028 99.4C82.6628 100.24 83.9728 100.66 85.5328 100.66C87.4328 100.66 88.9628 100.02 90.1228 98.74L91.7128 100.6C90.9928 101.44 90.0928 102.08 89.0128 102.52C87.9528 102.96 86.7628 103.18 85.4428 103.18C83.7628 103.18 82.2728 102.84 80.9728 102.16C79.6728 101.46 78.6628 100.49 77.9428 99.25C77.2428 98.01 76.8928 96.61 76.8928 95.05C76.8928 93.51 77.2328 92.12 77.9128 90.88C78.6128 89.64 79.5628 88.68 80.7628 88C81.9828 87.3 83.3528 86.95 84.8728 86.95C86.3928 86.95 87.7428 87.3 88.9228 88C90.1228 88.68 91.0528 89.64 91.7128 90.88C92.3928 92.12 92.7328 93.54 92.7328 95.14ZM84.8728 89.38C83.4928 89.38 82.3328 89.8 81.3928 90.64C80.4728 91.48 79.9328 92.58 79.7728 93.94H89.9728C89.8128 92.6 89.2628 91.51 88.3228 90.67C87.4028 89.81 86.2528 89.38 84.8728 89.38ZM111.102 95.14C111.102 95.36 111.082 95.65 111.042 96.01H98.142C98.322 97.41 98.932 98.54 99.972 99.4C101.032 100.24 102.342 100.66 103.902 100.66C105.802 100.66 107.332 100.02 108.492 98.74L110.082 100.6C109.362 101.44 108.462 102.08 107.382 102.52C106.322 102.96 105.132 103.18 103.812 103.18C102.132 103.18 100.642 102.84 99.342 102.16C98.042 101.46 97.032 100.49 96.312 99.25C95.612 98.01 95.262 96.61 95.262 95.05C95.262 93.51 95.602 92.12 96.282 90.88C96.982 89.64 97.932 88.68 99.132 88C100.352 87.3 101.722 86.95 103.242 86.95C104.762 86.95 106.112 87.3 107.292 88C108.492 88.68 109.422 89.64 110.082 90.88C110.762 92.12 111.102 93.54 111.102 95.14ZM103.242 89.38C101.862 89.38 100.702 89.8 99.762 90.64C98.842 91.48 98.302 92.58 98.142 93.94H108.342C108.182 92.6 107.632 91.51 106.692 90.67C105.772 89.81 104.622 89.38 103.242 89.38ZM128.948 86.95C131.148 86.95 132.828 87.49 133.988 88.57C135.168 89.65 135.758 91.26 135.758 93.4V103H133.028V100.9C132.548 101.64 131.858 102.21 130.958 102.61C130.078 102.99 129.028 103.18 127.808 103.18C126.028 103.18 124.598 102.75 123.518 101.89C122.458 101.03 121.928 99.9 121.928 98.5C121.928 97.1 122.438 95.98 123.458 95.14C124.478 94.28 126.098 93.85 128.318 93.85H132.878V93.28C132.878 92.04 132.518 91.09 131.798 90.43C131.078 89.77 130.018 89.44 128.618 89.44C127.678 89.44 126.758 89.6 125.858 89.92C124.958 90.22 124.198 90.63 123.578 91.15L122.378 88.99C123.198 88.33 124.178 87.83 125.318 87.49C126.458 87.13 127.668 86.95 128.948 86.95ZM128.288 100.96C129.388 100.96 130.338 100.72 131.138 100.24C131.938 99.74 132.518 99.04 132.878 98.14V95.92H128.438C125.998 95.92 124.778 96.74 124.778 98.38C124.778 99.18 125.088 99.81 125.708 100.27C126.328 100.73 127.188 100.96 128.288 100.96ZM141.087 80.74H143.967V103H141.087V80.74ZM149.466 80.74H152.346V103H149.466V80.74ZM175.712 103.24C173.612 103.24 171.712 102.78 170.012 101.86C168.332 100.92 167.012 99.64 166.052 98.02C165.092 96.38 164.612 94.54 164.612 92.5C164.612 90.46 165.092 88.63 166.052 87.01C167.012 85.37 168.342 84.09 170.042 83.17C171.742 82.23 173.642 81.76 175.742 81.76C177.382 81.76 178.882 82.04 180.242 82.6C181.602 83.14 182.762 83.95 183.722 85.03L181.772 86.92C180.192 85.26 178.222 84.43 175.862 84.43C174.302 84.43 172.892 84.78 171.632 85.48C170.372 86.18 169.382 87.15 168.662 88.39C167.962 89.61 167.612 90.98 167.612 92.5C167.612 94.02 167.962 95.4 168.662 96.64C169.382 97.86 170.372 98.82 171.632 99.52C172.892 100.22 174.302 100.57 175.862 100.57C178.202 100.57 180.172 99.73 181.772 98.05L183.722 99.94C182.762 101.02 181.592 101.84 180.212 102.4C178.852 102.96 177.352 103.24 175.712 103.24ZM194.034 103.24C192.454 103.24 190.924 103 189.444 102.52C187.984 102.02 186.834 101.38 185.994 100.6L187.104 98.26C187.904 98.98 188.924 99.57 190.164 100.03C191.424 100.47 192.714 100.69 194.034 100.69C195.774 100.69 197.074 100.4 197.934 99.82C198.794 99.22 199.224 98.43 199.224 97.45C199.224 96.73 198.984 96.15 198.504 95.71C198.044 95.25 197.464 94.9 196.764 94.66C196.084 94.42 195.114 94.15 193.854 93.85C192.274 93.47 190.994 93.09 190.014 92.71C189.054 92.33 188.224 91.75 187.524 90.97C186.844 90.17 186.504 89.1 186.504 87.76C186.504 86.64 186.794 85.63 187.374 84.73C187.974 83.83 188.874 83.11 190.074 82.57C191.274 82.03 192.764 81.76 194.544 81.76C195.784 81.76 197.004 81.92 198.204 82.24C199.404 82.56 200.434 83.02 201.294 83.62L200.304 86.02C199.424 85.46 198.484 85.04 197.484 84.76C196.484 84.46 195.504 84.31 194.544 84.31C192.844 84.31 191.564 84.62 190.704 85.24C189.864 85.86 189.444 86.66 189.444 87.64C189.444 88.36 189.684 88.95 190.164 89.41C190.644 89.85 191.234 90.2 191.934 90.46C192.654 90.7 193.624 90.96 194.844 91.24C196.424 91.62 197.694 92 198.654 92.38C199.614 92.76 200.434 93.34 201.114 94.12C201.814 94.9 202.164 95.95 202.164 97.27C202.164 98.37 201.864 99.38 201.264 100.3C200.664 101.2 199.754 101.92 198.534 102.46C197.314 102.98 195.814 103.24 194.034 103.24ZM212.666 103.24C211.086 103.24 209.556 103 208.076 102.52C206.616 102.02 205.466 101.38 204.626 100.6L205.736 98.26C206.536 98.98 207.556 99.57 208.796 100.03C210.056 100.47 211.346 100.69 212.666 100.69C214.406 100.69 215.706 100.4 216.566 99.82C217.426 99.22 217.856 98.43 217.856 97.45C217.856 96.73 217.616 96.15 217.136 95.71C216.676 95.25 216.096 94.9 215.396 94.66C214.716 94.42 213.746 94.15 212.486 93.85C210.906 93.47 209.626 93.09 208.646 92.71C207.686 92.33 206.856 91.75 206.156 90.97C205.476 90.17 205.136 89.1 205.136 87.76C205.136 86.64 205.426 85.63 206.006 84.73C206.606 83.83 207.506 83.11 208.706 82.57C209.906 82.03 211.396 81.76 213.176 81.76C214.416 81.76 215.636 81.92 216.836 82.24C218.036 82.56 219.066 83.02 219.926 83.62L218.936 86.02C218.056 85.46 217.116 85.04 216.116 84.76C215.116 84.46 214.136 84.31 213.176 84.31C211.476 84.31 210.196 84.62 209.336 85.24C208.496 85.86 208.076 86.66 208.076 87.64C208.076 88.36 208.316 88.95 208.796 89.41C209.276 89.85 209.866 90.2 210.566 90.46C211.286 90.7 212.256 90.96 213.476 91.24C215.056 91.62 216.326 92 217.286 92.38C218.246 92.76 219.066 93.34 219.746 94.12C220.446 94.9 220.796 95.95 220.796 97.27C220.796 98.37 220.496 99.38 219.896 100.3C219.296 101.2 218.386 101.92 217.166 102.46C215.946 102.98 214.446 103.24 212.666 103.24ZM237.406 84.61H230.206V82H247.576V84.61H240.376V103H237.406V84.61ZM258.913 86.95C260.933 86.95 262.533 87.54 263.713 88.72C264.913 89.88 265.513 91.59 265.513 93.85V103H262.633V94.18C262.633 92.64 262.263 91.48 261.523 90.7C260.783 89.92 259.723 89.53 258.343 89.53C256.783 89.53 255.553 89.99 254.653 90.91C253.753 91.81 253.303 93.11 253.303 94.81V103H250.423V80.74H253.303V89.35C253.903 88.59 254.683 88 255.643 87.58C256.623 87.16 257.713 86.95 258.913 86.95ZM273.603 89.77C274.103 88.85 274.843 88.15 275.823 87.67C276.803 87.19 277.993 86.95 279.393 86.95V89.74C279.233 89.72 279.013 89.71 278.733 89.71C277.173 89.71 275.943 90.18 275.043 91.12C274.163 92.04 273.723 93.36 273.723 95.08V103H270.843V87.1H273.603V89.77ZM297.166 95.14C297.166 95.36 297.146 95.65 297.106 96.01H284.206C284.386 97.41 284.996 98.54 286.036 99.4C287.096 100.24 288.406 100.66 289.966 100.66C291.866 100.66 293.396 100.02 294.556 98.74L296.146 100.6C295.426 101.44 294.526 102.08 293.446 102.52C292.386 102.96 291.196 103.18 289.876 103.18C288.196 103.18 286.706 102.84 285.406 102.16C284.106 101.46 283.096 100.49 282.376 99.25C281.676 98.01 281.326 96.61 281.326 95.05C281.326 93.51 281.666 92.12 282.346 90.88C283.046 89.64 283.996 88.68 285.196 88C286.416 87.3 287.786 86.95 289.306 86.95C290.826 86.95 292.176 87.3 293.356 88C294.556 88.68 295.486 89.64 296.146 90.88C296.826 92.12 297.166 93.54 297.166 95.14ZM289.306 89.38C287.926 89.38 286.766 89.8 285.826 90.64C284.906 91.48 284.366 92.58 284.206 93.94H294.406C294.246 92.6 293.696 91.51 292.756 90.67C291.836 89.81 290.686 89.38 289.306 89.38ZM306.516 86.95C308.716 86.95 310.396 87.49 311.556 88.57C312.736 89.65 313.326 91.26 313.326 93.4V103H310.596V100.9C310.116 101.64 309.426 102.21 308.526 102.61C307.646 102.99 306.596 103.18 305.376 103.18C303.596 103.18 302.166 102.75 301.086 101.89C300.026 101.03 299.496 99.9 299.496 98.5C299.496 97.1 300.006 95.98 301.026 95.14C302.046 94.28 303.666 93.85 305.886 93.85H310.446V93.28C310.446 92.04 310.086 91.09 309.366 90.43C308.646 89.77 307.586 89.44 306.186 89.44C305.246 89.44 304.326 89.6 303.426 89.92C302.526 90.22 301.766 90.63 301.146 91.15L299.946 88.99C300.766 88.33 301.746 87.83 302.886 87.49C304.026 87.13 305.236 86.95 306.516 86.95ZM305.856 100.96C306.956 100.96 307.906 100.72 308.706 100.24C309.506 99.74 310.086 99.04 310.446 98.14V95.92H306.006C303.566 95.92 302.346 96.74 302.346 98.38C302.346 99.18 302.656 99.81 303.276 100.27C303.896 100.73 304.756 100.96 305.856 100.96ZM333.744 80.74V103H330.984V100.48C330.344 101.36 329.534 102.03 328.554 102.49C327.574 102.95 326.494 103.18 325.314 103.18C323.774 103.18 322.394 102.84 321.174 102.16C319.954 101.48 318.994 100.53 318.294 99.31C317.614 98.07 317.274 96.65 317.274 95.05C317.274 93.45 317.614 92.04 318.294 90.82C318.994 89.6 319.954 88.65 321.174 87.97C322.394 87.29 323.774 86.95 325.314 86.95C326.454 86.95 327.504 87.17 328.464 87.61C329.424 88.03 330.224 88.66 330.864 89.5V80.74H333.744ZM325.554 100.66C326.554 100.66 327.464 100.43 328.284 99.97C329.104 99.49 329.744 98.83 330.204 97.99C330.664 97.13 330.894 96.15 330.894 95.05C330.894 93.95 330.664 92.98 330.204 92.14C329.744 91.28 329.104 90.62 328.284 90.16C327.464 89.7 326.554 89.47 325.554 89.47C324.534 89.47 323.614 89.7 322.794 90.16C321.994 90.62 321.354 91.28 320.874 92.14C320.414 92.98 320.184 93.95 320.184 95.05C320.184 96.15 320.414 97.13 320.874 97.99C321.354 98.83 321.994 99.49 322.794 99.97C323.614 100.43 324.534 100.66 325.554 100.66ZM343.753 103.18C342.453 103.18 341.203 103.01 340.003 102.67C338.803 102.31 337.863 101.86 337.183 101.32L338.383 99.04C339.083 99.54 339.933 99.94 340.933 100.24C341.933 100.54 342.943 100.69 343.963 100.69C346.483 100.69 347.743 99.97 347.743 98.53C347.743 98.05 347.573 97.67 347.233 97.39C346.893 97.11 346.463 96.91 345.943 96.79C345.443 96.65 344.723 96.5 343.783 96.34C342.503 96.14 341.453 95.91 340.633 95.65C339.833 95.39 339.143 94.95 338.563 94.33C337.983 93.71 337.693 92.84 337.693 91.72C337.693 90.28 338.293 89.13 339.493 88.27C340.693 87.39 342.303 86.95 344.323 86.95C345.383 86.95 346.443 87.08 347.503 87.34C348.563 87.6 349.433 87.95 350.113 88.39L348.883 90.67C347.583 89.83 346.053 89.41 344.293 89.41C343.073 89.41 342.143 89.61 341.503 90.01C340.863 90.41 340.543 90.94 340.543 91.6C340.543 92.12 340.723 92.53 341.083 92.83C341.443 93.13 341.883 93.35 342.403 93.49C342.943 93.63 343.693 93.79 344.653 93.97C345.933 94.19 346.963 94.43 347.743 94.69C348.543 94.93 349.223 95.35 349.783 95.95C350.343 96.55 350.623 97.39 350.623 98.47C350.623 99.91 350.003 101.06 348.763 101.92C347.543 102.76 345.873 103.18 343.753 103.18Z" fill="black"/>
</svg>
