<svg width="1366" height="1106" viewBox="0 0 1366 1106" fill="none" xmlns="http://www.w3.org/2000/svg">
<rect width="1366" height="1106" fill="url(#paint0_linear)"/>
<rect x="114" y="333" width="1140" height="552" rx="40" fill="white"/>
<path d="M130.104 73.24H115.256V66.2H153.272V73.24H138.424V111H130.104V73.24ZM170.608 111.448C167.152 111.448 164.037 110.701 161.264 109.208C158.491 107.715 156.315 105.645 154.736 103C153.2 100.312 152.432 97.2827 152.432 93.912C152.432 90.5413 153.2 87.5333 154.736 84.888C156.315 82.2427 158.491 80.1733 161.264 78.68C164.037 77.1867 167.152 76.44 170.608 76.44C174.107 76.44 177.243 77.1867 180.016 78.68C182.789 80.1733 184.944 82.2427 186.48 84.888C188.059 87.5333 188.848 90.5413 188.848 93.912C188.848 97.2827 188.059 100.312 186.48 103C184.944 105.645 182.789 107.715 180.016 109.208C177.243 110.701 174.107 111.448 170.608 111.448ZM170.608 104.6C173.552 104.6 175.984 103.619 177.904 101.656C179.824 99.6933 180.784 97.112 180.784 93.912C180.784 90.712 179.824 88.1307 177.904 86.168C175.984 84.2053 173.552 83.224 170.608 83.224C167.664 83.224 165.232 84.2053 163.312 86.168C161.435 88.1307 160.496 90.712 160.496 93.912C160.496 97.112 161.435 99.6933 163.312 101.656C165.232 103.619 167.664 104.6 170.608 104.6ZM215.442 76.44C218.77 76.44 221.735 77.1653 224.338 78.616C226.983 80.0667 229.053 82.1147 230.546 84.76C232.039 87.4053 232.786 90.456 232.786 93.912C232.786 97.368 232.039 100.44 230.546 103.128C229.053 105.773 226.983 107.821 224.338 109.272C221.735 110.723 218.77 111.448 215.442 111.448C210.834 111.448 207.186 109.912 204.498 106.84V123.416H196.498V76.824H204.114V81.304C205.437 79.6827 207.058 78.4667 208.978 77.656C210.941 76.8453 213.095 76.44 215.442 76.44ZM214.546 104.6C217.49 104.6 219.901 103.619 221.778 101.656C223.698 99.6933 224.658 97.112 224.658 93.912C224.658 90.712 223.698 88.1307 221.778 86.168C219.901 84.2053 217.49 83.224 214.546 83.224C212.626 83.224 210.898 83.672 209.362 84.568C207.826 85.4213 206.61 86.6587 205.714 88.28C204.818 89.9013 204.37 91.7787 204.37 93.912C204.37 96.0453 204.818 97.9227 205.714 99.544C206.61 101.165 207.826 102.424 209.362 103.32C210.898 104.173 212.626 104.6 214.546 104.6ZM240.373 76.824H248.373V111H240.373V76.824ZM244.405 71.192C242.954 71.192 241.738 70.744 240.757 69.848C239.776 68.9093 239.285 67.7573 239.285 66.392C239.285 65.0267 239.776 63.896 240.757 63C241.738 62.0613 242.954 61.592 244.405 61.592C245.856 61.592 247.072 62.04 248.053 62.936C249.034 63.7893 249.525 64.8773 249.525 66.2C249.525 67.608 249.034 68.8027 248.053 69.784C247.114 70.7227 245.898 71.192 244.405 71.192ZM274.553 111.448C271.012 111.448 267.833 110.701 265.017 109.208C262.201 107.715 260.004 105.645 258.425 103C256.846 100.312 256.057 97.2827 256.057 93.912C256.057 90.5413 256.846 87.5333 258.425 84.888C260.004 82.2427 262.18 80.1733 264.953 78.68C267.769 77.1867 270.969 76.44 274.553 76.44C277.924 76.44 280.868 77.1227 283.385 78.488C285.945 79.8533 287.865 81.816 289.145 84.376L283.001 87.96C282.02 86.3813 280.782 85.208 279.289 84.44C277.838 83.6293 276.238 83.224 274.489 83.224C271.502 83.224 269.028 84.2053 267.065 86.168C265.102 88.088 264.121 90.6693 264.121 93.912C264.121 97.1547 265.081 99.7573 267.001 101.72C268.964 103.64 271.46 104.6 274.489 104.6C276.238 104.6 277.838 104.216 279.289 103.448C280.782 102.637 282.02 101.443 283.001 99.864L289.145 103.448C287.822 106.008 285.881 107.992 283.321 109.4C280.804 110.765 277.881 111.448 274.553 111.448ZM316.308 87.064C314.857 87.064 313.62 86.5733 312.596 85.592C311.572 84.568 311.06 83.288 311.06 81.752C311.06 80.1733 311.551 78.8933 312.532 77.912C313.556 76.9307 314.815 76.44 316.308 76.44C317.801 76.44 319.039 76.9307 320.02 77.912C321.044 78.8933 321.556 80.1733 321.556 81.752C321.556 83.288 321.044 84.568 320.02 85.592C318.996 86.5733 317.759 87.064 316.308 87.064ZM316.308 111.448C314.857 111.448 313.62 110.957 312.596 109.976C311.572 108.952 311.06 107.672 311.06 106.136C311.06 104.557 311.551 103.277 312.532 102.296C313.556 101.315 314.815 100.824 316.308 100.824C317.801 100.824 319.039 101.315 320.02 102.296C321.044 103.277 321.556 104.557 321.556 106.136C321.556 107.672 321.044 108.952 320.02 109.976C318.996 110.957 317.759 111.448 316.308 111.448ZM368.565 111.64C364.042 111.64 359.946 110.659 356.277 108.696C352.65 106.691 349.791 103.939 347.701 100.44C345.653 96.9413 344.629 92.9947 344.629 88.6C344.629 84.2053 345.674 80.2587 347.765 76.76C349.855 73.2613 352.714 70.5307 356.341 68.568C360.01 66.5627 364.106 65.56 368.629 65.56C372.298 65.56 375.647 66.2 378.677 67.48C381.706 68.76 384.266 70.616 386.357 73.048L380.981 78.104C377.738 74.6053 373.749 72.856 369.013 72.856C365.941 72.856 363.189 73.5387 360.757 74.904C358.325 76.2267 356.426 78.0827 355.061 80.472C353.695 82.8613 353.013 85.5707 353.013 88.6C353.013 91.6293 353.695 94.3387 355.061 96.728C356.426 99.1173 358.325 100.995 360.757 102.36C363.189 103.683 365.941 104.344 369.013 104.344C373.749 104.344 377.738 102.573 380.981 99.032L386.357 104.152C384.266 106.584 381.685 108.44 378.613 109.72C375.583 111 372.234 111.64 368.565 111.64ZM407.967 111.64C404.511 111.64 401.161 111.149 397.919 110.168C394.719 109.187 392.18 107.885 390.303 106.264L393.183 99.8C395.017 101.251 397.257 102.445 399.903 103.384C402.591 104.28 405.279 104.728 407.967 104.728C411.295 104.728 413.769 104.195 415.391 103.128C417.055 102.061 417.887 100.653 417.887 98.904C417.887 97.624 417.417 96.5787 416.479 95.768C415.583 94.9147 414.431 94.2533 413.023 93.784C411.615 93.3147 409.695 92.7813 407.263 92.184C403.849 91.3733 401.076 90.5627 398.943 89.752C396.852 88.9413 395.039 87.6827 393.503 85.976C392.009 84.2267 391.263 81.88 391.263 78.936C391.263 76.4613 391.924 74.2213 393.247 72.216C394.612 70.168 396.639 68.5467 399.327 67.352C402.057 66.1573 405.385 65.56 409.311 65.56C412.041 65.56 414.729 65.9013 417.375 66.584C420.02 67.2667 422.303 68.248 424.222 69.528L421.599 75.992C419.636 74.84 417.588 73.9653 415.455 73.368C413.321 72.7707 411.252 72.472 409.247 72.472C405.961 72.472 403.508 73.0267 401.887 74.136C400.308 75.2453 399.519 76.7173 399.519 78.552C399.519 79.832 399.967 80.8773 400.863 81.688C401.801 82.4987 402.975 83.1387 404.383 83.608C405.791 84.0773 407.711 84.6107 410.143 85.208C413.471 85.976 416.201 86.7867 418.335 87.64C420.468 88.4507 422.281 89.7093 423.775 91.416C425.311 93.1227 426.079 95.4267 426.079 98.328C426.079 100.803 425.396 103.043 424.031 105.048C422.708 107.053 420.681 108.653 417.951 109.848C415.22 111.043 411.892 111.64 407.967 111.64ZM448.217 111.64C444.761 111.64 441.411 111.149 438.169 110.168C434.969 109.187 432.43 107.885 430.553 106.264L433.433 99.8C435.267 101.251 437.507 102.445 440.153 103.384C442.841 104.28 445.529 104.728 448.217 104.728C451.545 104.728 454.019 104.195 455.641 103.128C457.305 102.061 458.137 100.653 458.137 98.904C458.137 97.624 457.667 96.5787 456.729 95.768C455.833 94.9147 454.681 94.2533 453.273 93.784C451.865 93.3147 449.945 92.7813 447.513 92.184C444.099 91.3733 441.326 90.5627 439.193 89.752C437.102 88.9413 435.289 87.6827 433.753 85.976C432.259 84.2267 431.513 81.88 431.513 78.936C431.513 76.4613 432.174 74.2213 433.497 72.216C434.862 70.168 436.889 68.5467 439.577 67.352C442.307 66.1573 445.635 65.56 449.561 65.56C452.291 65.56 454.979 65.9013 457.625 66.584C460.27 67.2667 462.553 68.248 464.472 69.528L461.849 75.992C459.886 74.84 457.838 73.9653 455.705 73.368C453.571 72.7707 451.502 72.472 449.497 72.472C446.211 72.472 443.758 73.0267 442.137 74.136C440.558 75.2453 439.769 76.7173 439.769 78.552C439.769 79.832 440.217 80.8773 441.113 81.688C442.051 82.4987 443.225 83.1387 444.633 83.608C446.041 84.0773 447.961 84.6107 450.393 85.208C453.721 85.976 456.451 86.7867 458.585 87.64C460.718 88.4507 462.531 89.7093 464.025 91.416C465.561 93.1227 466.329 95.4267 466.329 98.328C466.329 100.803 465.646 103.043 464.281 105.048C462.958 107.053 460.931 108.653 458.201 109.848C455.47 111.043 452.142 111.64 448.217 111.64Z" fill="white"/>
<path d="M149.072 210.632H126.672L122.256 221H113.68L133.84 176.2H142.032L162.256 221H153.552L149.072 210.632ZM146.32 204.104L137.872 184.52L129.488 204.104H146.32ZM167.186 173.512H175.186V221H167.186V173.512ZM185.686 173.512H193.686V221H185.686V173.512ZM231.729 183.24H216.881V176.2H254.897V183.24H240.049V221H231.729V183.24ZM279.765 186.44C284.074 186.44 287.53 187.699 290.133 190.216C292.736 192.733 294.037 196.467 294.037 201.416V221H286.037V202.44C286.037 199.453 285.333 197.213 283.925 195.72C282.517 194.184 280.512 193.416 277.909 193.416C274.965 193.416 272.64 194.312 270.933 196.104C269.226 197.853 268.373 200.392 268.373 203.72V221H260.373V173.512H268.373V190.792C269.696 189.384 271.317 188.317 273.237 187.592C275.2 186.824 277.376 186.44 279.765 186.44ZM311.802 191.816C314.106 188.232 318.159 186.44 323.962 186.44V194.056C323.279 193.928 322.66 193.864 322.106 193.864C318.991 193.864 316.559 194.781 314.81 196.616C313.06 198.408 312.186 201.011 312.186 204.424V221H304.186V186.824H311.802V191.816ZM362.564 204.104C362.564 204.659 362.521 205.448 362.436 206.472H335.62C336.089 208.989 337.305 210.995 339.268 212.488C341.273 213.939 343.748 214.664 346.692 214.664C350.446 214.664 353.54 213.427 355.972 210.952L360.26 215.88C358.724 217.715 356.782 219.101 354.436 220.04C352.089 220.979 349.444 221.448 346.5 221.448C342.745 221.448 339.438 220.701 336.58 219.208C333.721 217.715 331.502 215.645 329.924 213C328.388 210.312 327.62 207.283 327.62 203.912C327.62 200.584 328.366 197.597 329.86 194.952C331.396 192.264 333.508 190.173 336.196 188.68C338.884 187.187 341.913 186.44 345.284 186.44C348.612 186.44 351.577 187.187 354.18 188.68C356.825 190.131 358.873 192.2 360.324 194.888C361.817 197.533 362.564 200.605 362.564 204.104ZM345.284 192.84C342.724 192.84 340.548 193.608 338.756 195.144C337.006 196.637 335.94 198.643 335.556 201.16H354.948C354.606 198.685 353.561 196.68 351.812 195.144C350.062 193.608 347.886 192.84 345.284 192.84ZM382.367 186.44C387.401 186.44 391.241 187.656 393.887 190.088C396.575 192.477 397.919 196.104 397.919 200.968V221H390.367V216.84C389.385 218.333 387.977 219.485 386.143 220.296C384.351 221.064 382.175 221.448 379.615 221.448C377.055 221.448 374.815 221.021 372.895 220.168C370.975 219.272 369.481 218.056 368.415 216.52C367.391 214.941 366.879 213.171 366.879 211.208C366.879 208.136 368.009 205.683 370.271 203.848C372.575 201.971 376.18 201.032 381.087 201.032H389.919V200.52C389.919 198.131 389.193 196.296 387.743 195.016C386.335 193.736 384.223 193.096 381.407 193.096C379.487 193.096 377.588 193.395 375.711 193.992C373.876 194.589 372.319 195.421 371.039 196.488L367.903 190.664C369.695 189.299 371.849 188.253 374.367 187.528C376.884 186.803 379.551 186.44 382.367 186.44ZM381.279 215.624C383.284 215.624 385.055 215.176 386.591 214.28C388.169 213.341 389.279 212.019 389.919 210.312V206.344H381.663C377.055 206.344 374.751 207.859 374.751 210.888C374.751 212.339 375.327 213.491 376.479 214.344C377.631 215.197 379.231 215.624 381.279 215.624ZM441.97 173.512V221H434.29V216.584C432.967 218.205 431.325 219.421 429.362 220.232C427.442 221.043 425.309 221.448 422.962 221.448C419.677 221.448 416.711 220.723 414.066 219.272C411.463 217.821 409.415 215.773 407.922 213.128C406.429 210.44 405.682 207.368 405.682 203.912C405.682 200.456 406.429 197.405 407.922 194.76C409.415 192.115 411.463 190.067 414.066 188.616C416.711 187.165 419.677 186.44 422.962 186.44C425.223 186.44 427.293 186.824 429.17 187.592C431.047 188.36 432.647 189.512 433.97 191.048V173.512H441.97ZM423.922 214.6C425.842 214.6 427.57 214.173 429.106 213.32C430.642 212.424 431.858 211.165 432.754 209.544C433.65 207.923 434.098 206.045 434.098 203.912C434.098 201.779 433.65 199.901 432.754 198.28C431.858 196.659 430.642 195.421 429.106 194.568C427.57 193.672 425.842 193.224 423.922 193.224C422.002 193.224 420.274 193.672 418.738 194.568C417.202 195.421 415.986 196.659 415.09 198.28C414.194 199.901 413.746 201.779 413.746 203.912C413.746 206.045 414.194 207.923 415.09 209.544C415.986 211.165 417.202 212.424 418.738 213.32C420.274 214.173 422.002 214.6 423.922 214.6ZM462.996 221.448C460.222 221.448 457.513 221.085 454.868 220.36C452.222 219.635 450.11 218.717 448.532 217.608L451.604 211.528C453.14 212.552 454.974 213.384 457.108 214.024C459.284 214.621 461.417 214.92 463.508 214.92C468.286 214.92 470.676 213.661 470.676 211.144C470.676 209.949 470.057 209.117 468.82 208.648C467.625 208.179 465.684 207.731 462.996 207.304C460.18 206.877 457.876 206.387 456.084 205.832C454.334 205.277 452.798 204.317 451.476 202.952C450.196 201.544 449.556 199.603 449.556 197.128C449.556 193.885 450.9 191.304 453.588 189.384C456.318 187.421 459.988 186.44 464.596 186.44C466.942 186.44 469.289 186.717 471.636 187.272C473.982 187.784 475.902 188.488 477.396 189.384L474.324 195.464C471.422 193.757 468.158 192.904 464.532 192.904C462.185 192.904 460.393 193.267 459.156 193.992C457.961 194.675 457.364 195.592 457.364 196.744C457.364 198.024 458.004 198.941 459.284 199.496C460.606 200.008 462.633 200.499 465.364 200.968C468.094 201.395 470.334 201.885 472.084 202.44C473.833 202.995 475.326 203.933 476.564 205.256C477.844 206.579 478.484 208.456 478.484 210.888C478.484 214.088 477.097 216.648 474.324 218.568C471.55 220.488 467.774 221.448 462.996 221.448ZM505.621 197.064C504.17 197.064 502.933 196.573 501.909 195.592C500.885 194.568 500.373 193.288 500.373 191.752C500.373 190.173 500.863 188.893 501.845 187.912C502.869 186.931 504.127 186.44 505.621 186.44C507.114 186.44 508.351 186.931 509.333 187.912C510.357 188.893 510.869 190.173 510.869 191.752C510.869 193.288 510.357 194.568 509.333 195.592C508.309 196.573 507.071 197.064 505.621 197.064ZM505.621 221.448C504.17 221.448 502.933 220.957 501.909 219.976C500.885 218.952 500.373 217.672 500.373 216.136C500.373 214.557 500.863 213.277 501.845 212.296C502.869 211.315 504.127 210.824 505.621 210.824C507.114 210.824 508.351 211.315 509.333 212.296C510.357 213.277 510.869 214.557 510.869 216.136C510.869 217.672 510.357 218.952 509.333 219.976C508.309 220.957 507.071 221.448 505.621 221.448Z" fill="white"/>
<defs>
<linearGradient id="paint0_linear" x1="-1.02476e-05" y1="553.538" x2="1366" y2="553.538" gradientUnits="userSpaceOnUse">
<stop offset="0.28125" stop-color="#A969CE"/>
<stop offset="1" stop-color="#45AAD7"/>
</linearGradient>
</defs>
</svg>
