<svg width="360" height="65" viewBox="0 0 360 65" fill="none" xmlns="http://www.w3.org/2000/svg">
<rect x="2.5" y="2.5" width="355" height="60" rx="18.5" fill="#C4C4C4" fill-opacity="0.1" stroke="white" stroke-width="5"/>
<path d="M101.224 36.8H92.296L90.448 41H87.976L95.584 24.2H97.96L105.592 41H103.072L101.224 36.8ZM100.384 34.88L96.76 26.648L93.136 34.88H100.384ZM111.293 41.144C110.253 41.144 109.253 41.008 108.293 40.736C107.333 40.448 106.581 40.088 106.037 39.656L106.997 37.832C107.557 38.232 108.237 38.552 109.037 38.792C109.837 39.032 110.645 39.152 111.461 39.152C113.477 39.152 114.485 38.576 114.485 37.424C114.485 37.04 114.349 36.736 114.077 36.512C113.805 36.288 113.461 36.128 113.045 36.032C112.645 35.92 112.069 35.8 111.317 35.672C110.293 35.512 109.453 35.328 108.797 35.12C108.157 34.912 107.605 34.56 107.141 34.064C106.677 33.568 106.445 32.872 106.445 31.976C106.445 30.824 106.925 29.904 107.885 29.216C108.845 28.512 110.133 28.16 111.749 28.16C112.597 28.16 113.445 28.264 114.293 28.472C115.141 28.68 115.837 28.96 116.381 29.312L115.397 31.136C114.357 30.464 113.133 30.128 111.725 30.128C110.749 30.128 110.005 30.288 109.493 30.608C108.981 30.928 108.725 31.352 108.725 31.88C108.725 32.296 108.869 32.624 109.157 32.864C109.445 33.104 109.797 33.28 110.213 33.392C110.645 33.504 111.245 33.632 112.013 33.776C113.037 33.952 113.861 34.144 114.485 34.352C115.125 34.544 115.669 34.88 116.117 35.36C116.565 35.84 116.789 36.512 116.789 37.376C116.789 38.528 116.293 39.448 115.301 40.136C114.325 40.808 112.989 41.144 111.293 41.144ZM124.612 35.072L121.972 37.52V41H119.668V23.192H121.972V34.616L128.908 28.28H131.692L126.34 33.536L132.22 41H129.388L124.612 35.072ZM145.535 28.16C147.295 28.16 148.639 28.592 149.567 29.456C150.511 30.32 150.983 31.608 150.983 33.32V41H148.799V39.32C148.415 39.912 147.863 40.368 147.143 40.688C146.439 40.992 145.599 41.144 144.623 41.144C143.199 41.144 142.055 40.8 141.191 40.112C140.343 39.424 139.919 38.52 139.919 37.4C139.919 36.28 140.327 35.384 141.143 34.712C141.959 34.024 143.255 33.68 145.031 33.68H148.679V33.224C148.679 32.232 148.391 31.472 147.815 30.944C147.239 30.416 146.391 30.152 145.271 30.152C144.519 30.152 143.783 30.28 143.063 30.536C142.343 30.776 141.735 31.104 141.239 31.52L140.279 29.792C140.935 29.264 141.719 28.864 142.631 28.592C143.543 28.304 144.511 28.16 145.535 28.16ZM145.007 39.368C145.887 39.368 146.647 39.176 147.287 38.792C147.927 38.392 148.391 37.832 148.679 37.112V35.336H145.127C143.175 35.336 142.199 35.992 142.199 37.304C142.199 37.944 142.447 38.448 142.943 38.816C143.439 39.184 144.127 39.368 145.007 39.368ZM173.692 28.28V45.656H171.388V39.08C170.86 39.752 170.212 40.264 169.444 40.616C168.692 40.968 167.86 41.144 166.948 41.144C165.716 41.144 164.612 40.872 163.636 40.328C162.66 39.784 161.892 39.024 161.332 38.048C160.788 37.056 160.516 35.92 160.516 34.64C160.516 33.36 160.788 32.232 161.332 31.256C161.892 30.28 162.66 29.52 163.636 28.976C164.612 28.432 165.716 28.16 166.948 28.16C167.892 28.16 168.756 28.344 169.54 28.712C170.324 29.064 170.972 29.592 171.484 30.296V28.28H173.692ZM167.14 39.128C167.94 39.128 168.668 38.944 169.324 38.576C169.98 38.192 170.492 37.664 170.86 36.992C171.228 36.304 171.412 35.52 171.412 34.64C171.412 33.76 171.22 32.984 170.836 32.312C170.468 31.64 169.956 31.12 169.3 30.752C168.66 30.368 167.94 30.176 167.14 30.176C166.324 30.176 165.588 30.36 164.932 30.728C164.292 31.096 163.78 31.624 163.396 32.312C163.028 32.984 162.844 33.76 162.844 34.64C162.844 35.52 163.028 36.304 163.396 36.992C163.78 37.664 164.292 38.192 164.932 38.576C165.588 38.944 166.324 39.128 167.14 39.128ZM189.907 28.28V41H187.723V39.08C187.259 39.736 186.643 40.248 185.875 40.616C185.123 40.968 184.299 41.144 183.403 41.144C181.707 41.144 180.371 40.68 179.395 39.752C178.419 38.808 177.931 37.424 177.931 35.6V28.28H180.235V35.336C180.235 36.568 180.531 37.504 181.123 38.144C181.715 38.768 182.563 39.08 183.667 39.08C184.883 39.08 185.843 38.712 186.547 37.976C187.251 37.24 187.603 36.2 187.603 34.856V28.28H189.907ZM205.789 34.712C205.789 34.888 205.773 35.12 205.741 35.408H195.421C195.565 36.528 196.053 37.432 196.885 38.12C197.733 38.792 198.781 39.128 200.029 39.128C201.549 39.128 202.773 38.616 203.701 37.592L204.973 39.08C204.397 39.752 203.677 40.264 202.813 40.616C201.965 40.968 201.013 41.144 199.957 41.144C198.613 41.144 197.421 40.872 196.381 40.328C195.341 39.768 194.533 38.992 193.957 38C193.397 37.008 193.117 35.888 193.117 34.64C193.117 33.408 193.389 32.296 193.933 31.304C194.493 30.312 195.253 29.544 196.213 29C197.189 28.44 198.285 28.16 199.501 28.16C200.717 28.16 201.797 28.44 202.741 29C203.701 29.544 204.445 30.312 204.973 31.304C205.517 32.296 205.789 33.432 205.789 34.712ZM199.501 30.104C198.397 30.104 197.469 30.44 196.717 31.112C195.981 31.784 195.549 32.664 195.421 33.752H203.581C203.453 32.68 203.013 31.808 202.261 31.136C201.525 30.448 200.605 30.104 199.501 30.104ZM212.637 41.144C211.597 41.144 210.597 41.008 209.637 40.736C208.677 40.448 207.925 40.088 207.381 39.656L208.341 37.832C208.901 38.232 209.581 38.552 210.381 38.792C211.181 39.032 211.989 39.152 212.805 39.152C214.821 39.152 215.829 38.576 215.829 37.424C215.829 37.04 215.693 36.736 215.421 36.512C215.149 36.288 214.805 36.128 214.389 36.032C213.989 35.92 213.413 35.8 212.661 35.672C211.637 35.512 210.797 35.328 210.141 35.12C209.501 34.912 208.949 34.56 208.485 34.064C208.021 33.568 207.789 32.872 207.789 31.976C207.789 30.824 208.269 29.904 209.229 29.216C210.189 28.512 211.477 28.16 213.093 28.16C213.941 28.16 214.789 28.264 215.637 28.472C216.485 28.68 217.181 28.96 217.725 29.312L216.741 31.136C215.701 30.464 214.477 30.128 213.069 30.128C212.093 30.128 211.349 30.288 210.837 30.608C210.325 30.928 210.069 31.352 210.069 31.88C210.069 32.296 210.213 32.624 210.501 32.864C210.789 33.104 211.141 33.28 211.557 33.392C211.989 33.504 212.589 33.632 213.357 33.776C214.381 33.952 215.205 34.144 215.829 34.352C216.469 34.544 217.013 34.88 217.461 35.36C217.909 35.84 218.133 36.512 218.133 37.376C218.133 38.528 217.637 39.448 216.645 40.136C215.669 40.808 214.333 41.144 212.637 41.144ZM228.164 40.256C227.828 40.544 227.412 40.768 226.916 40.928C226.42 41.072 225.908 41.144 225.38 41.144C224.1 41.144 223.108 40.8 222.404 40.112C221.7 39.424 221.348 38.44 221.348 37.16V30.176H219.188V28.28H221.348V25.496H223.652V28.28H227.3V30.176H223.652V37.064C223.652 37.752 223.82 38.28 224.156 38.648C224.508 39.016 225.004 39.2 225.644 39.2C226.348 39.2 226.948 39 227.444 38.6L228.164 40.256ZM230.95 28.28H233.254V41H230.95V28.28ZM232.102 25.832C231.654 25.832 231.278 25.688 230.974 25.4C230.686 25.112 230.542 24.76 230.542 24.344C230.542 23.928 230.686 23.576 230.974 23.288C231.278 22.984 231.654 22.832 232.102 22.832C232.55 22.832 232.918 22.976 233.206 23.264C233.51 23.536 233.662 23.88 233.662 24.296C233.662 24.728 233.51 25.096 233.206 25.4C232.918 25.688 232.55 25.832 232.102 25.832ZM243.101 41.144C241.837 41.144 240.701 40.864 239.693 40.304C238.685 39.744 237.893 38.976 237.317 38C236.757 37.008 236.477 35.888 236.477 34.64C236.477 33.392 236.757 32.28 237.317 31.304C237.893 30.312 238.685 29.544 239.693 29C240.701 28.44 241.837 28.16 243.101 28.16C244.365 28.16 245.493 28.44 246.485 29C247.493 29.544 248.277 30.312 248.837 31.304C249.413 32.28 249.701 33.392 249.701 34.64C249.701 35.888 249.413 37.008 248.837 38C248.277 38.976 247.493 39.744 246.485 40.304C245.493 40.864 244.365 41.144 243.101 41.144ZM243.101 39.128C243.917 39.128 244.645 38.944 245.285 38.576C245.941 38.192 246.453 37.664 246.821 36.992C247.189 36.304 247.373 35.52 247.373 34.64C247.373 33.76 247.189 32.984 246.821 32.312C246.453 31.624 245.941 31.096 245.285 30.728C244.645 30.36 243.917 30.176 243.101 30.176C242.285 30.176 241.549 30.36 240.893 30.728C240.253 31.096 239.741 31.624 239.357 32.312C238.989 32.984 238.805 33.76 238.805 34.64C238.805 35.52 238.989 36.304 239.357 36.992C239.741 37.664 240.253 38.192 240.893 38.576C241.549 38.944 242.285 39.128 243.101 39.128ZM259.679 28.16C261.295 28.16 262.575 28.632 263.519 29.576C264.479 30.504 264.959 31.872 264.959 33.68V41H262.655V33.944C262.655 32.712 262.359 31.784 261.767 31.16C261.175 30.536 260.327 30.224 259.223 30.224C257.975 30.224 256.991 30.592 256.271 31.328C255.551 32.048 255.191 33.088 255.191 34.448V41H252.887V28.28H255.095V30.2C255.559 29.544 256.183 29.04 256.967 28.688C257.767 28.336 258.671 28.16 259.679 28.16Z" fill="white"/>
</svg>
