<svg width="200" height="200" viewBox="0 0 200 200" fill="none" xmlns="http://www.w3.org/2000/svg">
<circle cx="100" cy="100" r="100" fill="#F7FF9B"/>
<path d="M86.032 108.24C84.336 108.24 82.8 107.872 81.424 107.136C80.064 106.384 78.992 105.352 78.208 104.04C77.44 102.728 77.056 101.248 77.056 99.6C77.056 97.952 77.448 96.472 78.232 95.16C79.016 93.848 80.088 92.824 81.448 92.088C82.824 91.336 84.36 90.96 86.056 90.96C87.432 90.96 88.688 91.2 89.824 91.68C90.96 92.16 91.92 92.856 92.704 93.768L90.688 95.664C89.472 94.352 87.976 93.696 86.2 93.696C85.048 93.696 84.016 93.952 83.104 94.464C82.192 94.96 81.48 95.656 80.968 96.552C80.456 97.448 80.2 98.464 80.2 99.6C80.2 100.736 80.456 101.752 80.968 102.648C81.48 103.544 82.192 104.248 83.104 104.76C84.016 105.256 85.048 105.504 86.2 105.504C87.976 105.504 89.472 104.84 90.688 103.512L92.704 105.432C91.92 106.344 90.952 107.04 89.8 107.52C88.664 108 87.408 108.24 86.032 108.24ZM100.808 108.24C99.5118 108.24 98.2558 108.056 97.0398 107.688C95.8398 107.32 94.8878 106.832 94.1838 106.224L95.2638 103.8C95.9518 104.344 96.7918 104.792 97.7838 105.144C98.7918 105.48 99.7998 105.648 100.808 105.648C102.056 105.648 102.984 105.448 103.592 105.048C104.216 104.648 104.528 104.12 104.528 103.464C104.528 102.984 104.352 102.592 104 102.288C103.664 101.968 103.232 101.72 102.704 101.544C102.176 101.368 101.456 101.168 100.544 100.944C99.2638 100.64 98.2238 100.336 97.4238 100.032C96.6398 99.728 95.9598 99.256 95.3838 98.616C94.8238 97.96 94.5438 97.08 94.5438 95.976C94.5438 95.048 94.7918 94.208 95.2878 93.456C95.7998 92.688 96.5598 92.08 97.5678 91.632C98.5918 91.184 99.8398 90.96 101.312 90.96C102.336 90.96 103.344 91.088 104.336 91.344C105.328 91.6 106.184 91.968 106.904 92.448L105.92 94.872C105.184 94.44 104.416 94.112 103.616 93.888C102.816 93.664 102.04 93.552 101.288 93.552C100.056 93.552 99.1358 93.76 98.5278 94.176C97.9358 94.592 97.6398 95.144 97.6398 95.832C97.6398 96.312 97.8078 96.704 98.1438 97.008C98.4958 97.312 98.9358 97.552 99.4638 97.728C99.9918 97.904 100.712 98.104 101.624 98.328C102.872 98.616 103.896 98.92 104.696 99.24C105.496 99.544 106.176 100.016 106.736 100.656C107.312 101.296 107.6 102.16 107.6 103.248C107.6 104.176 107.344 105.016 106.832 105.768C106.336 106.52 105.576 107.12 104.552 107.568C103.528 108.016 102.28 108.24 100.808 108.24ZM115.902 108.24C114.606 108.24 113.35 108.056 112.134 107.688C110.934 107.32 109.982 106.832 109.278 106.224L110.358 103.8C111.046 104.344 111.886 104.792 112.878 105.144C113.886 105.48 114.894 105.648 115.902 105.648C117.15 105.648 118.078 105.448 118.686 105.048C119.31 104.648 119.622 104.12 119.622 103.464C119.622 102.984 119.446 102.592 119.094 102.288C118.758 101.968 118.326 101.72 117.798 101.544C117.27 101.368 116.55 101.168 115.638 100.944C114.358 100.64 113.318 100.336 112.518 100.032C111.734 99.728 111.054 99.256 110.478 98.616C109.918 97.96 109.638 97.08 109.638 95.976C109.638 95.048 109.886 94.208 110.382 93.456C110.894 92.688 111.654 92.08 112.662 91.632C113.686 91.184 114.934 90.96 116.406 90.96C117.43 90.96 118.438 91.088 119.43 91.344C120.422 91.6 121.278 91.968 121.997 92.448L121.014 94.872C120.278 94.44 119.51 94.112 118.71 93.888C117.91 93.664 117.134 93.552 116.382 93.552C115.15 93.552 114.23 93.76 113.622 94.176C113.03 94.592 112.734 95.144 112.734 95.832C112.734 96.312 112.902 96.704 113.238 97.008C113.59 97.312 114.03 97.552 114.558 97.728C115.086 97.904 115.806 98.104 116.718 98.328C117.966 98.616 118.99 98.92 119.79 99.24C120.59 99.544 121.27 100.016 121.83 100.656C122.406 101.296 122.694 102.16 122.694 103.248C122.694 104.176 122.438 105.016 121.926 105.768C121.43 106.52 120.67 107.12 119.646 107.568C118.622 108.016 117.374 108.24 115.902 108.24Z" fill="black"/>
</svg>
