<svg width="1366" height="1096" viewBox="0 0 1366 1096" fill="none" xmlns="http://www.w3.org/2000/svg">
<g clip-path="url(#clip0)">
<rect width="1366" height="1096" fill="url(#paint0_linear)"/>
<path d="M209.488 81.2L194.64 126H185.808L174.736 92.848L163.472 126H154.576L139.728 81.2H148.368L159.504 115.248L171.088 81.2H178.768L190.096 115.44L201.552 81.2H209.488ZM245.064 109.104C245.064 109.659 245.021 110.448 244.936 111.472H218.12C218.589 113.989 219.805 115.995 221.768 117.488C223.773 118.939 226.248 119.664 229.192 119.664C232.946 119.664 236.04 118.427 238.472 115.952L242.76 120.88C241.224 122.715 239.282 124.101 236.936 125.04C234.589 125.979 231.944 126.448 229 126.448C225.245 126.448 221.938 125.701 219.08 124.208C216.221 122.715 214.002 120.645 212.424 118C210.888 115.312 210.12 112.283 210.12 108.912C210.12 105.584 210.866 102.597 212.36 99.952C213.896 97.264 216.008 95.1733 218.696 93.68C221.384 92.1867 224.413 91.44 227.784 91.44C231.112 91.44 234.077 92.1867 236.68 93.68C239.325 95.1307 241.373 97.2 242.824 99.888C244.317 102.533 245.064 105.605 245.064 109.104ZM227.784 97.84C225.224 97.84 223.048 98.608 221.256 100.144C219.506 101.637 218.44 103.643 218.056 106.16H237.448C237.106 103.685 236.061 101.68 234.312 100.144C232.562 98.608 230.386 97.84 227.784 97.84ZM252.748 78.512H260.748V126H252.748V78.512ZM286.928 126.448C283.387 126.448 280.208 125.701 277.392 124.208C274.576 122.715 272.379 120.645 270.8 118C269.221 115.312 268.432 112.283 268.432 108.912C268.432 105.541 269.221 102.533 270.8 99.888C272.379 97.2427 274.555 95.1733 277.328 93.68C280.144 92.1867 283.344 91.44 286.928 91.44C290.299 91.44 293.243 92.1227 295.76 93.488C298.32 94.8533 300.24 96.816 301.52 99.376L295.376 102.96C294.395 101.381 293.157 100.208 291.664 99.44C290.213 98.6293 288.613 98.224 286.864 98.224C283.877 98.224 281.403 99.2053 279.44 101.168C277.477 103.088 276.496 105.669 276.496 108.912C276.496 112.155 277.456 114.757 279.376 116.72C281.339 118.64 283.835 119.6 286.864 119.6C288.613 119.6 290.213 119.216 291.664 118.448C293.157 117.637 294.395 116.443 295.376 114.864L301.52 118.448C300.197 121.008 298.256 122.992 295.696 124.4C293.179 125.765 290.256 126.448 286.928 126.448ZM323.296 126.448C319.84 126.448 316.725 125.701 313.952 124.208C311.178 122.715 309.002 120.645 307.424 118C305.888 115.312 305.12 112.283 305.12 108.912C305.12 105.541 305.888 102.533 307.424 99.888C309.002 97.2427 311.178 95.1733 313.952 93.68C316.725 92.1867 319.84 91.44 323.296 91.44C326.794 91.44 329.93 92.1867 332.704 93.68C335.477 95.1733 337.632 97.2427 339.168 99.888C340.746 102.533 341.536 105.541 341.536 108.912C341.536 112.283 340.746 115.312 339.168 118C337.632 120.645 335.477 122.715 332.704 124.208C329.93 125.701 326.794 126.448 323.296 126.448ZM323.296 119.6C326.24 119.6 328.672 118.619 330.592 116.656C332.512 114.693 333.472 112.112 333.472 108.912C333.472 105.712 332.512 103.131 330.592 101.168C328.672 99.2053 326.24 98.224 323.296 98.224C320.352 98.224 317.92 99.2053 316 101.168C314.122 103.131 313.184 105.712 313.184 108.912C313.184 112.112 314.122 114.693 316 116.656C317.92 118.619 320.352 119.6 323.296 119.6ZM392.322 91.44C396.631 91.44 400.044 92.6987 402.562 95.216C405.079 97.6907 406.338 101.424 406.338 106.416V126H398.338V107.44C398.338 104.453 397.676 102.213 396.354 100.72C395.031 99.184 393.132 98.416 390.658 98.416C387.97 98.416 385.815 99.312 384.194 101.104C382.572 102.853 381.762 105.371 381.762 108.656V126H373.762V107.44C373.762 104.453 373.1 102.213 371.778 100.72C370.455 99.184 368.556 98.416 366.082 98.416C363.351 98.416 361.175 99.2907 359.554 101.04C357.975 102.789 357.186 105.328 357.186 108.656V126H349.186V91.824H356.802V96.176C358.082 94.64 359.682 93.4667 361.602 92.656C363.522 91.8453 365.655 91.44 368.002 91.44C370.562 91.44 372.823 91.9307 374.786 92.912C376.791 93.8507 378.37 95.2587 379.522 97.136C380.93 95.344 382.743 93.9573 384.962 92.976C387.18 91.952 389.634 91.44 392.322 91.44ZM449.001 109.104C449.001 109.659 448.958 110.448 448.873 111.472H422.057C422.526 113.989 423.742 115.995 425.705 117.488C427.71 118.939 430.185 119.664 433.129 119.664C436.884 119.664 439.977 118.427 442.409 115.952L446.697 120.88C445.161 122.715 443.22 124.101 440.873 125.04C438.526 125.979 435.881 126.448 432.937 126.448C429.182 126.448 425.876 125.701 423.017 124.208C420.158 122.715 417.94 120.645 416.361 118C414.825 115.312 414.057 112.283 414.057 108.912C414.057 105.584 414.804 102.597 416.297 99.952C417.833 97.264 419.945 95.1733 422.633 93.68C425.321 92.1867 428.35 91.44 431.721 91.44C435.049 91.44 438.014 92.1867 440.617 93.68C443.262 95.1307 445.31 97.2 446.761 99.888C448.254 102.533 449.001 105.605 449.001 109.104ZM431.721 97.84C429.161 97.84 426.985 98.608 425.193 100.144C423.444 101.637 422.377 103.643 421.993 106.16H441.385C441.044 103.685 439.998 101.68 438.249 100.144C436.5 98.608 434.324 97.84 431.721 97.84ZM494.917 124.144C493.978 124.912 492.826 125.488 491.461 125.872C490.138 126.256 488.73 126.448 487.237 126.448C483.482 126.448 480.581 125.467 478.533 123.504C476.485 121.541 475.461 118.683 475.461 114.928V98.48H469.829V92.08H475.461V84.272H483.461V92.08H492.613V98.48H483.461V114.736C483.461 116.4 483.866 117.68 484.677 118.576C485.488 119.429 486.661 119.856 488.197 119.856C489.989 119.856 491.482 119.387 492.677 118.448L494.917 124.144ZM515.733 126.448C512.277 126.448 509.162 125.701 506.389 124.208C503.616 122.715 501.44 120.645 499.861 118C498.325 115.312 497.557 112.283 497.557 108.912C497.557 105.541 498.325 102.533 499.861 99.888C501.44 97.2427 503.616 95.1733 506.389 93.68C509.162 92.1867 512.277 91.44 515.733 91.44C519.232 91.44 522.368 92.1867 525.141 93.68C527.914 95.1733 530.069 97.2427 531.605 99.888C533.184 102.533 533.973 105.541 533.973 108.912C533.973 112.283 533.184 115.312 531.605 118C530.069 120.645 527.914 122.715 525.141 124.208C522.368 125.701 519.232 126.448 515.733 126.448ZM515.733 119.6C518.677 119.6 521.109 118.619 523.029 116.656C524.949 114.693 525.909 112.112 525.909 108.912C525.909 105.712 524.949 103.131 523.029 101.168C521.109 99.2053 518.677 98.224 515.733 98.224C512.789 98.224 510.357 99.2053 508.437 101.168C506.56 103.131 505.621 105.712 505.621 108.912C505.621 112.112 506.56 114.693 508.437 116.656C510.357 118.619 512.789 119.6 515.733 119.6ZM579.855 124.144C578.916 124.912 577.764 125.488 576.399 125.872C575.076 126.256 573.668 126.448 572.175 126.448C568.42 126.448 565.519 125.467 563.47 123.504C561.423 121.541 560.399 118.683 560.399 114.928V98.48H554.767V92.08H560.399V84.272H568.399V92.08H577.551V98.48H568.399V114.736C568.399 116.4 568.804 117.68 569.615 118.576C570.425 119.429 571.599 119.856 573.135 119.856C574.927 119.856 576.42 119.387 577.615 118.448L579.855 124.144ZM605.828 91.44C610.137 91.44 613.593 92.6987 616.196 95.216C618.798 97.7333 620.1 101.467 620.1 106.416V126H612.1V107.44C612.1 104.453 611.396 102.213 609.988 100.72C608.58 99.184 606.574 98.416 603.972 98.416C601.028 98.416 598.702 99.312 596.996 101.104C595.289 102.853 594.436 105.392 594.436 108.72V126H586.436V78.512H594.436V95.792C595.758 94.384 597.38 93.3173 599.3 92.592C601.262 91.824 603.438 91.44 605.828 91.44ZM662.689 109.104C662.689 109.659 662.646 110.448 662.561 111.472H635.745C636.214 113.989 637.43 115.995 639.393 117.488C641.398 118.939 643.873 119.664 646.817 119.664C650.571 119.664 653.665 118.427 656.097 115.952L660.385 120.88C658.849 122.715 656.907 124.101 654.561 125.04C652.214 125.979 649.569 126.448 646.625 126.448C642.87 126.448 639.563 125.701 636.705 124.208C633.846 122.715 631.627 120.645 630.049 118C628.513 115.312 627.745 112.283 627.745 108.912C627.745 105.584 628.491 102.597 629.985 99.952C631.521 97.264 633.633 95.1733 636.321 93.68C639.009 92.1867 642.038 91.44 645.409 91.44C648.737 91.44 651.702 92.1867 654.305 93.68C656.95 95.1307 658.998 97.2 660.449 99.888C661.942 102.533 662.689 105.605 662.689 109.104ZM645.409 97.84C642.849 97.84 640.673 98.608 638.881 100.144C637.131 101.637 636.065 103.643 635.681 106.16H655.073C654.731 103.685 653.686 101.68 651.937 100.144C650.187 98.608 648.011 97.84 645.409 97.84ZM157.136 162.528C153.765 162.528 152.08 164.363 152.08 168.032V170.08H161.488V176.48H152.336V204H144.336V176.48H138.704V170.08H144.336V167.904C144.336 164.235 145.403 161.355 147.536 159.264C149.669 157.131 152.677 156.064 156.56 156.064C159.632 156.064 162.043 156.683 163.792 157.92L161.552 163.936C160.187 162.997 158.715 162.528 157.136 162.528ZM181.733 204.448C178.277 204.448 175.162 203.701 172.389 202.208C169.616 200.715 167.44 198.645 165.861 196C164.325 193.312 163.557 190.283 163.557 186.912C163.557 183.541 164.325 180.533 165.861 177.888C167.44 175.243 169.616 173.173 172.389 171.68C175.162 170.187 178.277 169.44 181.733 169.44C185.232 169.44 188.368 170.187 191.141 171.68C193.914 173.173 196.069 175.243 197.605 177.888C199.184 180.533 199.973 183.541 199.973 186.912C199.973 190.283 199.184 193.312 197.605 196C196.069 198.645 193.914 200.715 191.141 202.208C188.368 203.701 185.232 204.448 181.733 204.448ZM181.733 197.6C184.677 197.6 187.109 196.619 189.029 194.656C190.949 192.693 191.909 190.112 191.909 186.912C191.909 183.712 190.949 181.131 189.029 179.168C187.109 177.205 184.677 176.224 181.733 176.224C178.789 176.224 176.357 177.205 174.437 179.168C172.56 181.131 171.621 183.712 171.621 186.912C171.621 190.112 172.56 192.693 174.437 194.656C176.357 196.619 178.789 197.6 181.733 197.6ZM215.239 174.816C217.543 171.232 221.596 169.44 227.399 169.44V177.056C226.716 176.928 226.098 176.864 225.543 176.864C222.428 176.864 219.996 177.781 218.247 179.616C216.498 181.408 215.623 184.011 215.623 187.424V204H207.623V169.824H215.239V174.816ZM267.586 169.824V204H259.97V199.648C258.69 201.184 257.09 202.379 255.17 203.232C253.25 204.043 251.181 204.448 248.962 204.448C244.397 204.448 240.791 203.189 238.146 200.672C235.543 198.112 234.242 194.336 234.242 189.344V169.824H242.242V188.256C242.242 191.328 242.925 193.632 244.29 195.168C245.698 196.661 247.682 197.408 250.242 197.408C253.101 197.408 255.362 196.533 257.026 194.784C258.733 192.992 259.586 190.432 259.586 187.104V169.824H267.586ZM321.197 169.44C325.506 169.44 328.919 170.699 331.437 173.216C333.954 175.691 335.213 179.424 335.213 184.416V204H327.213V185.44C327.213 182.453 326.551 180.213 325.229 178.72C323.906 177.184 322.007 176.416 319.533 176.416C316.845 176.416 314.69 177.312 313.069 179.104C311.447 180.853 310.637 183.371 310.637 186.656V204H302.637V185.44C302.637 182.453 301.975 180.213 300.653 178.72C299.33 177.184 297.431 176.416 294.957 176.416C292.226 176.416 290.05 177.291 288.429 179.04C286.85 180.789 286.061 183.328 286.061 186.656V204H278.061V169.824H285.677V174.176C286.957 172.64 288.557 171.467 290.477 170.656C292.397 169.845 294.53 169.44 296.877 169.44C299.437 169.44 301.698 169.931 303.661 170.912C305.666 171.851 307.245 173.259 308.397 175.136C309.805 173.344 311.618 171.957 313.837 170.976C316.055 169.952 318.509 169.44 321.197 169.44Z" fill="white"/>
<path d="M1401 400.341C1279.55 444.321 966.726 523.776 687.082 489.755C337.526 447.229 216.953 344.729 -39 417.242" stroke="white" stroke-width="102"/>
</g>
<defs>
<linearGradient id="paint0_linear" x1="-1.02476e-05" y1="548.534" x2="1366" y2="548.534" gradientUnits="userSpaceOnUse">
<stop offset="0.28125" stop-color="#A969CE"/>
<stop offset="1" stop-color="#45AAD7"/>
</linearGradient>
<clipPath id="clip0">
<rect width="1366" height="1096" fill="white"/>
</clipPath>
</defs>
</svg>
