<svg width="486" height="486" viewBox="0 0 486 486" fill="none" xmlns="http://www.w3.org/2000/svg">
<g filter="url(#filter0_di)">
<rect x="22" y="22" width="426" height="426" rx="40" fill="white"/>
</g>
<path d="M193.15 99H196.15V117.39H207.52V120H193.15V99ZM217.147 120.18C215.567 120.18 214.147 119.83 212.887 119.13C211.627 118.43 210.637 117.47 209.917 116.25C209.217 115.01 208.867 113.61 208.867 112.05C208.867 110.49 209.217 109.1 209.917 107.88C210.637 106.64 211.627 105.68 212.887 105C214.147 104.3 215.567 103.95 217.147 103.95C218.727 103.95 220.137 104.3 221.377 105C222.637 105.68 223.617 106.64 224.317 107.88C225.037 109.1 225.397 110.49 225.397 112.05C225.397 113.61 225.037 115.01 224.317 116.25C223.617 117.47 222.637 118.43 221.377 119.13C220.137 119.83 218.727 120.18 217.147 120.18ZM217.147 117.66C218.167 117.66 219.077 117.43 219.877 116.97C220.697 116.49 221.337 115.83 221.797 114.99C222.257 114.13 222.487 113.15 222.487 112.05C222.487 110.95 222.257 109.98 221.797 109.14C221.337 108.28 220.697 107.62 219.877 107.16C219.077 106.7 218.167 106.47 217.147 106.47C216.127 106.47 215.207 106.7 214.387 107.16C213.587 107.62 212.947 108.28 212.467 109.14C212.007 109.98 211.777 110.95 211.777 112.05C211.777 113.15 212.007 114.13 212.467 114.99C212.947 115.83 213.587 116.49 214.387 116.97C215.207 117.43 216.127 117.66 217.147 117.66ZM244.59 104.1V117.84C244.59 120.62 243.9 122.67 242.52 123.99C241.14 125.33 239.08 126 236.34 126C234.84 126 233.41 125.79 232.05 125.37C230.69 124.97 229.59 124.39 228.75 123.63L230.13 121.41C230.87 122.05 231.78 122.55 232.86 122.91C233.96 123.29 235.09 123.48 236.25 123.48C238.11 123.48 239.48 123.04 240.36 122.16C241.26 121.28 241.71 119.94 241.71 118.14V116.88C241.03 117.7 240.19 118.32 239.19 118.74C238.21 119.14 237.14 119.34 235.98 119.34C234.46 119.34 233.08 119.02 231.84 118.38C230.62 117.72 229.66 116.81 228.96 115.65C228.26 114.47 227.91 113.13 227.91 111.63C227.91 110.13 228.26 108.8 228.96 107.64C229.66 106.46 230.62 105.55 231.84 104.91C233.08 104.27 234.46 103.95 235.98 103.95C237.18 103.95 238.29 104.17 239.31 104.61C240.35 105.05 241.2 105.7 241.86 106.56V104.1H244.59ZM236.31 116.82C237.35 116.82 238.28 116.6 239.1 116.16C239.94 115.72 240.59 115.11 241.05 114.33C241.53 113.53 241.77 112.63 241.77 111.63C241.77 110.09 241.26 108.85 240.24 107.91C239.22 106.95 237.91 106.47 236.31 106.47C234.69 106.47 233.37 106.95 232.35 107.91C231.33 108.85 230.82 110.09 230.82 111.63C230.82 112.63 231.05 113.53 231.51 114.33C231.99 115.11 232.64 115.72 233.46 116.16C234.3 116.6 235.25 116.82 236.31 116.82ZM250.093 104.1H252.973V120H250.093V104.1ZM251.533 101.04C250.973 101.04 250.503 100.86 250.123 100.5C249.763 100.14 249.583 99.7 249.583 99.18C249.583 98.66 249.763 98.22 250.123 97.86C250.503 97.48 250.973 97.29 251.533 97.29C252.093 97.29 252.553 97.47 252.913 97.83C253.293 98.17 253.483 98.6 253.483 99.12C253.483 99.66 253.293 100.12 252.913 100.5C252.553 100.86 252.093 101.04 251.533 101.04ZM266.962 103.95C268.982 103.95 270.582 104.54 271.762 105.72C272.962 106.88 273.562 108.59 273.562 110.85V120H270.682V111.18C270.682 109.64 270.312 108.48 269.572 107.7C268.832 106.92 267.772 106.53 266.392 106.53C264.832 106.53 263.602 106.99 262.702 107.91C261.802 108.81 261.352 110.11 261.352 111.81V120H258.472V104.1H261.232V106.5C261.812 105.68 262.592 105.05 263.572 104.61C264.572 104.17 265.702 103.95 266.962 103.95Z" fill="black"/>
<path d="M88.15 188H91.15V209H88.15V188ZM102.837 188.93C101.117 188.93 100.257 189.86 100.257 191.72V193.1H104.877V195.47H100.317V209H97.4371V195.47H94.7371V193.1H97.4371V191.69C97.4371 190.11 97.8971 188.86 98.8171 187.94C99.7371 187.02 101.027 186.56 102.687 186.56C103.327 186.56 103.927 186.64 104.487 186.8C105.047 186.96 105.527 187.19 105.927 187.49L105.057 189.68C104.397 189.18 103.657 188.93 102.837 188.93ZM129.72 193.1L122.01 210.59C121.33 212.21 120.53 213.35 119.61 214.01C118.71 214.67 117.62 215 116.34 215C115.56 215 114.8 214.87 114.06 214.61C113.34 214.37 112.74 214.01 112.26 213.53L113.49 211.37C114.31 212.15 115.26 212.54 116.34 212.54C117.04 212.54 117.62 212.35 118.08 211.97C118.56 211.61 118.99 210.98 119.37 210.08L119.88 208.97L112.86 193.1H115.86L121.41 205.82L126.9 193.1H129.72ZM138.778 209.18C137.198 209.18 135.778 208.83 134.518 208.13C133.258 207.43 132.268 206.47 131.548 205.25C130.848 204.01 130.498 202.61 130.498 201.05C130.498 199.49 130.848 198.1 131.548 196.88C132.268 195.64 133.258 194.68 134.518 194C135.778 193.3 137.198 192.95 138.778 192.95C140.358 192.95 141.768 193.3 143.008 194C144.268 194.68 145.248 195.64 145.948 196.88C146.668 198.1 147.028 199.49 147.028 201.05C147.028 202.61 146.668 204.01 145.948 205.25C145.248 206.47 144.268 207.43 143.008 208.13C141.768 208.83 140.358 209.18 138.778 209.18ZM138.778 206.66C139.798 206.66 140.708 206.43 141.508 205.97C142.328 205.49 142.968 204.83 143.428 203.99C143.888 203.13 144.118 202.15 144.118 201.05C144.118 199.95 143.888 198.98 143.428 198.14C142.968 197.28 142.328 196.62 141.508 196.16C140.708 195.7 139.798 195.47 138.778 195.47C137.758 195.47 136.838 195.7 136.018 196.16C135.218 196.62 134.578 197.28 134.098 198.14C133.638 198.98 133.408 199.95 133.408 201.05C133.408 202.15 133.638 203.13 134.098 203.99C134.578 204.83 135.218 205.49 136.018 205.97C136.838 206.43 137.758 206.66 138.778 206.66ZM165.831 193.1V209H163.101V206.6C162.521 207.42 161.751 208.06 160.791 208.52C159.851 208.96 158.821 209.18 157.701 209.18C155.581 209.18 153.911 208.6 152.691 207.44C151.471 206.26 150.861 204.53 150.861 202.25V193.1H153.741V201.92C153.741 203.46 154.111 204.63 154.851 205.43C155.591 206.21 156.651 206.6 158.031 206.6C159.551 206.6 160.751 206.14 161.631 205.22C162.511 204.3 162.951 203 162.951 201.32V193.1H165.831ZM185.161 192.95C187.361 192.95 189.041 193.49 190.201 194.57C191.381 195.65 191.971 197.26 191.971 199.4V209H189.241V206.9C188.761 207.64 188.071 208.21 187.171 208.61C186.291 208.99 185.241 209.18 184.021 209.18C182.241 209.18 180.811 208.75 179.731 207.89C178.671 207.03 178.141 205.9 178.141 204.5C178.141 203.1 178.651 201.98 179.671 201.14C180.691 200.28 182.311 199.85 184.531 199.85H189.091V199.28C189.091 198.04 188.731 197.09 188.011 196.43C187.291 195.77 186.231 195.44 184.831 195.44C183.891 195.44 182.971 195.6 182.071 195.92C181.171 196.22 180.411 196.63 179.791 197.15L178.591 194.99C179.411 194.33 180.391 193.83 181.531 193.49C182.671 193.13 183.881 192.95 185.161 192.95ZM184.501 206.96C185.601 206.96 186.551 206.72 187.351 206.24C188.151 205.74 188.731 205.04 189.091 204.14V201.92H184.651C182.211 201.92 180.991 202.74 180.991 204.38C180.991 205.18 181.301 205.81 181.921 206.27C182.541 206.73 183.401 206.96 184.501 206.96ZM200.06 195.77C200.56 194.85 201.3 194.15 202.28 193.67C203.26 193.19 204.45 192.95 205.85 192.95V195.74C205.69 195.72 205.47 195.71 205.19 195.71C203.63 195.71 202.4 196.18 201.5 197.12C200.62 198.04 200.18 199.36 200.18 201.08V209H197.3V193.1H200.06V195.77ZM223.623 201.14C223.623 201.36 223.603 201.65 223.563 202.01H210.663C210.843 203.41 211.453 204.54 212.493 205.4C213.553 206.24 214.863 206.66 216.423 206.66C218.323 206.66 219.853 206.02 221.013 204.74L222.603 206.6C221.883 207.44 220.983 208.08 219.903 208.52C218.843 208.96 217.653 209.18 216.333 209.18C214.653 209.18 213.163 208.84 211.863 208.16C210.563 207.46 209.553 206.49 208.833 205.25C208.133 204.01 207.783 202.61 207.783 201.05C207.783 199.51 208.123 198.12 208.803 196.88C209.503 195.64 210.453 194.68 211.653 194C212.873 193.3 214.243 192.95 215.763 192.95C217.283 192.95 218.633 193.3 219.813 194C221.013 194.68 221.943 195.64 222.603 196.88C223.283 198.12 223.623 199.54 223.623 201.14ZM215.763 195.38C214.383 195.38 213.223 195.8 212.283 196.64C211.363 197.48 210.823 198.58 210.663 199.94H220.863C220.703 198.6 220.153 197.51 219.213 196.67C218.293 195.81 217.143 195.38 215.763 195.38ZM241.469 192.95C243.669 192.95 245.349 193.49 246.509 194.57C247.689 195.65 248.279 197.26 248.279 199.4V209H245.549V206.9C245.069 207.64 244.379 208.21 243.479 208.61C242.599 208.99 241.549 209.18 240.329 209.18C238.549 209.18 237.119 208.75 236.039 207.89C234.979 207.03 234.449 205.9 234.449 204.5C234.449 203.1 234.959 201.98 235.979 201.14C236.999 200.28 238.619 199.85 240.839 199.85H245.399V199.28C245.399 198.04 245.039 197.09 244.319 196.43C243.599 195.77 242.539 195.44 241.139 195.44C240.199 195.44 239.279 195.6 238.379 195.92C237.479 196.22 236.719 196.63 236.099 197.15L234.899 194.99C235.719 194.33 236.699 193.83 237.839 193.49C238.979 193.13 240.189 192.95 241.469 192.95ZM240.809 206.96C241.909 206.96 242.859 206.72 243.659 206.24C244.459 205.74 245.039 205.04 245.399 204.14V201.92H240.959C238.519 201.92 237.299 202.74 237.299 204.38C237.299 205.18 237.609 205.81 238.229 206.27C238.849 206.73 239.709 206.96 240.809 206.96ZM270.156 192.95C272.176 192.95 273.776 193.54 274.956 194.72C276.156 195.88 276.756 197.59 276.756 199.85V209H273.876V200.18C273.876 198.64 273.506 197.48 272.766 196.7C272.026 195.92 270.966 195.53 269.586 195.53C268.026 195.53 266.796 195.99 265.896 196.91C264.996 197.81 264.546 199.11 264.546 200.81V209H261.666V193.1H264.426V195.5C265.006 194.68 265.786 194.05 266.766 193.61C267.766 193.17 268.896 192.95 270.156 192.95ZM296.543 201.14C296.543 201.36 296.523 201.65 296.483 202.01H283.583C283.763 203.41 284.373 204.54 285.413 205.4C286.473 206.24 287.783 206.66 289.343 206.66C291.243 206.66 292.773 206.02 293.933 204.74L295.523 206.6C294.803 207.44 293.903 208.08 292.823 208.52C291.763 208.96 290.573 209.18 289.253 209.18C287.573 209.18 286.083 208.84 284.783 208.16C283.483 207.46 282.473 206.49 281.753 205.25C281.053 204.01 280.703 202.61 280.703 201.05C280.703 199.51 281.043 198.12 281.723 196.88C282.423 195.64 283.373 194.68 284.573 194C285.793 193.3 287.163 192.95 288.683 192.95C290.203 192.95 291.553 193.3 292.733 194C293.933 194.68 294.863 195.64 295.523 196.88C296.203 198.12 296.543 199.54 296.543 201.14ZM288.683 195.38C287.303 195.38 286.143 195.8 285.203 196.64C284.283 197.48 283.743 198.58 283.583 199.94H293.783C293.623 198.6 293.073 197.51 292.133 196.67C291.213 195.81 290.063 195.38 288.683 195.38ZM324.31 193.1L318.37 209H315.61L311.02 196.94L306.37 209H303.61L297.7 193.1H300.43L305.05 205.76L309.85 193.1H312.28L316.99 205.82L321.73 193.1H324.31ZM102.55 230.1V246H99.82V243.6C99.24 244.42 98.47 245.06 97.51 245.52C96.57 245.96 95.54 246.18 94.42 246.18C92.3 246.18 90.63 245.6 89.41 244.44C88.19 243.26 87.58 241.53 87.58 239.25V230.1H90.46V238.92C90.46 240.46 90.83 241.63 91.57 242.43C92.31 243.21 93.37 243.6 94.75 243.6C96.27 243.6 97.47 243.14 98.35 242.22C99.23 241.3 99.67 240 99.67 238.32V230.1H102.55ZM112.593 246.18C111.293 246.18 110.043 246.01 108.843 245.67C107.643 245.31 106.703 244.86 106.023 244.32L107.223 242.04C107.923 242.54 108.773 242.94 109.773 243.24C110.773 243.54 111.783 243.69 112.803 243.69C115.323 243.69 116.583 242.97 116.583 241.53C116.583 241.05 116.413 240.67 116.073 240.39C115.733 240.11 115.303 239.91 114.783 239.79C114.283 239.65 113.563 239.5 112.623 239.34C111.343 239.14 110.293 238.91 109.473 238.65C108.673 238.39 107.983 237.95 107.403 237.33C106.823 236.71 106.533 235.84 106.533 234.72C106.533 233.28 107.133 232.13 108.333 231.27C109.533 230.39 111.143 229.95 113.163 229.95C114.223 229.95 115.283 230.08 116.343 230.34C117.403 230.6 118.273 230.95 118.953 231.39L117.723 233.67C116.423 232.83 114.893 232.41 113.133 232.41C111.913 232.41 110.983 232.61 110.343 233.01C109.703 233.41 109.383 233.94 109.383 234.6C109.383 235.12 109.563 235.53 109.923 235.83C110.283 236.13 110.723 236.35 111.243 236.49C111.783 236.63 112.533 236.79 113.493 236.97C114.773 237.19 115.803 237.43 116.583 237.69C117.383 237.93 118.063 238.35 118.623 238.95C119.183 239.55 119.463 240.39 119.463 241.47C119.463 242.91 118.843 244.06 117.603 244.92C116.383 245.76 114.713 246.18 112.593 246.18ZM137.432 238.14C137.432 238.36 137.412 238.65 137.372 239.01H124.472C124.652 240.41 125.262 241.54 126.302 242.4C127.362 243.24 128.672 243.66 130.232 243.66C132.132 243.66 133.662 243.02 134.822 241.74L136.412 243.6C135.692 244.44 134.792 245.08 133.712 245.52C132.652 245.96 131.462 246.18 130.142 246.18C128.462 246.18 126.972 245.84 125.672 245.16C124.372 244.46 123.362 243.49 122.642 242.25C121.942 241.01 121.592 239.61 121.592 238.05C121.592 236.51 121.932 235.12 122.612 233.88C123.312 232.64 124.262 231.68 125.462 231C126.682 230.3 128.052 229.95 129.572 229.95C131.092 229.95 132.442 230.3 133.622 231C134.822 231.68 135.752 232.64 136.412 233.88C137.092 235.12 137.432 236.54 137.432 238.14ZM129.572 232.38C128.192 232.38 127.032 232.8 126.092 233.64C125.172 234.48 124.632 235.58 124.472 236.94H134.672C134.512 235.6 133.962 234.51 133.022 233.67C132.102 232.81 130.952 232.38 129.572 232.38ZM144.191 232.77C144.691 231.85 145.431 231.15 146.411 230.67C147.391 230.19 148.581 229.95 149.981 229.95V232.74C149.821 232.72 149.601 232.71 149.321 232.71C147.761 232.71 146.531 233.18 145.631 234.12C144.751 235.04 144.311 236.36 144.311 238.08V246H141.431V230.1H144.191V232.77ZM176.613 230.1V246H173.883V243.6C173.303 244.42 172.533 245.06 171.573 245.52C170.633 245.96 169.603 246.18 168.483 246.18C166.363 246.18 164.693 245.6 163.472 244.44C162.253 243.26 161.643 241.53 161.643 239.25V230.1H164.523V238.92C164.523 240.46 164.893 241.63 165.633 242.43C166.373 243.21 167.433 243.6 168.813 243.6C170.333 243.6 171.533 243.14 172.413 242.22C173.293 241.3 173.733 240 173.733 238.32V230.1H176.613ZM210.042 229.95C212.042 229.95 213.622 230.53 214.782 231.69C215.962 232.85 216.552 234.57 216.552 236.85V246H213.672V237.18C213.672 235.64 213.312 234.48 212.592 233.7C211.892 232.92 210.882 232.53 209.562 232.53C208.102 232.53 206.942 232.99 206.082 233.91C205.222 234.81 204.792 236.11 204.792 237.81V246H201.912V237.18C201.912 235.64 201.552 234.48 200.832 233.7C200.132 232.92 199.122 232.53 197.802 232.53C196.342 232.53 195.182 232.99 194.322 233.91C193.462 234.81 193.032 236.11 193.032 237.81V246H190.152V230.1H192.912V232.47C193.492 231.65 194.252 231.03 195.192 230.61C196.132 230.17 197.202 229.95 198.402 229.95C199.642 229.95 200.742 230.2 201.702 230.7C202.662 231.2 203.402 231.93 203.922 232.89C204.522 231.97 205.352 231.25 206.412 230.73C207.492 230.21 208.702 229.95 210.042 229.95ZM236.671 230.1V246H233.941V243.6C233.361 244.42 232.591 245.06 231.631 245.52C230.691 245.96 229.661 246.18 228.541 246.18C226.421 246.18 224.751 245.6 223.531 244.44C222.311 243.26 221.701 241.53 221.701 239.25V230.1H224.581V238.92C224.581 240.46 224.951 241.63 225.691 242.43C226.431 243.21 227.491 243.6 228.871 243.6C230.391 243.6 231.591 243.14 232.471 242.22C233.351 241.3 233.791 240 233.791 238.32V230.1H236.671ZM246.714 246.18C245.414 246.18 244.164 246.01 242.964 245.67C241.764 245.31 240.824 244.86 240.144 244.32L241.344 242.04C242.044 242.54 242.894 242.94 243.894 243.24C244.894 243.54 245.904 243.69 246.924 243.69C249.444 243.69 250.704 242.97 250.704 241.53C250.704 241.05 250.534 240.67 250.194 240.39C249.854 240.11 249.424 239.91 248.904 239.79C248.404 239.65 247.684 239.5 246.744 239.34C245.464 239.14 244.414 238.91 243.594 238.65C242.794 238.39 242.104 237.95 241.524 237.33C240.944 236.71 240.654 235.84 240.654 234.72C240.654 233.28 241.254 232.13 242.454 231.27C243.654 230.39 245.264 229.95 247.284 229.95C248.344 229.95 249.404 230.08 250.464 230.34C251.524 230.6 252.394 230.95 253.074 231.39L251.844 233.67C250.544 232.83 249.014 232.41 247.254 232.41C246.034 232.41 245.104 232.61 244.464 233.01C243.824 233.41 243.504 233.94 243.504 234.6C243.504 235.12 243.684 235.53 244.044 235.83C244.404 236.13 244.844 236.35 245.364 236.49C245.904 236.63 246.654 236.79 247.614 236.97C248.894 237.19 249.924 237.43 250.704 237.69C251.504 237.93 252.184 238.35 252.744 238.95C253.304 239.55 253.584 240.39 253.584 241.47C253.584 242.91 252.964 244.06 251.724 244.92C250.504 245.76 248.834 246.18 246.714 246.18ZM266.123 245.07C265.703 245.43 265.183 245.71 264.563 245.91C263.943 246.09 263.303 246.18 262.643 246.18C261.043 246.18 259.803 245.75 258.923 244.89C258.043 244.03 257.603 242.8 257.603 241.2V232.47H254.903V230.1H257.603V226.62H260.483V230.1H265.043V232.47H260.483V241.08C260.483 241.94 260.693 242.6 261.113 243.06C261.553 243.52 262.173 243.75 262.973 243.75C263.853 243.75 264.603 243.5 265.223 243L266.123 245.07ZM277.662 223.74H280.542V246H277.662V223.74ZM292.851 246.18C291.271 246.18 289.851 245.83 288.591 245.13C287.331 244.43 286.341 243.47 285.621 242.25C284.921 241.01 284.571 239.61 284.571 238.05C284.571 236.49 284.921 235.1 285.621 233.88C286.341 232.64 287.331 231.68 288.591 231C289.851 230.3 291.271 229.95 292.851 229.95C294.431 229.95 295.841 230.3 297.081 231C298.341 231.68 299.321 232.64 300.021 233.88C300.741 235.1 301.101 236.49 301.101 238.05C301.101 239.61 300.741 241.01 300.021 242.25C299.321 243.47 298.341 244.43 297.081 245.13C295.841 245.83 294.431 246.18 292.851 246.18ZM292.851 243.66C293.871 243.66 294.781 243.43 295.581 242.97C296.401 242.49 297.041 241.83 297.501 240.99C297.961 240.13 298.191 239.15 298.191 238.05C298.191 236.95 297.961 235.98 297.501 235.14C297.041 234.28 296.401 233.62 295.581 233.16C294.781 232.7 293.871 232.47 292.851 232.47C291.831 232.47 290.911 232.7 290.091 233.16C289.291 233.62 288.651 234.28 288.171 235.14C287.711 235.98 287.481 236.95 287.481 238.05C287.481 239.15 287.711 240.13 288.171 240.99C288.651 241.83 289.291 242.49 290.091 242.97C290.911 243.43 291.831 243.66 292.851 243.66ZM320.294 230.1V243.84C320.294 246.62 319.604 248.67 318.224 249.99C316.844 251.33 314.784 252 312.044 252C310.544 252 309.114 251.79 307.754 251.37C306.394 250.97 305.294 250.39 304.454 249.63L305.834 247.41C306.574 248.05 307.484 248.55 308.564 248.91C309.664 249.29 310.794 249.48 311.954 249.48C313.814 249.48 315.184 249.04 316.064 248.16C316.964 247.28 317.414 245.94 317.414 244.14V242.88C316.734 243.7 315.894 244.32 314.894 244.74C313.914 245.14 312.844 245.34 311.684 245.34C310.164 245.34 308.784 245.02 307.544 244.38C306.324 243.72 305.364 242.81 304.664 241.65C303.964 240.47 303.614 239.13 303.614 237.63C303.614 236.13 303.964 234.8 304.664 233.64C305.364 232.46 306.324 231.55 307.544 230.91C308.784 230.27 310.164 229.95 311.684 229.95C312.884 229.95 313.994 230.17 315.014 230.61C316.054 231.05 316.904 231.7 317.564 232.56V230.1H320.294ZM312.014 242.82C313.054 242.82 313.984 242.6 314.804 242.16C315.644 241.72 316.294 241.11 316.754 240.33C317.234 239.53 317.474 238.63 317.474 237.63C317.474 236.09 316.964 234.85 315.944 233.91C314.924 232.95 313.614 232.47 312.014 232.47C310.394 232.47 309.074 232.95 308.054 233.91C307.034 234.85 306.524 236.09 306.524 237.63C306.524 238.63 306.754 239.53 307.214 240.33C307.694 241.11 308.344 241.72 309.164 242.16C310.004 242.6 310.954 242.82 312.014 242.82ZM325.796 230.1H328.676V246H325.796V230.1ZM327.236 227.04C326.676 227.04 326.206 226.86 325.826 226.5C325.466 226.14 325.286 225.7 325.286 225.18C325.286 224.66 325.466 224.22 325.826 223.86C326.206 223.48 326.676 223.29 327.236 223.29C327.796 223.29 328.256 223.47 328.616 223.83C328.996 224.17 329.186 224.6 329.186 225.12C329.186 225.66 328.996 226.12 328.616 226.5C328.256 226.86 327.796 227.04 327.236 227.04ZM342.665 229.95C344.685 229.95 346.285 230.54 347.465 231.72C348.665 232.88 349.265 234.59 349.265 236.85V246H346.385V237.18C346.385 235.64 346.015 234.48 345.275 233.7C344.535 232.92 343.475 232.53 342.095 232.53C340.535 232.53 339.305 232.99 338.405 233.91C337.505 234.81 337.055 236.11 337.055 237.81V246H334.175V230.1H336.935V232.5C337.515 231.68 338.295 231.05 339.275 230.61C340.275 230.17 341.405 229.95 342.665 229.95ZM355.315 242.07C355.875 242.07 356.335 242.27 356.695 242.67C357.075 243.05 357.265 243.53 357.265 244.11C357.265 244.41 357.225 244.7 357.145 244.98C357.085 245.26 356.955 245.69 356.755 246.27L355.345 250.44H353.455L354.565 245.97C354.185 245.83 353.875 245.6 353.635 245.28C353.415 244.94 353.305 244.55 353.305 244.11C353.305 243.51 353.495 243.02 353.875 242.64C354.255 242.26 354.735 242.07 355.315 242.07ZM87.73 267.1H90.61V283H87.73V267.1ZM89.17 264.04C88.61 264.04 88.14 263.86 87.76 263.5C87.4 263.14 87.22 262.7 87.22 262.18C87.22 261.66 87.4 261.22 87.76 260.86C88.14 260.48 88.61 260.29 89.17 260.29C89.73 260.29 90.19 260.47 90.55 260.83C90.93 261.17 91.12 261.6 91.12 262.12C91.12 262.66 90.93 263.12 90.55 263.5C90.19 263.86 89.73 264.04 89.17 264.04ZM104.599 266.95C106.619 266.95 108.219 267.54 109.399 268.72C110.599 269.88 111.199 271.59 111.199 273.85V283H108.319V274.18C108.319 272.64 107.949 271.48 107.209 270.7C106.469 269.92 105.409 269.53 104.029 269.53C102.469 269.53 101.239 269.99 100.339 270.91C99.4389 271.81 98.9889 273.11 98.9889 274.81V283H96.1089V267.1H98.8689V269.5C99.4489 268.68 100.229 268.05 101.209 267.61C102.209 267.17 103.339 266.95 104.599 266.95ZM123.427 283.18C121.847 283.18 120.427 282.83 119.167 282.13C117.907 281.43 116.917 280.47 116.197 279.25C115.497 278.01 115.147 276.61 115.147 275.05C115.147 273.49 115.497 272.1 116.197 270.88C116.917 269.64 117.907 268.68 119.167 268C120.427 267.3 121.847 266.95 123.427 266.95C125.007 266.95 126.417 267.3 127.657 268C128.917 268.68 129.897 269.64 130.597 270.88C131.317 272.1 131.677 273.49 131.677 275.05C131.677 276.61 131.317 278.01 130.597 279.25C129.897 280.47 128.917 281.43 127.657 282.13C126.417 282.83 125.007 283.18 123.427 283.18ZM123.427 280.66C124.447 280.66 125.357 280.43 126.157 279.97C126.977 279.49 127.617 278.83 128.077 277.99C128.537 277.13 128.767 276.15 128.767 275.05C128.767 273.95 128.537 272.98 128.077 272.14C127.617 271.28 126.977 270.62 126.157 270.16C125.357 269.7 124.447 269.47 123.427 269.47C122.407 269.47 121.487 269.7 120.667 270.16C119.867 270.62 119.227 271.28 118.747 272.14C118.287 272.98 118.057 273.95 118.057 275.05C118.057 276.15 118.287 277.13 118.747 277.99C119.227 278.83 119.867 279.49 120.667 279.97C121.487 280.43 122.407 280.66 123.427 280.66ZM138.42 269.77C138.92 268.85 139.66 268.15 140.64 267.67C141.62 267.19 142.81 266.95 144.21 266.95V269.74C144.05 269.72 143.83 269.71 143.55 269.71C141.99 269.71 140.76 270.18 139.86 271.12C138.98 272.04 138.54 273.36 138.54 275.08V283H135.66V267.1H138.42V269.77ZM162.613 260.74V283H159.853V280.48C159.213 281.36 158.403 282.03 157.423 282.49C156.443 282.95 155.363 283.18 154.183 283.18C152.643 283.18 151.263 282.84 150.043 282.16C148.823 281.48 147.863 280.53 147.163 279.31C146.483 278.07 146.143 276.65 146.143 275.05C146.143 273.45 146.483 272.04 147.163 270.82C147.863 269.6 148.823 268.65 150.043 267.97C151.263 267.29 152.643 266.95 154.183 266.95C155.323 266.95 156.373 267.17 157.333 267.61C158.293 268.03 159.093 268.66 159.733 269.5V260.74H162.613ZM154.423 280.66C155.423 280.66 156.333 280.43 157.153 279.97C157.973 279.49 158.613 278.83 159.073 277.99C159.533 277.13 159.763 276.15 159.763 275.05C159.763 273.95 159.533 272.98 159.073 272.14C158.613 271.28 157.973 270.62 157.153 270.16C156.333 269.7 155.423 269.47 154.423 269.47C153.403 269.47 152.483 269.7 151.663 270.16C150.863 270.62 150.223 271.28 149.743 272.14C149.283 272.98 149.053 273.95 149.053 275.05C149.053 276.15 149.283 277.13 149.743 277.99C150.223 278.83 150.863 279.49 151.663 279.97C152.483 280.43 153.403 280.66 154.423 280.66ZM182.432 275.14C182.432 275.36 182.412 275.65 182.372 276.01H169.472C169.652 277.41 170.262 278.54 171.302 279.4C172.362 280.24 173.672 280.66 175.232 280.66C177.132 280.66 178.662 280.02 179.822 278.74L181.412 280.6C180.692 281.44 179.792 282.08 178.712 282.52C177.652 282.96 176.462 283.18 175.142 283.18C173.462 283.18 171.972 282.84 170.672 282.16C169.372 281.46 168.362 280.49 167.642 279.25C166.942 278.01 166.592 276.61 166.592 275.05C166.592 273.51 166.932 272.12 167.612 270.88C168.312 269.64 169.262 268.68 170.462 268C171.682 267.3 173.052 266.95 174.572 266.95C176.092 266.95 177.442 267.3 178.622 268C179.822 268.68 180.752 269.64 181.412 270.88C182.092 272.12 182.432 273.54 182.432 275.14ZM174.572 269.38C173.192 269.38 172.032 269.8 171.092 270.64C170.172 271.48 169.632 272.58 169.472 273.94H179.672C179.512 272.6 178.962 271.51 178.022 270.67C177.102 269.81 175.952 269.38 174.572 269.38ZM189.191 269.77C189.691 268.85 190.431 268.15 191.411 267.67C192.391 267.19 193.581 266.95 194.981 266.95V269.74C194.821 269.72 194.601 269.71 194.321 269.71C192.761 269.71 191.531 270.18 190.631 271.12C189.751 272.04 189.311 273.36 189.311 275.08V283H186.431V267.1H189.191V269.77ZM215.733 282.07C215.313 282.43 214.793 282.71 214.173 282.91C213.553 283.09 212.913 283.18 212.253 283.18C210.653 283.18 209.413 282.75 208.533 281.89C207.653 281.03 207.213 279.8 207.213 278.2V269.47H204.513V267.1H207.213V263.62H210.093V267.1H214.653V269.47H210.093V278.08C210.093 278.94 210.303 279.6 210.723 280.06C211.163 280.52 211.783 280.75 212.583 280.75C213.463 280.75 214.213 280.5 214.833 280L215.733 282.07ZM225.497 283.18C223.917 283.18 222.497 282.83 221.237 282.13C219.977 281.43 218.987 280.47 218.267 279.25C217.567 278.01 217.217 276.61 217.217 275.05C217.217 273.49 217.567 272.1 218.267 270.88C218.987 269.64 219.977 268.68 221.237 268C222.497 267.3 223.917 266.95 225.497 266.95C227.077 266.95 228.487 267.3 229.727 268C230.987 268.68 231.967 269.64 232.667 270.88C233.387 272.1 233.747 273.49 233.747 275.05C233.747 276.61 233.387 278.01 232.667 279.25C231.967 280.47 230.987 281.43 229.727 282.13C228.487 282.83 227.077 283.18 225.497 283.18ZM225.497 280.66C226.517 280.66 227.427 280.43 228.227 279.97C229.047 279.49 229.687 278.83 230.147 277.99C230.607 277.13 230.837 276.15 230.837 275.05C230.837 273.95 230.607 272.98 230.147 272.14C229.687 271.28 229.047 270.62 228.227 270.16C227.427 269.7 226.517 269.47 225.497 269.47C224.477 269.47 223.557 269.7 222.737 270.16C221.937 270.62 221.297 271.28 220.817 272.14C220.357 272.98 220.127 273.95 220.127 275.05C220.127 276.15 220.357 277.13 220.817 277.99C221.297 278.83 221.937 279.49 222.737 279.97C223.557 280.43 224.477 280.66 225.497 280.66ZM260.997 267.1V280.84C260.997 283.62 260.307 285.67 258.927 286.99C257.547 288.33 255.487 289 252.747 289C251.247 289 249.817 288.79 248.457 288.37C247.097 287.97 245.997 287.39 245.157 286.63L246.537 284.41C247.277 285.05 248.187 285.55 249.267 285.91C250.367 286.29 251.497 286.48 252.657 286.48C254.517 286.48 255.887 286.04 256.767 285.16C257.667 284.28 258.117 282.94 258.117 281.14V279.88C257.437 280.7 256.597 281.32 255.597 281.74C254.617 282.14 253.547 282.34 252.387 282.34C250.867 282.34 249.487 282.02 248.247 281.38C247.027 280.72 246.067 279.81 245.367 278.65C244.667 277.47 244.317 276.13 244.317 274.63C244.317 273.13 244.667 271.8 245.367 270.64C246.067 269.46 247.027 268.55 248.247 267.91C249.487 267.27 250.867 266.95 252.387 266.95C253.587 266.95 254.697 267.17 255.717 267.61C256.757 268.05 257.607 268.7 258.267 269.56V267.1H260.997ZM252.717 279.82C253.757 279.82 254.687 279.6 255.507 279.16C256.347 278.72 256.997 278.11 257.457 277.33C257.937 276.53 258.177 275.63 258.177 274.63C258.177 273.09 257.667 271.85 256.647 270.91C255.627 269.95 254.317 269.47 252.717 269.47C251.097 269.47 249.777 269.95 248.757 270.91C247.737 271.85 247.227 273.09 247.227 274.63C247.227 275.63 247.457 276.53 247.917 277.33C248.397 278.11 249.047 278.72 249.867 279.16C250.707 279.6 251.657 279.82 252.717 279.82ZM280.87 275.14C280.87 275.36 280.85 275.65 280.81 276.01H267.91C268.09 277.41 268.7 278.54 269.74 279.4C270.8 280.24 272.11 280.66 273.67 280.66C275.57 280.66 277.1 280.02 278.26 278.74L279.85 280.6C279.13 281.44 278.23 282.08 277.15 282.52C276.09 282.96 274.9 283.18 273.58 283.18C271.9 283.18 270.41 282.84 269.11 282.16C267.81 281.46 266.8 280.49 266.08 279.25C265.38 278.01 265.03 276.61 265.03 275.05C265.03 273.51 265.37 272.12 266.05 270.88C266.75 269.64 267.7 268.68 268.9 268C270.12 267.3 271.49 266.95 273.01 266.95C274.53 266.95 275.88 267.3 277.06 268C278.26 268.68 279.19 269.64 279.85 270.88C280.53 272.12 280.87 273.54 280.87 275.14ZM273.01 269.38C271.63 269.38 270.47 269.8 269.53 270.64C268.61 271.48 268.07 272.58 267.91 273.94H278.11C277.95 272.6 277.4 271.51 276.46 270.67C275.54 269.81 274.39 269.38 273.01 269.38ZM293.809 282.07C293.389 282.43 292.869 282.71 292.249 282.91C291.629 283.09 290.989 283.18 290.329 283.18C288.729 283.18 287.489 282.75 286.609 281.89C285.729 281.03 285.289 279.8 285.289 278.2V269.47H282.589V267.1H285.289V263.62H288.169V267.1H292.729V269.47H288.169V278.08C288.169 278.94 288.379 279.6 288.799 280.06C289.239 280.52 289.859 280.75 290.659 280.75C291.539 280.75 292.289 280.5 292.909 280L293.809 282.07ZM314.287 282.07C313.867 282.43 313.347 282.71 312.727 282.91C312.107 283.09 311.467 283.18 310.807 283.18C309.207 283.18 307.967 282.75 307.087 281.89C306.207 281.03 305.767 279.8 305.767 278.2V269.47H303.067V267.1H305.767V263.62H308.647V267.1H313.207V269.47H308.647V278.08C308.647 278.94 308.857 279.6 309.277 280.06C309.717 280.52 310.337 280.75 311.137 280.75C312.017 280.75 312.767 280.5 313.387 280L314.287 282.07ZM326.259 266.95C328.279 266.95 329.879 267.54 331.059 268.72C332.259 269.88 332.859 271.59 332.859 273.85V283H329.979V274.18C329.979 272.64 329.609 271.48 328.869 270.7C328.129 269.92 327.069 269.53 325.689 269.53C324.129 269.53 322.899 269.99 321.999 270.91C321.099 271.81 320.649 273.11 320.649 274.81V283H317.769V260.74H320.649V269.35C321.249 268.59 322.029 268 322.989 267.58C323.969 267.16 325.059 266.95 326.259 266.95ZM352.647 275.14C352.647 275.36 352.627 275.65 352.587 276.01H339.687C339.867 277.41 340.477 278.54 341.517 279.4C342.577 280.24 343.887 280.66 345.447 280.66C347.347 280.66 348.877 280.02 350.037 278.74L351.627 280.6C350.907 281.44 350.007 282.08 348.927 282.52C347.867 282.96 346.677 283.18 345.357 283.18C343.677 283.18 342.187 282.84 340.887 282.16C339.587 281.46 338.577 280.49 337.857 279.25C337.157 278.01 336.807 276.61 336.807 275.05C336.807 273.51 337.147 272.12 337.827 270.88C338.527 269.64 339.477 268.68 340.677 268C341.897 267.3 343.267 266.95 344.787 266.95C346.307 266.95 347.657 267.3 348.837 268C350.037 268.68 350.967 269.64 351.627 270.88C352.307 272.12 352.647 273.54 352.647 275.14ZM344.787 269.38C343.407 269.38 342.247 269.8 341.307 270.64C340.387 271.48 339.847 272.58 339.687 273.94H349.887C349.727 272.6 349.177 271.51 348.237 270.67C347.317 269.81 346.167 269.38 344.787 269.38ZM96.16 303.95C97.7 303.95 99.08 304.29 100.3 304.97C101.52 305.65 102.47 306.6 103.15 307.82C103.85 309.04 104.2 310.45 104.2 312.05C104.2 313.65 103.85 315.07 103.15 316.31C102.47 317.53 101.52 318.48 100.3 319.16C99.08 319.84 97.7 320.18 96.16 320.18C94.98 320.18 93.9 319.95 92.92 319.49C91.94 319.03 91.13 318.36 90.49 317.48V320H87.73V297.74H90.61V306.5C91.25 305.66 92.05 305.03 93.01 304.61C93.97 304.17 95.02 303.95 96.16 303.95ZM95.92 317.66C96.94 317.66 97.85 317.43 98.65 316.97C99.47 316.49 100.11 315.83 100.57 314.99C101.05 314.13 101.29 313.15 101.29 312.05C101.29 310.95 101.05 309.98 100.57 309.14C100.11 308.28 99.47 307.62 98.65 307.16C97.85 306.7 96.94 306.47 95.92 306.47C94.92 306.47 94.01 306.7 93.19 307.16C92.37 307.62 91.73 308.28 91.27 309.14C90.81 309.98 90.58 310.95 90.58 312.05C90.58 313.15 90.81 314.13 91.27 314.99C91.73 315.83 92.37 316.49 93.19 316.97C94.01 317.43 94.92 317.66 95.92 317.66ZM122.549 312.14C122.549 312.36 122.529 312.65 122.489 313.01H109.589C109.769 314.41 110.379 315.54 111.419 316.4C112.479 317.24 113.789 317.66 115.349 317.66C117.249 317.66 118.779 317.02 119.939 315.74L121.529 317.6C120.809 318.44 119.909 319.08 118.829 319.52C117.769 319.96 116.579 320.18 115.259 320.18C113.579 320.18 112.089 319.84 110.789 319.16C109.489 318.46 108.479 317.49 107.759 316.25C107.059 315.01 106.709 313.61 106.709 312.05C106.709 310.51 107.049 309.12 107.729 307.88C108.429 306.64 109.379 305.68 110.579 305C111.799 304.3 113.169 303.95 114.689 303.95C116.209 303.95 117.559 304.3 118.739 305C119.939 305.68 120.869 306.64 121.529 307.88C122.209 309.12 122.549 310.54 122.549 312.14ZM114.689 306.38C113.309 306.38 112.149 306.8 111.209 307.64C110.289 308.48 109.749 309.58 109.589 310.94H119.789C119.629 309.6 119.079 308.51 118.139 307.67C117.219 306.81 116.069 306.38 114.689 306.38ZM135.038 303.95C137.058 303.95 138.658 304.54 139.838 305.72C141.038 306.88 141.638 308.59 141.638 310.85V320H138.758V311.18C138.758 309.64 138.388 308.48 137.648 307.7C136.908 306.92 135.848 306.53 134.468 306.53C132.908 306.53 131.678 306.99 130.778 307.91C129.878 308.81 129.428 310.11 129.428 311.81V320H126.548V304.1H129.308V306.5C129.888 305.68 130.668 305.05 131.648 304.61C132.648 304.17 133.778 303.95 135.038 303.95ZM146.968 304.1H149.848V320H146.968V304.1ZM148.408 301.04C147.848 301.04 147.378 300.86 146.998 300.5C146.638 300.14 146.458 299.7 146.458 299.18C146.458 298.66 146.638 298.22 146.998 297.86C147.378 297.48 147.848 297.29 148.408 297.29C148.968 297.29 149.428 297.47 149.788 297.83C150.168 298.17 150.358 298.6 150.358 299.12C150.358 299.66 150.168 300.12 149.788 300.5C149.428 300.86 148.968 301.04 148.408 301.04ZM161.167 299.93C159.447 299.93 158.587 300.86 158.587 302.72V304.1H163.207V306.47H158.647V320H155.767V306.47H153.067V304.1H155.767V302.69C155.767 301.11 156.227 299.86 157.147 298.94C158.067 298.02 159.357 297.56 161.017 297.56C161.657 297.56 162.257 297.64 162.817 297.8C163.377 297.96 163.857 298.19 164.257 298.49L163.387 300.68C162.727 300.18 161.987 299.93 161.167 299.93ZM168.337 304.1H171.217V320H168.337V304.1ZM169.777 301.04C169.217 301.04 168.747 300.86 168.367 300.5C168.007 300.14 167.827 299.7 167.827 299.18C167.827 298.66 168.007 298.22 168.367 297.86C168.747 297.48 169.217 297.29 169.777 297.29C170.337 297.29 170.797 297.47 171.157 297.83C171.537 298.17 171.727 298.6 171.727 299.12C171.727 299.66 171.537 300.12 171.157 300.5C170.797 300.86 170.337 301.04 169.777 301.04ZM185.645 319.07C185.225 319.43 184.705 319.71 184.085 319.91C183.465 320.09 182.825 320.18 182.165 320.18C180.565 320.18 179.325 319.75 178.445 318.89C177.565 318.03 177.125 316.8 177.125 315.2V306.47H174.425V304.1H177.125V300.62H180.005V304.1H184.565V306.47H180.005V315.08C180.005 315.94 180.215 316.6 180.635 317.06C181.075 317.52 181.695 317.75 182.495 317.75C183.375 317.75 184.125 317.5 184.745 317L185.645 319.07ZM203.993 320.18C202.413 320.18 200.993 319.83 199.733 319.13C198.473 318.43 197.483 317.47 196.763 316.25C196.063 315.01 195.713 313.61 195.713 312.05C195.713 310.49 196.063 309.1 196.763 307.88C197.483 306.64 198.473 305.68 199.733 305C200.993 304.3 202.413 303.95 203.993 303.95C205.573 303.95 206.983 304.3 208.223 305C209.483 305.68 210.463 306.64 211.163 307.88C211.883 309.1 212.243 310.49 212.243 312.05C212.243 313.61 211.883 315.01 211.163 316.25C210.463 317.47 209.483 318.43 208.223 319.13C206.983 319.83 205.573 320.18 203.993 320.18ZM203.993 317.66C205.013 317.66 205.923 317.43 206.723 316.97C207.543 316.49 208.183 315.83 208.643 314.99C209.103 314.13 209.333 313.15 209.333 312.05C209.333 310.95 209.103 309.98 208.643 309.14C208.183 308.28 207.543 307.62 206.723 307.16C205.923 306.7 205.013 306.47 203.993 306.47C202.973 306.47 202.053 306.7 201.233 307.16C200.433 307.62 199.793 308.28 199.313 309.14C198.853 309.98 198.623 310.95 198.623 312.05C198.623 313.15 198.853 314.13 199.313 314.99C199.793 315.83 200.433 316.49 201.233 316.97C202.053 317.43 202.973 317.66 203.993 317.66ZM222.046 299.93C220.326 299.93 219.466 300.86 219.466 302.72V304.1H224.086V306.47H219.526V320H216.646V306.47H213.946V304.1H216.646V302.69C216.646 301.11 217.106 299.86 218.026 298.94C218.946 298.02 220.236 297.56 221.896 297.56C222.536 297.56 223.136 297.64 223.696 297.8C224.256 297.96 224.736 298.19 225.136 298.49L224.266 300.68C223.606 300.18 222.866 299.93 222.046 299.93ZM240.679 299.93C238.959 299.93 238.099 300.86 238.099 302.72V304.1H242.719V306.47H238.159V320H235.279V306.47H232.579V304.1H235.279V302.69C235.279 301.11 235.739 299.86 236.659 298.94C237.579 298.02 238.869 297.56 240.529 297.56C241.169 297.56 241.769 297.64 242.329 297.8C242.889 297.96 243.369 298.19 243.769 298.49L242.899 300.68C242.239 300.18 241.499 299.93 240.679 299.93ZM252.011 320.18C250.431 320.18 249.011 319.83 247.751 319.13C246.491 318.43 245.501 317.47 244.781 316.25C244.081 315.01 243.731 313.61 243.731 312.05C243.731 310.49 244.081 309.1 244.781 307.88C245.501 306.64 246.491 305.68 247.751 305C249.011 304.3 250.431 303.95 252.011 303.95C253.591 303.95 255.001 304.3 256.241 305C257.501 305.68 258.481 306.64 259.181 307.88C259.901 309.1 260.261 310.49 260.261 312.05C260.261 313.61 259.901 315.01 259.181 316.25C258.481 317.47 257.501 318.43 256.241 319.13C255.001 319.83 253.591 320.18 252.011 320.18ZM252.011 317.66C253.031 317.66 253.941 317.43 254.741 316.97C255.561 316.49 256.201 315.83 256.661 314.99C257.121 314.13 257.351 313.15 257.351 312.05C257.351 310.95 257.121 309.98 256.661 309.14C256.201 308.28 255.561 307.62 254.741 307.16C253.941 306.7 253.031 306.47 252.011 306.47C250.991 306.47 250.071 306.7 249.251 307.16C248.451 307.62 247.811 308.28 247.331 309.14C246.871 309.98 246.641 310.95 246.641 312.05C246.641 313.15 246.871 314.13 247.331 314.99C247.811 315.83 248.451 316.49 249.251 316.97C250.071 317.43 250.991 317.66 252.011 317.66ZM267.004 306.77C267.504 305.85 268.244 305.15 269.224 304.67C270.204 304.19 271.394 303.95 272.794 303.95V306.74C272.634 306.72 272.414 306.71 272.134 306.71C270.574 306.71 269.344 307.18 268.444 308.12C267.564 309.04 267.124 310.36 267.124 312.08V320H264.244V304.1H267.004V306.77ZM291.368 304.1V320H288.638V317.6C288.058 318.42 287.288 319.06 286.328 319.52C285.388 319.96 284.358 320.18 283.238 320.18C281.118 320.18 279.448 319.6 278.228 318.44C277.008 317.26 276.398 315.53 276.398 313.25V304.1H279.278V312.92C279.278 314.46 279.648 315.63 280.388 316.43C281.128 317.21 282.188 317.6 283.568 317.6C285.088 317.6 286.288 317.14 287.168 316.22C288.048 315.3 288.488 314 288.488 312.32V304.1H291.368ZM316.741 303.95C318.741 303.95 320.321 304.53 321.481 305.69C322.661 306.85 323.251 308.57 323.251 310.85V320H320.371V311.18C320.371 309.64 320.011 308.48 319.291 307.7C318.591 306.92 317.581 306.53 316.261 306.53C314.801 306.53 313.641 306.99 312.781 307.91C311.921 308.81 311.491 310.11 311.491 311.81V320H308.611V311.18C308.611 309.64 308.251 308.48 307.531 307.7C306.831 306.92 305.821 306.53 304.501 306.53C303.041 306.53 301.881 306.99 301.021 307.91C300.161 308.81 299.731 310.11 299.731 311.81V320H296.851V304.1H299.611V306.47C300.191 305.65 300.951 305.03 301.891 304.61C302.831 304.17 303.901 303.95 305.101 303.95C306.341 303.95 307.441 304.2 308.401 304.7C309.361 305.2 310.101 305.93 310.621 306.89C311.221 305.97 312.051 305.25 313.111 304.73C314.191 304.21 315.401 303.95 316.741 303.95ZM102.73 334.74V357H99.97V354.48C99.33 355.36 98.52 356.03 97.54 356.49C96.56 356.95 95.48 357.18 94.3 357.18C92.76 357.18 91.38 356.84 90.16 356.16C88.94 355.48 87.98 354.53 87.28 353.31C86.6 352.07 86.26 350.65 86.26 349.05C86.26 347.45 86.6 346.04 87.28 344.82C87.98 343.6 88.94 342.65 90.16 341.97C91.38 341.29 92.76 340.95 94.3 340.95C95.44 340.95 96.49 341.17 97.45 341.61C98.41 342.03 99.21 342.66 99.85 343.5V334.74H102.73ZM94.54 354.66C95.54 354.66 96.45 354.43 97.27 353.97C98.09 353.49 98.73 352.83 99.19 351.99C99.65 351.13 99.88 350.15 99.88 349.05C99.88 347.95 99.65 346.98 99.19 346.14C98.73 345.28 98.09 344.62 97.27 344.16C96.45 343.7 95.54 343.47 94.54 343.47C93.52 343.47 92.6 343.7 91.78 344.16C90.98 344.62 90.34 345.28 89.86 346.14C89.4 346.98 89.17 347.95 89.17 349.05C89.17 350.15 89.4 351.13 89.86 351.99C90.34 352.83 90.98 353.49 91.78 353.97C92.6 354.43 93.52 354.66 94.54 354.66ZM108.179 341.1H111.059V357H108.179V341.1ZM109.619 338.04C109.059 338.04 108.589 337.86 108.209 337.5C107.849 337.14 107.669 336.7 107.669 336.18C107.669 335.66 107.849 335.22 108.209 334.86C108.589 334.48 109.059 334.29 109.619 334.29C110.179 334.29 110.639 334.47 110.999 334.83C111.379 335.17 111.569 335.6 111.569 336.12C111.569 336.66 111.379 337.12 110.999 337.5C110.639 337.86 110.179 338.04 109.619 338.04ZM121.118 357.18C119.818 357.18 118.568 357.01 117.368 356.67C116.168 356.31 115.228 355.86 114.548 355.32L115.748 353.04C116.448 353.54 117.298 353.94 118.298 354.24C119.298 354.54 120.308 354.69 121.328 354.69C123.848 354.69 125.108 353.97 125.108 352.53C125.108 352.05 124.938 351.67 124.598 351.39C124.258 351.11 123.828 350.91 123.308 350.79C122.808 350.65 122.088 350.5 121.148 350.34C119.868 350.14 118.818 349.91 117.998 349.65C117.198 349.39 116.508 348.95 115.928 348.33C115.348 347.71 115.058 346.84 115.058 345.72C115.058 344.28 115.658 343.13 116.858 342.27C118.058 341.39 119.668 340.95 121.688 340.95C122.748 340.95 123.808 341.08 124.868 341.34C125.928 341.6 126.798 341.95 127.478 342.39L126.248 344.67C124.948 343.83 123.418 343.41 121.658 343.41C120.438 343.41 119.508 343.61 118.868 344.01C118.228 344.41 117.908 344.94 117.908 345.6C117.908 346.12 118.088 346.53 118.448 346.83C118.808 347.13 119.248 347.35 119.768 347.49C120.308 347.63 121.058 347.79 122.018 347.97C123.298 348.19 124.328 348.43 125.108 348.69C125.908 348.93 126.588 349.35 127.148 349.95C127.708 350.55 127.988 351.39 127.988 352.47C127.988 353.91 127.368 355.06 126.128 355.92C124.908 356.76 123.238 357.18 121.118 357.18ZM138.517 357.18C136.897 357.18 135.447 356.83 134.167 356.13C132.907 355.43 131.917 354.47 131.197 353.25C130.477 352.01 130.117 350.61 130.117 349.05C130.117 347.49 130.477 346.1 131.197 344.88C131.917 343.64 132.907 342.68 134.167 342C135.447 341.3 136.897 340.95 138.517 340.95C139.957 340.95 141.237 341.24 142.357 341.82C143.497 342.4 144.377 343.24 144.997 344.34L142.807 345.75C142.307 344.99 141.687 344.42 140.947 344.04C140.207 343.66 139.387 343.47 138.487 343.47C137.447 343.47 136.507 343.7 135.667 344.16C134.847 344.62 134.197 345.28 133.717 346.14C133.257 346.98 133.027 347.95 133.027 349.05C133.027 350.17 133.257 351.16 133.717 352.02C134.197 352.86 134.847 353.51 135.667 353.97C136.507 354.43 137.447 354.66 138.487 354.66C139.387 354.66 140.207 354.47 140.947 354.09C141.687 353.71 142.307 353.14 142.807 352.38L144.997 353.76C144.377 354.86 143.497 355.71 142.357 356.31C141.237 356.89 139.957 357.18 138.517 357.18ZM163.546 341.1V357H160.816V354.6C160.236 355.42 159.466 356.06 158.506 356.52C157.566 356.96 156.536 357.18 155.416 357.18C153.296 357.18 151.626 356.6 150.406 355.44C149.186 354.26 148.576 352.53 148.576 350.25V341.1H151.456V349.92C151.456 351.46 151.826 352.63 152.566 353.43C153.306 354.21 154.366 354.6 155.746 354.6C157.266 354.6 158.466 354.14 159.346 353.22C160.226 352.3 160.666 351 160.666 349.32V341.1H163.546ZM173.589 357.18C172.289 357.18 171.039 357.01 169.839 356.67C168.639 356.31 167.699 355.86 167.019 355.32L168.219 353.04C168.919 353.54 169.769 353.94 170.769 354.24C171.769 354.54 172.779 354.69 173.799 354.69C176.319 354.69 177.579 353.97 177.579 352.53C177.579 352.05 177.409 351.67 177.069 351.39C176.729 351.11 176.299 350.91 175.779 350.79C175.279 350.65 174.559 350.5 173.619 350.34C172.339 350.14 171.289 349.91 170.469 349.65C169.669 349.39 168.979 348.95 168.399 348.33C167.819 347.71 167.529 346.84 167.529 345.72C167.529 344.28 168.129 343.13 169.329 342.27C170.529 341.39 172.139 340.95 174.159 340.95C175.219 340.95 176.279 341.08 177.339 341.34C178.399 341.6 179.269 341.95 179.949 342.39L178.719 344.67C177.419 343.83 175.889 343.41 174.129 343.41C172.909 343.41 171.979 343.61 171.339 344.01C170.699 344.41 170.379 344.94 170.379 345.6C170.379 346.12 170.559 346.53 170.919 346.83C171.279 347.13 171.719 347.35 172.239 347.49C172.779 347.63 173.529 347.79 174.489 347.97C175.769 348.19 176.799 348.43 177.579 348.69C178.379 348.93 179.059 349.35 179.619 349.95C180.179 350.55 180.459 351.39 180.459 352.47C180.459 353.91 179.839 355.06 178.599 355.92C177.379 356.76 175.709 357.18 173.589 357.18ZM188.618 357.18C187.318 357.18 186.068 357.01 184.868 356.67C183.668 356.31 182.728 355.86 182.048 355.32L183.248 353.04C183.948 353.54 184.798 353.94 185.798 354.24C186.798 354.54 187.808 354.69 188.828 354.69C191.348 354.69 192.608 353.97 192.608 352.53C192.608 352.05 192.438 351.67 192.098 351.39C191.758 351.11 191.328 350.91 190.808 350.79C190.308 350.65 189.588 350.5 188.648 350.34C187.368 350.14 186.318 349.91 185.498 349.65C184.698 349.39 184.008 348.95 183.428 348.33C182.848 347.71 182.558 346.84 182.558 345.72C182.558 344.28 183.158 343.13 184.358 342.27C185.558 341.39 187.168 340.95 189.188 340.95C190.248 340.95 191.308 341.08 192.368 341.34C193.428 341.6 194.298 341.95 194.978 342.39L193.748 344.67C192.448 343.83 190.918 343.41 189.158 343.41C187.938 343.41 187.008 343.61 186.368 344.01C185.728 344.41 185.408 344.94 185.408 345.6C185.408 346.12 185.588 346.53 185.948 346.83C186.308 347.13 186.748 347.35 187.268 347.49C187.808 347.63 188.558 347.79 189.518 347.97C190.798 348.19 191.828 348.43 192.608 348.69C193.408 348.93 194.088 349.35 194.648 349.95C195.208 350.55 195.488 351.39 195.488 352.47C195.488 353.91 194.868 355.06 193.628 355.92C192.408 356.76 190.738 357.18 188.618 357.18ZM199.087 341.1H201.967V357H199.087V341.1ZM200.527 338.04C199.967 338.04 199.497 337.86 199.117 337.5C198.757 337.14 198.577 336.7 198.577 336.18C198.577 335.66 198.757 335.22 199.117 334.86C199.497 334.48 199.967 334.29 200.527 334.29C201.087 334.29 201.547 334.47 201.907 334.83C202.287 335.17 202.477 335.6 202.477 336.12C202.477 336.66 202.287 337.12 201.907 337.5C201.547 337.86 201.087 338.04 200.527 338.04ZM214.276 357.18C212.696 357.18 211.276 356.83 210.016 356.13C208.756 355.43 207.766 354.47 207.046 353.25C206.346 352.01 205.996 350.61 205.996 349.05C205.996 347.49 206.346 346.1 207.046 344.88C207.766 343.64 208.756 342.68 210.016 342C211.276 341.3 212.696 340.95 214.276 340.95C215.856 340.95 217.266 341.3 218.506 342C219.766 342.68 220.746 343.64 221.446 344.88C222.166 346.1 222.526 347.49 222.526 349.05C222.526 350.61 222.166 352.01 221.446 353.25C220.746 354.47 219.766 355.43 218.506 356.13C217.266 356.83 215.856 357.18 214.276 357.18ZM214.276 354.66C215.296 354.66 216.206 354.43 217.006 353.97C217.826 353.49 218.466 352.83 218.926 351.99C219.386 351.13 219.616 350.15 219.616 349.05C219.616 347.95 219.386 346.98 218.926 346.14C218.466 345.28 217.826 344.62 217.006 344.16C216.206 343.7 215.296 343.47 214.276 343.47C213.256 343.47 212.336 343.7 211.516 344.16C210.716 344.62 210.076 345.28 209.596 346.14C209.136 346.98 208.906 347.95 208.906 349.05C208.906 350.15 209.136 351.13 209.596 351.99C210.076 352.83 210.716 353.49 211.516 353.97C212.336 354.43 213.256 354.66 214.276 354.66ZM234.999 340.95C237.019 340.95 238.619 341.54 239.799 342.72C240.999 343.88 241.599 345.59 241.599 347.85V357H238.719V348.18C238.719 346.64 238.349 345.48 237.609 344.7C236.869 343.92 235.809 343.53 234.429 343.53C232.869 343.53 231.639 343.99 230.739 344.91C229.839 345.81 229.389 347.11 229.389 348.81V357H226.509V341.1H229.269V343.5C229.849 342.68 230.629 342.05 231.609 341.61C232.609 341.17 233.739 340.95 234.999 340.95Z" fill="#515151"/>
<defs>
<filter id="filter0_di" x="0" y="0" width="486" height="486" filterUnits="userSpaceOnUse" color-interpolation-filters="sRGB">
<feFlood flood-opacity="0" result="BackgroundImageFix"/>
<feColorMatrix in="SourceAlpha" type="matrix" values="0 0 0 0 0 0 0 0 0 0 0 0 0 0 0 0 0 0 127 0"/>
<feOffset dx="8" dy="8"/>
<feGaussianBlur stdDeviation="15"/>
<feColorMatrix type="matrix" values="0 0 0 0 0 0 0 0 0 0 0 0 0 0 0 0 0 0 0.25 0"/>
<feBlend mode="normal" in2="BackgroundImageFix" result="effect1_dropShadow"/>
<feBlend mode="normal" in="SourceGraphic" in2="effect1_dropShadow" result="shape"/>
<feColorMatrix in="SourceAlpha" type="matrix" values="0 0 0 0 0 0 0 0 0 0 0 0 0 0 0 0 0 0 127 0" result="hardAlpha"/>
<feOffset dx="-7" dy="-7"/>
<feGaussianBlur stdDeviation="8.5"/>
<feComposite in2="hardAlpha" operator="arithmetic" k2="-1" k3="1"/>
<feColorMatrix type="matrix" values="0 0 0 0 0 0 0 0 0 0 0 0 0 0 0 0 0 0 0.35 0"/>
<feBlend mode="normal" in2="shape" result="effect2_innerShadow"/>
</filter>
</defs>
</svg>
