<svg width="360" height="65" viewBox="0 0 360 65" fill="none" xmlns="http://www.w3.org/2000/svg">
<rect x="2.5" y="2.5" width="355" height="60" rx="18.5" fill="white" fill-opacity="0.1" stroke="white" stroke-width="5"/>
<path d="M69.416 41.192C68.152 41.192 66.928 41 65.744 40.616C64.576 40.216 63.656 39.704 62.984 39.08L63.872 37.208C64.512 37.784 65.328 38.256 66.32 38.624C67.328 38.976 68.36 39.152 69.416 39.152C70.808 39.152 71.848 38.92 72.536 38.456C73.224 37.976 73.568 37.344 73.568 36.56C73.568 35.984 73.376 35.52 72.992 35.168C72.624 34.8 72.16 34.52 71.6 34.328C71.056 34.136 70.28 33.92 69.272 33.68C68.008 33.376 66.984 33.072 66.2 32.768C65.432 32.464 64.768 32 64.208 31.376C63.664 30.736 63.392 29.88 63.392 28.808C63.392 27.912 63.624 27.104 64.088 26.384C64.568 25.664 65.288 25.088 66.248 24.656C67.208 24.224 68.4 24.008 69.824 24.008C70.816 24.008 71.792 24.136 72.752 24.392C73.712 24.648 74.536 25.016 75.224 25.496L74.432 27.416C73.728 26.968 72.976 26.632 72.176 26.408C71.376 26.168 70.592 26.048 69.824 26.048C68.464 26.048 67.44 26.296 66.752 26.792C66.08 27.288 65.744 27.928 65.744 28.712C65.744 29.288 65.936 29.76 66.32 30.128C66.704 30.48 67.176 30.76 67.736 30.968C68.312 31.16 69.088 31.368 70.064 31.592C71.328 31.896 72.344 32.2 73.112 32.504C73.88 32.808 74.536 33.272 75.08 33.896C75.64 34.52 75.92 35.36 75.92 36.416C75.92 37.296 75.68 38.104 75.2 38.84C74.72 39.56 73.992 40.136 73.016 40.568C72.04 40.984 70.84 41.192 69.416 41.192ZM86.2423 40.256C85.9063 40.544 85.4903 40.768 84.9943 40.928C84.4983 41.072 83.9863 41.144 83.4583 41.144C82.1783 41.144 81.1863 40.8 80.4823 40.112C79.7783 39.424 79.4263 38.44 79.4263 37.16V30.176H77.2663V28.28H79.4263V25.496H81.7303V28.28H85.3783V30.176H81.7303V37.064C81.7303 37.752 81.8983 38.28 82.2343 38.648C82.5863 39.016 83.0823 39.2 83.7223 39.2C84.4263 39.2 85.0263 39 85.5223 38.6L86.2423 40.256ZM93.6598 28.16C95.4198 28.16 96.7638 28.592 97.6918 29.456C98.6358 30.32 99.1078 31.608 99.1078 33.32V41H96.9238V39.32C96.5398 39.912 95.9878 40.368 95.2678 40.688C94.5638 40.992 93.7238 41.144 92.7478 41.144C91.3238 41.144 90.1798 40.8 89.3158 40.112C88.4678 39.424 88.0438 38.52 88.0438 37.4C88.0438 36.28 88.4518 35.384 89.2678 34.712C90.0838 34.024 91.3798 33.68 93.1558 33.68H96.8038V33.224C96.8038 32.232 96.5158 31.472 95.9398 30.944C95.3638 30.416 94.5158 30.152 93.3958 30.152C92.6438 30.152 91.9078 30.28 91.1878 30.536C90.4678 30.776 89.8598 31.104 89.3638 31.52L88.4038 29.792C89.0598 29.264 89.8438 28.864 90.7558 28.592C91.6678 28.304 92.6358 28.16 93.6598 28.16ZM93.1318 39.368C94.0118 39.368 94.7718 39.176 95.4118 38.792C96.0518 38.392 96.5158 37.832 96.8038 37.112V35.336H93.2518C91.2998 35.336 90.3238 35.992 90.3238 37.304C90.3238 37.944 90.5718 38.448 91.0678 38.816C91.5638 39.184 92.2518 39.368 93.1318 39.368ZM105.58 30.416C105.98 29.68 106.572 29.12 107.355 28.736C108.14 28.352 109.092 28.16 110.212 28.16V30.392C110.084 30.376 109.908 30.368 109.684 30.368C108.436 30.368 107.452 30.744 106.732 31.496C106.028 32.232 105.676 33.288 105.676 34.664V41H103.372V28.28H105.58V30.416ZM120.719 40.256C120.383 40.544 119.967 40.768 119.471 40.928C118.975 41.072 118.463 41.144 117.935 41.144C116.655 41.144 115.663 40.8 114.959 40.112C114.255 39.424 113.903 38.44 113.903 37.16V30.176H111.743V28.28H113.903V25.496H116.207V28.28H119.855V30.176H116.207V37.064C116.207 37.752 116.375 38.28 116.711 38.648C117.063 39.016 117.559 39.2 118.199 39.2C118.903 39.2 119.503 39 119.999 38.6L120.719 40.256ZM134.582 28.16C136.342 28.16 137.686 28.592 138.614 29.456C139.558 30.32 140.03 31.608 140.03 33.32V41H137.846V39.32C137.462 39.912 136.91 40.368 136.19 40.688C135.486 40.992 134.646 41.144 133.67 41.144C132.246 41.144 131.102 40.8 130.238 40.112C129.39 39.424 128.966 38.52 128.966 37.4C128.966 36.28 129.374 35.384 130.19 34.712C131.006 34.024 132.302 33.68 134.078 33.68H137.726V33.224C137.726 32.232 137.438 31.472 136.862 30.944C136.286 30.416 135.438 30.152 134.318 30.152C133.566 30.152 132.83 30.28 132.11 30.536C131.39 30.776 130.782 31.104 130.286 31.52L129.326 29.792C129.982 29.264 130.766 28.864 131.678 28.592C132.59 28.304 133.558 28.16 134.582 28.16ZM134.054 39.368C134.934 39.368 135.694 39.176 136.334 38.792C136.974 38.392 137.438 37.832 137.726 37.112V35.336H134.174C132.222 35.336 131.246 35.992 131.246 37.304C131.246 37.944 131.494 38.448 131.99 38.816C132.486 39.184 133.174 39.368 134.054 39.368ZM157.531 28.16C159.147 28.16 160.427 28.632 161.371 29.576C162.331 30.504 162.811 31.872 162.811 33.68V41H160.507V33.944C160.507 32.712 160.211 31.784 159.619 31.16C159.027 30.536 158.179 30.224 157.075 30.224C155.827 30.224 154.843 30.592 154.123 31.328C153.403 32.048 153.043 33.088 153.043 34.448V41H150.739V28.28H152.947V30.2C153.411 29.544 154.035 29.04 154.819 28.688C155.619 28.336 156.523 28.16 157.531 28.16ZM178.641 34.712C178.641 34.888 178.625 35.12 178.593 35.408H168.273C168.417 36.528 168.905 37.432 169.737 38.12C170.585 38.792 171.633 39.128 172.881 39.128C174.401 39.128 175.625 38.616 176.553 37.592L177.825 39.08C177.249 39.752 176.529 40.264 175.665 40.616C174.817 40.968 173.865 41.144 172.809 41.144C171.465 41.144 170.273 40.872 169.233 40.328C168.193 39.768 167.385 38.992 166.809 38C166.249 37.008 165.969 35.888 165.969 34.64C165.969 33.408 166.241 32.296 166.785 31.304C167.345 30.312 168.105 29.544 169.065 29C170.041 28.44 171.137 28.16 172.353 28.16C173.569 28.16 174.649 28.44 175.593 29C176.553 29.544 177.297 30.312 177.825 31.304C178.369 32.296 178.641 33.432 178.641 34.712ZM172.353 30.104C171.249 30.104 170.321 30.44 169.569 31.112C168.833 31.784 168.401 32.664 168.273 33.752H176.433C176.305 32.68 175.865 31.808 175.113 31.136C174.377 30.448 173.457 30.104 172.353 30.104ZM200.854 28.28L196.102 41H193.894L190.222 31.352L186.502 41H184.294L179.566 28.28H181.75L185.446 38.408L189.286 28.28H191.23L194.998 38.456L198.79 28.28H200.854ZM213.309 26.288H207.549V24.2H221.445V26.288H215.685V41H213.309V26.288ZM230.515 28.16C232.131 28.16 233.411 28.632 234.355 29.576C235.315 30.504 235.795 31.872 235.795 33.68V41H233.491V33.944C233.491 32.712 233.195 31.784 232.603 31.16C232.011 30.536 231.163 30.224 230.059 30.224C228.811 30.224 227.827 30.592 227.107 31.328C226.387 32.048 226.027 33.088 226.027 34.448V41H223.723V23.192H226.027V30.08C226.507 29.472 227.131 29 227.899 28.664C228.683 28.328 229.555 28.16 230.515 28.16ZM242.267 30.416C242.667 29.68 243.259 29.12 244.043 28.736C244.827 28.352 245.779 28.16 246.899 28.16V30.392C246.771 30.376 246.595 30.368 246.371 30.368C245.123 30.368 244.139 30.744 243.419 31.496C242.715 32.232 242.363 33.288 242.363 34.664V41H240.059V28.28H242.267V30.416ZM261.118 34.712C261.118 34.888 261.102 35.12 261.07 35.408H250.75C250.894 36.528 251.382 37.432 252.214 38.12C253.062 38.792 254.11 39.128 255.358 39.128C256.878 39.128 258.102 38.616 259.03 37.592L260.302 39.08C259.726 39.752 259.006 40.264 258.142 40.616C257.294 40.968 256.342 41.144 255.286 41.144C253.942 41.144 252.75 40.872 251.71 40.328C250.67 39.768 249.862 38.992 249.286 38C248.726 37.008 248.446 35.888 248.446 34.64C248.446 33.408 248.718 32.296 249.262 31.304C249.822 30.312 250.582 29.544 251.542 29C252.518 28.44 253.614 28.16 254.83 28.16C256.046 28.16 257.126 28.44 258.07 29C259.03 29.544 259.774 30.312 260.302 31.304C260.846 32.296 261.118 33.432 261.118 34.712ZM254.83 30.104C253.726 30.104 252.798 30.44 252.046 31.112C251.31 31.784 250.878 32.664 250.75 33.752H258.91C258.782 32.68 258.342 31.808 257.59 31.136C256.854 30.448 255.934 30.104 254.83 30.104ZM268.597 28.16C270.357 28.16 271.701 28.592 272.629 29.456C273.573 30.32 274.045 31.608 274.045 33.32V41H271.861V39.32C271.477 39.912 270.925 40.368 270.205 40.688C269.501 40.992 268.661 41.144 267.685 41.144C266.261 41.144 265.117 40.8 264.253 40.112C263.405 39.424 262.981 38.52 262.981 37.4C262.981 36.28 263.389 35.384 264.205 34.712C265.021 34.024 266.317 33.68 268.093 33.68H271.741V33.224C271.741 32.232 271.453 31.472 270.877 30.944C270.301 30.416 269.453 30.152 268.333 30.152C267.581 30.152 266.845 30.28 266.125 30.536C265.405 30.776 264.797 31.104 264.301 31.52L263.341 29.792C263.997 29.264 264.781 28.864 265.693 28.592C266.605 28.304 267.573 28.16 268.597 28.16ZM268.069 39.368C268.949 39.368 269.709 39.176 270.349 38.792C270.989 38.392 271.453 37.832 271.741 37.112V35.336H268.189C266.237 35.336 265.261 35.992 265.261 37.304C265.261 37.944 265.509 38.448 266.005 38.816C266.501 39.184 267.189 39.368 268.069 39.368ZM290.379 23.192V41H288.171V38.984C287.659 39.688 287.011 40.224 286.227 40.592C285.443 40.96 284.579 41.144 283.635 41.144C282.403 41.144 281.299 40.872 280.323 40.328C279.347 39.784 278.579 39.024 278.019 38.048C277.475 37.056 277.203 35.92 277.203 34.64C277.203 33.36 277.475 32.232 278.019 31.256C278.579 30.28 279.347 29.52 280.323 28.976C281.299 28.432 282.403 28.16 283.635 28.16C284.547 28.16 285.387 28.336 286.155 28.688C286.923 29.024 287.563 29.528 288.075 30.2V23.192H290.379ZM283.827 39.128C284.627 39.128 285.355 38.944 286.011 38.576C286.667 38.192 287.179 37.664 287.547 36.992C287.915 36.304 288.099 35.52 288.099 34.64C288.099 33.76 287.915 32.984 287.547 32.312C287.179 31.624 286.667 31.096 286.011 30.728C285.355 30.36 284.627 30.176 283.827 30.176C283.011 30.176 282.275 30.36 281.619 30.728C280.979 31.096 280.467 31.624 280.083 32.312C279.715 32.984 279.531 33.76 279.531 34.64C279.531 35.52 279.715 36.304 280.083 36.992C280.467 37.664 280.979 38.192 281.619 38.576C282.275 38.944 283.011 39.128 283.827 39.128Z" fill="white"/>
</svg>
