<svg width="1366" height="975" viewBox="0 0 1366 975" fill="none" xmlns="http://www.w3.org/2000/svg">
<rect width="1366" height="975" fill="url(#paint0_linear)"/>
<path d="M177.616 114.024V121H144.016V76.2H176.72V83.176H152.336V94.824H173.968V101.672H152.336V114.024H177.616ZM205.515 86.44C209.824 86.44 213.28 87.6987 215.883 90.216C218.486 92.7333 219.787 96.4667 219.787 101.416V121H211.787V102.44C211.787 99.4533 211.083 97.2133 209.675 95.72C208.267 94.184 206.262 93.416 203.659 93.416C200.715 93.416 198.39 94.312 196.683 96.104C194.976 97.8533 194.123 100.392 194.123 103.72V121H186.123V86.824H193.739V91.24C195.062 89.6613 196.726 88.4667 198.731 87.656C200.736 86.8453 202.998 86.44 205.515 86.44ZM250.48 119.144C249.541 119.912 248.389 120.488 247.024 120.872C245.701 121.256 244.293 121.448 242.8 121.448C239.045 121.448 236.144 120.467 234.095 118.504C232.048 116.541 231.024 113.683 231.024 109.928V93.48H225.392V87.08H231.024V79.272H239.024V87.08H248.176V93.48H239.024V109.736C239.024 111.4 239.429 112.68 240.24 113.576C241.05 114.429 242.224 114.856 243.76 114.856C245.552 114.856 247.045 114.387 248.24 113.448L250.48 119.144ZM288.064 104.104C288.064 104.659 288.021 105.448 287.936 106.472H261.12C261.589 108.989 262.805 110.995 264.768 112.488C266.773 113.939 269.248 114.664 272.192 114.664C275.946 114.664 279.04 113.427 281.472 110.952L285.76 115.88C284.224 117.715 282.282 119.101 279.936 120.04C277.589 120.979 274.944 121.448 272 121.448C268.245 121.448 264.938 120.701 262.08 119.208C259.221 117.715 257.002 115.645 255.424 113C253.888 110.312 253.12 107.283 253.12 103.912C253.12 100.584 253.866 97.5973 255.36 94.952C256.896 92.264 259.008 90.1733 261.696 88.68C264.384 87.1867 267.413 86.44 270.784 86.44C274.112 86.44 277.077 87.1867 279.68 88.68C282.325 90.1307 284.373 92.2 285.824 94.888C287.317 97.5333 288.064 100.605 288.064 104.104ZM270.784 92.84C268.224 92.84 266.048 93.608 264.256 95.144C262.506 96.6373 261.44 98.6427 261.056 101.16H280.448C280.106 98.6853 279.061 96.68 277.312 95.144C275.562 93.608 273.386 92.84 270.784 92.84ZM303.364 91.816C305.668 88.232 309.721 86.44 315.524 86.44V94.056C314.841 93.928 314.223 93.864 313.668 93.864C310.553 93.864 308.121 94.7813 306.372 96.616C304.623 98.408 303.748 101.011 303.748 104.424V121H295.748V86.824H303.364V91.816ZM380.887 76.2V121H374.039L349.335 90.664V121H341.079V76.2H347.927L372.631 106.536V76.2H380.887ZM424.251 104.104C424.251 104.659 424.208 105.448 424.123 106.472H397.307C397.776 108.989 398.992 110.995 400.955 112.488C402.96 113.939 405.435 114.664 408.379 114.664C412.134 114.664 415.227 113.427 417.659 110.952L421.947 115.88C420.411 117.715 418.47 119.101 416.123 120.04C413.776 120.979 411.131 121.448 408.187 121.448C404.432 121.448 401.126 120.701 398.267 119.208C395.408 117.715 393.19 115.645 391.611 113C390.075 110.312 389.307 107.283 389.307 103.912C389.307 100.584 390.054 97.5973 391.547 94.952C393.083 92.264 395.195 90.1733 397.883 88.68C400.571 87.1867 403.6 86.44 406.971 86.44C410.299 86.44 413.264 87.1867 415.867 88.68C418.512 90.1307 420.56 92.2 422.011 94.888C423.504 97.5333 424.251 100.605 424.251 104.104ZM406.971 92.84C404.411 92.84 402.235 93.608 400.443 95.144C398.694 96.6373 397.627 98.6427 397.243 101.16H416.635C416.294 98.6853 415.248 96.68 413.499 95.144C411.75 93.608 409.574 92.84 406.971 92.84ZM484.623 86.824L472.015 121H464.335L455.503 97.448L446.543 121H438.863L426.319 86.824H433.871L442.895 112.04L452.303 86.824H459.023L468.239 112.168L477.519 86.824H484.623ZM517.667 83.24H502.819V76.2H540.835V83.24H525.987V121H517.667V83.24ZM565.703 86.44C570.012 86.44 573.468 87.6987 576.071 90.216C578.673 92.7333 579.975 96.4667 579.975 101.416V121H571.975V102.44C571.975 99.4533 571.271 97.2133 569.863 95.72C568.455 94.184 566.449 93.416 563.847 93.416C560.903 93.416 558.577 94.312 556.871 96.104C555.164 97.8533 554.311 100.392 554.311 103.72V121H546.311V73.512H554.311V90.792C555.633 89.384 557.255 88.3173 559.175 87.592C561.137 86.824 563.313 86.44 565.703 86.44ZM597.739 91.816C600.043 88.232 604.096 86.44 609.899 86.44V94.056C609.216 93.928 608.598 93.864 608.043 93.864C604.928 93.864 602.496 94.7813 600.747 96.616C598.998 98.408 598.123 101.011 598.123 104.424V121H590.123V86.824H597.739V91.816ZM648.501 104.104C648.501 104.659 648.458 105.448 648.373 106.472H621.557C622.026 108.989 623.242 110.995 625.205 112.488C627.21 113.939 629.685 114.664 632.629 114.664C636.384 114.664 639.477 113.427 641.909 110.952L646.197 115.88C644.661 117.715 642.72 119.101 640.373 120.04C638.026 120.979 635.381 121.448 632.437 121.448C628.682 121.448 625.376 120.701 622.517 119.208C619.658 117.715 617.44 115.645 615.861 113C614.325 110.312 613.557 107.283 613.557 103.912C613.557 100.584 614.304 97.5973 615.797 94.952C617.333 92.264 619.445 90.1733 622.133 88.68C624.821 87.1867 627.85 86.44 631.221 86.44C634.549 86.44 637.514 87.1867 640.117 88.68C642.762 90.1307 644.81 92.2 646.261 94.888C647.754 97.5333 648.501 100.605 648.501 104.104ZM631.221 92.84C628.661 92.84 626.485 93.608 624.693 95.144C622.944 96.6373 621.877 98.6427 621.493 101.16H640.885C640.544 98.6853 639.498 96.68 637.749 95.144C636 93.608 633.824 92.84 631.221 92.84ZM668.304 86.44C673.339 86.44 677.179 87.656 679.824 90.088C682.512 92.4773 683.856 96.104 683.856 100.968V121H676.304V116.84C675.323 118.333 673.915 119.485 672.08 120.296C670.288 121.064 668.112 121.448 665.552 121.448C662.992 121.448 660.752 121.021 658.832 120.168C656.912 119.272 655.419 118.056 654.352 116.52C653.328 114.941 652.816 113.171 652.816 111.208C652.816 108.136 653.947 105.683 656.208 103.848C658.512 101.971 662.117 101.032 667.024 101.032H675.856V100.52C675.856 98.1307 675.131 96.296 673.68 95.016C672.272 93.736 670.16 93.096 667.344 93.096C665.424 93.096 663.525 93.3947 661.648 93.992C659.813 94.5893 658.256 95.4213 656.976 96.488L653.84 90.664C655.632 89.2987 657.787 88.2533 660.304 87.528C662.821 86.8027 665.488 86.44 668.304 86.44ZM667.216 115.624C669.221 115.624 670.992 115.176 672.528 114.28C674.107 113.341 675.216 112.019 675.856 110.312V106.344H667.6C662.992 106.344 660.688 107.859 660.688 110.888C660.688 112.339 661.264 113.491 662.416 114.344C663.568 115.197 665.168 115.624 667.216 115.624ZM727.908 73.512V121H720.228V116.584C718.905 118.205 717.262 119.421 715.3 120.232C713.38 121.043 711.246 121.448 708.9 121.448C705.614 121.448 702.649 120.723 700.004 119.272C697.401 117.821 695.353 115.773 693.86 113.128C692.366 110.44 691.62 107.368 691.62 103.912C691.62 100.456 692.366 97.4053 693.86 94.76C695.353 92.1147 697.401 90.0667 700.004 88.616C702.649 87.1653 705.614 86.44 708.9 86.44C711.161 86.44 713.23 86.824 715.108 87.592C716.985 88.36 718.585 89.512 719.908 91.048V73.512H727.908ZM709.86 114.6C711.78 114.6 713.508 114.173 715.044 113.32C716.58 112.424 717.796 111.165 718.692 109.544C719.588 107.923 720.036 106.045 720.036 103.912C720.036 101.779 719.588 99.9013 718.692 98.28C717.796 96.6587 716.58 95.4213 715.044 94.568C713.508 93.672 711.78 93.224 709.86 93.224C707.94 93.224 706.212 93.672 704.676 94.568C703.14 95.4213 701.924 96.6587 701.028 98.28C700.132 99.9013 699.684 101.779 699.684 103.912C699.684 106.045 700.132 107.923 701.028 109.544C701.924 111.165 703.14 112.424 704.676 113.32C706.212 114.173 707.94 114.6 709.86 114.6ZM158.928 199.448C155.387 199.448 152.208 198.701 149.392 197.208C146.576 195.715 144.379 193.645 142.8 191C141.221 188.312 140.432 185.283 140.432 181.912C140.432 178.541 141.221 175.533 142.8 172.888C144.379 170.243 146.555 168.173 149.328 166.68C152.144 165.187 155.344 164.44 158.928 164.44C162.299 164.44 165.243 165.123 167.76 166.488C170.32 167.853 172.24 169.816 173.52 172.376L167.376 175.96C166.395 174.381 165.157 173.208 163.664 172.44C162.213 171.629 160.613 171.224 158.864 171.224C155.877 171.224 153.403 172.205 151.44 174.168C149.477 176.088 148.496 178.669 148.496 181.912C148.496 185.155 149.456 187.757 151.376 189.72C153.339 191.64 155.835 192.6 158.864 192.6C160.613 192.6 162.213 192.216 163.664 191.448C165.157 190.637 166.395 189.443 167.376 187.864L173.52 191.448C172.197 194.008 170.256 195.992 167.696 197.4C165.179 198.765 162.256 199.448 158.928 199.448ZM188.052 169.816C190.356 166.232 194.409 164.44 200.212 164.44V172.056C199.529 171.928 198.91 171.864 198.356 171.864C195.241 171.864 192.809 172.781 191.06 174.616C189.31 176.408 188.436 179.011 188.436 182.424V199H180.436V164.824H188.052V169.816ZM238.814 182.104C238.814 182.659 238.771 183.448 238.686 184.472H211.87C212.339 186.989 213.555 188.995 215.518 190.488C217.523 191.939 219.998 192.664 222.942 192.664C226.696 192.664 229.79 191.427 232.222 188.952L236.51 193.88C234.974 195.715 233.032 197.101 230.686 198.04C228.339 198.979 225.694 199.448 222.75 199.448C218.995 199.448 215.688 198.701 212.83 197.208C209.971 195.715 207.752 193.645 206.174 191C204.638 188.312 203.87 185.283 203.87 181.912C203.87 178.584 204.616 175.597 206.11 172.952C207.646 170.264 209.758 168.173 212.446 166.68C215.134 165.187 218.163 164.44 221.534 164.44C224.862 164.44 227.827 165.187 230.43 166.68C233.075 168.131 235.123 170.2 236.574 172.888C238.067 175.533 238.814 178.605 238.814 182.104ZM221.534 170.84C218.974 170.84 216.798 171.608 215.006 173.144C213.256 174.637 212.19 176.643 211.806 179.16H231.198C230.856 176.685 229.811 174.68 228.062 173.144C226.312 171.608 224.136 170.84 221.534 170.84ZM279.97 151.512V199H272.29V194.584C270.967 196.205 269.325 197.421 267.362 198.232C265.442 199.043 263.309 199.448 260.962 199.448C257.677 199.448 254.711 198.723 252.066 197.272C249.463 195.821 247.415 193.773 245.922 191.128C244.429 188.44 243.682 185.368 243.682 181.912C243.682 178.456 244.429 175.405 245.922 172.76C247.415 170.115 249.463 168.067 252.066 166.616C254.711 165.165 257.677 164.44 260.962 164.44C263.223 164.44 265.293 164.824 267.17 165.592C269.047 166.36 270.647 167.512 271.97 169.048V151.512H279.97ZM261.922 192.6C263.842 192.6 265.57 192.173 267.106 191.32C268.642 190.424 269.858 189.165 270.754 187.544C271.65 185.923 272.098 184.045 272.098 181.912C272.098 179.779 271.65 177.901 270.754 176.28C269.858 174.659 268.642 173.421 267.106 172.568C265.57 171.672 263.842 171.224 261.922 171.224C260.002 171.224 258.274 171.672 256.738 172.568C255.202 173.421 253.986 174.659 253.09 176.28C252.194 177.901 251.746 179.779 251.746 181.912C251.746 184.045 252.194 185.923 253.09 187.544C253.986 189.165 255.202 190.424 256.738 191.32C258.274 192.173 260.002 192.6 261.922 192.6ZM322.564 182.104C322.564 182.659 322.521 183.448 322.436 184.472H295.62C296.089 186.989 297.305 188.995 299.268 190.488C301.273 191.939 303.748 192.664 306.692 192.664C310.446 192.664 313.54 191.427 315.972 188.952L320.26 193.88C318.724 195.715 316.782 197.101 314.436 198.04C312.089 198.979 309.444 199.448 306.5 199.448C302.745 199.448 299.438 198.701 296.58 197.208C293.721 195.715 291.502 193.645 289.924 191C288.388 188.312 287.62 185.283 287.62 181.912C287.62 178.584 288.366 175.597 289.86 172.952C291.396 170.264 293.508 168.173 296.196 166.68C298.884 165.187 301.913 164.44 305.284 164.44C308.612 164.44 311.577 165.187 314.18 166.68C316.825 168.131 318.873 170.2 320.324 172.888C321.817 175.533 322.564 178.605 322.564 182.104ZM305.284 170.84C302.724 170.84 300.548 171.608 298.756 173.144C297.006 174.637 295.94 176.643 295.556 179.16H314.948C314.606 176.685 313.561 174.68 311.812 173.144C310.062 171.608 307.886 170.84 305.284 170.84ZM349.64 164.44C353.949 164.44 357.405 165.699 360.008 168.216C362.611 170.733 363.912 174.467 363.912 179.416V199H355.912V180.44C355.912 177.453 355.208 175.213 353.8 173.72C352.392 172.184 350.387 171.416 347.784 171.416C344.84 171.416 342.515 172.312 340.808 174.104C339.101 175.853 338.248 178.392 338.248 181.72V199H330.248V164.824H337.864V169.24C339.187 167.661 340.851 166.467 342.856 165.656C344.861 164.845 347.123 164.44 349.64 164.44ZM394.605 197.144C393.666 197.912 392.514 198.488 391.149 198.872C389.826 199.256 388.418 199.448 386.925 199.448C383.17 199.448 380.269 198.467 378.22 196.504C376.173 194.541 375.149 191.683 375.149 187.928V171.48H369.517V165.08H375.149V157.272H383.149V165.08H392.301V171.48H383.149V187.736C383.149 189.4 383.554 190.68 384.365 191.576C385.175 192.429 386.349 192.856 387.885 192.856C389.677 192.856 391.17 192.387 392.365 191.448L394.605 197.144ZM401.186 164.824H409.186V199H401.186V164.824ZM405.218 159.192C403.767 159.192 402.551 158.744 401.57 157.848C400.588 156.909 400.098 155.757 400.098 154.392C400.098 153.027 400.588 151.896 401.57 151C402.551 150.061 403.767 149.592 405.218 149.592C406.668 149.592 407.884 150.04 408.866 150.936C409.847 151.789 410.338 152.877 410.338 154.2C410.338 155.608 409.847 156.803 408.866 157.784C407.927 158.723 406.711 159.192 405.218 159.192ZM432.742 164.44C437.776 164.44 441.616 165.656 444.262 168.088C446.95 170.477 448.294 174.104 448.294 178.968V199H440.742V194.84C439.76 196.333 438.352 197.485 436.518 198.296C434.726 199.064 432.55 199.448 429.99 199.448C427.43 199.448 425.19 199.021 423.27 198.168C421.35 197.272 419.856 196.056 418.79 194.52C417.766 192.941 417.254 191.171 417.254 189.208C417.254 186.136 418.384 183.683 420.646 181.848C422.95 179.971 426.555 179.032 431.462 179.032H440.294V178.52C440.294 176.131 439.568 174.296 438.118 173.016C436.71 171.736 434.598 171.096 431.782 171.096C429.862 171.096 427.963 171.395 426.086 171.992C424.251 172.589 422.694 173.421 421.414 174.488L418.278 168.664C420.07 167.299 422.224 166.253 424.742 165.528C427.259 164.803 429.926 164.44 432.742 164.44ZM431.654 193.624C433.659 193.624 435.43 193.176 436.966 192.28C438.544 191.341 439.654 190.019 440.294 188.312V184.344H432.038C427.43 184.344 425.126 185.859 425.126 188.888C425.126 190.339 425.702 191.491 426.854 192.344C428.006 193.197 429.606 193.624 431.654 193.624ZM458.561 151.512H466.561V199H458.561V151.512ZM487.621 199.448C484.847 199.448 482.138 199.085 479.493 198.36C476.847 197.635 474.735 196.717 473.157 195.608L476.229 189.528C477.765 190.552 479.599 191.384 481.733 192.024C483.909 192.621 486.042 192.92 488.133 192.92C492.911 192.92 495.301 191.661 495.301 189.144C495.301 187.949 494.682 187.117 493.445 186.648C492.25 186.179 490.309 185.731 487.621 185.304C484.805 184.877 482.501 184.387 480.709 183.832C478.959 183.277 477.423 182.317 476.101 180.952C474.821 179.544 474.181 177.603 474.181 175.128C474.181 171.885 475.525 169.304 478.213 167.384C480.943 165.421 484.613 164.44 489.221 164.44C491.567 164.44 493.914 164.717 496.261 165.272C498.607 165.784 500.527 166.488 502.021 167.384L498.949 173.464C496.047 171.757 492.783 170.904 489.157 170.904C486.81 170.904 485.018 171.267 483.781 171.992C482.586 172.675 481.989 173.592 481.989 174.744C481.989 176.024 482.629 176.941 483.909 177.496C485.231 178.008 487.258 178.499 489.989 178.968C492.719 179.395 494.959 179.885 496.709 180.44C498.458 180.995 499.951 181.933 501.189 183.256C502.469 184.579 503.109 186.456 503.109 188.888C503.109 192.088 501.722 194.648 498.949 196.568C496.175 198.488 492.399 199.448 487.621 199.448Z" fill="white"/>
<rect x="839.5" y="106.5" width="355" height="60" rx="18.5" stroke="white" stroke-width="5"/>
<path d="M956.416 147.192C955.152 147.192 953.928 147 952.744 146.616C951.576 146.216 950.656 145.704 949.984 145.08L950.872 143.208C951.512 143.784 952.328 144.256 953.32 144.624C954.328 144.976 955.36 145.152 956.416 145.152C957.808 145.152 958.848 144.92 959.536 144.456C960.224 143.976 960.568 143.344 960.568 142.56C960.568 141.984 960.376 141.52 959.992 141.168C959.624 140.8 959.16 140.52 958.6 140.328C958.056 140.136 957.28 139.92 956.272 139.68C955.008 139.376 953.984 139.072 953.2 138.768C952.432 138.464 951.768 138 951.208 137.376C950.664 136.736 950.392 135.88 950.392 134.808C950.392 133.912 950.624 133.104 951.088 132.384C951.568 131.664 952.288 131.088 953.248 130.656C954.208 130.224 955.4 130.008 956.824 130.008C957.816 130.008 958.792 130.136 959.752 130.392C960.712 130.648 961.536 131.016 962.224 131.496L961.432 133.416C960.728 132.968 959.976 132.632 959.176 132.408C958.376 132.168 957.592 132.048 956.824 132.048C955.464 132.048 954.44 132.296 953.752 132.792C953.08 133.288 952.744 133.928 952.744 134.712C952.744 135.288 952.936 135.76 953.32 136.128C953.704 136.48 954.176 136.76 954.736 136.968C955.312 137.16 956.088 137.368 957.064 137.592C958.328 137.896 959.344 138.2 960.112 138.504C960.88 138.808 961.536 139.272 962.08 139.896C962.64 140.52 962.92 141.36 962.92 142.416C962.92 143.296 962.68 144.104 962.2 144.84C961.72 145.56 960.992 146.136 960.016 146.568C959.04 146.984 957.84 147.192 956.416 147.192ZM973.242 146.256C972.906 146.544 972.49 146.768 971.994 146.928C971.498 147.072 970.986 147.144 970.458 147.144C969.178 147.144 968.186 146.8 967.482 146.112C966.778 145.424 966.426 144.44 966.426 143.16V136.176H964.266V134.28H966.426V131.496H968.73V134.28H972.378V136.176H968.73V143.064C968.73 143.752 968.898 144.28 969.234 144.648C969.586 145.016 970.082 145.2 970.722 145.2C971.426 145.2 972.026 145 972.522 144.6L973.242 146.256ZM980.66 134.16C982.42 134.16 983.764 134.592 984.692 135.456C985.636 136.32 986.108 137.608 986.108 139.32V147H983.924V145.32C983.54 145.912 982.988 146.368 982.268 146.688C981.564 146.992 980.724 147.144 979.748 147.144C978.324 147.144 977.18 146.8 976.316 146.112C975.468 145.424 975.044 144.52 975.044 143.4C975.044 142.28 975.452 141.384 976.268 140.712C977.084 140.024 978.38 139.68 980.156 139.68H983.804V139.224C983.804 138.232 983.516 137.472 982.94 136.944C982.364 136.416 981.516 136.152 980.396 136.152C979.644 136.152 978.908 136.28 978.188 136.536C977.468 136.776 976.86 137.104 976.364 137.52L975.404 135.792C976.06 135.264 976.844 134.864 977.756 134.592C978.668 134.304 979.636 134.16 980.66 134.16ZM980.132 145.368C981.012 145.368 981.772 145.176 982.412 144.792C983.052 144.392 983.516 143.832 983.804 143.112V141.336H980.252C978.3 141.336 977.324 141.992 977.324 143.304C977.324 143.944 977.572 144.448 978.068 144.816C978.564 145.184 979.252 145.368 980.132 145.368ZM992.58 136.416C992.98 135.68 993.572 135.12 994.355 134.736C995.14 134.352 996.092 134.16 997.212 134.16V136.392C997.084 136.376 996.908 136.368 996.684 136.368C995.436 136.368 994.452 136.744 993.732 137.496C993.028 138.232 992.676 139.288 992.676 140.664V147H990.372V134.28H992.58V136.416ZM1007.72 146.256C1007.38 146.544 1006.97 146.768 1006.47 146.928C1005.97 147.072 1005.46 147.144 1004.93 147.144C1003.65 147.144 1002.66 146.8 1001.96 146.112C1001.25 145.424 1000.9 144.44 1000.9 143.16V136.176H998.743V134.28H1000.9V131.496H1003.21V134.28H1006.85V136.176H1003.21V143.064C1003.21 143.752 1003.37 144.28 1003.71 144.648C1004.06 145.016 1004.56 145.2 1005.2 145.2C1005.9 145.2 1006.5 145 1007 144.6L1007.72 146.256ZM1021.61 130.944C1020.23 130.944 1019.54 131.688 1019.54 133.176V134.28H1023.24V136.176H1019.59V147H1017.29V136.176H1015.13V134.28H1017.29V133.152C1017.29 131.888 1017.65 130.888 1018.39 130.152C1019.13 129.416 1020.16 129.048 1021.49 129.048C1022 129.048 1022.48 129.112 1022.93 129.24C1023.37 129.368 1023.76 129.552 1024.08 129.792L1023.38 131.544C1022.85 131.144 1022.26 130.944 1021.61 130.944ZM1027.34 134.28H1029.65V147H1027.34V134.28ZM1028.49 131.832C1028.05 131.832 1027.67 131.688 1027.37 131.4C1027.08 131.112 1026.93 130.76 1026.93 130.344C1026.93 129.928 1027.08 129.576 1027.37 129.288C1027.67 128.984 1028.05 128.832 1028.49 128.832C1028.94 128.832 1029.31 128.976 1029.6 129.264C1029.9 129.536 1030.05 129.88 1030.05 130.296C1030.05 130.728 1029.9 131.096 1029.6 131.4C1029.31 131.688 1028.94 131.832 1028.49 131.832ZM1034.04 129.192H1036.34V147H1034.04V129.192ZM1040.74 129.192H1043.04V147H1040.74V129.192ZM1047.44 134.28H1049.75V147H1047.44V134.28ZM1048.59 131.832C1048.15 131.832 1047.77 131.688 1047.47 131.4C1047.18 131.112 1047.03 130.76 1047.03 130.344C1047.03 129.928 1047.18 129.576 1047.47 129.288C1047.77 128.984 1048.15 128.832 1048.59 128.832C1049.04 128.832 1049.41 128.976 1049.7 129.264C1050 129.536 1050.15 129.88 1050.15 130.296C1050.15 130.728 1050 131.096 1049.7 131.4C1049.41 131.688 1049.04 131.832 1048.59 131.832ZM1060.94 134.16C1062.55 134.16 1063.83 134.632 1064.78 135.576C1065.74 136.504 1066.22 137.872 1066.22 139.68V147H1063.91V139.944C1063.91 138.712 1063.62 137.784 1063.02 137.16C1062.43 136.536 1061.58 136.224 1060.48 136.224C1059.23 136.224 1058.25 136.592 1057.53 137.328C1056.81 138.048 1056.45 139.088 1056.45 140.448V147H1054.14V134.28H1056.35V136.2C1056.82 135.544 1057.44 135.04 1058.22 134.688C1059.02 134.336 1059.93 134.16 1060.94 134.16ZM1082.72 134.28V145.272C1082.72 147.496 1082.17 149.136 1081.06 150.192C1079.96 151.264 1078.31 151.8 1076.12 151.8C1074.92 151.8 1073.78 151.632 1072.69 151.296C1071.6 150.976 1070.72 150.512 1070.05 149.904L1071.15 148.128C1071.74 148.64 1072.47 149.04 1073.34 149.328C1074.22 149.632 1075.12 149.784 1076.05 149.784C1077.54 149.784 1078.63 149.432 1079.34 148.728C1080.06 148.024 1080.42 146.952 1080.42 145.512V144.504C1079.87 145.16 1079.2 145.656 1078.4 145.992C1077.62 146.312 1076.76 146.472 1075.83 146.472C1074.62 146.472 1073.51 146.216 1072.52 145.704C1071.54 145.176 1070.78 144.448 1070.22 143.52C1069.66 142.576 1069.38 141.504 1069.38 140.304C1069.38 139.104 1069.66 138.04 1070.22 137.112C1070.78 136.168 1071.54 135.44 1072.52 134.928C1073.51 134.416 1074.62 134.16 1075.83 134.16C1076.79 134.16 1077.68 134.336 1078.5 134.688C1079.33 135.04 1080.01 135.56 1080.54 136.248V134.28H1082.72ZM1076.1 144.456C1076.93 144.456 1077.67 144.28 1078.33 143.928C1079 143.576 1079.52 143.088 1079.89 142.464C1080.27 141.824 1080.46 141.104 1080.46 140.304C1080.46 139.072 1080.06 138.08 1079.24 137.328C1078.42 136.56 1077.38 136.176 1076.1 136.176C1074.8 136.176 1073.74 136.56 1072.93 137.328C1072.11 138.08 1071.7 139.072 1071.7 140.304C1071.7 141.104 1071.89 141.824 1072.26 142.464C1072.64 143.088 1073.16 143.576 1073.82 143.928C1074.49 144.28 1075.25 144.456 1076.1 144.456Z" fill="white"/>
<path d="M1021.33 276.5C1019.41 279.833 1014.59 279.833 1012.67 276.5L995.349 246.5C993.425 243.167 995.83 239 999.679 239H1034.32C1038.17 239 1040.58 243.167 1038.65 246.5L1021.33 276.5Z" fill="white"/>
<defs>
<linearGradient id="paint0_linear" x1="-1.02476e-05" y1="487.975" x2="1366" y2="487.975" gradientUnits="userSpaceOnUse">
<stop offset="0.28125" stop-color="#A969CE"/>
<stop offset="1" stop-color="#45AAD7"/>
</linearGradient>
</defs>
</svg>
