<svg width="1366" height="1106" viewBox="0 0 1366 1106" fill="none" xmlns="http://www.w3.org/2000/svg">
<rect width="1366" height="1106" fill="url(#paint0_linear)"/>
<rect x="114" y="333" width="1140" height="179" rx="40" fill="white"/>
<path d="M130.104 73.24H115.256V66.2H153.272V73.24H138.424V111H130.104V73.24ZM170.608 111.448C167.152 111.448 164.037 110.701 161.264 109.208C158.491 107.715 156.315 105.645 154.736 103C153.2 100.312 152.432 97.2827 152.432 93.912C152.432 90.5413 153.2 87.5333 154.736 84.888C156.315 82.2427 158.491 80.1733 161.264 78.68C164.037 77.1867 167.152 76.44 170.608 76.44C174.107 76.44 177.243 77.1867 180.016 78.68C182.789 80.1733 184.944 82.2427 186.48 84.888C188.059 87.5333 188.848 90.5413 188.848 93.912C188.848 97.2827 188.059 100.312 186.48 103C184.944 105.645 182.789 107.715 180.016 109.208C177.243 110.701 174.107 111.448 170.608 111.448ZM170.608 104.6C173.552 104.6 175.984 103.619 177.904 101.656C179.824 99.6933 180.784 97.112 180.784 93.912C180.784 90.712 179.824 88.1307 177.904 86.168C175.984 84.2053 173.552 83.224 170.608 83.224C167.664 83.224 165.232 84.2053 163.312 86.168C161.435 88.1307 160.496 90.712 160.496 93.912C160.496 97.112 161.435 99.6933 163.312 101.656C165.232 103.619 167.664 104.6 170.608 104.6ZM215.442 76.44C218.77 76.44 221.735 77.1653 224.338 78.616C226.983 80.0667 229.053 82.1147 230.546 84.76C232.039 87.4053 232.786 90.456 232.786 93.912C232.786 97.368 232.039 100.44 230.546 103.128C229.053 105.773 226.983 107.821 224.338 109.272C221.735 110.723 218.77 111.448 215.442 111.448C210.834 111.448 207.186 109.912 204.498 106.84V123.416H196.498V76.824H204.114V81.304C205.437 79.6827 207.058 78.4667 208.978 77.656C210.941 76.8453 213.095 76.44 215.442 76.44ZM214.546 104.6C217.49 104.6 219.901 103.619 221.778 101.656C223.698 99.6933 224.658 97.112 224.658 93.912C224.658 90.712 223.698 88.1307 221.778 86.168C219.901 84.2053 217.49 83.224 214.546 83.224C212.626 83.224 210.898 83.672 209.362 84.568C207.826 85.4213 206.61 86.6587 205.714 88.28C204.818 89.9013 204.37 91.7787 204.37 93.912C204.37 96.0453 204.818 97.9227 205.714 99.544C206.61 101.165 207.826 102.424 209.362 103.32C210.898 104.173 212.626 104.6 214.546 104.6ZM240.373 76.824H248.373V111H240.373V76.824ZM244.405 71.192C242.954 71.192 241.738 70.744 240.757 69.848C239.776 68.9093 239.285 67.7573 239.285 66.392C239.285 65.0267 239.776 63.896 240.757 63C241.738 62.0613 242.954 61.592 244.405 61.592C245.856 61.592 247.072 62.04 248.053 62.936C249.034 63.7893 249.525 64.8773 249.525 66.2C249.525 67.608 249.034 68.8027 248.053 69.784C247.114 70.7227 245.898 71.192 244.405 71.192ZM274.553 111.448C271.012 111.448 267.833 110.701 265.017 109.208C262.201 107.715 260.004 105.645 258.425 103C256.846 100.312 256.057 97.2827 256.057 93.912C256.057 90.5413 256.846 87.5333 258.425 84.888C260.004 82.2427 262.18 80.1733 264.953 78.68C267.769 77.1867 270.969 76.44 274.553 76.44C277.924 76.44 280.868 77.1227 283.385 78.488C285.945 79.8533 287.865 81.816 289.145 84.376L283.001 87.96C282.02 86.3813 280.782 85.208 279.289 84.44C277.838 83.6293 276.238 83.224 274.489 83.224C271.502 83.224 269.028 84.2053 267.065 86.168C265.102 88.088 264.121 90.6693 264.121 93.912C264.121 97.1547 265.081 99.7573 267.001 101.72C268.964 103.64 271.46 104.6 274.489 104.6C276.238 104.6 277.838 104.216 279.289 103.448C280.782 102.637 282.02 101.443 283.001 99.864L289.145 103.448C287.822 106.008 285.881 107.992 283.321 109.4C280.804 110.765 277.881 111.448 274.553 111.448ZM316.308 87.064C314.857 87.064 313.62 86.5733 312.596 85.592C311.572 84.568 311.06 83.288 311.06 81.752C311.06 80.1733 311.551 78.8933 312.532 77.912C313.556 76.9307 314.815 76.44 316.308 76.44C317.801 76.44 319.039 76.9307 320.02 77.912C321.044 78.8933 321.556 80.1733 321.556 81.752C321.556 83.288 321.044 84.568 320.02 85.592C318.996 86.5733 317.759 87.064 316.308 87.064ZM316.308 111.448C314.857 111.448 313.62 110.957 312.596 109.976C311.572 108.952 311.06 107.672 311.06 106.136C311.06 104.557 311.551 103.277 312.532 102.296C313.556 101.315 314.815 100.824 316.308 100.824C317.801 100.824 319.039 101.315 320.02 102.296C321.044 103.277 321.556 104.557 321.556 106.136C321.556 107.672 321.044 108.952 320.02 109.976C318.996 110.957 317.759 111.448 316.308 111.448ZM368.565 111.64C364.042 111.64 359.946 110.659 356.277 108.696C352.65 106.691 349.791 103.939 347.701 100.44C345.653 96.9413 344.629 92.9947 344.629 88.6C344.629 84.2053 345.674 80.2587 347.765 76.76C349.855 73.2613 352.714 70.5307 356.341 68.568C360.01 66.5627 364.106 65.56 368.629 65.56C372.298 65.56 375.647 66.2 378.677 67.48C381.706 68.76 384.266 70.616 386.357 73.048L380.981 78.104C377.738 74.6053 373.749 72.856 369.013 72.856C365.941 72.856 363.189 73.5387 360.757 74.904C358.325 76.2267 356.426 78.0827 355.061 80.472C353.695 82.8613 353.013 85.5707 353.013 88.6C353.013 91.6293 353.695 94.3387 355.061 96.728C356.426 99.1173 358.325 100.995 360.757 102.36C363.189 103.683 365.941 104.344 369.013 104.344C373.749 104.344 377.738 102.573 380.981 99.032L386.357 104.152C384.266 106.584 381.685 108.44 378.613 109.72C375.583 111 372.234 111.64 368.565 111.64ZM407.967 111.64C404.511 111.64 401.161 111.149 397.919 110.168C394.719 109.187 392.18 107.885 390.303 106.264L393.183 99.8C395.017 101.251 397.257 102.445 399.903 103.384C402.591 104.28 405.279 104.728 407.967 104.728C411.295 104.728 413.769 104.195 415.391 103.128C417.055 102.061 417.887 100.653 417.887 98.904C417.887 97.624 417.417 96.5787 416.479 95.768C415.583 94.9147 414.431 94.2533 413.023 93.784C411.615 93.3147 409.695 92.7813 407.263 92.184C403.849 91.3733 401.076 90.5627 398.943 89.752C396.852 88.9413 395.039 87.6827 393.503 85.976C392.009 84.2267 391.263 81.88 391.263 78.936C391.263 76.4613 391.924 74.2213 393.247 72.216C394.612 70.168 396.639 68.5467 399.327 67.352C402.057 66.1573 405.385 65.56 409.311 65.56C412.041 65.56 414.729 65.9013 417.375 66.584C420.02 67.2667 422.303 68.248 424.222 69.528L421.599 75.992C419.636 74.84 417.588 73.9653 415.455 73.368C413.321 72.7707 411.252 72.472 409.247 72.472C405.961 72.472 403.508 73.0267 401.887 74.136C400.308 75.2453 399.519 76.7173 399.519 78.552C399.519 79.832 399.967 80.8773 400.863 81.688C401.801 82.4987 402.975 83.1387 404.383 83.608C405.791 84.0773 407.711 84.6107 410.143 85.208C413.471 85.976 416.201 86.7867 418.335 87.64C420.468 88.4507 422.281 89.7093 423.775 91.416C425.311 93.1227 426.079 95.4267 426.079 98.328C426.079 100.803 425.396 103.043 424.031 105.048C422.708 107.053 420.681 108.653 417.951 109.848C415.22 111.043 411.892 111.64 407.967 111.64ZM448.217 111.64C444.761 111.64 441.411 111.149 438.169 110.168C434.969 109.187 432.43 107.885 430.553 106.264L433.433 99.8C435.267 101.251 437.507 102.445 440.153 103.384C442.841 104.28 445.529 104.728 448.217 104.728C451.545 104.728 454.019 104.195 455.641 103.128C457.305 102.061 458.137 100.653 458.137 98.904C458.137 97.624 457.667 96.5787 456.729 95.768C455.833 94.9147 454.681 94.2533 453.273 93.784C451.865 93.3147 449.945 92.7813 447.513 92.184C444.099 91.3733 441.326 90.5627 439.193 89.752C437.102 88.9413 435.289 87.6827 433.753 85.976C432.259 84.2267 431.513 81.88 431.513 78.936C431.513 76.4613 432.174 74.2213 433.497 72.216C434.862 70.168 436.889 68.5467 439.577 67.352C442.307 66.1573 445.635 65.56 449.561 65.56C452.291 65.56 454.979 65.9013 457.625 66.584C460.27 67.2667 462.553 68.248 464.472 69.528L461.849 75.992C459.886 74.84 457.838 73.9653 455.705 73.368C453.571 72.7707 451.502 72.472 449.497 72.472C446.211 72.472 443.758 73.0267 442.137 74.136C440.558 75.2453 439.769 76.7173 439.769 78.552C439.769 79.832 440.217 80.8773 441.113 81.688C442.051 82.4987 443.225 83.1387 444.633 83.608C446.041 84.0773 447.961 84.6107 450.393 85.208C453.721 85.976 456.451 86.7867 458.585 87.64C460.718 88.4507 462.531 89.7093 464.025 91.416C465.561 93.1227 466.329 95.4267 466.329 98.328C466.329 100.803 465.646 103.043 464.281 105.048C462.958 107.053 460.931 108.653 458.201 109.848C455.47 111.043 452.142 111.64 448.217 111.64Z" fill="white"/>
<path d="M129.104 183.24H114.256V176.2H152.272V183.24H137.424V221H129.104V183.24ZM177.14 186.44C181.449 186.44 184.905 187.699 187.508 190.216C190.111 192.733 191.412 196.467 191.412 201.416V221H183.412V202.44C183.412 199.453 182.708 197.213 181.3 195.72C179.892 194.184 177.887 193.416 175.284 193.416C172.34 193.416 170.015 194.312 168.308 196.104C166.601 197.853 165.748 200.392 165.748 203.72V221H157.748V173.512H165.748V190.792C167.071 189.384 168.692 188.317 170.612 187.592C172.575 186.824 174.751 186.44 177.14 186.44ZM209.177 191.816C211.481 188.232 215.534 186.44 221.337 186.44V194.056C220.654 193.928 220.035 193.864 219.481 193.864C216.366 193.864 213.934 194.781 212.185 196.616C210.435 198.408 209.561 201.011 209.561 204.424V221H201.561V186.824H209.177V191.816ZM259.939 204.104C259.939 204.659 259.896 205.448 259.811 206.472H232.995C233.464 208.989 234.68 210.995 236.643 212.488C238.648 213.939 241.123 214.664 244.067 214.664C247.821 214.664 250.915 213.427 253.347 210.952L257.635 215.88C256.099 217.715 254.157 219.101 251.811 220.04C249.464 220.979 246.819 221.448 243.875 221.448C240.12 221.448 236.813 220.701 233.955 219.208C231.096 217.715 228.877 215.645 227.299 213C225.763 210.312 224.995 207.283 224.995 203.912C224.995 200.584 225.741 197.597 227.235 194.952C228.771 192.264 230.883 190.173 233.571 188.68C236.259 187.187 239.288 186.44 242.659 186.44C245.987 186.44 248.952 187.187 251.555 188.68C254.2 190.131 256.248 192.2 257.699 194.888C259.192 197.533 259.939 200.605 259.939 204.104ZM242.659 192.84C240.099 192.84 237.923 193.608 236.131 195.144C234.381 196.637 233.315 198.643 232.931 201.16H252.323C251.981 198.685 250.936 196.68 249.187 195.144C247.437 193.608 245.261 192.84 242.659 192.84ZM279.742 186.44C284.776 186.44 288.616 187.656 291.262 190.088C293.95 192.477 295.294 196.104 295.294 200.968V221H287.742V216.84C286.76 218.333 285.352 219.485 283.518 220.296C281.726 221.064 279.55 221.448 276.99 221.448C274.43 221.448 272.19 221.021 270.27 220.168C268.35 219.272 266.856 218.056 265.79 216.52C264.766 214.941 264.254 213.171 264.254 211.208C264.254 208.136 265.384 205.683 267.646 203.848C269.95 201.971 273.555 201.032 278.462 201.032H287.294V200.52C287.294 198.131 286.568 196.296 285.118 195.016C283.71 193.736 281.598 193.096 278.782 193.096C276.862 193.096 274.963 193.395 273.086 193.992C271.251 194.589 269.694 195.421 268.414 196.488L265.278 190.664C267.07 189.299 269.224 188.253 271.742 187.528C274.259 186.803 276.926 186.44 279.742 186.44ZM278.654 215.624C280.659 215.624 282.43 215.176 283.966 214.28C285.544 213.341 286.654 212.019 287.294 210.312V206.344H279.038C274.43 206.344 272.126 207.859 272.126 210.888C272.126 212.339 272.702 213.491 273.854 214.344C275.006 215.197 276.606 215.624 278.654 215.624ZM339.345 173.512V221H331.665V216.584C330.342 218.205 328.7 219.421 326.737 220.232C324.817 221.043 322.684 221.448 320.337 221.448C317.052 221.448 314.086 220.723 311.441 219.272C308.838 217.821 306.79 215.773 305.297 213.128C303.804 210.44 303.057 207.368 303.057 203.912C303.057 200.456 303.804 197.405 305.297 194.76C306.79 192.115 308.838 190.067 311.441 188.616C314.086 187.165 317.052 186.44 320.337 186.44C322.598 186.44 324.668 186.824 326.545 187.592C328.422 188.36 330.022 189.512 331.345 191.048V173.512H339.345ZM321.297 214.6C323.217 214.6 324.945 214.173 326.481 213.32C328.017 212.424 329.233 211.165 330.129 209.544C331.025 207.923 331.473 206.045 331.473 203.912C331.473 201.779 331.025 199.901 330.129 198.28C329.233 196.659 328.017 195.421 326.481 194.568C324.945 193.672 323.217 193.224 321.297 193.224C319.377 193.224 317.649 193.672 316.113 194.568C314.577 195.421 313.361 196.659 312.465 198.28C311.569 199.901 311.121 201.779 311.121 203.912C311.121 206.045 311.569 207.923 312.465 209.544C313.361 211.165 314.577 212.424 316.113 213.32C317.649 214.173 319.377 214.6 321.297 214.6ZM370.058 197.064C368.607 197.064 367.37 196.573 366.346 195.592C365.322 194.568 364.81 193.288 364.81 191.752C364.81 190.173 365.301 188.893 366.282 187.912C367.306 186.931 368.565 186.44 370.058 186.44C371.551 186.44 372.789 186.931 373.77 187.912C374.794 188.893 375.306 190.173 375.306 191.752C375.306 193.288 374.794 194.568 373.77 195.592C372.746 196.573 371.509 197.064 370.058 197.064ZM370.058 221.448C368.607 221.448 367.37 220.957 366.346 219.976C365.322 218.952 364.81 217.672 364.81 216.136C364.81 214.557 365.301 213.277 366.282 212.296C367.306 211.315 368.565 210.824 370.058 210.824C371.551 210.824 372.789 211.315 373.77 212.296C374.794 213.277 375.306 214.557 375.306 216.136C375.306 217.672 374.794 218.952 373.77 219.976C372.746 220.957 371.509 221.448 370.058 221.448ZM434.219 186.824V233.416H426.219V216.84C423.531 219.912 419.883 221.448 415.275 221.448C411.947 221.448 408.96 220.723 406.315 219.272C403.712 217.821 401.664 215.773 400.171 213.128C398.72 210.483 397.995 207.411 397.995 203.912C397.995 200.456 398.741 197.405 400.235 194.76C401.728 192.115 403.776 190.067 406.379 188.616C408.981 187.165 411.947 186.44 415.275 186.44C417.621 186.44 419.755 186.845 421.675 187.656C423.637 188.467 425.28 189.683 426.603 191.304V186.824H434.219ZM416.171 214.6C419.115 214.6 421.547 213.619 423.467 211.656C425.387 209.693 426.347 207.112 426.347 203.912C426.347 200.712 425.387 198.131 423.467 196.168C421.547 194.205 419.115 193.224 416.171 193.224C413.227 193.224 410.795 194.205 408.875 196.168C406.997 198.131 406.059 200.712 406.059 203.912C406.059 207.112 406.997 209.693 408.875 211.656C410.795 213.619 413.227 214.6 416.171 214.6ZM497.998 186.824L485.39 221H477.71L468.878 197.448L459.918 221H452.238L439.694 186.824H447.246L456.27 212.04L465.678 186.824H472.398L481.614 212.168L490.894 186.824H497.998ZM534.689 204.104C534.689 204.659 534.646 205.448 534.561 206.472H507.745C508.214 208.989 509.43 210.995 511.393 212.488C513.398 213.939 515.873 214.664 518.817 214.664C522.571 214.664 525.665 213.427 528.097 210.952L532.385 215.88C530.849 217.715 528.907 219.101 526.561 220.04C524.214 220.979 521.569 221.448 518.625 221.448C514.87 221.448 511.563 220.701 508.705 219.208C505.846 217.715 503.627 215.645 502.049 213C500.513 210.312 499.745 207.283 499.745 203.912C499.745 200.584 500.491 197.597 501.985 194.952C503.521 192.264 505.633 190.173 508.321 188.68C511.009 187.187 514.038 186.44 517.409 186.44C520.737 186.44 523.702 187.187 526.305 188.68C528.95 190.131 530.998 192.2 532.449 194.888C533.942 197.533 534.689 200.605 534.689 204.104ZM517.409 192.84C514.849 192.84 512.673 193.608 510.881 195.144C509.131 196.637 508.065 198.643 507.681 201.16H527.073C526.731 198.685 525.686 196.68 523.937 195.144C522.187 193.608 520.011 192.84 517.409 192.84ZM549.989 191.816C552.293 188.232 556.346 186.44 562.149 186.44V194.056C561.466 193.928 560.848 193.864 560.293 193.864C557.178 193.864 554.746 194.781 552.997 196.616C551.248 198.408 550.373 201.011 550.373 204.424V221H542.373V186.824H549.989V191.816ZM590.73 219.144C589.791 219.912 588.639 220.488 587.274 220.872C585.951 221.256 584.543 221.448 583.05 221.448C579.295 221.448 576.394 220.467 574.345 218.504C572.298 216.541 571.274 213.683 571.274 209.928V193.48H565.642V187.08H571.274V179.272H579.274V187.08H588.426V193.48H579.274V209.736C579.274 211.4 579.679 212.68 580.49 213.576C581.3 214.429 582.474 214.856 584.01 214.856C585.802 214.856 587.295 214.387 588.49 213.448L590.73 219.144ZM628.686 186.824L612.686 223.752C611.192 227.464 609.379 230.067 607.246 231.56C605.112 233.096 602.531 233.864 599.502 233.864C597.795 233.864 596.11 233.587 594.446 233.032C592.782 232.477 591.416 231.709 590.349 230.728L593.549 224.84C594.318 225.565 595.214 226.141 596.238 226.568C597.304 226.995 598.371 227.208 599.438 227.208C600.846 227.208 601.998 226.845 602.894 226.12C603.832 225.395 604.686 224.179 605.454 222.472L606.03 221.128L591.117 186.824H599.438L610.19 212.104L621.006 186.824H628.686Z" fill="white"/>
<path d="M187.53 423.75H176.37L174.06 429H170.97L180.48 408H183.45L192.99 429H189.84L187.53 423.75ZM186.48 421.35L181.95 411.06L177.42 421.35H186.48ZM195.703 406.74H198.583V429H195.703V406.74ZM204.082 406.74H206.962V429H204.082V406.74ZM242.567 430.92C241.887 431.72 241.097 432.33 240.197 432.75C239.297 433.17 238.327 433.38 237.287 433.38C235.967 433.38 234.727 433.06 233.567 432.42C232.427 431.8 231.117 430.73 229.637 429.21C227.657 429.11 225.867 428.58 224.267 427.62C222.687 426.66 221.447 425.39 220.547 423.81C219.667 422.21 219.227 420.44 219.227 418.5C219.227 416.48 219.707 414.65 220.667 413.01C221.647 411.37 222.987 410.09 224.687 409.17C226.387 408.23 228.297 407.76 230.417 407.76C232.517 407.76 234.417 408.23 236.117 409.17C237.817 410.09 239.147 411.37 240.107 413.01C241.067 414.63 241.547 416.46 241.547 418.5C241.547 420.22 241.197 421.8 240.497 423.24C239.817 424.68 238.847 425.89 237.587 426.87C236.347 427.85 234.917 428.53 233.297 428.91C233.997 429.65 234.667 430.18 235.307 430.5C235.967 430.84 236.637 431.01 237.317 431.01C238.797 431.01 240.077 430.41 241.157 429.21L242.567 430.92ZM222.227 418.5C222.227 420.02 222.577 421.4 223.277 422.64C223.997 423.86 224.977 424.82 226.217 425.52C227.477 426.22 228.877 426.57 230.417 426.57C231.937 426.57 233.317 426.22 234.557 425.52C235.797 424.82 236.767 423.86 237.467 422.64C238.187 421.4 238.547 420.02 238.547 418.5C238.547 416.98 238.187 415.61 237.467 414.39C236.767 413.15 235.797 412.18 234.557 411.48C233.317 410.78 231.937 410.43 230.417 410.43C228.877 410.43 227.477 410.78 226.217 411.48C224.977 412.18 223.997 413.15 223.277 414.39C222.577 415.61 222.227 416.98 222.227 418.5ZM260.532 413.1V429H257.802V426.6C257.222 427.42 256.452 428.06 255.492 428.52C254.552 428.96 253.522 429.18 252.402 429.18C250.282 429.18 248.612 428.6 247.392 427.44C246.172 426.26 245.562 424.53 245.562 422.25V413.1H248.442V421.92C248.442 423.46 248.812 424.63 249.552 425.43C250.292 426.21 251.352 426.6 252.732 426.6C254.252 426.6 255.452 426.14 256.332 425.22C257.212 424.3 257.652 423 257.652 421.32V413.1H260.532ZM280.385 421.14C280.385 421.36 280.365 421.65 280.325 422.01H267.425C267.605 423.41 268.215 424.54 269.255 425.4C270.315 426.24 271.625 426.66 273.185 426.66C275.085 426.66 276.615 426.02 277.775 424.74L279.365 426.6C278.645 427.44 277.745 428.08 276.665 428.52C275.605 428.96 274.415 429.18 273.095 429.18C271.415 429.18 269.925 428.84 268.625 428.16C267.325 427.46 266.315 426.49 265.595 425.25C264.895 424.01 264.545 422.61 264.545 421.05C264.545 419.51 264.885 418.12 265.565 416.88C266.265 415.64 267.215 414.68 268.415 414C269.635 413.3 271.005 412.95 272.525 412.95C274.045 412.95 275.395 413.3 276.575 414C277.775 414.68 278.705 415.64 279.365 416.88C280.045 418.12 280.385 419.54 280.385 421.14ZM272.525 415.38C271.145 415.38 269.985 415.8 269.045 416.64C268.125 417.48 267.585 418.58 267.425 419.94H277.625C277.465 418.6 276.915 417.51 275.975 416.67C275.055 415.81 273.905 415.38 272.525 415.38ZM288.944 429.18C287.644 429.18 286.394 429.01 285.194 428.67C283.994 428.31 283.054 427.86 282.374 427.32L283.574 425.04C284.274 425.54 285.124 425.94 286.124 426.24C287.124 426.54 288.134 426.69 289.154 426.69C291.674 426.69 292.934 425.97 292.934 424.53C292.934 424.05 292.764 423.67 292.424 423.39C292.084 423.11 291.654 422.91 291.134 422.79C290.634 422.65 289.914 422.5 288.974 422.34C287.694 422.14 286.644 421.91 285.824 421.65C285.024 421.39 284.334 420.95 283.754 420.33C283.174 419.71 282.884 418.84 282.884 417.72C282.884 416.28 283.484 415.13 284.684 414.27C285.884 413.39 287.494 412.95 289.514 412.95C290.574 412.95 291.634 413.08 292.694 413.34C293.754 413.6 294.624 413.95 295.304 414.39L294.074 416.67C292.774 415.83 291.244 415.41 289.484 415.41C288.264 415.41 287.334 415.61 286.694 416.01C286.054 416.41 285.734 416.94 285.734 417.6C285.734 418.12 285.914 418.53 286.274 418.83C286.634 419.13 287.074 419.35 287.594 419.49C288.134 419.63 288.884 419.79 289.844 419.97C291.124 420.19 292.154 420.43 292.934 420.69C293.734 420.93 294.414 421.35 294.974 421.95C295.534 422.55 295.814 423.39 295.814 424.47C295.814 425.91 295.194 427.06 293.954 427.92C292.734 428.76 291.064 429.18 288.944 429.18ZM308.354 428.07C307.934 428.43 307.414 428.71 306.794 428.91C306.174 429.09 305.534 429.18 304.874 429.18C303.274 429.18 302.034 428.75 301.154 427.89C300.274 427.03 299.834 425.8 299.834 424.2V415.47H297.134V413.1H299.834V409.62H302.714V413.1H307.274V415.47H302.714V424.08C302.714 424.94 302.924 425.6 303.344 426.06C303.784 426.52 304.404 426.75 305.204 426.75C306.084 426.75 306.834 426.5 307.454 426L308.354 428.07ZM311.835 413.1H314.715V429H311.835V413.1ZM313.275 410.04C312.715 410.04 312.245 409.86 311.865 409.5C311.505 409.14 311.325 408.7 311.325 408.18C311.325 407.66 311.505 407.22 311.865 406.86C312.245 406.48 312.715 406.29 313.275 406.29C313.835 406.29 314.295 406.47 314.655 406.83C315.035 407.17 315.225 407.6 315.225 408.12C315.225 408.66 315.035 409.12 314.655 409.5C314.295 409.86 313.835 410.04 313.275 410.04ZM327.024 429.18C325.444 429.18 324.024 428.83 322.764 428.13C321.504 427.43 320.514 426.47 319.794 425.25C319.094 424.01 318.744 422.61 318.744 421.05C318.744 419.49 319.094 418.1 319.794 416.88C320.514 415.64 321.504 414.68 322.764 414C324.024 413.3 325.444 412.95 327.024 412.95C328.604 412.95 330.014 413.3 331.254 414C332.514 414.68 333.494 415.64 334.194 416.88C334.914 418.1 335.274 419.49 335.274 421.05C335.274 422.61 334.914 424.01 334.194 425.25C333.494 426.47 332.514 427.43 331.254 428.13C330.014 428.83 328.604 429.18 327.024 429.18ZM327.024 426.66C328.044 426.66 328.954 426.43 329.754 425.97C330.574 425.49 331.214 424.83 331.674 423.99C332.134 423.13 332.364 422.15 332.364 421.05C332.364 419.95 332.134 418.98 331.674 418.14C331.214 417.28 330.574 416.62 329.754 416.16C328.954 415.7 328.044 415.47 327.024 415.47C326.004 415.47 325.084 415.7 324.264 416.16C323.464 416.62 322.824 417.28 322.344 418.14C321.884 418.98 321.654 419.95 321.654 421.05C321.654 422.15 321.884 423.13 322.344 423.99C322.824 424.83 323.464 425.49 324.264 425.97C325.084 426.43 326.004 426.66 327.024 426.66ZM347.747 412.95C349.767 412.95 351.367 413.54 352.547 414.72C353.747 415.88 354.347 417.59 354.347 419.85V429H351.467V420.18C351.467 418.64 351.097 417.48 350.357 416.7C349.617 415.92 348.557 415.53 347.177 415.53C345.617 415.53 344.387 415.99 343.487 416.91C342.587 417.81 342.137 419.11 342.137 420.81V429H339.257V413.1H342.017V415.5C342.597 414.68 343.377 414.05 344.357 413.61C345.357 413.17 346.487 412.95 347.747 412.95ZM364.237 429.18C362.937 429.18 361.687 429.01 360.487 428.67C359.287 428.31 358.347 427.86 357.667 427.32L358.867 425.04C359.567 425.54 360.417 425.94 361.417 426.24C362.417 426.54 363.427 426.69 364.447 426.69C366.967 426.69 368.227 425.97 368.227 424.53C368.227 424.05 368.057 423.67 367.717 423.39C367.377 423.11 366.947 422.91 366.427 422.79C365.927 422.65 365.207 422.5 364.267 422.34C362.987 422.14 361.937 421.91 361.117 421.65C360.317 421.39 359.627 420.95 359.047 420.33C358.467 419.71 358.177 418.84 358.177 417.72C358.177 416.28 358.777 415.13 359.977 414.27C361.177 413.39 362.787 412.95 364.807 412.95C365.867 412.95 366.927 413.08 367.987 413.34C369.047 413.6 369.917 413.95 370.597 414.39L369.367 416.67C368.067 415.83 366.537 415.41 364.777 415.41C363.557 415.41 362.627 415.61 361.987 416.01C361.347 416.41 361.027 416.94 361.027 417.6C361.027 418.12 361.207 418.53 361.567 418.83C361.927 419.13 362.367 419.35 362.887 419.49C363.427 419.63 364.177 419.79 365.137 419.97C366.417 420.19 367.447 420.43 368.227 420.69C369.027 420.93 369.707 421.35 370.267 421.95C370.827 422.55 371.107 423.39 371.107 424.47C371.107 425.91 370.487 427.06 369.247 427.92C368.027 428.76 366.357 429.18 364.237 429.18ZM383.453 417.06C382.893 417.06 382.413 416.87 382.013 416.49C381.613 416.09 381.413 415.59 381.413 414.99C381.413 414.41 381.613 413.93 382.013 413.55C382.413 413.15 382.893 412.95 383.453 412.95C384.013 412.95 384.483 413.14 384.863 413.52C385.243 413.9 385.433 414.39 385.433 414.99C385.433 415.59 385.233 416.09 384.833 416.49C384.453 416.87 383.993 417.06 383.453 417.06ZM383.453 429.18C382.893 429.18 382.413 428.99 382.013 428.61C381.613 428.21 381.413 427.71 381.413 427.11C381.413 426.53 381.613 426.05 382.013 425.67C382.413 425.27 382.893 425.07 383.453 425.07C384.013 425.07 384.483 425.26 384.863 425.64C385.243 426.02 385.433 426.51 385.433 427.11C385.433 427.71 385.233 428.21 384.833 428.61C384.453 428.99 383.993 429.18 383.453 429.18Z" fill="black"/>
<defs>
<linearGradient id="paint0_linear" x1="-1.02476e-05" y1="553.538" x2="1366" y2="553.538" gradientUnits="userSpaceOnUse">
<stop offset="0.28125" stop-color="#A969CE"/>
<stop offset="1" stop-color="#45AAD7"/>
</linearGradient>
</defs>
</svg>
