<svg width="107" height="26" viewBox="0 0 107 26" fill="none" xmlns="http://www.w3.org/2000/svg">
<path d="M16.73 4.1V25.82H13.85V17.6C13.19 18.44 12.38 19.08 11.42 19.52C10.48 19.96 9.44 20.18 8.3 20.18C6.76 20.18 5.38 19.84 4.16 19.16C2.94 18.48 1.98 17.53 1.28 16.31C0.6 15.07 0.26 13.65 0.26 12.05C0.26 10.45 0.6 9.04 1.28 7.82C1.98 6.6 2.94 5.65 4.16 4.97C5.38 4.29 6.76 3.95 8.3 3.95C9.48 3.95 10.56 4.18 11.54 4.64C12.52 5.08 13.33 5.74 13.97 6.62V4.1H16.73ZM8.54 17.66C9.54 17.66 10.45 17.43 11.27 16.97C12.09 16.49 12.73 15.83 13.19 14.99C13.65 14.13 13.88 13.15 13.88 12.05C13.88 10.95 13.64 9.98 13.16 9.14C12.7 8.3 12.06 7.65 11.24 7.19C10.44 6.71 9.54 6.47 8.54 6.47C7.52 6.47 6.6 6.7 5.78 7.16C4.98 7.62 4.34 8.28 3.86 9.14C3.4 9.98 3.17 10.95 3.17 12.05C3.17 13.15 3.4 14.13 3.86 14.99C4.34 15.83 4.98 16.49 5.78 16.97C6.6 17.43 7.52 17.66 8.54 17.66ZM46.2392 4.1L40.2992 20H37.5392L32.9492 7.94L28.2992 20H25.5392L19.6292 4.1H22.3592L26.9792 16.76L31.7792 4.1H34.2092L38.9192 16.82L43.6592 4.1H46.2392ZM63.0922 12.14C63.0922 12.36 63.0722 12.65 63.0322 13.01H50.1322C50.3122 14.41 50.9222 15.54 51.9622 16.4C53.0222 17.24 54.3322 17.66 55.8922 17.66C57.7922 17.66 59.3222 17.02 60.4822 15.74L62.0722 17.6C61.3522 18.44 60.4522 19.08 59.3722 19.52C58.3122 19.96 57.1222 20.18 55.8022 20.18C54.1222 20.18 52.6322 19.84 51.3322 19.16C50.0322 18.46 49.0222 17.49 48.3022 16.25C47.6022 15.01 47.2522 13.61 47.2522 12.05C47.2522 10.51 47.5922 9.12 48.2722 7.88C48.9722 6.64 49.9222 5.68 51.1222 5C52.3422 4.3 53.7122 3.95 55.2322 3.95C56.7522 3.95 58.1022 4.3 59.2822 5C60.4822 5.68 61.4122 6.64 62.0722 7.88C62.7522 9.12 63.0922 10.54 63.0922 12.14ZM55.2322 6.38C53.8522 6.38 52.6922 6.8 51.7522 7.64C50.8322 8.48 50.2922 9.58 50.1322 10.94H60.3322C60.1722 9.6 59.6222 8.51 58.6822 7.67C57.7622 6.81 56.6122 6.38 55.2322 6.38ZM69.8513 6.77C70.3513 5.85 71.0913 5.15 72.0713 4.67C73.0513 4.19 74.2413 3.95 75.6413 3.95V6.74C75.4813 6.72 75.2613 6.71 74.9813 6.71C73.4213 6.71 72.1913 7.18 71.2913 8.12C70.4113 9.04 69.9713 10.36 69.9713 12.08V20H67.0913V4.1H69.8513V6.77ZM88.7755 19.07C88.3555 19.43 87.8355 19.71 87.2155 19.91C86.5955 20.09 85.9555 20.18 85.2955 20.18C83.6955 20.18 82.4555 19.75 81.5755 18.89C80.6955 18.03 80.2555 16.8 80.2555 15.2V6.47H77.5555V4.1H80.2555V0.619999H83.1355V4.1H87.6955V6.47H83.1355V15.08C83.1355 15.94 83.3455 16.6 83.7655 17.06C84.2055 17.52 84.8255 17.75 85.6255 17.75C86.5055 17.75 87.2555 17.5 87.8755 17L88.7755 19.07ZM106.034 4.1L98.3244 21.59C97.6444 23.21 96.8444 24.35 95.9244 25.01C95.0244 25.67 93.9344 26 92.6544 26C91.8744 26 91.1144 25.87 90.3744 25.61C89.6544 25.37 89.0544 25.01 88.5744 24.53L89.8044 22.37C90.6244 23.15 91.5744 23.54 92.6544 23.54C93.3544 23.54 93.9344 23.35 94.3944 22.97C94.8744 22.61 95.3044 21.98 95.6844 21.08L96.1944 19.97L89.1744 4.1H92.1744L97.7244 16.82L103.214 4.1H106.034Z" fill="black"/>
</svg>
