<svg width="110" height="29" viewBox="0 0 110 29" fill="none" xmlns="http://www.w3.org/2000/svg">
<path d="M7.32 4.61H0.12V2H17.49V4.61H10.29V23H7.32V4.61ZM33.0668 15.14C33.0668 15.36 33.0468 15.65 33.0068 16.01H20.1068C20.2868 17.41 20.8968 18.54 21.9368 19.4C22.9968 20.24 24.3068 20.66 25.8668 20.66C27.7668 20.66 29.2968 20.02 30.4568 18.74L32.0468 20.6C31.3268 21.44 30.4268 22.08 29.3468 22.52C28.2868 22.96 27.0968 23.18 25.7768 23.18C24.0968 23.18 22.6068 22.84 21.3068 22.16C20.0068 21.46 18.9968 20.49 18.2768 19.25C17.5768 18.01 17.2268 16.61 17.2268 15.05C17.2268 13.51 17.5668 12.12 18.2468 10.88C18.9468 9.64 19.8968 8.68 21.0968 8C22.3168 7.3 23.6868 6.95 25.2068 6.95C26.7268 6.95 28.0768 7.3 29.2568 8C30.4568 8.68 31.3868 9.64 32.0468 10.88C32.7268 12.12 33.0668 13.54 33.0668 15.14ZM25.2068 9.38C23.8268 9.38 22.6668 9.8 21.7268 10.64C20.8068 11.48 20.2668 12.58 20.1068 13.94H30.3068C30.1468 12.6 29.5968 11.51 28.6568 10.67C27.7368 9.81 26.5868 9.38 25.2068 9.38ZM41.6259 23.18C40.3259 23.18 39.0759 23.01 37.8759 22.67C36.6759 22.31 35.7359 21.86 35.0559 21.32L36.2559 19.04C36.9559 19.54 37.8059 19.94 38.8059 20.24C39.8059 20.54 40.8159 20.69 41.8359 20.69C44.3559 20.69 45.6159 19.97 45.6159 18.53C45.6159 18.05 45.4459 17.67 45.1059 17.39C44.7659 17.11 44.3359 16.91 43.8159 16.79C43.3159 16.65 42.5959 16.5 41.6559 16.34C40.3759 16.14 39.3259 15.91 38.5059 15.65C37.7059 15.39 37.0159 14.95 36.4359 14.33C35.8559 13.71 35.5659 12.84 35.5659 11.72C35.5659 10.28 36.1659 9.13 37.3659 8.27C38.5659 7.39 40.1759 6.95 42.1959 6.95C43.2559 6.95 44.3159 7.08 45.3759 7.34C46.4359 7.6 47.3059 7.95 47.9859 8.39L46.7559 10.67C45.4559 9.83 43.9259 9.41 42.1659 9.41C40.9459 9.41 40.0159 9.61 39.3759 10.01C38.7359 10.41 38.4159 10.94 38.4159 11.6C38.4159 12.12 38.5959 12.53 38.9559 12.83C39.3159 13.13 39.7559 13.35 40.2759 13.49C40.8159 13.63 41.5659 13.79 42.5259 13.97C43.8059 14.19 44.8359 14.43 45.6159 14.69C46.4159 14.93 47.0959 15.35 47.6559 15.95C48.2159 16.55 48.4959 17.39 48.4959 18.47C48.4959 19.91 47.8759 21.06 46.6359 21.92C45.4159 22.76 43.7459 23.18 41.6259 23.18ZM61.0352 22.07C60.6152 22.43 60.0952 22.71 59.4752 22.91C58.8552 23.09 58.2152 23.18 57.5552 23.18C55.9552 23.18 54.7152 22.75 53.8352 21.89C52.9552 21.03 52.5152 19.8 52.5152 18.2V9.47H49.8152V7.1H52.5152V3.62H55.3952V7.1H59.9552V9.47H55.3952V18.08C55.3952 18.94 55.6052 19.6 56.0252 20.06C56.4652 20.52 57.0852 20.75 57.8852 20.75C58.7652 20.75 59.5152 20.5 60.1352 20L61.0352 22.07ZM70.3371 2.93C68.6171 2.93 67.7571 3.86 67.7571 5.72V7.1H72.3771V9.47H67.8171V23H64.9371V9.47H62.2371V7.1H64.9371V5.69C64.9371 4.11 65.3971 2.86 66.3171 1.94C67.2371 1.02 68.5271 0.559999 70.1871 0.559999C70.8271 0.559999 71.4271 0.639999 71.9871 0.8C72.5471 0.959999 73.0271 1.19 73.4271 1.49L72.5571 3.68C71.8971 3.18 71.1571 2.93 70.3371 2.93ZM90.0689 7.1V20.84C90.0689 23.62 89.3789 25.67 87.9989 26.99C86.6189 28.33 84.5589 29 81.8189 29C80.3189 29 78.8889 28.79 77.5289 28.37C76.1689 27.97 75.0689 27.39 74.2289 26.63L75.6089 24.41C76.3489 25.05 77.2589 25.55 78.3389 25.91C79.4389 26.29 80.5689 26.48 81.7289 26.48C83.5889 26.48 84.9589 26.04 85.8389 25.16C86.7389 24.28 87.1889 22.94 87.1889 21.14V19.88C86.5089 20.7 85.6689 21.32 84.6689 21.74C83.6889 22.14 82.6189 22.34 81.4589 22.34C79.9389 22.34 78.5589 22.02 77.3189 21.38C76.0989 20.72 75.1389 19.81 74.4389 18.65C73.7389 17.47 73.3889 16.13 73.3889 14.63C73.3889 13.13 73.7389 11.8 74.4389 10.64C75.1389 9.46 76.0989 8.55 77.3189 7.91C78.5589 7.27 79.9389 6.95 81.4589 6.95C82.6589 6.95 83.7689 7.17 84.7889 7.61C85.8289 8.05 86.6789 8.7 87.3389 9.56V7.1H90.0689ZM81.7889 19.82C82.8289 19.82 83.7589 19.6 84.5789 19.16C85.4189 18.72 86.0689 18.11 86.5289 17.33C87.0089 16.53 87.2489 15.63 87.2489 14.63C87.2489 13.09 86.7389 11.85 85.7189 10.91C84.6989 9.95 83.3889 9.47 81.7889 9.47C80.1689 9.47 78.8489 9.95 77.8289 10.91C76.8089 11.85 76.2989 13.09 76.2989 14.63C76.2989 15.63 76.5289 16.53 76.9889 17.33C77.4689 18.11 78.1189 18.72 78.9389 19.16C79.7789 19.6 80.7289 19.82 81.7889 19.82ZM109.642 7.1L102.682 23H99.7418L92.7818 7.1H95.7818L101.242 19.85L106.822 7.1H109.642Z" fill="black"/>
</svg>
