<svg width="1366" height="1106" viewBox="0 0 1366 1106" fill="none" xmlns="http://www.w3.org/2000/svg">
<rect width="1366" height="1106" fill="url(#paint0_linear)"/>
<rect x="114" y="333" width="1140" height="552" rx="40" fill="white"/>
<path d="M130.104 73.24H115.256V66.2H153.272V73.24H138.424V111H130.104V73.24ZM170.608 111.448C167.152 111.448 164.037 110.701 161.264 109.208C158.491 107.715 156.315 105.645 154.736 103C153.2 100.312 152.432 97.2827 152.432 93.912C152.432 90.5413 153.2 87.5333 154.736 84.888C156.315 82.2427 158.491 80.1733 161.264 78.68C164.037 77.1867 167.152 76.44 170.608 76.44C174.107 76.44 177.243 77.1867 180.016 78.68C182.789 80.1733 184.944 82.2427 186.48 84.888C188.059 87.5333 188.848 90.5413 188.848 93.912C188.848 97.2827 188.059 100.312 186.48 103C184.944 105.645 182.789 107.715 180.016 109.208C177.243 110.701 174.107 111.448 170.608 111.448ZM170.608 104.6C173.552 104.6 175.984 103.619 177.904 101.656C179.824 99.6933 180.784 97.112 180.784 93.912C180.784 90.712 179.824 88.1307 177.904 86.168C175.984 84.2053 173.552 83.224 170.608 83.224C167.664 83.224 165.232 84.2053 163.312 86.168C161.435 88.1307 160.496 90.712 160.496 93.912C160.496 97.112 161.435 99.6933 163.312 101.656C165.232 103.619 167.664 104.6 170.608 104.6ZM215.442 76.44C218.77 76.44 221.735 77.1653 224.338 78.616C226.983 80.0667 229.053 82.1147 230.546 84.76C232.039 87.4053 232.786 90.456 232.786 93.912C232.786 97.368 232.039 100.44 230.546 103.128C229.053 105.773 226.983 107.821 224.338 109.272C221.735 110.723 218.77 111.448 215.442 111.448C210.834 111.448 207.186 109.912 204.498 106.84V123.416H196.498V76.824H204.114V81.304C205.437 79.6827 207.058 78.4667 208.978 77.656C210.941 76.8453 213.095 76.44 215.442 76.44ZM214.546 104.6C217.49 104.6 219.901 103.619 221.778 101.656C223.698 99.6933 224.658 97.112 224.658 93.912C224.658 90.712 223.698 88.1307 221.778 86.168C219.901 84.2053 217.49 83.224 214.546 83.224C212.626 83.224 210.898 83.672 209.362 84.568C207.826 85.4213 206.61 86.6587 205.714 88.28C204.818 89.9013 204.37 91.7787 204.37 93.912C204.37 96.0453 204.818 97.9227 205.714 99.544C206.61 101.165 207.826 102.424 209.362 103.32C210.898 104.173 212.626 104.6 214.546 104.6ZM240.373 76.824H248.373V111H240.373V76.824ZM244.405 71.192C242.954 71.192 241.738 70.744 240.757 69.848C239.776 68.9093 239.285 67.7573 239.285 66.392C239.285 65.0267 239.776 63.896 240.757 63C241.738 62.0613 242.954 61.592 244.405 61.592C245.856 61.592 247.072 62.04 248.053 62.936C249.034 63.7893 249.525 64.8773 249.525 66.2C249.525 67.608 249.034 68.8027 248.053 69.784C247.114 70.7227 245.898 71.192 244.405 71.192ZM274.553 111.448C271.012 111.448 267.833 110.701 265.017 109.208C262.201 107.715 260.004 105.645 258.425 103C256.846 100.312 256.057 97.2827 256.057 93.912C256.057 90.5413 256.846 87.5333 258.425 84.888C260.004 82.2427 262.18 80.1733 264.953 78.68C267.769 77.1867 270.969 76.44 274.553 76.44C277.924 76.44 280.868 77.1227 283.385 78.488C285.945 79.8533 287.865 81.816 289.145 84.376L283.001 87.96C282.02 86.3813 280.782 85.208 279.289 84.44C277.838 83.6293 276.238 83.224 274.489 83.224C271.502 83.224 269.028 84.2053 267.065 86.168C265.102 88.088 264.121 90.6693 264.121 93.912C264.121 97.1547 265.081 99.7573 267.001 101.72C268.964 103.64 271.46 104.6 274.489 104.6C276.238 104.6 277.838 104.216 279.289 103.448C280.782 102.637 282.02 101.443 283.001 99.864L289.145 103.448C287.822 106.008 285.881 107.992 283.321 109.4C280.804 110.765 277.881 111.448 274.553 111.448ZM316.308 87.064C314.857 87.064 313.62 86.5733 312.596 85.592C311.572 84.568 311.06 83.288 311.06 81.752C311.06 80.1733 311.551 78.8933 312.532 77.912C313.556 76.9307 314.815 76.44 316.308 76.44C317.801 76.44 319.039 76.9307 320.02 77.912C321.044 78.8933 321.556 80.1733 321.556 81.752C321.556 83.288 321.044 84.568 320.02 85.592C318.996 86.5733 317.759 87.064 316.308 87.064ZM316.308 111.448C314.857 111.448 313.62 110.957 312.596 109.976C311.572 108.952 311.06 107.672 311.06 106.136C311.06 104.557 311.551 103.277 312.532 102.296C313.556 101.315 314.815 100.824 316.308 100.824C317.801 100.824 319.039 101.315 320.02 102.296C321.044 103.277 321.556 104.557 321.556 106.136C321.556 107.672 321.044 108.952 320.02 109.976C318.996 110.957 317.759 111.448 316.308 111.448ZM368.565 111.64C364.042 111.64 359.946 110.659 356.277 108.696C352.65 106.691 349.791 103.939 347.701 100.44C345.653 96.9413 344.629 92.9947 344.629 88.6C344.629 84.2053 345.674 80.2587 347.765 76.76C349.855 73.2613 352.714 70.5307 356.341 68.568C360.01 66.5627 364.106 65.56 368.629 65.56C372.298 65.56 375.647 66.2 378.677 67.48C381.706 68.76 384.266 70.616 386.357 73.048L380.981 78.104C377.738 74.6053 373.749 72.856 369.013 72.856C365.941 72.856 363.189 73.5387 360.757 74.904C358.325 76.2267 356.426 78.0827 355.061 80.472C353.695 82.8613 353.013 85.5707 353.013 88.6C353.013 91.6293 353.695 94.3387 355.061 96.728C356.426 99.1173 358.325 100.995 360.757 102.36C363.189 103.683 365.941 104.344 369.013 104.344C373.749 104.344 377.738 102.573 380.981 99.032L386.357 104.152C384.266 106.584 381.685 108.44 378.613 109.72C375.583 111 372.234 111.64 368.565 111.64ZM407.967 111.64C404.511 111.64 401.161 111.149 397.919 110.168C394.719 109.187 392.18 107.885 390.303 106.264L393.183 99.8C395.017 101.251 397.257 102.445 399.903 103.384C402.591 104.28 405.279 104.728 407.967 104.728C411.295 104.728 413.769 104.195 415.391 103.128C417.055 102.061 417.887 100.653 417.887 98.904C417.887 97.624 417.417 96.5787 416.479 95.768C415.583 94.9147 414.431 94.2533 413.023 93.784C411.615 93.3147 409.695 92.7813 407.263 92.184C403.849 91.3733 401.076 90.5627 398.943 89.752C396.852 88.9413 395.039 87.6827 393.503 85.976C392.009 84.2267 391.263 81.88 391.263 78.936C391.263 76.4613 391.924 74.2213 393.247 72.216C394.612 70.168 396.639 68.5467 399.327 67.352C402.057 66.1573 405.385 65.56 409.311 65.56C412.041 65.56 414.729 65.9013 417.375 66.584C420.02 67.2667 422.303 68.248 424.222 69.528L421.599 75.992C419.636 74.84 417.588 73.9653 415.455 73.368C413.321 72.7707 411.252 72.472 409.247 72.472C405.961 72.472 403.508 73.0267 401.887 74.136C400.308 75.2453 399.519 76.7173 399.519 78.552C399.519 79.832 399.967 80.8773 400.863 81.688C401.801 82.4987 402.975 83.1387 404.383 83.608C405.791 84.0773 407.711 84.6107 410.143 85.208C413.471 85.976 416.201 86.7867 418.335 87.64C420.468 88.4507 422.281 89.7093 423.775 91.416C425.311 93.1227 426.079 95.4267 426.079 98.328C426.079 100.803 425.396 103.043 424.031 105.048C422.708 107.053 420.681 108.653 417.951 109.848C415.22 111.043 411.892 111.64 407.967 111.64ZM448.217 111.64C444.761 111.64 441.411 111.149 438.169 110.168C434.969 109.187 432.43 107.885 430.553 106.264L433.433 99.8C435.267 101.251 437.507 102.445 440.153 103.384C442.841 104.28 445.529 104.728 448.217 104.728C451.545 104.728 454.019 104.195 455.641 103.128C457.305 102.061 458.137 100.653 458.137 98.904C458.137 97.624 457.667 96.5787 456.729 95.768C455.833 94.9147 454.681 94.2533 453.273 93.784C451.865 93.3147 449.945 92.7813 447.513 92.184C444.099 91.3733 441.326 90.5627 439.193 89.752C437.102 88.9413 435.289 87.6827 433.753 85.976C432.259 84.2267 431.513 81.88 431.513 78.936C431.513 76.4613 432.174 74.2213 433.497 72.216C434.862 70.168 436.889 68.5467 439.577 67.352C442.307 66.1573 445.635 65.56 449.561 65.56C452.291 65.56 454.979 65.9013 457.625 66.584C460.27 67.2667 462.553 68.248 464.472 69.528L461.849 75.992C459.886 74.84 457.838 73.9653 455.705 73.368C453.571 72.7707 451.502 72.472 449.497 72.472C446.211 72.472 443.758 73.0267 442.137 74.136C440.558 75.2453 439.769 76.7173 439.769 78.552C439.769 79.832 440.217 80.8773 441.113 81.688C442.051 82.4987 443.225 83.1387 444.633 83.608C446.041 84.0773 447.961 84.6107 450.393 85.208C453.721 85.976 456.451 86.7867 458.585 87.64C460.718 88.4507 462.531 89.7093 464.025 91.416C465.561 93.1227 466.329 95.4267 466.329 98.328C466.329 100.803 465.646 103.043 464.281 105.048C462.958 107.053 460.931 108.653 458.201 109.848C455.47 111.043 452.142 111.64 448.217 111.64Z" fill="white"/>
<path d="M129.104 183.24H114.256V176.2H152.272V183.24H137.424V221H129.104V183.24ZM177.14 186.44C181.449 186.44 184.905 187.699 187.508 190.216C190.111 192.733 191.412 196.467 191.412 201.416V221H183.412V202.44C183.412 199.453 182.708 197.213 181.3 195.72C179.892 194.184 177.887 193.416 175.284 193.416C172.34 193.416 170.015 194.312 168.308 196.104C166.601 197.853 165.748 200.392 165.748 203.72V221H157.748V173.512H165.748V190.792C167.071 189.384 168.692 188.317 170.612 187.592C172.575 186.824 174.751 186.44 177.14 186.44ZM209.177 191.816C211.481 188.232 215.534 186.44 221.337 186.44V194.056C220.654 193.928 220.035 193.864 219.481 193.864C216.366 193.864 213.934 194.781 212.185 196.616C210.435 198.408 209.561 201.011 209.561 204.424V221H201.561V186.824H209.177V191.816ZM259.939 204.104C259.939 204.659 259.896 205.448 259.811 206.472H232.995C233.464 208.989 234.68 210.995 236.643 212.488C238.648 213.939 241.123 214.664 244.067 214.664C247.821 214.664 250.915 213.427 253.347 210.952L257.635 215.88C256.099 217.715 254.157 219.101 251.811 220.04C249.464 220.979 246.819 221.448 243.875 221.448C240.12 221.448 236.813 220.701 233.955 219.208C231.096 217.715 228.877 215.645 227.299 213C225.763 210.312 224.995 207.283 224.995 203.912C224.995 200.584 225.741 197.597 227.235 194.952C228.771 192.264 230.883 190.173 233.571 188.68C236.259 187.187 239.288 186.44 242.659 186.44C245.987 186.44 248.952 187.187 251.555 188.68C254.2 190.131 256.248 192.2 257.699 194.888C259.192 197.533 259.939 200.605 259.939 204.104ZM242.659 192.84C240.099 192.84 237.923 193.608 236.131 195.144C234.381 196.637 233.315 198.643 232.931 201.16H252.323C251.981 198.685 250.936 196.68 249.187 195.144C247.437 193.608 245.261 192.84 242.659 192.84ZM279.742 186.44C284.776 186.44 288.616 187.656 291.262 190.088C293.95 192.477 295.294 196.104 295.294 200.968V221H287.742V216.84C286.76 218.333 285.352 219.485 283.518 220.296C281.726 221.064 279.55 221.448 276.99 221.448C274.43 221.448 272.19 221.021 270.27 220.168C268.35 219.272 266.856 218.056 265.79 216.52C264.766 214.941 264.254 213.171 264.254 211.208C264.254 208.136 265.384 205.683 267.646 203.848C269.95 201.971 273.555 201.032 278.462 201.032H287.294V200.52C287.294 198.131 286.568 196.296 285.118 195.016C283.71 193.736 281.598 193.096 278.782 193.096C276.862 193.096 274.963 193.395 273.086 193.992C271.251 194.589 269.694 195.421 268.414 196.488L265.278 190.664C267.07 189.299 269.224 188.253 271.742 187.528C274.259 186.803 276.926 186.44 279.742 186.44ZM278.654 215.624C280.659 215.624 282.43 215.176 283.966 214.28C285.544 213.341 286.654 212.019 287.294 210.312V206.344H279.038C274.43 206.344 272.126 207.859 272.126 210.888C272.126 212.339 272.702 213.491 273.854 214.344C275.006 215.197 276.606 215.624 278.654 215.624ZM339.345 173.512V221H331.665V216.584C330.342 218.205 328.7 219.421 326.737 220.232C324.817 221.043 322.684 221.448 320.337 221.448C317.052 221.448 314.086 220.723 311.441 219.272C308.838 217.821 306.79 215.773 305.297 213.128C303.804 210.44 303.057 207.368 303.057 203.912C303.057 200.456 303.804 197.405 305.297 194.76C306.79 192.115 308.838 190.067 311.441 188.616C314.086 187.165 317.052 186.44 320.337 186.44C322.598 186.44 324.668 186.824 326.545 187.592C328.422 188.36 330.022 189.512 331.345 191.048V173.512H339.345ZM321.297 214.6C323.217 214.6 324.945 214.173 326.481 213.32C328.017 212.424 329.233 211.165 330.129 209.544C331.025 207.923 331.473 206.045 331.473 203.912C331.473 201.779 331.025 199.901 330.129 198.28C329.233 196.659 328.017 195.421 326.481 194.568C324.945 193.672 323.217 193.224 321.297 193.224C319.377 193.224 317.649 193.672 316.113 194.568C314.577 195.421 313.361 196.659 312.465 198.28C311.569 199.901 311.121 201.779 311.121 203.912C311.121 206.045 311.569 207.923 312.465 209.544C313.361 211.165 314.577 212.424 316.113 213.32C317.649 214.173 319.377 214.6 321.297 214.6ZM370.058 197.064C368.607 197.064 367.37 196.573 366.346 195.592C365.322 194.568 364.81 193.288 364.81 191.752C364.81 190.173 365.301 188.893 366.282 187.912C367.306 186.931 368.565 186.44 370.058 186.44C371.551 186.44 372.789 186.931 373.77 187.912C374.794 188.893 375.306 190.173 375.306 191.752C375.306 193.288 374.794 194.568 373.77 195.592C372.746 196.573 371.509 197.064 370.058 197.064ZM370.058 221.448C368.607 221.448 367.37 220.957 366.346 219.976C365.322 218.952 364.81 217.672 364.81 216.136C364.81 214.557 365.301 213.277 366.282 212.296C367.306 211.315 368.565 210.824 370.058 210.824C371.551 210.824 372.789 211.315 373.77 212.296C374.794 213.277 375.306 214.557 375.306 216.136C375.306 217.672 374.794 218.952 373.77 219.976C372.746 220.957 371.509 221.448 370.058 221.448ZM410.667 183.24H395.819V176.2H433.835V183.24H418.987V221H410.667V183.24ZM467.939 204.104C467.939 204.659 467.896 205.448 467.811 206.472H440.995C441.464 208.989 442.68 210.995 444.643 212.488C446.648 213.939 449.123 214.664 452.067 214.664C455.821 214.664 458.915 213.427 461.347 210.952L465.635 215.88C464.099 217.715 462.157 219.101 459.811 220.04C457.464 220.979 454.819 221.448 451.875 221.448C448.12 221.448 444.813 220.701 441.955 219.208C439.096 217.715 436.877 215.645 435.299 213C433.763 210.312 432.995 207.283 432.995 203.912C432.995 200.584 433.741 197.597 435.235 194.952C436.771 192.264 438.883 190.173 441.571 188.68C444.259 187.187 447.288 186.44 450.659 186.44C453.987 186.44 456.952 187.187 459.555 188.68C462.2 190.131 464.248 192.2 465.699 194.888C467.192 197.533 467.939 200.605 467.939 204.104ZM450.659 192.84C448.099 192.84 445.923 193.608 444.131 195.144C442.381 196.637 441.315 198.643 440.931 201.16H460.323C459.981 198.685 458.936 196.68 457.187 195.144C455.437 193.608 453.261 192.84 450.659 192.84ZM486.183 221.448C483.41 221.448 480.7 221.085 478.055 220.36C475.41 219.635 473.298 218.717 471.719 217.608L474.791 211.528C476.327 212.552 478.162 213.384 480.295 214.024C482.471 214.621 484.604 214.92 486.695 214.92C491.474 214.92 493.863 213.661 493.863 211.144C493.863 209.949 493.244 209.117 492.007 208.648C490.812 208.179 488.871 207.731 486.183 207.304C483.367 206.877 481.063 206.387 479.271 205.832C477.522 205.277 475.986 204.317 474.663 202.952C473.383 201.544 472.743 199.603 472.743 197.128C472.743 193.885 474.087 191.304 476.775 189.384C479.506 187.421 483.175 186.44 487.783 186.44C490.13 186.44 492.476 186.717 494.823 187.272C497.17 187.784 499.09 188.488 500.583 189.384L497.511 195.464C494.61 193.757 491.346 192.904 487.719 192.904C485.372 192.904 483.58 193.267 482.343 193.992C481.148 194.675 480.551 195.592 480.551 196.744C480.551 198.024 481.191 198.941 482.471 199.496C483.794 200.008 485.82 200.499 488.551 200.968C491.282 201.395 493.522 201.885 495.271 202.44C497.02 202.995 498.514 203.933 499.751 205.256C501.031 206.579 501.671 208.456 501.671 210.888C501.671 214.088 500.284 216.648 497.511 218.568C494.738 220.488 490.962 221.448 486.183 221.448ZM529.105 219.144C528.166 219.912 527.014 220.488 525.649 220.872C524.326 221.256 522.918 221.448 521.425 221.448C517.67 221.448 514.769 220.467 512.72 218.504C510.673 216.541 509.649 213.683 509.649 209.928V193.48H504.017V187.08H509.649V179.272H517.649V187.08H526.801V193.48H517.649V209.736C517.649 211.4 518.054 212.68 518.865 213.576C519.675 214.429 520.849 214.856 522.385 214.856C524.177 214.856 525.67 214.387 526.865 213.448L529.105 219.144ZM549.574 179.528C546.203 179.528 544.518 181.363 544.518 185.032V187.08H553.926V193.48H544.774V221H536.774V193.48H531.142V187.08H536.774V184.904C536.774 181.235 537.84 178.355 539.974 176.264C542.107 174.131 545.115 173.064 548.998 173.064C552.07 173.064 554.48 173.683 556.23 174.92L553.99 180.936C552.624 179.997 551.152 179.528 549.574 179.528ZM592.731 186.824V215.816C592.731 227.848 586.587 233.864 574.299 233.864C571.013 233.864 567.899 233.437 564.955 232.584C562.011 231.773 559.579 230.579 557.659 229L561.243 222.984C562.736 224.221 564.613 225.203 566.875 225.928C569.179 226.696 571.504 227.08 573.851 227.08C577.605 227.08 580.357 226.227 582.107 224.52C583.856 222.813 584.731 220.211 584.731 216.712V214.92C583.365 216.413 581.701 217.544 579.739 218.312C577.776 219.08 575.621 219.464 573.275 219.464C570.032 219.464 567.088 218.781 564.443 217.416C561.84 216.008 559.771 214.045 558.235 211.528C556.741 209.011 555.995 206.131 555.995 202.888C555.995 199.645 556.741 196.787 558.235 194.312C559.771 191.795 561.84 189.853 564.443 188.488C567.088 187.123 570.032 186.44 573.275 186.44C575.749 186.44 577.989 186.845 579.995 187.656C582.043 188.467 583.749 189.704 585.115 191.368V186.824H592.731ZM574.491 212.68C577.52 212.68 579.995 211.784 581.915 209.992C583.877 208.157 584.859 205.789 584.859 202.888C584.859 200.029 583.877 197.704 581.915 195.912C579.995 194.12 577.52 193.224 574.491 193.224C571.419 193.224 568.901 194.12 566.939 195.912C565.019 197.704 564.059 200.029 564.059 202.888C564.059 205.789 565.019 208.157 566.939 209.992C568.901 211.784 571.419 212.68 574.491 212.68ZM635.248 186.824L620.592 221H612.336L597.68 186.824H606L616.624 212.168L627.568 186.824H635.248Z" fill="white"/>
<path d="M187.53 423.75H176.37L174.06 429H170.97L180.48 408H183.45L192.99 429H189.84L187.53 423.75ZM186.48 421.35L181.95 411.06L177.42 421.35H186.48ZM195.703 406.74H198.583V429H195.703V406.74ZM204.082 406.74H206.962V429H204.082V406.74ZM235.517 413.1V434.82H232.637V426.6C231.977 427.44 231.167 428.08 230.207 428.52C229.267 428.96 228.227 429.18 227.087 429.18C225.547 429.18 224.167 428.84 222.947 428.16C221.727 427.48 220.767 426.53 220.067 425.31C219.387 424.07 219.047 422.65 219.047 421.05C219.047 419.45 219.387 418.04 220.067 416.82C220.767 415.6 221.727 414.65 222.947 413.97C224.167 413.29 225.547 412.95 227.087 412.95C228.267 412.95 229.347 413.18 230.327 413.64C231.307 414.08 232.117 414.74 232.757 415.62V413.1H235.517ZM227.327 426.66C228.327 426.66 229.237 426.43 230.057 425.97C230.877 425.49 231.517 424.83 231.977 423.99C232.437 423.13 232.667 422.15 232.667 421.05C232.667 419.95 232.427 418.98 231.947 418.14C231.487 417.3 230.847 416.65 230.027 416.19C229.227 415.71 228.327 415.47 227.327 415.47C226.307 415.47 225.387 415.7 224.567 416.16C223.767 416.62 223.127 417.28 222.647 418.14C222.187 418.98 221.957 419.95 221.957 421.05C221.957 422.15 222.187 423.13 222.647 423.99C223.127 424.83 223.767 425.49 224.567 425.97C225.387 426.43 226.307 426.66 227.327 426.66ZM255.786 413.1V429H253.056V426.6C252.476 427.42 251.706 428.06 250.746 428.52C249.806 428.96 248.776 429.18 247.656 429.18C245.536 429.18 243.866 428.6 242.646 427.44C241.426 426.26 240.816 424.53 240.816 422.25V413.1H243.696V421.92C243.696 423.46 244.066 424.63 244.806 425.43C245.546 426.21 246.606 426.6 247.986 426.6C249.506 426.6 250.706 426.14 251.586 425.22C252.466 424.3 252.906 423 252.906 421.32V413.1H255.786ZM275.639 421.14C275.639 421.36 275.619 421.65 275.579 422.01H262.679C262.859 423.41 263.469 424.54 264.509 425.4C265.569 426.24 266.879 426.66 268.439 426.66C270.339 426.66 271.869 426.02 273.029 424.74L274.619 426.6C273.899 427.44 272.999 428.08 271.919 428.52C270.859 428.96 269.669 429.18 268.349 429.18C266.669 429.18 265.179 428.84 263.879 428.16C262.579 427.46 261.569 426.49 260.849 425.25C260.149 424.01 259.799 422.61 259.799 421.05C259.799 419.51 260.139 418.12 260.819 416.88C261.519 415.64 262.469 414.68 263.669 414C264.889 413.3 266.259 412.95 267.779 412.95C269.299 412.95 270.649 413.3 271.829 414C273.029 414.68 273.959 415.64 274.619 416.88C275.299 418.12 275.639 419.54 275.639 421.14ZM267.779 415.38C266.399 415.38 265.239 415.8 264.299 416.64C263.379 417.48 262.839 418.58 262.679 419.94H272.879C272.719 418.6 272.169 417.51 271.229 416.67C270.309 415.81 269.159 415.38 267.779 415.38ZM284.198 429.18C282.898 429.18 281.648 429.01 280.448 428.67C279.248 428.31 278.308 427.86 277.628 427.32L278.828 425.04C279.528 425.54 280.378 425.94 281.378 426.24C282.378 426.54 283.388 426.69 284.408 426.69C286.928 426.69 288.188 425.97 288.188 424.53C288.188 424.05 288.018 423.67 287.678 423.39C287.338 423.11 286.908 422.91 286.388 422.79C285.888 422.65 285.168 422.5 284.228 422.34C282.948 422.14 281.898 421.91 281.078 421.65C280.278 421.39 279.588 420.95 279.008 420.33C278.428 419.71 278.138 418.84 278.138 417.72C278.138 416.28 278.738 415.13 279.938 414.27C281.138 413.39 282.748 412.95 284.768 412.95C285.828 412.95 286.888 413.08 287.948 413.34C289.008 413.6 289.878 413.95 290.558 414.39L289.328 416.67C288.028 415.83 286.498 415.41 284.738 415.41C283.518 415.41 282.588 415.61 281.948 416.01C281.308 416.41 280.988 416.94 280.988 417.6C280.988 418.12 281.168 418.53 281.528 418.83C281.888 419.13 282.328 419.35 282.848 419.49C283.388 419.63 284.138 419.79 285.098 419.97C286.378 420.19 287.408 420.43 288.188 420.69C288.988 420.93 289.668 421.35 290.228 421.95C290.788 422.55 291.068 423.39 291.068 424.47C291.068 425.91 290.448 427.06 289.208 427.92C287.988 428.76 286.318 429.18 284.198 429.18ZM303.608 428.07C303.188 428.43 302.668 428.71 302.048 428.91C301.428 429.09 300.788 429.18 300.128 429.18C298.528 429.18 297.288 428.75 296.408 427.89C295.528 427.03 295.088 425.8 295.088 424.2V415.47H292.388V413.1H295.088V409.62H297.968V413.1H302.528V415.47H297.968V424.08C297.968 424.94 298.178 425.6 298.598 426.06C299.038 426.52 299.658 426.75 300.458 426.75C301.338 426.75 302.088 426.5 302.708 426L303.608 428.07ZM307.089 413.1H309.969V429H307.089V413.1ZM308.529 410.04C307.969 410.04 307.499 409.86 307.119 409.5C306.759 409.14 306.579 408.7 306.579 408.18C306.579 407.66 306.759 407.22 307.119 406.86C307.499 406.48 307.969 406.29 308.529 406.29C309.089 406.29 309.549 406.47 309.909 406.83C310.289 407.17 310.479 407.6 310.479 408.12C310.479 408.66 310.289 409.12 309.909 409.5C309.549 409.86 309.089 410.04 308.529 410.04ZM322.278 429.18C320.698 429.18 319.278 428.83 318.018 428.13C316.758 427.43 315.768 426.47 315.048 425.25C314.348 424.01 313.998 422.61 313.998 421.05C313.998 419.49 314.348 418.1 315.048 416.88C315.768 415.64 316.758 414.68 318.018 414C319.278 413.3 320.698 412.95 322.278 412.95C323.858 412.95 325.268 413.3 326.508 414C327.768 414.68 328.748 415.64 329.448 416.88C330.168 418.1 330.528 419.49 330.528 421.05C330.528 422.61 330.168 424.01 329.448 425.25C328.748 426.47 327.768 427.43 326.508 428.13C325.268 428.83 323.858 429.18 322.278 429.18ZM322.278 426.66C323.298 426.66 324.208 426.43 325.008 425.97C325.828 425.49 326.468 424.83 326.928 423.99C327.388 423.13 327.618 422.15 327.618 421.05C327.618 419.95 327.388 418.98 326.928 418.14C326.468 417.28 325.828 416.62 325.008 416.16C324.208 415.7 323.298 415.47 322.278 415.47C321.258 415.47 320.338 415.7 319.518 416.16C318.718 416.62 318.078 417.28 317.598 418.14C317.138 418.98 316.908 419.95 316.908 421.05C316.908 422.15 317.138 423.13 317.598 423.99C318.078 424.83 318.718 425.49 319.518 425.97C320.338 426.43 321.258 426.66 322.278 426.66ZM343.001 412.95C345.021 412.95 346.621 413.54 347.801 414.72C349.001 415.88 349.601 417.59 349.601 419.85V429H346.721V420.18C346.721 418.64 346.351 417.48 345.611 416.7C344.871 415.92 343.811 415.53 342.431 415.53C340.871 415.53 339.641 415.99 338.741 416.91C337.841 417.81 337.391 419.11 337.391 420.81V429H334.511V413.1H337.271V415.5C337.851 414.68 338.631 414.05 339.611 413.61C340.611 413.17 341.741 412.95 343.001 412.95ZM359.491 429.18C358.191 429.18 356.941 429.01 355.741 428.67C354.541 428.31 353.601 427.86 352.921 427.32L354.121 425.04C354.821 425.54 355.671 425.94 356.671 426.24C357.671 426.54 358.681 426.69 359.701 426.69C362.221 426.69 363.481 425.97 363.481 424.53C363.481 424.05 363.311 423.67 362.971 423.39C362.631 423.11 362.201 422.91 361.681 422.79C361.181 422.65 360.461 422.5 359.521 422.34C358.241 422.14 357.191 421.91 356.371 421.65C355.571 421.39 354.881 420.95 354.301 420.33C353.721 419.71 353.431 418.84 353.431 417.72C353.431 416.28 354.031 415.13 355.231 414.27C356.431 413.39 358.041 412.95 360.061 412.95C361.121 412.95 362.181 413.08 363.241 413.34C364.301 413.6 365.171 413.95 365.851 414.39L364.621 416.67C363.321 415.83 361.791 415.41 360.031 415.41C358.811 415.41 357.881 415.61 357.241 416.01C356.601 416.41 356.281 416.94 356.281 417.6C356.281 418.12 356.461 418.53 356.821 418.83C357.181 419.13 357.621 419.35 358.141 419.49C358.681 419.63 359.431 419.79 360.391 419.97C361.671 420.19 362.701 420.43 363.481 420.69C364.281 420.93 364.961 421.35 365.521 421.95C366.081 422.55 366.361 423.39 366.361 424.47C366.361 425.91 365.741 427.06 364.501 427.92C363.281 428.76 361.611 429.18 359.491 429.18ZM378.707 417.06C378.147 417.06 377.667 416.87 377.267 416.49C376.867 416.09 376.667 415.59 376.667 414.99C376.667 414.41 376.867 413.93 377.267 413.55C377.667 413.15 378.147 412.95 378.707 412.95C379.267 412.95 379.737 413.14 380.117 413.52C380.497 413.9 380.687 414.39 380.687 414.99C380.687 415.59 380.487 416.09 380.087 416.49C379.707 416.87 379.247 417.06 378.707 417.06ZM378.707 429.18C378.147 429.18 377.667 428.99 377.267 428.61C376.867 428.21 376.667 427.71 376.667 427.11C376.667 426.53 376.867 426.05 377.267 425.67C377.667 425.27 378.147 425.07 378.707 425.07C379.267 425.07 379.737 425.26 380.117 425.64C380.497 426.02 380.687 426.51 380.687 427.11C380.687 427.71 380.487 428.21 380.087 428.61C379.707 428.99 379.247 429.18 378.707 429.18Z" fill="black"/>
<path d="M429.21 408V429H426.21V419.64H414.15V429H411.15V408H414.15V417.03H426.21V408H429.21ZM444.976 429.24C442.856 429.24 440.946 428.78 439.246 427.86C437.546 426.92 436.206 425.63 435.226 423.99C434.266 422.35 433.786 420.52 433.786 418.5C433.786 416.48 434.266 414.65 435.226 413.01C436.206 411.37 437.546 410.09 439.246 409.17C440.946 408.23 442.856 407.76 444.976 407.76C447.076 407.76 448.976 408.23 450.676 409.17C452.376 410.09 453.706 411.37 454.666 413.01C455.626 414.63 456.106 416.46 456.106 418.5C456.106 420.54 455.626 422.38 454.666 424.02C453.706 425.64 452.376 426.92 450.676 427.86C448.976 428.78 447.076 429.24 444.976 429.24ZM444.976 426.57C446.516 426.57 447.896 426.22 449.116 425.52C450.356 424.82 451.326 423.86 452.026 422.64C452.746 421.4 453.106 420.02 453.106 418.5C453.106 416.98 452.746 415.61 452.026 414.39C451.326 413.15 450.356 412.18 449.116 411.48C447.896 410.78 446.516 410.43 444.976 410.43C443.436 410.43 442.036 410.78 440.776 411.48C439.536 412.18 438.556 413.15 437.836 414.39C437.136 415.61 436.786 416.98 436.786 418.5C436.786 420.02 437.136 421.4 437.836 422.64C438.556 423.86 439.536 424.82 440.776 425.52C442.036 426.22 443.436 426.57 444.976 426.57ZM489.687 408L482.667 429H479.517L473.787 412.23L468.057 429H464.847L457.827 408H460.917L466.587 425.07L472.497 408H475.257L481.047 425.16L486.837 408H489.687ZM510.553 429.24C507.753 429.24 505.573 428.44 504.013 426.84C502.453 425.24 501.673 422.94 501.673 419.94V408H504.673V419.82C504.673 424.32 506.643 426.57 510.583 426.57C512.503 426.57 513.973 426.02 514.993 424.92C516.013 423.8 516.523 422.1 516.523 419.82V408H519.433V419.94C519.433 422.96 518.653 425.27 517.093 426.87C515.533 428.45 513.353 429.24 510.553 429.24ZM533.64 408H542.49C544.71 408 546.68 408.44 548.4 409.32C550.12 410.2 551.45 411.44 552.39 413.04C553.35 414.62 553.83 416.44 553.83 418.5C553.83 420.56 553.35 422.39 552.39 423.99C551.45 425.57 550.12 426.8 548.4 427.68C546.68 428.56 544.71 429 542.49 429H533.64V408ZM542.31 426.39C544.01 426.39 545.5 426.06 546.78 425.4C548.08 424.74 549.08 423.82 549.78 422.64C550.48 421.44 550.83 420.06 550.83 418.5C550.83 416.94 550.48 415.57 549.78 414.39C549.08 413.19 548.08 412.26 546.78 411.6C545.5 410.94 544.01 410.61 542.31 410.61H536.64V426.39H542.31ZM567.905 429.24C565.785 429.24 563.875 428.78 562.175 427.86C560.475 426.92 559.135 425.63 558.155 423.99C557.195 422.35 556.715 420.52 556.715 418.5C556.715 416.48 557.195 414.65 558.155 413.01C559.135 411.37 560.475 410.09 562.175 409.17C563.875 408.23 565.785 407.76 567.905 407.76C570.005 407.76 571.905 408.23 573.605 409.17C575.305 410.09 576.635 411.37 577.595 413.01C578.555 414.63 579.035 416.46 579.035 418.5C579.035 420.54 578.555 422.38 577.595 424.02C576.635 425.64 575.305 426.92 573.605 427.86C571.905 428.78 570.005 429.24 567.905 429.24ZM567.905 426.57C569.445 426.57 570.825 426.22 572.045 425.52C573.285 424.82 574.255 423.86 574.955 422.64C575.675 421.4 576.035 420.02 576.035 418.5C576.035 416.98 575.675 415.61 574.955 414.39C574.255 413.15 573.285 412.18 572.045 411.48C570.825 410.78 569.445 410.43 567.905 410.43C566.365 410.43 564.965 410.78 563.705 411.48C562.465 412.18 561.485 413.15 560.765 414.39C560.065 415.61 559.715 416.98 559.715 418.5C559.715 420.02 560.065 421.4 560.765 422.64C561.485 423.86 562.465 424.82 563.705 425.52C564.965 426.22 566.365 426.57 567.905 426.57ZM583.621 408H586.621V429H583.621V408ZM610.968 408V429H608.508L595.908 413.34V429H592.908V408H595.368L607.968 423.66V408H610.968Z" fill="black"/>
<defs>
<linearGradient id="paint0_linear" x1="-1.02476e-05" y1="553.538" x2="1366" y2="553.538" gradientUnits="userSpaceOnUse">
<stop offset="0.28125" stop-color="#A969CE"/>
<stop offset="1" stop-color="#45AAD7"/>
</linearGradient>
</defs>
</svg>
